<svg width="20" height="20" viewBox="0 0 20 20" fill="none" xmlns="http://www.w3.org/2000/svg">
<g clip-path="url(#clip0_127_984)">
<path d="M20 10C20 12.6522 18.9464 15.1957 17.0711 17.0711C15.1957 18.9464 12.6522 20 10 20C7.34784 20 4.8043 18.9464 2.92893 17.0711C1.05357 15.1957 0 12.6522 0 10C0 7.34784 1.05357 4.8043 2.92893 2.92893C4.8043 1.05357 7.34784 0 10 0C12.6522 0 15.1957 1.05357 17.0711 2.92893C18.9464 4.8043 20 7.34784 20 10ZM10.625 5.625C10.625 5.45924 10.5592 5.30027 10.4419 5.18306C10.3247 5.06585 10.1658 5 10 5C9.83424 5 9.67527 5.06585 9.55806 5.18306C9.44085 5.30027 9.375 5.45924 9.375 5.625V9.375H5.625C5.45924 9.375 5.30027 9.44085 5.18306 9.55806C5.06585 9.67527 5 9.83424 5 10C5 10.1658 5.06585 10.3247 5.18306 10.4419C5.30027 10.5592 5.45924 10.625 5.625 10.625H9.375V14.375C9.375 14.5408 9.44085 14.6997 9.55806 14.8169C9.67527 14.9342 9.83424 15 10 15C10.1658 15 10.3247 14.9342 10.4419 14.8169C10.5592 14.6997 10.625 14.5408 10.625 14.375V10.625H14.375C14.5408 10.625 14.6997 10.5592 14.8169 10.4419C14.9342 10.3247 15 10.1658 15 10C15 9.83424 14.9342 9.67527 14.8169 9.55806C14.6997 9.44085 14.5408 9.375 14.375 9.375H10.625V5.625Z" fill="white"/>
</g>
<defs>
<clipPath id="clip0_127_984">
<rect width="20" height="20" fill="white"/>
</clipPath>
</defs>
</svg>
