<svg width="16" height="16" viewBox="0 0 16 16" fill="none" xmlns="http://www.w3.org/2000/svg">
<g clip-path="url(#clip0_127_1025)">
<path d="M0 2.2641C0 1.75256 0.210714 1.26197 0.585786 0.900252C0.960859 0.538537 1.46957 0.335327 2 0.335327L14 0.335327C14.5304 0.335327 15.0391 0.538537 15.4142 0.900252C15.7893 1.26197 16 1.75256 16 2.2641V9.9792C16 10.4907 15.7893 10.9813 15.4142 11.343C15.0391 11.7048 14.5304 11.908 14 11.908H4.414C4.14881 11.908 3.89449 12.0097 3.707 12.1905L0.854 14.9419C0.784131 15.0095 0.695051 15.0555 0.598036 15.0742C0.501021 15.0929 0.400432 15.0835 0.308999 15.047C0.217567 15.0106 0.139402 14.9488 0.0843973 14.8695C0.0293926 14.7902 2.10149e-05 14.6969 0 14.6015L0 2.2641ZM3.5 3.22849C3.36739 3.22849 3.24021 3.27929 3.14645 3.36972C3.05268 3.46015 3 3.5828 3 3.71068C3 3.83857 3.05268 3.96122 3.14645 4.05164C3.24021 4.14207 3.36739 4.19288 3.5 4.19288H12.5C12.6326 4.19288 12.7598 4.14207 12.8536 4.05164C12.9473 3.96122 13 3.83857 13 3.71068C13 3.5828 12.9473 3.46015 12.8536 3.36972C12.7598 3.27929 12.6326 3.22849 12.5 3.22849H3.5ZM3.5 5.63946C3.36739 5.63946 3.24021 5.69026 3.14645 5.78069C3.05268 5.87112 3 5.99376 3 6.12165C3 6.24954 3.05268 6.37218 3.14645 6.46261C3.24021 6.55304 3.36739 6.60384 3.5 6.60384H12.5C12.6326 6.60384 12.7598 6.55304 12.8536 6.46261C12.9473 6.37218 13 6.24954 13 6.12165C13 5.99376 12.9473 5.87112 12.8536 5.78069C12.7598 5.69026 12.6326 5.63946 12.5 5.63946H3.5ZM3.5 8.05042C3.36739 8.05042 3.24021 8.10123 3.14645 8.19165C3.05268 8.28208 3 8.40473 3 8.53262C3 8.6605 3.05268 8.78315 3.14645 8.87358C3.24021 8.96401 3.36739 9.01481 3.5 9.01481H8.5C8.63261 9.01481 8.75979 8.96401 8.85355 8.87358C8.94732 8.78315 9 8.6605 9 8.53262C9 8.40473 8.94732 8.28208 8.85355 8.19165C8.75979 8.10123 8.63261 8.05042 8.5 8.05042H3.5Z" fill="#222222"/>
</g>
<defs>
<clipPath id="clip0_127_1025">
<rect width="16" height="15.4302" fill="white" transform="translate(0 0.335327)"/>
</clipPath>
</defs>
</svg>
