<svg width="27" height="27" viewBox="0 0 27 27" fill="none" xmlns="http://www.w3.org/2000/svg">
<path d="M18.5625 2.53125V4.21875H24.4688C24.6925 4.21875 24.9071 4.30764 25.0654 4.46588C25.2236 4.62411 25.3125 4.83872 25.3125 5.0625C25.3125 5.28628 25.2236 5.50089 25.0654 5.65912C24.9071 5.81736 24.6925 5.90625 24.4688 5.90625H23.5609L22.1214 23.895C22.0536 24.7408 21.6696 25.5299 21.046 26.1053C20.4225 26.6808 19.605 27.0002 18.7566 27H8.24344C7.39495 27.0002 6.57753 26.6808 5.95396 26.1053C5.3304 25.5299 4.94644 24.7408 4.87856 23.895L3.43913 5.90625H2.53125C2.30747 5.90625 2.09286 5.81736 1.93463 5.65912C1.77639 5.50089 1.6875 5.28628 1.6875 5.0625C1.6875 4.83872 1.77639 4.62411 1.93463 4.46588C2.09286 4.30764 2.30747 4.21875 2.53125 4.21875H8.4375V2.53125C8.4375 1.85992 8.70418 1.21609 9.17889 0.741386C9.65359 0.266684 10.2974 0 10.9688 0L16.0312 0C16.7026 0 17.3464 0.266684 17.8211 0.741386C18.2958 1.21609 18.5625 1.85992 18.5625 2.53125ZM10.125 2.53125V4.21875H16.875V2.53125C16.875 2.30747 16.7861 2.09286 16.6279 1.93463C16.4696 1.77639 16.255 1.6875 16.0312 1.6875H10.9688C10.745 1.6875 10.5304 1.77639 10.3721 1.93463C10.2139 2.09286 10.125 2.30747 10.125 2.53125ZM7.59375 8.48644L8.4375 22.8302C8.442 22.9423 8.46883 23.0524 8.5164 23.154C8.56398 23.2557 8.63135 23.3468 8.71457 23.4221C8.7978 23.4973 8.8952 23.5553 9.00108 23.5924C9.10696 23.6296 9.21919 23.6453 9.3312 23.6386C9.44322 23.6318 9.55276 23.6028 9.65343 23.5532C9.75409 23.5036 9.84385 23.4345 9.91746 23.3498C9.99106 23.265 10.047 23.1665 10.0821 23.0599C10.1171 22.9533 10.1306 22.8408 10.1216 22.7289L9.27788 8.38519C9.27337 8.27306 9.24655 8.16296 9.19897 8.06133C9.15139 7.9597 9.08402 7.86858 9.0008 7.7933C8.91758 7.71803 8.82018 7.66011 8.7143 7.62294C8.60842 7.58577 8.49618 7.57009 8.38417 7.57682C8.27216 7.58356 8.16261 7.61257 8.06195 7.66216C7.96128 7.71175 7.87152 7.78092 7.79792 7.86562C7.72431 7.95032 7.66834 8.04886 7.63329 8.15546C7.59823 8.26206 7.58479 8.37458 7.59375 8.48644ZM18.6131 7.59544C18.3898 7.58253 18.1705 7.65882 18.0034 7.80755C17.8364 7.95628 17.7352 8.16526 17.7221 8.38856L16.8784 22.7323C16.8711 22.9523 16.9501 23.1664 17.0985 23.329C17.2469 23.4915 17.453 23.5896 17.6727 23.6024C17.8924 23.6152 18.1085 23.5416 18.2747 23.3973C18.4409 23.253 18.5442 23.0495 18.5625 22.8302L19.4062 8.48644C19.4192 8.26313 19.3429 8.04383 19.1941 7.87675C19.0454 7.70967 18.8364 7.60849 18.6131 7.59544ZM13.5 7.59375C13.2762 7.59375 13.0616 7.68264 12.9034 7.84088C12.7451 7.99911 12.6562 8.21372 12.6562 8.4375V22.7812C12.6562 23.005 12.7451 23.2196 12.9034 23.3779C13.0616 23.5361 13.2762 23.625 13.5 23.625C13.7238 23.625 13.9384 23.5361 14.0966 23.3779C14.2549 23.2196 14.3438 23.005 14.3438 22.7812V8.4375C14.3438 8.21372 14.2549 7.99911 14.0966 7.84088C13.9384 7.68264 13.7238 7.59375 13.5 7.59375Z" fill="#F64545"/>
</svg>
