<svg width="30" height="30" viewBox="0 0 30 30" fill="none" xmlns="http://www.w3.org/2000/svg">
<path d="M29.0662 3.63751C29.2414 3.81324 29.3398 4.05125 29.3398 4.29938C29.3398 4.54751 29.2414 4.78552 29.0662 4.96125L27.1106 6.91876L23.3606 3.16876L25.3162 1.21125C25.492 1.0355 25.7305 0.936768 25.979 0.936768C26.2276 0.936768 26.4661 1.0355 26.6419 1.21125L29.0662 3.63563V3.63751ZM25.785 8.2425L22.035 4.4925L9.26061 17.2688C9.15742 17.3719 9.07973 17.4978 9.03374 17.6363L7.52436 22.1625C7.49699 22.245 7.4931 22.3335 7.51314 22.4181C7.53317 22.5027 7.57634 22.5801 7.63781 22.6416C7.69929 22.703 7.77665 22.7462 7.86124 22.7662C7.94584 22.7863 8.03434 22.7824 8.11686 22.755L12.6431 21.2456C12.7814 21.2002 12.9072 21.1231 13.0106 21.0206L25.785 8.2425Z" fill="#3B82F6"/>
<path fill-rule="evenodd" clip-rule="evenodd" d="M1.875 25.3125C1.875 26.0584 2.17132 26.7738 2.69876 27.3012C3.22621 27.8287 3.94158 28.125 4.6875 28.125H25.3125C26.0584 28.125 26.7738 27.8287 27.3012 27.3012C27.8287 26.7738 28.125 26.0584 28.125 25.3125V14.0625C28.125 13.8139 28.0262 13.5754 27.8504 13.3996C27.6746 13.2238 27.4361 13.125 27.1875 13.125C26.9389 13.125 26.7004 13.2238 26.5246 13.3996C26.3488 13.5754 26.25 13.8139 26.25 14.0625V25.3125C26.25 25.5611 26.1512 25.7996 25.9754 25.9754C25.7996 26.1512 25.5611 26.25 25.3125 26.25H4.6875C4.43886 26.25 4.2004 26.1512 4.02459 25.9754C3.84877 25.7996 3.75 25.5611 3.75 25.3125V4.6875C3.75 4.43886 3.84877 4.2004 4.02459 4.02459C4.2004 3.84877 4.43886 3.75 4.6875 3.75H16.875C17.1236 3.75 17.3621 3.65123 17.5379 3.47541C17.7137 3.2996 17.8125 3.06114 17.8125 2.8125C17.8125 2.56386 17.7137 2.3254 17.5379 2.14959C17.3621 1.97377 17.1236 1.875 16.875 1.875H4.6875C3.94158 1.875 3.22621 2.17132 2.69876 2.69876C2.17132 3.22621 1.875 3.94158 1.875 4.6875V25.3125Z" fill="#3B82F6"/>
</svg>
