<svg width="38" height="37" viewBox="0 0 38 37" fill="none" xmlns="http://www.w3.org/2000/svg">
<g clip-path="url(#clip0_127_967)">
<path d="M0.116028 18.4999C0.116028 8.32149 8.52337 0.0704956 18.8941 0.0704956C29.2652 0.0704956 37.6723 8.32173 37.6723 18.4999C37.6723 28.6784 29.2649 36.9294 18.8941 36.9294C8.52312 36.9294 0.116028 28.6782 0.116028 18.4999ZM18.8941 35.0904C28.2301 35.0904 35.7985 27.6626 35.7985 18.4999C35.7985 9.3373 28.2301 1.9095 18.8941 1.9095C9.55816 1.9095 1.98983 9.3373 1.98983 18.4999C1.98983 27.6626 9.55816 35.0904 18.8941 35.0904Z" fill="#6A75ED"/>
<g clip-path="url(#clip1_127_967)">
<g clip-path="url(#clip2_127_967)">
<path d="M22.3978 13.9153C22.8598 13.9153 23.3113 13.7809 23.6954 13.529C24.0796 13.2771 24.3789 12.9191 24.5557 12.5002C24.7325 12.0814 24.7788 11.6204 24.6886 11.1758C24.5985 10.7311 24.376 10.3226 24.0494 10.002C23.7227 9.68145 23.3066 9.46313 22.8535 9.37468C22.4004 9.28622 21.9307 9.33162 21.504 9.50512C21.0772 9.67863 20.7124 9.97244 20.4557 10.3494C20.1991 10.7264 20.0621 11.1696 20.0621 11.623C20.0621 12.2309 20.3082 12.814 20.7462 13.2439C21.1842 13.6738 21.7783 13.9153 22.3978 13.9153ZM13.0549 16.2077C13.0549 15.7543 12.9179 15.3111 12.6613 14.9341C12.4046 14.5571 12.0398 14.2633 11.613 14.0898C11.1862 13.9163 10.7166 13.8709 10.2635 13.9594C9.81044 14.0478 9.39426 14.2661 9.0676 14.5867C8.74094 14.9073 8.51849 15.3158 8.42837 15.7605C8.33824 16.2051 8.3845 16.666 8.56128 17.0849C8.73807 17.5038 9.03744 17.8618 9.42155 18.1137C9.80565 18.3656 10.2572 18.5 10.7192 18.5C11.3387 18.5 11.9328 18.2585 12.3708 17.8286C12.8088 17.3987 13.0549 16.8156 13.0549 16.2077ZM27.0692 13.9153C26.6073 13.9153 26.1557 14.0498 25.7716 14.3017C25.3875 14.5535 25.0881 14.9116 24.9113 15.3304C24.7345 15.7493 24.6883 16.2102 24.7784 16.6549C24.8685 17.0996 25.091 17.508 25.4176 17.8286C25.7443 18.1492 26.1605 18.3675 26.6136 18.456C27.0666 18.5444 27.5363 18.499 27.9631 18.3255C28.3899 18.152 28.7547 17.8582 29.0113 17.4812C29.268 17.1043 29.4049 16.6611 29.4049 16.2077C29.4049 15.5997 29.1589 15.0166 28.7208 14.5867C28.2828 14.1568 27.6887 13.9153 27.0692 13.9153ZM15.3906 13.9153C15.8526 13.9153 16.3042 13.7809 16.6883 13.529C17.0724 13.2771 17.3718 12.9191 17.5486 12.5002C17.7253 12.0814 17.7716 11.6204 17.6815 11.1758C17.5914 10.7311 17.3689 10.3226 17.0422 10.002C16.7156 9.68145 16.2994 9.46313 15.8463 9.37468C15.3932 9.28622 14.9236 9.33162 14.4968 9.50512C14.07 9.67863 13.7052 9.97244 13.4486 10.3494C13.1919 10.7264 13.0549 11.1696 13.0549 11.623C13.0549 12.2309 13.301 12.814 13.739 13.2439C14.1771 13.6738 14.7712 13.9153 15.3906 13.9153ZM18.8942 15.0615C17.9477 15.0616 17.0236 15.3445 16.2449 15.8725C15.4662 16.4005 14.8696 17.1487 14.5346 18.0175C14.3464 18.5031 13.9983 18.913 13.5454 19.182C12.7645 19.6456 12.1398 20.3244 11.7491 21.1339C11.3585 21.9435 11.2192 22.8479 11.3487 23.7346C11.5083 24.827 12.064 25.8262 12.9137 26.549C13.7634 27.2718 14.8501 27.6696 15.9746 27.6694C16.6612 27.6692 17.3389 27.5159 17.9564 27.2213C18.2489 27.0834 18.5692 27.0119 18.8936 27.0119C19.2181 27.0119 19.5384 27.0834 19.8308 27.2213C20.4487 27.5161 21.1268 27.6693 21.8139 27.6694C22.9381 27.6693 24.0246 27.2714 24.874 26.5486C25.7235 25.8259 26.279 24.8268 26.4386 23.7346C26.5681 22.848 26.429 21.9437 26.0386 21.1341C25.6482 20.3246 25.0237 19.6457 24.243 19.182C23.7901 18.913 23.4419 18.5031 23.2538 18.0175C22.9188 17.1487 22.3223 16.4005 21.5435 15.8725C20.7648 15.3445 19.8407 15.0616 18.8942 15.0615Z" fill="#6A75ED"/>
</g>
</g>
</g>
<defs>
<clipPath id="clip0_127_967">
<rect width="37.5564" height="36.859" fill="white" transform="translate(0.116028 0.0704956)"/>
</clipPath>
<clipPath id="clip1_127_967">
<rect width="21.0215" height="18.3388" fill="white" transform="translate(8.38348 9.33063)"/>
</clipPath>
<clipPath id="clip2_127_967">
<rect width="21.0215" height="18.3388" fill="white" transform="translate(8.38348 9.33063)"/>
</clipPath>
</defs>
</svg>
