<svg width="98" height="21" viewBox="0 0 98 21" fill="none" xmlns="http://www.w3.org/2000/svg">
<g id="Frame" clip-path="url(#clip0_127_960)">
<path id="text-0" d="M14.6062 7.32811C14.6062 8.34457 14.3621 9.2975 13.8739 10.1869C13.3819 11.0763 12.6144 11.7933 11.5713 12.3378C10.5245 12.8823 9.20585 13.1546 7.61533 13.1546H4.36955V20.4513H0.485718V1.44717H7.61533C9.11338 1.44717 10.3895 1.70128 11.4437 2.20951C12.4979 2.71774 13.2894 3.41656 13.8184 4.30596C14.3436 5.19536 14.6062 6.20274 14.6062 7.32811ZM7.44888 10.078C8.52156 10.078 9.31682 9.83658 9.83466 9.35377C10.3525 8.87458 10.6114 8.19936 10.6114 7.32811C10.6114 5.4767 9.55725 4.551 7.44888 4.551H4.36955V10.078H7.44888ZM31.6396 12.5828C31.6396 13.1274 31.6026 13.6174 31.5287 14.0531H20.2933C20.3857 15.1421 20.7741 15.9952 21.4584 16.6124C22.1427 17.2295 22.9842 17.5381 23.9829 17.5381C25.4255 17.5381 26.4519 16.93 27.0622 15.7139H31.2512C30.8074 17.166 29.9566 18.3585 28.699 19.2915C27.4414 20.2281 25.8971 20.6964 24.0661 20.6964C22.5866 20.6964 21.2587 20.3733 20.0824 19.7271C18.9099 19.0845 17.9944 18.1734 17.336 16.9935C16.6813 15.8137 16.354 14.4524 16.354 12.9096C16.354 11.3486 16.6776 9.97816 17.3249 8.79834C17.9722 7.61853 18.8784 6.71097 20.0436 6.07569C21.2087 5.4404 22.5496 5.12276 24.0661 5.12276C25.5272 5.12276 26.8348 5.43132 27.9888 6.04846C29.1466 6.66559 30.0435 7.54048 30.6798 8.6731C31.3197 9.80936 31.6396 11.1126 31.6396 12.5828ZM20.321 11.4938H27.6171C27.5986 10.5136 27.2379 9.72768 26.5352 9.13595C25.8324 8.54786 24.9724 8.25381 23.9552 8.25381C22.9935 8.25381 22.1834 8.53878 21.525 9.10873C20.8703 9.6823 20.469 10.4773 20.321 11.4938ZM42.4311 8.49885H38.9856V15.7956C38.9856 16.3038 39.1114 16.6705 39.3629 16.8955C39.6144 17.1242 40.0361 17.2386 40.6279 17.2386H42.4311V20.4513H39.9899C36.7164 20.4513 35.0796 18.8903 35.0796 15.7683V8.49885H33.2486V5.36779H35.0796V1.63775H38.9856V5.36779H42.4311V8.49885ZM53.8829 5.14998C55.048 5.14998 56.0837 5.39865 56.99 5.89599C57.8962 6.39696 58.6045 7.13208 59.115 8.10134C59.6217 9.07424 59.8751 10.2414 59.8751 11.6027V20.4513H55.9913V12.12C55.9913 10.922 55.6861 9.99994 55.0758 9.35377C54.4655 8.71122 53.6332 8.38995 52.579 8.38995C51.5064 8.38995 50.6612 8.71122 50.0434 9.35377C49.422 9.99994 49.1113 10.922 49.1113 12.12V20.4513H45.2275V0.30365H49.1113V7.24643C49.6107 6.59299 50.2765 6.07932 51.1087 5.7054C51.941 5.33512 52.8657 5.14998 53.8829 5.14998ZM74.1621 5.36779H78.0736V20.4513H74.1621V18.5455C73.6627 19.1989 73.0117 19.7108 72.2091 20.081C71.4027 20.455 70.5279 20.6419 69.5847 20.6419C68.3825 20.6419 67.3191 20.3914 66.3944 19.8905C65.4697 19.3931 64.7447 18.658 64.2194 17.6851C63.6905 16.7158 63.426 15.5596 63.426 14.2164V5.36779H67.3099V13.6719C67.3099 14.8699 67.615 15.7901 68.2253 16.4327C68.8357 17.0789 69.6679 17.4019 70.7221 17.4019C71.7948 17.4019 72.6363 17.0789 73.2466 16.4327C73.8569 15.7901 74.1621 14.8699 74.1621 13.6719V5.36779ZM85.7858 7.57315C86.2852 6.84711 86.9732 6.2572 87.8498 5.80342C88.7301 5.34964 89.7344 5.12276 90.8625 5.12276C92.1757 5.12276 93.363 5.4404 94.4246 6.07569C95.4899 6.71097 96.3314 7.61308 96.9491 8.78201C97.5705 9.95457 97.8812 11.3123 97.8812 12.8551C97.8812 14.3979 97.5705 15.7629 96.9491 16.95C96.3314 18.1407 95.4899 19.0628 94.4246 19.7162C93.363 20.3696 92.1757 20.6964 90.8625 20.6964C89.7159 20.6964 88.7116 20.4731 87.8498 20.0266C86.9917 19.5837 86.3037 19.0083 85.7858 18.3004V20.4513H81.902V0.30365H85.7858V7.57315ZM93.9141 12.8551C93.9141 11.9476 93.7236 11.1616 93.3427 10.4973C92.9654 9.83658 92.466 9.3338 91.8446 8.98893C91.2269 8.64406 90.5574 8.47162 89.8361 8.47162C89.1333 8.47162 88.4712 8.64769 87.8498 8.99982C87.2321 9.35558 86.7327 9.86926 86.3518 10.5408C85.9745 11.2124 85.7858 12.002 85.7858 12.9096C85.7858 13.8171 85.9745 14.6067 86.3518 15.2783C86.7327 15.9499 87.2321 16.4617 87.8498 16.8138C88.4712 17.1696 89.1333 17.3475 89.8361 17.3475C90.5574 17.3475 91.2269 17.166 91.8446 16.803C92.466 16.4399 92.9654 15.9226 93.3427 15.251C93.7236 14.5795 93.9141 13.7808 93.9141 12.8551Z" fill="#6A75ED"/>
</g>
<defs>
<clipPath id="clip0_127_960">
<rect width="97.401" height="20.3927" fill="white" transform="translate(0.482971 0.30365)"/>
</clipPath>
</defs>
</svg>
