<svg width="561" height="470" viewBox="0 0 561 470" fill="none" xmlns="http://www.w3.org/2000/svg">
<g clip-path="url(#clip0_190_586)">
<path d="M200.962 81.6699C324.601 81.6699 424.83 172.382 424.83 284.281C424.83 360.697 378.087 427.232 309.067 461.745" stroke="#F4B3A2" stroke-miterlimit="10"/>
<path d="M209.974 464.942C322.969 464.942 414.57 382.039 414.57 279.773C414.57 177.506 322.969 94.6031 209.974 94.6031C96.9787 94.6031 5.37793 177.506 5.37793 279.773C5.37793 382.039 96.9787 464.942 209.974 464.942Z" fill="#FFCABC"/>
<path d="M459.98 462.44L459.997 462.44L458.026 467.836H438.727L437.538 462.829L437.627 462.828C445.069 463.537 452.567 463.407 459.98 462.44Z" fill="#624FD0"/>
<path d="M437.538 279.945L240.224 280.854L45.636 279.945L46.687 457.858H241.249H436.464L437.538 279.945Z" fill="#D5D9F3"/>
<path d="M226.153 278.326C151.632 267.043 77.2085 273.673 52.2292 276.511C49.6213 276.806 47.1715 277.911 45.2245 279.672C43.2775 281.433 41.9314 283.76 41.3756 286.326C37.1348 305.25 35.8406 324.716 37.5388 344.036L37.7853 344.036C43.4467 344.069 48.869 346.324 52.8852 350.316C56.9014 354.308 59.1904 359.718 59.2595 365.382L59.3943 375.305L225.365 375.475C228.625 375.48 231.758 374.218 234.106 371.956C236.454 369.694 237.831 366.608 237.949 363.349C238.967 334.638 237.651 305.054 236.781 290.029C236.619 287.155 235.474 284.424 233.54 282.293C231.605 280.163 228.997 278.762 226.153 278.326ZM253.597 278.2C329.757 266.885 406.073 273.671 431.392 276.525C434.01 276.829 436.468 277.945 438.42 279.717C440.372 281.49 441.719 283.83 442.273 286.408C446.578 305.295 447.891 324.741 446.163 344.036C437.789 344.053 432.727 346.855 427.299 348.263L423.903 375.305L254.612 375.476C251.351 375.476 248.217 374.21 245.869 371.944C243.522 369.679 242.145 366.591 242.028 363.33C240.949 334.661 242.092 305.081 242.869 290.001C243.021 287.098 244.173 284.336 246.128 282.185C248.083 280.034 250.722 278.626 253.597 278.2Z" fill="#A191FF"/>
<path d="M343.104 297.159C342.022 296.181 340.686 295.531 339.25 295.283C337.547 294.942 335.96 296.653 335.835 298.875L332.267 362.427C332.159 364.795 331.25 367.056 329.69 368.841C328.766 369.862 327.93 370.961 327.192 372.125C326.32 373.5 327.038 375.531 328.397 375.604C343.582 376.42 411.536 374.841 424.102 375.555C425.214 375.618 425.487 374.11 425.042 372.814C424.744 371.628 424.129 370.545 423.264 369.681C422.596 369.04 422.082 368.256 421.759 367.387C421.436 366.519 421.314 365.589 421.4 364.667C422.031 352.591 424.066 323.243 427.092 312.642C428.048 309.293 425.523 306.049 422.951 307.398C422.407 307.689 421.89 308.028 421.405 308.41C420.378 309.236 419.123 309.729 417.808 309.824C416.494 309.92 415.181 309.612 414.045 308.944C404.189 303.375 378.02 291.163 348.685 298.637C347.706 298.891 346.678 298.889 345.701 298.63C344.723 298.371 343.829 297.864 343.104 297.159ZM24.0252 462.44L24.0088 462.44L25.9361 467.836H44.8076L45.97 462.829L45.883 462.828C38.6063 463.537 31.2722 463.407 24.0252 462.44Z" fill="#624FD0"/>
<path d="M230.685 375.488H69.0639C64.8482 375.488 61.4307 378.907 61.4307 383.125V394.265C61.4307 398.483 64.8482 401.902 69.0639 401.902H230.685C234.901 401.902 238.318 398.483 238.318 394.265V383.125C238.318 378.907 234.901 375.488 230.685 375.488Z" fill="#B7C0FF"/>
<path d="M231.887 403.659H68.2864C64.7346 403.659 61.8552 406.539 61.8552 410.093V451.424C61.8552 454.977 64.7346 457.858 68.2864 457.858H231.887C235.439 457.858 238.318 454.977 238.318 451.424V410.093C238.318 406.539 235.439 403.659 231.887 403.659Z" fill="#B7C0FF"/>
<path d="M481.227 358.624C481.387 356.952 481.21 355.266 480.707 353.663C480.204 352.061 479.385 350.576 478.299 349.296C477.212 348.015 475.881 346.966 474.382 346.209C472.884 345.452 471.249 345.003 469.574 344.889C458.265 344.022 446.914 343.842 435.583 344.351C432.434 344.564 429.48 345.956 427.31 348.25C425.141 350.544 423.914 353.571 423.876 356.729L422.51 457.686C422.499 458.493 422.649 459.294 422.95 460.042C423.251 460.791 423.698 461.472 424.264 462.047C424.831 462.621 425.506 463.078 426.25 463.389C426.994 463.7 427.793 463.861 428.599 463.861H466.067C467.586 463.861 469.05 463.292 470.172 462.268C471.295 461.243 471.993 459.836 472.131 458.322L481.227 358.624Z" fill="#B7C0FF"/>
<path d="M248.547 401.901H413.888C418.15 401.901 421.605 398.444 421.605 394.181V383.207C421.605 378.943 418.15 375.487 413.888 375.487H248.547C244.285 375.487 240.83 378.943 240.83 383.207V394.181C240.83 398.444 244.285 401.901 248.547 401.901Z" fill="#B7C0FF"/>
<path d="M247.301 457.856H413.079C416.653 457.856 419.55 454.958 419.55 451.382V410.132C419.55 406.556 416.653 403.658 413.079 403.658H247.301C243.726 403.658 240.829 406.556 240.829 410.132V451.382C240.829 454.958 243.726 457.856 247.301 457.856Z" fill="#B7C0FF"/>
<path d="M129.315 292.589C127.173 292.88 125.054 293.317 122.971 293.894C120.917 294.458 118.919 295.211 117.004 296.143C115.112 297.088 113.36 298.289 111.796 299.713L110.672 300.838C110.307 301.224 110.01 301.667 109.669 302.079L109.156 302.704L108.735 303.39C108.46 303.853 108.17 304.313 107.867 304.775C108.52 302.65 109.63 300.695 111.119 299.045C112.648 297.409 114.456 296.057 116.459 295.054C118.457 294.086 120.575 293.386 122.756 292.972C124.914 292.541 127.121 292.413 129.315 292.589ZM122.826 328.137C122.333 326.032 121.697 323.963 120.925 321.943C120.169 319.951 119.23 318.033 118.121 316.213C117.001 314.419 115.64 312.788 114.075 311.366L112.848 310.354C112.43 310.026 111.961 309.773 111.518 309.472L110.848 309.02L110.126 308.666C109.639 308.436 109.153 308.191 108.665 307.933C110.841 308.382 112.892 309.302 114.675 310.628C116.449 311.996 117.965 313.668 119.153 315.567C120.306 317.466 121.203 319.508 121.822 321.641C122.456 323.75 122.793 325.936 122.826 328.137ZM80.386 296.72C82.5151 296.163 84.7111 295.905 86.9112 295.952C89.1314 295.979 91.3383 296.298 93.4749 296.903C95.6216 297.54 97.6377 298.555 99.4291 299.9C101.183 301.264 102.617 302.995 103.631 304.973C103.252 304.571 102.886 304.169 102.535 303.761L102 303.159L101.386 302.634C100.978 302.287 100.609 301.903 100.182 301.587L98.8789 300.675C97.0908 299.546 95.1558 298.67 93.1284 298.07C91.0796 297.487 88.9814 297.094 86.8604 296.898C84.7087 296.693 82.5456 296.633 80.386 296.72ZM92.978 330.589C92.6262 328.416 92.5774 326.205 92.8328 324.018C93.0702 321.809 93.5977 319.642 94.4017 317.571C95.24 315.494 96.4411 313.582 97.9489 311.926C99.4726 310.308 101.332 309.044 103.396 308.223C102.96 308.561 102.525 308.888 102.086 309.199L101.436 309.674L100.855 310.236C100.472 310.609 100.054 310.941 99.6996 311.336L98.6682 312.547C97.3756 314.221 96.3197 316.065 95.5304 318.027C94.7557 320.012 94.1661 322.065 93.7691 324.158C93.3609 326.282 93.0966 328.43 92.978 330.589ZM199.965 296.453C198.095 297.537 196.3 298.747 194.593 300.073C192.907 301.376 191.346 302.831 189.928 304.422C188.537 306.015 187.372 307.792 186.467 309.703L185.855 311.172C185.663 311.667 185.557 312.189 185.398 312.701L185.161 313.473L185.032 314.268C184.953 314.801 184.86 315.337 184.755 315.879C184.552 313.666 184.836 311.435 185.587 309.343C186.38 307.248 187.539 305.31 189.01 303.622C190.491 301.966 192.183 300.514 194.044 299.301C195.877 298.083 197.869 297.124 199.965 296.453ZM207.466 331.802C206.21 330.042 204.836 328.37 203.355 326.795C201.899 325.24 200.302 323.823 198.585 322.562C196.868 321.328 194.989 320.336 193.001 319.616L191.482 319.146C190.971 319.002 190.441 318.946 189.917 318.836L189.126 318.673L188.322 318.62C187.785 318.592 187.243 318.55 186.693 318.498C188.876 318.085 191.123 318.156 193.276 318.705C195.436 319.296 197.474 320.267 199.294 321.572C201.081 322.889 202.687 324.437 204.07 326.175C205.457 327.885 206.6 329.778 207.466 331.802ZM156.276 318.877C158.034 317.552 159.967 316.478 162.02 315.685C164.084 314.866 166.247 314.323 168.452 314.069C170.68 313.843 172.931 314.015 175.098 314.578C177.239 315.173 179.223 316.229 180.912 317.673C180.409 317.446 179.918 317.213 179.438 316.969L178.715 316.615L177.947 316.363C177.438 316.197 176.951 315.982 176.436 315.853L174.884 315.504C172.802 315.14 170.679 315.065 168.576 315.281C166.459 315.52 164.369 315.955 162.332 316.579C160.264 317.208 158.241 317.975 156.276 318.877ZM180.789 345.418C179.638 343.542 178.752 341.514 178.158 339.395C177.539 337.262 177.203 335.056 177.161 332.835C177.147 330.595 177.532 328.37 178.297 326.264C179.092 324.189 180.332 322.313 181.929 320.768C181.655 321.247 181.376 321.715 181.088 322.169L180.668 322.856L180.344 323.596C180.131 324.088 179.871 324.553 179.693 325.054L179.199 326.566C178.639 328.605 178.363 330.712 178.378 332.827C178.415 334.958 178.649 337.081 179.077 339.168C179.507 341.288 180.078 343.376 180.789 345.418ZM319.367 295.241C317.207 295.319 315.055 295.544 312.925 295.913C310.825 296.271 308.763 296.822 306.765 297.56C304.789 298.313 302.927 299.335 301.23 300.597L300.001 301.606C299.599 301.954 299.26 302.365 298.879 302.742L298.308 303.313L297.82 303.953C297.501 304.387 297.167 304.816 296.82 305.246C297.68 303.196 298.978 301.36 300.622 299.866C302.306 298.389 304.239 297.223 306.33 296.423C308.415 295.657 310.591 295.17 312.802 294.973C314.992 294.759 317.202 294.849 319.367 295.241ZM309.398 329.973C309.114 327.83 308.687 325.708 308.118 323.621C307.562 321.564 306.818 319.563 305.894 317.643C304.957 315.747 303.763 313.989 302.347 312.419L301.226 311.29C300.842 310.923 300.401 310.624 299.989 310.281L299.367 309.766L298.683 309.341C298.221 309.065 297.763 308.773 297.302 308.468C299.423 309.13 301.374 310.248 303.016 311.744C304.646 313.28 305.99 315.095 306.984 317.102C307.944 319.105 308.635 321.226 309.041 323.41C309.462 325.571 309.582 327.78 309.398 329.973ZM270.27 294.513C272.443 294.17 274.654 294.13 276.839 294.394C279.045 294.64 281.21 295.177 283.276 295.989C285.349 296.836 287.255 298.045 288.905 299.56C290.516 301.091 291.772 302.956 292.585 305.024C292.248 304.587 291.924 304.151 291.614 303.71L291.142 303.058L290.583 302.475C290.211 302.089 289.881 301.67 289.487 301.314L288.281 300.277C286.613 298.978 284.774 297.914 282.816 297.116C280.835 296.334 278.786 295.735 276.695 295.33C274.574 294.913 272.427 294.64 270.27 294.513ZM279.453 329.462C279.318 327.264 279.488 325.059 279.958 322.908C280.413 320.734 281.152 318.629 282.156 316.648C283.196 314.664 284.58 312.88 286.244 311.381C287.92 309.922 289.895 308.849 292.03 308.235C291.563 308.529 291.098 308.811 290.63 309.077L289.937 309.486L289.303 309.987C288.884 310.321 288.436 310.609 288.044 310.968L286.898 312.071C285.447 313.608 284.214 315.339 283.235 317.213C282.268 319.112 281.478 321.096 280.876 323.14C280.26 325.213 279.785 327.325 279.453 329.462Z" fill="#624FD0"/>
<path d="M138.095 308.443C139.22 307.655 140.53 307.172 141.897 307.04C142.316 307.024 142.734 307.097 143.123 307.254C143.512 307.411 143.864 307.648 144.155 307.95C144.446 308.252 144.671 308.612 144.813 309.007C144.956 309.402 145.014 309.822 144.983 310.241L144.983 364.155C144.976 366.205 145.735 368.183 147.111 369.701C147.936 370.599 148.68 371.568 149.334 372.598C149.512 372.863 149.619 373.171 149.643 373.49C149.668 373.809 149.61 374.129 149.475 374.419C149.34 374.71 149.132 374.96 148.871 375.146C148.611 375.332 148.307 375.448 147.989 375.482C133.361 375.451 67.8857 375.482 55.7787 375.488C54.7076 375.488 54.5261 374.2 55.0235 373.125C55.3937 372.11 56.0445 371.22 56.9003 370.56C57.5554 370.088 58.0855 369.463 58.4446 368.74C58.8036 368.016 58.9808 367.216 58.9607 366.409C59.0066 356.166 58.9272 326.655 56.5926 317.545C55.8553 314.668 58.4555 312.044 60.8534 313.307C61.3549 313.577 61.833 313.888 62.283 314.237C63.2754 314.993 64.4536 315.466 65.6929 315.607C66.9322 315.748 68.1866 315.552 69.3234 315.038C79.0905 310.797 104.883 301.714 132.654 309.428C133.576 309.692 134.546 309.741 135.489 309.57C136.432 309.399 137.324 309.014 138.095 308.443Z" fill="#624FD0"/>
<path d="M18.2078 463.861C16.6865 463.861 15.2202 463.291 14.0977 462.264C12.9751 461.236 12.2776 459.826 12.1423 458.31L3.24489 358.58C3.08945 356.912 3.26906 355.229 3.77316 353.631C4.27727 352.032 5.09568 350.551 6.18029 349.274C7.2649 347.997 8.5938 346.949 10.0889 346.194C11.5839 345.438 13.215 344.988 14.8861 344.872C25.7826 344.027 36.7205 343.847 47.6388 344.335C50.7864 344.55 53.7375 345.943 55.9041 348.238C58.0706 350.532 59.2936 353.559 59.3293 356.715L60.6647 457.688C60.6753 458.494 60.5257 459.295 60.2245 460.044C59.9233 460.792 59.4765 461.473 58.91 462.048C58.3435 462.622 57.6687 463.078 56.9246 463.389C56.1805 463.7 55.3821 463.86 54.5756 463.86L18.2078 463.861Z" fill="#B7C0FF"/>
<path d="M266.773 317.089C265.62 316.383 264.318 315.959 262.971 315.85C262.578 315.813 262.182 315.858 261.808 315.983C261.434 316.109 261.091 316.311 260.8 316.577C260.509 316.844 260.278 317.168 260.12 317.53C259.962 317.891 259.882 318.282 259.885 318.676L259.885 366.279C259.879 367.196 259.687 368.103 259.321 368.945C258.956 369.787 258.423 370.545 257.756 371.176C256.94 371.959 256.196 372.815 255.534 373.733C255.365 373.977 255.266 374.263 255.249 374.56C255.231 374.856 255.295 375.152 255.434 375.415C255.572 375.677 255.78 375.897 256.035 376.05C256.29 376.202 256.582 376.282 256.879 376.28C271.507 376.252 336.982 376.279 349.089 376.285C350.16 376.285 350.342 375.148 349.844 374.199C349.453 373.277 348.801 372.489 347.967 371.934C347.335 371.555 346.812 371.018 346.451 370.375C346.089 369.732 345.902 369.006 345.907 368.268C345.861 359.225 345.941 333.168 348.275 325.126C348.442 324.554 348.442 323.946 348.276 323.375C348.109 322.803 347.783 322.29 347.336 321.897C346.888 321.504 346.338 321.247 345.75 321.156C345.162 321.065 344.56 321.144 344.014 321.384C343.517 321.619 343.039 321.894 342.585 322.204C341.554 322.878 340.376 323.294 339.151 323.417C337.926 323.54 336.689 323.367 335.544 322.912C325.777 319.167 299.985 311.147 272.214 317.959C271.296 318.193 270.339 318.237 269.403 318.088C268.468 317.938 267.573 317.598 266.773 317.089Z" fill="#7C6CD8"/>
<path d="M387.77 164.428C387.77 167.396 386.591 170.242 384.493 172.341C382.395 174.44 379.55 175.619 376.584 175.619C373.617 175.619 370.772 174.44 368.674 172.341C366.576 170.242 365.397 167.396 365.397 164.428C365.397 158.247 370.406 149.695 376.584 149.695C382.761 149.695 387.77 158.247 387.77 164.428Z" fill="#FE8565"/>
<path d="M374.111 139.852H378.965C379.264 139.852 379.551 139.971 379.762 140.182C379.973 140.394 380.092 140.68 380.092 140.979V150.666H372.985V140.979C372.985 140.68 373.103 140.394 373.315 140.182C373.526 139.971 373.812 139.852 374.111 139.852Z" fill="#D7674A"/>
<path d="M376.583 0.563477V123.216" stroke="#847CB1" stroke-miterlimit="10"/>
<path d="M376.583 123.216L337.603 177.621L351.799 193.99H376.583V123.216Z" stroke="#847CB1" stroke-miterlimit="10"/>
<path d="M376.583 123.216L357.093 177.862L363.109 193.99" stroke="#7CA1B1" stroke-miterlimit="10"/>
<path d="M337.603 177.621H376.583" stroke="#847CB1" stroke-miterlimit="10"/>
<path d="M376.583 123.216L415.565 177.621L401.367 193.99H376.583V123.216Z" stroke="#847CB1" stroke-miterlimit="10"/>
<path d="M376.583 123.216L396.074 177.862L390.058 193.99" stroke="#7CA1B1" stroke-miterlimit="10"/>
<path d="M415.565 177.621H376.583" stroke="#847CB1" stroke-miterlimit="10"/>
<path d="M368.21 0.563477H384.957" stroke="#6657BD" stroke-miterlimit="10"/>
<path d="M200.959 159.047H117.998C117.401 159.047 116.828 158.809 116.405 158.386C115.982 157.964 115.745 157.39 115.745 156.793V66.9393C115.745 66.3415 115.982 65.7682 116.405 65.3455C116.828 64.9228 117.401 64.6853 117.998 64.6853H216.329C216.927 64.6853 217.5 64.9228 217.922 65.3455C218.345 65.7682 218.582 66.3415 218.582 66.9393V142.083L200.959 159.047ZM216.329 159.047C216.927 159.047 217.5 158.809 217.922 158.386C218.345 157.964 218.582 157.39 218.582 156.793L218.582 142.083L200.959 159.047H216.329Z" fill="#FF7855"/>
<path d="M133.368 75.2564C133.146 75.2564 132.926 75.2127 132.721 75.1278C132.516 75.0429 132.33 74.9183 132.173 74.7613C132.016 74.6044 131.892 74.418 131.807 74.2129C131.722 74.0078 131.678 73.7879 131.678 73.5659V57.3371C131.678 56.8888 131.856 56.4588 132.173 56.1417C132.49 55.8247 132.92 55.6466 133.368 55.6466C133.816 55.6466 134.246 55.8247 134.563 56.1417C134.88 56.4588 135.058 56.8888 135.058 57.3371V73.5659C135.058 73.7879 135.014 74.0078 134.929 74.2129C134.844 74.418 134.72 74.6044 134.563 74.7613C134.406 74.9183 134.22 75.0429 134.015 75.1278C133.81 75.2127 133.59 75.2564 133.368 75.2564ZM122.103 75.2564C121.881 75.2564 121.661 75.2127 121.456 75.1278C121.251 75.0429 121.065 74.9183 120.908 74.7613C120.751 74.6044 120.627 74.418 120.542 74.2129C120.457 74.0078 120.413 73.7879 120.413 73.5659V57.3371C120.413 56.8888 120.591 56.4588 120.908 56.1417C121.225 55.8247 121.655 55.6466 122.103 55.6466C122.551 55.6466 122.981 55.8247 123.298 56.1417C123.615 56.4588 123.793 56.8888 123.793 57.3371V73.5659C123.793 73.7879 123.749 74.0078 123.664 74.2129C123.579 74.418 123.455 74.6044 123.298 74.7613C123.141 74.9183 122.955 75.0429 122.75 75.1278C122.545 75.2127 122.325 75.2564 122.103 75.2564ZM144.633 75.2564C144.411 75.2564 144.192 75.2127 143.987 75.1278C143.781 75.0429 143.595 74.9183 143.438 74.7613C143.281 74.6044 143.157 74.418 143.072 74.2129C142.987 74.0078 142.943 73.7879 142.943 73.5659V57.3371C142.943 56.8888 143.121 56.4588 143.438 56.1417C143.755 55.8247 144.185 55.6466 144.633 55.6466C145.081 55.6466 145.511 55.8247 145.828 56.1417C146.145 56.4588 146.323 56.8888 146.323 57.3371V73.5659C146.323 73.7879 146.279 74.0078 146.194 74.2129C146.11 74.418 145.985 74.6044 145.828 74.7613C145.671 74.9183 145.485 75.0429 145.28 75.1278C145.075 75.2127 144.855 75.2564 144.633 75.2564ZM155.898 75.2564C155.676 75.2564 155.457 75.2127 155.252 75.1278C155.047 75.0429 154.86 74.9183 154.703 74.7613C154.546 74.6044 154.422 74.418 154.337 74.2129C154.252 74.0078 154.208 73.7879 154.209 73.5659V57.3371C154.209 56.8888 154.387 56.4588 154.703 56.1417C155.02 55.8247 155.45 55.6466 155.898 55.6466C156.346 55.6466 156.776 55.8247 157.093 56.1417C157.41 56.4588 157.588 56.8888 157.588 57.3371V73.5659C157.588 73.7879 157.544 74.0078 157.459 74.2129C157.375 74.418 157.25 74.6044 157.093 74.7613C156.936 74.9183 156.75 75.0429 156.545 75.1278C156.34 75.2127 156.12 75.2564 155.898 75.2564ZM167.163 75.2564C166.941 75.2564 166.722 75.2127 166.517 75.1278C166.312 75.0429 166.125 74.9183 165.968 74.7613C165.811 74.6044 165.687 74.418 165.602 74.2129C165.517 74.0078 165.474 73.7879 165.474 73.5659V57.3371C165.474 56.8888 165.652 56.4588 165.968 56.1417C166.285 55.8247 166.715 55.6466 167.163 55.6466C167.611 55.6466 168.041 55.8247 168.358 56.1417C168.675 56.4588 168.853 56.8888 168.853 57.3371V73.5659C168.853 73.7879 168.809 74.0078 168.725 74.2129C168.64 74.418 168.515 74.6044 168.358 74.7613C168.201 74.9183 168.015 75.0429 167.81 75.1278C167.605 75.2127 167.385 75.2564 167.163 75.2564ZM178.428 75.2564C178.206 75.2564 177.987 75.2127 177.782 75.1278C177.577 75.0429 177.39 74.9183 177.233 74.7613C177.077 74.6044 176.952 74.418 176.867 74.2129C176.782 74.0078 176.739 73.7879 176.739 73.5659V57.3371C176.739 56.8888 176.917 56.4588 177.234 56.1417C177.55 55.8247 177.98 55.6466 178.428 55.6466C178.877 55.6466 179.306 55.8247 179.623 56.1417C179.94 56.4588 180.118 56.8888 180.118 57.3371V73.5659C180.118 73.7879 180.074 74.0078 179.99 74.2129C179.905 74.418 179.78 74.6044 179.623 74.7613C179.466 74.9183 179.28 75.0429 179.075 75.1278C178.87 75.2127 178.65 75.2564 178.428 75.2564ZM189.693 75.2564C189.472 75.2564 189.252 75.2127 189.047 75.1278C188.842 75.0429 188.655 74.9183 188.499 74.7613C188.342 74.6044 188.217 74.418 188.132 74.2129C188.047 74.0078 188.004 73.7879 188.004 73.5659V57.3371C188.004 56.8888 188.182 56.4588 188.499 56.1417C188.815 55.8247 189.245 55.6466 189.693 55.6466C190.142 55.6466 190.571 55.8247 190.888 56.1417C191.205 56.4588 191.383 56.8888 191.383 57.3371V73.5659C191.383 73.7879 191.34 74.0078 191.255 74.2129C191.17 74.418 191.045 74.6044 190.888 74.7613C190.731 74.9183 190.545 75.0429 190.34 75.1278C190.135 75.2127 189.915 75.2564 189.693 75.2564ZM200.959 75.2564C200.737 75.2564 200.517 75.2127 200.312 75.1278C200.107 75.0429 199.921 74.9183 199.764 74.7613C199.607 74.6044 199.482 74.418 199.397 74.2129C199.312 74.0078 199.269 73.7879 199.269 73.5659V57.3371C199.269 56.8888 199.447 56.4588 199.764 56.1417C200.081 55.8247 200.51 55.6466 200.959 55.6466C201.407 55.6466 201.836 55.8247 202.153 56.1417C202.47 56.4588 202.648 56.8888 202.648 57.3371V73.5659C202.648 73.7879 202.605 74.0078 202.52 74.2129C202.435 74.418 202.31 74.6044 202.153 74.7613C201.997 74.9183 201.81 75.0429 201.605 75.1278C201.4 75.2127 201.18 75.2564 200.959 75.2564ZM212.224 75.2564C212.002 75.2564 211.782 75.2127 211.577 75.1278C211.372 75.0429 211.186 74.9183 211.029 74.7613C210.872 74.6044 210.747 74.418 210.662 74.2129C210.577 74.0078 210.534 73.7879 210.534 73.5659V57.3371C210.534 56.8888 210.712 56.4588 211.029 56.1417C211.346 55.8247 211.775 55.6466 212.224 55.6466C212.672 55.6466 213.102 55.8247 213.418 56.1417C213.735 56.4588 213.913 56.8888 213.913 57.3371V73.5659C213.913 73.7879 213.87 74.0078 213.785 74.2129C213.7 74.418 213.575 74.6044 213.418 74.7613C213.262 74.9183 213.075 75.0429 212.87 75.1278C212.665 75.2127 212.445 75.2564 212.224 75.2564Z" fill="#E6512A"/>
<path d="M218.504 142.002L200.881 142.164L201.037 159.128L218.504 142.002Z" fill="#E6512A"/>
<path d="M176.739 100.027C180.77 100.027 184.038 96.7578 184.038 92.7245C184.038 88.6911 180.77 85.4214 176.739 85.4214C172.707 85.4214 169.439 88.6911 169.439 92.7245C169.439 96.7578 172.707 100.027 176.739 100.027Z" fill="#E6512A"/>
<path d="M196.993 100.027C201.025 100.027 204.293 96.7578 204.293 92.7245C204.293 88.6911 201.025 85.4214 196.993 85.4214C192.962 85.4214 189.694 88.6911 189.694 92.7245C189.694 96.7578 192.962 100.027 196.993 100.027Z" fill="#E6512A"/>
<path d="M134.595 118.06C138.626 118.06 141.895 114.79 141.895 110.757C141.895 106.723 138.626 103.454 134.595 103.454C130.563 103.454 127.295 106.723 127.295 110.757C127.295 114.79 130.563 118.06 134.595 118.06Z" fill="#E6512A"/>
<path d="M155.898 118.06C159.93 118.06 163.198 114.79 163.198 110.757C163.198 106.723 159.93 103.454 155.898 103.454C151.867 103.454 148.599 106.723 148.599 110.757C148.599 114.79 151.867 118.06 155.898 118.06Z" fill="#E6512A"/>
<path d="M176.739 118.06C180.77 118.06 184.038 114.79 184.038 110.757C184.038 106.723 180.77 103.454 176.739 103.454C172.707 103.454 169.439 106.723 169.439 110.757C169.439 114.79 172.707 118.06 176.739 118.06Z" fill="#E6512A"/>
<path d="M196.993 118.06C201.025 118.06 204.293 114.79 204.293 110.757C204.293 106.723 201.025 103.454 196.993 103.454C192.962 103.454 189.694 106.723 189.694 110.757C189.694 114.79 192.962 118.06 196.993 118.06Z" fill="#E6512A"/>
<path d="M134.595 136.092C138.626 136.092 141.895 132.822 141.895 128.789C141.895 124.755 138.626 121.486 134.595 121.486C130.563 121.486 127.295 124.755 127.295 128.789C127.295 132.822 130.563 136.092 134.595 136.092Z" fill="#E6512A"/>
<path d="M155.898 136.092C159.93 136.092 163.198 132.822 163.198 128.789C163.198 124.755 159.93 121.486 155.898 121.486C151.867 121.486 148.599 124.755 148.599 128.789C148.599 132.822 151.867 136.092 155.898 136.092Z" fill="#E6512A"/>
<path d="M176.739 136.092C180.77 136.092 184.038 132.822 184.038 128.789C184.038 124.755 180.77 121.486 176.739 121.486C172.707 121.486 169.439 124.755 169.439 128.789C169.439 132.822 172.707 136.092 176.739 136.092Z" fill="#E6512A"/>
<path d="M196.993 136.092C201.025 136.092 204.293 132.822 204.293 128.789C204.293 124.755 201.025 121.486 196.993 121.486C192.962 121.486 189.694 124.755 189.694 128.789C189.694 132.822 192.962 136.092 196.993 136.092Z" fill="#E6512A"/>
<path d="M134.595 152.997C138.626 152.997 141.895 149.727 141.895 145.694C141.895 141.66 138.626 138.391 134.595 138.391C130.563 138.391 127.295 141.66 127.295 145.694C127.295 149.727 130.563 152.997 134.595 152.997Z" fill="#E6512A"/>
<path d="M151.656 121.645C153.497 123.737 155.127 126.006 156.523 128.418C157.219 129.615 157.9 130.822 158.507 132.071C159.141 133.319 159.686 134.61 160.141 135.933C159.196 134.901 158.324 133.804 157.532 132.651C156.726 131.519 155.992 130.344 155.274 129.16C153.825 126.78 152.613 124.263 151.656 121.645Z" fill="#AF4A2F"/>
<path d="M160.141 121.645C159.184 124.263 157.972 126.78 156.523 129.16C155.805 130.344 155.071 131.519 154.265 132.651C153.473 133.804 152.601 134.901 151.656 135.933C152.111 134.61 152.656 133.319 153.29 132.071C153.897 130.822 154.578 129.615 155.274 128.418C156.67 126.006 158.3 123.737 160.141 121.645Z" fill="#AF4A2F"/>
<path d="M324.733 450.047C324.733 450.047 340.191 430.627 289.504 379.917L294.177 355.881C296.143 353.992 297.331 351.435 297.508 348.714L297.772 344.672C297.772 344.672 297.592 342.515 294.357 342.694C294.357 342.694 289.504 330.466 273.327 335.501L265.059 331.186C265.059 331.186 260.745 330.646 261.284 335.142C261.284 335.142 257.096 338.509 262.366 346.507C263.208 347.739 264.219 348.847 265.371 349.796C267.22 351.373 270.329 355.298 268.251 362.876C267.341 366.192 266.402 369.501 265.646 372.855L263.082 384.233C263.082 384.233 251.938 395.921 264.16 417.68C264.16 417.68 258.133 455.323 252.381 461.437C252.381 461.437 242.289 463.759 244.965 467.712C245.033 467.807 245.123 467.884 245.227 467.936C245.331 467.988 245.446 468.015 245.563 468.013H254.536C254.921 468.013 255.299 467.914 255.635 467.726C255.971 467.537 256.252 467.266 256.453 466.937L263.98 452.565C263.98 452.565 266.677 451.306 266.497 445.912L271.709 428.289C271.709 428.289 270.272 457.239 266.138 460.116C262.004 462.993 259.196 465.872 259.915 468.03H269.627C270.097 468.03 270.555 467.882 270.936 467.608C271.318 467.335 271.604 466.948 271.755 466.503L273.866 458.319C273.866 458.319 275.664 459.398 276.203 451.486L281.056 434.763L283.392 436.021C283.392 436.021 282.719 439.556 291.302 451.022C292.342 452.378 293.022 453.975 293.282 455.664C293.877 459.892 291.856 465.98 272.826 461.653L271.208 467.587C278.833 467.353 286.464 467.511 294.072 468.06C294.072 468.06 283.392 460.117 284.651 468.03L312.647 468.119C312.995 468.106 313.336 468.012 313.642 467.845C313.947 467.678 314.21 467.442 314.409 467.155L318.262 460.477C318.262 460.477 357.086 474.143 365.714 454.004C365.714 454.004 366.792 447.89 356.367 454.723C345.942 461.556 331.563 457.24 324.733 450.047Z" fill="#DB8872"/>
<path d="M282.224 340.627C281.965 340.092 281.678 339.571 281.366 339.065C281.091 338.596 280.725 338.186 280.29 337.86C280.082 337.716 279.847 337.616 279.599 337.566C279.351 337.516 279.095 337.517 278.848 337.569C278.276 337.682 277.72 337.863 277.191 338.109C277.399 337.877 277.62 337.657 277.855 337.453C278.114 337.259 278.402 337.107 278.708 337.002C279.036 336.877 279.389 336.833 279.738 336.874C280.086 336.916 280.419 337.041 280.709 337.24C281.244 337.635 281.652 338.177 281.884 338.8C282.122 339.379 282.237 340.001 282.224 340.627Z" fill="#010004"/>
<path d="M290.343 374.972L290.253 379.917C290.253 379.917 269.043 384.683 262.932 384.233L260.056 385.672C260.056 385.672 258.708 384.862 258.079 381.086C258.079 381.086 261.764 378.838 263.112 379.378L290.343 374.972Z" fill="#342E54"/>
<path d="M263.172 342.065C262.763 341.655 262.396 341.206 262.076 340.724C261.404 339.76 260.923 338.677 260.659 337.532C260.553 336.942 260.533 336.339 260.6 335.743L261.061 335.842C260.869 336.398 260.594 336.922 260.246 337.396C260.075 337.64 259.859 337.851 259.611 338.017C259.492 338.106 259.355 338.169 259.209 338.2C259.064 338.231 258.913 338.231 258.768 338.199C259.369 338.187 259.706 337.671 259.984 337.222C260.242 336.738 260.452 336.228 260.609 335.701L261.21 333.879L261.07 335.8C261.03 336.904 261.23 338.003 261.656 339.022C262.079 340.075 262.586 341.093 263.172 342.065ZM289.243 340.964C288.801 341.844 288.419 342.754 288.101 343.687C287.765 344.608 287.496 345.551 287.296 346.511C286.859 348.411 286.752 350.372 286.98 352.308C287.094 353.27 287.315 354.216 287.637 355.129C287.8 355.585 287.99 356.031 288.208 356.464C288.36 356.898 288.638 357.277 289.006 357.553C289.375 357.821 289.823 357.96 290.279 357.949C290.752 357.907 291.213 357.781 291.642 357.577C292.534 357.167 293.361 356.628 294.096 355.979C293.421 356.715 292.63 357.335 291.755 357.816C291.303 358.062 290.809 358.222 290.298 358.289C289.76 358.329 289.224 358.191 288.772 357.896C288.325 357.602 287.982 357.174 287.792 356.674C287.558 356.229 287.353 355.769 287.176 355.299C286.825 354.355 286.579 353.374 286.445 352.376C286.229 350.378 286.381 348.358 286.894 346.415C287.384 344.485 288.177 342.645 289.243 340.964ZM272.159 423.254C272.13 424.943 272.029 426.626 271.928 428.309L271.919 428.469L271.788 428.494C271.47 428.531 271.148 428.5 270.843 428.403C270.538 428.306 270.257 428.146 270.019 427.933C269.559 427.576 269.139 427.172 268.765 426.726C268.032 425.85 267.392 424.901 266.855 423.893C266.294 422.909 265.797 421.89 265.366 420.843C264.901 419.813 264.534 418.743 264.16 417.68L265.668 420.7C265.914 421.205 266.18 421.699 266.457 422.186C266.718 422.682 266.987 423.171 267.276 423.649C267.832 424.61 268.463 425.526 269.162 426.388C269.503 426.813 269.888 427.201 270.31 427.544C270.675 427.871 271.141 428.061 271.63 428.084L271.49 428.27C271.69 426.596 271.888 424.922 272.159 423.254ZM283.572 424.783C282.909 428.154 282.125 431.494 281.304 434.825L281.154 434.526C283.242 435.36 285.279 436.306 287.318 437.253C288.327 437.748 289.331 438.255 290.319 438.794C291.329 439.297 292.264 439.937 293.098 440.697C292.196 440.036 291.219 439.483 290.188 439.049C289.181 438.563 288.157 438.109 287.128 437.666C285.09 436.735 283.01 435.895 280.958 435L280.753 434.91L280.807 434.7C281.665 431.378 282.558 428.065 283.572 424.783ZM314.308 432.74C312.527 431.517 310.615 430.497 308.609 429.698C306.634 428.857 304.511 428.422 302.366 428.417C301.312 428.431 300.273 428.669 299.318 429.115C298.362 429.561 297.513 430.205 296.824 431.003C295.506 432.679 294.619 434.653 294.242 436.752C294.152 437.267 294.002 437.832 293.962 438.305C293.947 438.83 293.975 439.355 294.046 439.875C294.186 440.935 294.39 441.986 294.655 443.023C295.206 445.105 295.873 447.154 296.653 449.162C298.195 453.19 300.04 457.102 301.819 461.046L301.886 461.194L301.729 461.215L295.166 462.096L301.693 460.979L301.603 461.147C299.738 457.249 297.774 453.382 296.21 449.332C295.409 447.312 294.723 445.249 294.153 443.152C293.873 442.095 293.659 441.022 293.511 439.938C293.44 439.386 293.414 438.829 293.435 438.272C293.496 437.669 293.64 437.186 293.739 436.637C294.147 434.462 295.084 432.42 296.467 430.693C297.2 429.849 298.106 429.173 299.123 428.711C300.143 428.268 301.243 428.039 302.355 428.037C304.546 428.076 306.706 428.568 308.698 429.483C310.683 430.357 312.565 431.449 314.308 432.74ZM319.431 457.24C319.414 457.825 319.302 458.402 319.1 458.95C318.906 459.502 318.623 460.018 318.262 460.477C318.278 459.893 318.39 459.315 318.593 458.767C318.788 458.216 319.071 457.701 319.431 457.24ZM288.066 467.881C287.836 467.779 287.636 467.621 287.483 467.422C287.33 467.223 287.229 466.988 287.19 466.74C287.154 466.49 287.17 466.235 287.236 465.991C287.304 465.751 287.435 465.535 287.616 465.364C287.618 465.793 287.653 466.222 287.72 466.646C287.795 467.068 287.91 467.482 288.066 467.881ZM260.992 467.881C260.84 467.775 260.712 467.635 260.619 467.474C260.526 467.312 260.469 467.132 260.453 466.946C260.443 466.751 260.477 466.555 260.553 466.375C260.593 466.283 260.654 466.201 260.73 466.135C260.806 466.069 260.896 466.021 260.992 465.993C260.941 466.293 260.94 466.6 260.99 466.9C261.021 467.226 261.022 467.555 260.992 467.881ZM247.349 467.91C247.159 467.848 246.993 467.728 246.874 467.568C246.755 467.408 246.688 467.214 246.683 467.014C246.685 466.806 246.75 466.603 246.87 466.432C246.986 466.271 247.156 466.158 247.349 466.112C247.262 466.4 247.219 466.699 247.222 467C247.236 467.307 247.278 467.612 247.349 467.91ZM276.203 448.396C276.275 449.482 276.273 450.565 276.255 451.646C276.217 452.726 276.186 453.806 276.089 454.883L276.087 454.907L276.085 454.914C275.951 455.583 275.696 456.222 275.332 456.799C275.181 457.108 274.947 457.369 274.655 457.552C274.364 457.736 274.028 457.834 273.684 457.837C273.991 457.763 274.275 457.614 274.51 457.403C274.746 457.193 274.926 456.927 275.034 456.63C275.293 456.053 275.483 455.447 275.601 454.825L275.598 454.856C275.621 453.775 275.709 452.698 275.791 451.62C275.893 450.543 276.011 449.468 276.203 448.396Z" fill="#BC6A55"/>
<path d="M279.396 339.75C279.869 339.75 280.252 339.225 280.252 338.577C280.252 337.93 279.869 337.405 279.396 337.405C278.923 337.405 278.54 337.93 278.54 338.577C278.54 339.225 278.923 339.75 279.396 339.75Z" fill="#010004"/>
<path d="M264.052 333.568C265.057 333.568 265.872 332.924 265.872 332.13C265.872 331.336 265.057 330.692 264.052 330.692C263.046 330.692 262.231 331.336 262.231 332.13C262.231 332.924 263.046 333.568 264.052 333.568Z" fill="#342E54"/>
<path d="M150.504 444.516C150.504 444.516 149.677 454.783 175.673 464.605C175.925 464.692 176.145 464.851 176.306 465.063C176.467 465.274 176.562 465.529 176.579 465.794C176.611 467.145 174.534 469.044 159.478 465.612C152.216 463.959 144.784 463.163 137.337 463.24C136.761 463.262 136.187 463.157 135.657 462.932C135.126 462.707 134.652 462.367 134.268 461.937C133.885 461.507 133.601 460.997 133.437 460.444C133.274 459.891 133.234 459.309 133.322 458.74L137.643 444.764L150.504 444.516Z" fill="#F9957A"/>
<path d="M132.725 461.125C132.801 460.846 132.984 460.608 133.235 460.464C133.485 460.319 133.782 460.278 134.062 460.351C141.816 462.418 149.689 464.01 157.637 465.119C158.465 463.06 159.771 461.228 161.447 459.775C161.881 459.411 162.41 459.18 162.971 459.109C163.532 459.038 164.102 459.13 164.612 459.374L170.534 462.202C170.618 462.242 170.687 462.306 170.736 462.384C170.784 462.463 170.809 462.554 170.807 462.646C170.806 462.738 170.777 462.828 170.726 462.905C170.675 462.982 170.603 463.042 170.518 463.079C170.009 463.372 169.581 463.788 169.273 464.288C168.964 464.788 168.785 465.357 168.751 465.943C171.094 466.056 173.441 465.834 175.721 465.284C175.992 465.184 176.29 465.194 176.553 465.313C176.816 465.431 177.022 465.648 177.127 465.916C177.177 466.05 177.201 466.192 177.196 466.335C177.192 466.477 177.159 466.618 177.099 466.747C177.04 466.877 176.955 466.994 176.851 467.091C176.746 467.188 176.623 467.263 176.489 467.312C174.333 467.914 172.099 468.186 169.862 468.119C164.684 468.219 156.036 467.596 142.454 464.595L142.527 468.377L133.252 467.841C133.252 467.841 132.607 461.57 132.725 461.125Z" fill="#31247C"/>
<path d="M216.281 421.641C216.281 421.641 218.482 432.156 247.383 434.307C247.66 434.32 247.927 434.414 248.15 434.578C248.374 434.742 248.544 434.969 248.64 435.229C249.069 436.571 247.552 439.084 231.48 440.095C223.728 440.585 216.059 441.982 208.632 444.257C208.063 444.45 207.458 444.514 206.861 444.445C206.264 444.376 205.69 444.176 205.179 443.859C204.668 443.543 204.234 443.116 203.907 442.612C203.581 442.107 203.37 441.536 203.289 440.941L200.913 426.501L216.281 421.641Z" fill="#F9957A"/>
<path d="M203.395 443.503C203.39 443.202 203.503 442.91 203.71 442.691C203.918 442.472 204.204 442.344 204.505 442.334C212.871 442.113 221.215 441.382 229.492 440.145C229.714 437.842 230.48 435.624 231.728 433.675C232.054 433.183 232.515 432.796 233.056 432.559C233.596 432.322 234.193 432.246 234.776 432.339L241.534 433.421C241.629 433.436 241.717 433.479 241.789 433.543C241.86 433.608 241.912 433.691 241.938 433.784C241.963 433.877 241.961 433.975 241.933 434.067C241.904 434.159 241.85 434.241 241.776 434.303C241.354 434.746 241.048 435.288 240.887 435.879C240.726 436.47 240.714 437.092 240.853 437.689C243.23 437.111 245.512 436.196 247.631 434.972C247.872 434.793 248.174 434.715 248.472 434.755C248.77 434.796 249.039 434.952 249.223 435.19C249.313 435.309 249.379 435.444 249.416 435.588C249.454 435.732 249.462 435.882 249.441 436.03C249.42 436.177 249.37 436.319 249.294 436.446C249.217 436.574 249.117 436.686 248.997 436.774C247.018 438.013 244.864 438.944 242.606 439.538C237.456 441.166 228.621 443.096 214.15 444.102L215.339 447.864L205.903 450.066C205.903 450.066 203.409 443.983 203.395 443.503Z" fill="#31247C"/>
<path d="M129.484 237.661C131.979 244.377 140.332 256.573 143.967 261.655C144.158 261.921 144.273 262.234 144.302 262.56C144.33 262.886 144.271 263.214 144.13 263.51C143.989 263.805 143.771 264.057 143.499 264.24C143.227 264.423 142.912 264.529 142.585 264.548C140.478 264.677 137.402 264.783 133.488 264.696C125.584 264.52 113.217 263.112 112.022 266.559C111.464 268.167 110.183 278.341 110.183 278.341L130.336 283.17C134.029 283.4 148.026 280.666 157.428 277.871C163.439 276.085 165.423 270.958 163.852 265.202C163.132 262.677 161.818 260.36 160.019 258.447L136.281 231.823C136.281 231.823 128.866 236.992 129.484 237.661Z" fill="#F9957A"/>
<path d="M112.755 284.589C113.23 278.897 112.672 270.905 108.04 260.97C104.334 257.988 100.04 255.825 95.4384 254.623C97.0262 253.975 98.3305 253.52 99.5013 252.9C107.279 248.783 113.209 235.225 108.447 226.876C104.297 219.6 93.5286 218.917 90.9088 218.751C87.5855 218.404 84.2287 218.914 81.1586 220.234C78.0884 221.553 75.4073 223.637 73.3708 226.287C70.9022 229.502 69.3559 233.329 68.898 237.356C68.3279 241.344 68.5162 241.627 66.3085 246.158C63.8642 251.174 61.7179 253.371 61.2471 257.964C60.949 260.872 62.6817 264.761 64.1446 267.539C61.652 272.907 60.5411 278.813 60.9129 284.721C61.3203 293.552 65.2541 302.788 66.2924 305.225C68.6107 310.668 70.8401 314.011 70.2094 319.066C69.6493 323.557 67.4321 324.592 66.0413 328.606C63.4517 336.079 66.1604 346.857 72.637 351.624C83.2576 359.442 103.071 350.404 107.108 339.128C109.828 331.532 103.34 328.641 103.587 315.874C103.854 302.058 111.583 298.618 112.755 284.589Z" fill="#090716"/>
<path d="M131.321 286.033L127.084 263.424C127.084 263.424 107.31 262.729 107.31 252.478L90.4328 250.628L92.429 258.868C92.6988 259.982 92.6035 261.153 92.1573 262.208C91.7111 263.263 90.9376 264.146 89.9511 264.728L80.3364 270.396C75.9282 272.995 72.3519 276.797 70.0266 281.357L55.2914 310.25L40.5934 332.746L39.8938 333.429C39.4655 333.85 38.9099 334.117 38.3138 334.189C34.1288 334.809 30.0502 336.007 26.1946 337.749C22.0474 339.508 21.6326 340.986 22.5492 342.666C23.0576 343.552 23.837 344.251 24.7723 344.66C25.7077 345.069 26.7498 345.167 27.7449 344.939C31.5094 344.14 37.8972 343.357 37.8972 343.357L34.7968 346.338C30.794 350.317 36.6053 347.74 43.4212 343.542C49.3671 339.879 63.7148 323.228 67.497 316.306C70.4286 311.333 80.61 296.307 82.2382 296.455C82.2382 296.455 88.5406 311.292 80.5957 322.42C80.9193 322.345 90.4609 330.984 102.137 332.902C112.451 334.595 125.994 331.325 125.994 331.325C125.994 331.325 136.618 301.577 131.321 286.033Z" fill="#F9957A"/>
<path d="M41.7156 342.576C41.1361 342.892 40.5129 343.12 39.8664 343.253C39.2207 343.399 38.5548 343.434 37.8973 343.357C38.4997 343.103 39.1252 342.907 39.7651 342.773C40.4056 342.633 41.06 342.567 41.7156 342.576ZM33.4082 341.617C31.8817 342.126 30.3365 342.503 28.8145 342.966C28.0456 343.167 27.2862 343.4 26.5284 343.635C25.7698 343.87 25.0177 344.12 24.2658 344.406C24.9341 343.954 25.6499 343.576 26.4004 343.28C27.1437 342.967 27.9142 342.735 28.6803 342.494C30.2249 342.053 31.808 341.759 33.4082 341.617ZM32.4183 339.459C30.7127 339.89 29.0049 340.23 27.3363 340.715C26.4971 340.928 25.6705 341.188 24.8602 341.493C24.0375 341.771 23.2591 342.166 22.5493 342.666C23.1533 342.01 23.8913 341.491 24.7131 341.145C25.5193 340.779 26.353 340.477 27.2065 340.242C28.9074 339.779 30.6565 339.516 32.4183 339.459ZM31.0163 337.673C29.594 338.056 28.1747 338.353 26.7782 338.75C25.3673 339.1 24.0026 339.554 22.6126 340.04C23.8517 339.232 25.2169 338.636 26.6519 338.277C28.0758 337.894 29.542 337.691 31.0163 337.673Z" fill="#DD795E"/>
<path d="M226.756 414.841L198.288 355.072C196.703 351.749 194.436 348.797 191.633 346.41C188.83 344.024 185.556 342.255 182.023 341.221C170.732 337.908 152.862 333.263 137.03 331.769C137.03 331.769 98.9773 332.251 80.6737 322.613C80.6737 322.613 58.0349 347.174 84.0454 367.895C84.0454 367.895 93.1375 378.237 121.081 373.47C124.412 372.901 130.061 375.667 132.657 377.833C137.444 381.827 143.98 389.355 143.051 400.197C143.051 400.197 142.837 412.367 132.415 445.037C132.072 446.106 132.149 447.267 132.631 448.281C133.113 449.296 133.964 450.088 135.009 450.497C143.185 453.734 151.924 455.305 160.715 455.12C161.699 455.071 162.638 454.693 163.381 454.046C164.124 453.398 164.628 452.52 164.811 451.551L177.731 392.969L195.44 429.288C195.884 430.204 196.632 430.937 197.556 431.364C198.481 431.791 199.524 431.884 200.509 431.628C207.309 429.854 221.996 425.421 226.393 419.266C226.842 418.628 227.113 417.881 227.177 417.103C227.24 416.325 227.095 415.544 226.756 414.841Z" fill="#F7633C"/>
<path d="M178.617 388.15C178.554 385.394 178.231 382.651 177.651 379.957C177.126 377.277 176.21 374.689 174.932 372.276C173.758 369.846 171.849 367.848 169.476 366.565C167.103 365.282 164.386 364.779 161.711 365.128C158.987 365.144 156.273 365.473 153.624 366.108C150.98 366.778 148.416 367.728 145.973 368.941C143.507 370.132 141.139 371.551 138.721 372.897C136.31 374.265 133.784 375.418 131.172 376.344C136.276 374.171 140.657 370.785 145.581 368.168C150.536 365.506 156.06 364.077 161.685 364.003C164.548 363.769 167.418 364.346 169.969 365.667C172.448 367.123 174.44 369.282 175.693 371.87C178.027 376.962 179.033 382.563 178.617 388.15Z" fill="#B04023"/>
<path d="M150.689 372.97C149.571 375.511 148.354 377.941 147.289 380.425C146.755 381.656 146.292 382.915 145.901 384.198C145.456 385.466 145.36 386.831 145.622 388.15C144.918 386.892 144.71 385.416 145.042 384.012C145.289 382.627 145.696 381.275 146.254 379.983C147.351 377.425 148.848 375.058 150.689 372.97ZM144.177 374.416C143.855 375.333 143.58 376.266 143.355 377.211C142.921 379.049 142.729 380.936 142.782 382.824C142.791 383.78 142.914 384.73 142.973 385.74C142.456 384.871 142.096 383.918 141.909 382.924C141.707 381.924 141.658 380.898 141.766 379.883C141.869 378.868 142.124 377.874 142.524 376.936C142.899 375.993 143.462 375.136 144.177 374.416ZM188.491 354.177L184.955 356.894C183.787 357.795 182.618 358.687 181.502 359.635C180.368 360.554 179.283 361.532 178.253 362.567C177.204 363.596 176.275 364.743 175.486 365.983C175.9 364.517 176.618 363.155 177.594 361.985C178.539 360.802 179.609 359.723 180.784 358.768C181.942 357.809 183.172 356.941 184.463 356.169C185.743 355.385 187.091 354.718 188.491 354.177ZM187.046 348.876L184.187 351.456C183.252 352.317 182.311 353.162 181.439 354.067C180.547 354.946 179.71 355.88 178.933 356.863C178.151 357.86 177.48 358.938 176.931 360.08C177.072 358.763 177.508 357.495 178.206 356.37C178.886 355.241 179.704 354.201 180.64 353.274C181.563 352.349 182.568 351.511 183.643 350.77C184.704 350.014 185.845 349.379 187.046 348.876ZM160.873 441.212C157.837 442.122 154.714 442.708 151.555 442.958C149.975 443.099 148.388 443.143 146.802 443.091C145.208 443.064 143.623 442.837 142.085 442.417C143.673 442.43 145.229 442.303 146.788 442.212C148.345 442.101 149.903 441.976 151.46 441.836C154.581 441.589 157.697 441.284 160.873 441.212ZM154.9 446.995C151.922 447.423 148.899 447.439 145.916 447.043C144.416 446.862 142.935 446.548 141.49 446.105C140.027 445.692 138.652 445.013 137.434 444.103C138.822 444.61 140.251 444.994 141.706 445.252C143.145 445.531 144.599 445.748 146.06 445.926C147.519 446.128 148.988 446.279 150.46 446.448C151.933 446.602 153.41 446.794 154.9 446.995ZM213.057 400.92C211.776 403.365 210.25 405.673 208.505 407.811C207.637 408.885 206.715 409.914 205.743 410.893C204.783 411.905 203.676 412.767 202.46 413.449C203.415 412.445 204.231 411.367 205.088 410.307L207.628 407.103C209.327 404.947 211.139 402.883 213.057 400.92ZM213.057 410.558C211.454 412.919 209.564 415.071 207.431 416.965C205.347 418.935 202.93 420.518 200.292 421.641C202.509 419.842 204.591 418.01 206.678 416.128C208.773 414.26 210.83 412.351 213.057 410.558ZM97.6955 331.528C94.0554 332.602 90.4311 333.569 86.8827 334.747C85.1094 335.314 83.3677 335.976 81.6652 336.73C79.9302 337.423 78.3417 338.437 76.9834 339.72C78.0531 338.106 79.5307 336.804 81.266 335.947C82.9439 335.024 84.7064 334.264 86.5294 333.677C90.1435 332.483 93.8965 331.761 97.6955 331.528ZM87.3394 331.528C85.6565 332.218 83.9236 332.779 82.1558 333.207L79.5541 333.86C78.6778 334.06 77.8183 334.327 76.9834 334.66C77.6008 333.943 78.3815 333.384 79.2598 333.032C80.1044 332.656 80.9781 332.35 81.8724 332.117C83.653 331.637 85.4976 331.439 87.3394 331.528Z" fill="#B04023"/>
<path d="M107.388 252.671C107.388 252.671 102.954 257.854 95.6365 254.376C95.6365 254.376 99.7135 262.522 109.509 257.814C108.786 257.176 108.219 256.381 107.852 255.489C107.484 254.597 107.325 253.633 107.388 252.671Z" fill="#DD795E"/>
<path d="M108.343 232.287C103.994 222.87 95.2543 217.647 88.8219 220.62C83.8571 222.915 81.7216 229.422 83.0034 236.602C82.7303 236.502 82.4387 236.464 82.1491 236.489C81.8595 236.515 81.5791 236.604 81.3278 236.75C79.9889 237.642 80.3443 240.529 82.1216 243.197C83.6221 245.449 85.6538 246.82 87.0567 246.657C91.739 253.739 99.0139 257.289 104.57 254.721C111.002 251.748 112.691 241.704 108.343 232.287Z" fill="#F9957A"/>
<path d="M100.016 233.412C100.078 234.623 100.474 235.793 101.159 236.793C101.795 237.817 102.555 238.758 103.422 239.595L104.107 240.203C104.389 240.431 104.574 240.759 104.623 241.119C104.64 241.457 104.583 241.794 104.456 242.108C104.33 242.421 104.137 242.704 103.891 242.935C103.416 243.354 102.852 243.659 102.243 243.83C101.633 244.001 100.993 244.032 100.369 243.921C100.965 243.938 101.558 243.838 102.114 243.625C102.67 243.412 103.179 243.092 103.612 242.682C103.993 242.276 104.198 241.736 104.181 241.18C104.147 240.687 103.542 240.397 103.091 239.956C102.207 239.078 101.449 238.081 100.841 236.993C100.184 235.921 99.8939 234.664 100.016 233.412Z" fill="#DD795E"/>
<path d="M90.0402 238.362C89.9563 238.362 89.8738 238.341 89.8006 238.3C89.7274 238.259 89.666 238.199 89.6222 238.128C89.5784 238.056 89.5538 237.974 89.5506 237.89C89.5475 237.807 89.5659 237.723 89.6042 237.648C89.6904 237.479 91.7644 233.51 95.7945 233.275C95.8591 233.271 95.9239 233.279 95.9851 233.3C96.0464 233.321 96.1029 233.354 96.1514 233.397C96.2 233.44 96.2395 233.492 96.2678 233.55C96.2962 233.608 96.3127 233.672 96.3164 233.736C96.3202 233.801 96.3111 233.866 96.2898 233.927C96.2684 233.988 96.2351 234.044 96.1919 234.092C96.1487 234.14 96.0964 234.18 96.0379 234.207C95.9795 234.235 95.9162 234.251 95.8515 234.255C92.3758 234.457 90.496 238.059 90.4773 238.095C90.4361 238.176 90.3736 238.243 90.2964 238.29C90.2193 238.338 90.1307 238.362 90.0402 238.362ZM101.738 231.871C101.633 231.871 101.531 231.837 101.446 231.775C101.362 231.712 101.299 231.624 101.269 231.524C101.238 231.423 101.24 231.316 101.275 231.216C101.31 231.117 101.376 231.032 101.463 230.973C103.174 229.885 105.189 229.375 107.211 229.519C107.34 229.533 107.458 229.598 107.539 229.699C107.62 229.8 107.658 229.93 107.644 230.059C107.63 230.188 107.566 230.306 107.465 230.388C107.364 230.469 107.235 230.508 107.106 230.494C105.315 230.38 103.533 230.832 102.012 231.787C101.931 231.842 101.836 231.871 101.738 231.871ZM91.5414 240.212C92.0456 239.008 92.9556 238.019 94.1132 237.417C94.7138 237.132 95.3771 237.003 96.0408 237.044C96.6885 237.095 97.3124 237.311 97.8534 237.67C97.2638 237.493 96.65 237.409 96.0345 237.422C95.4395 237.439 94.8557 237.588 94.3257 237.859C93.7825 238.122 93.2801 238.463 92.8343 238.87C92.369 239.283 91.9367 239.732 91.5414 240.212Z" fill="#090716"/>
<path d="M95.6371 239.421C96.2443 239.421 96.7365 238.929 96.7365 238.321C96.7365 237.714 96.2443 237.221 95.6371 237.221C95.0299 237.221 94.5376 237.714 94.5376 238.321C94.5376 238.929 95.0299 239.421 95.6371 239.421Z" fill="#090716"/>
<path d="M102.215 236.581C102.719 235.377 103.63 234.388 104.787 233.786C105.388 233.501 106.051 233.372 106.715 233.413C107.362 233.464 107.986 233.68 108.527 234.039C107.938 233.862 107.324 233.778 106.708 233.791C106.113 233.808 105.53 233.957 105 234.228C104.456 234.492 103.954 234.832 103.508 235.24C103.043 235.652 102.611 236.101 102.215 236.581Z" fill="#090716"/>
<path d="M106.311 235.79C106.918 235.79 107.41 235.298 107.41 234.69C107.41 234.083 106.918 233.59 106.311 233.59C105.703 233.59 105.211 234.083 105.211 234.69C105.211 235.298 105.703 235.79 106.311 235.79Z" fill="#090716"/>
<path d="M81.9631 240.212C81.9106 239.76 81.9834 239.303 82.1737 238.89C82.2809 238.647 82.4734 238.451 82.7148 238.341C82.9563 238.23 83.2299 238.212 83.4839 238.289C83.9199 238.462 84.3043 238.743 84.5999 239.107C84.8876 239.442 85.129 239.813 85.3177 240.212C84.9628 239.945 84.6689 239.635 84.3372 239.378C84.052 239.107 83.7146 238.896 83.3455 238.76C83.1891 238.699 83.0157 238.698 82.8588 238.758C82.7019 238.818 82.5727 238.933 82.496 239.083C82.2699 239.434 82.0907 239.814 81.9631 240.212Z" fill="#DD795E"/>
<path d="M84.479 243.038C84.4776 242.637 84.4297 242.237 84.3362 241.847C84.2541 241.462 84.1412 241.085 83.9985 240.718C83.763 239.962 83.3963 239.256 83.1125 238.468C83.4157 238.755 83.6827 239.078 83.9076 239.43C84.1272 239.787 84.3125 240.164 84.4609 240.557C84.7859 241.351 84.7924 242.24 84.479 243.038Z" fill="#DD795E"/>
<path d="M84.5589 247.998C85.7646 247.998 86.7421 247.02 86.7421 245.814C86.7421 244.607 85.7646 243.629 84.5589 243.629C83.3532 243.629 82.3757 244.607 82.3757 245.814C82.3757 247.02 83.3532 247.998 84.5589 247.998Z" fill="#FF7855"/>
<path d="M98.1624 248.426C98.1624 248.426 105.005 250.752 107.41 245.813L98.1624 248.426Z" fill="#DD4922"/>
<path d="M125.994 331.325C118.679 332.455 111.239 332.524 103.904 331.528C92.511 329.658 79.5606 322.613 80.6736 322.613C88.6187 311.485 82.3162 296.647 82.3162 296.647C80.688 296.5 80.4133 270.588 80.4133 270.588L90.0308 264.921C91.0171 264.34 91.7903 263.456 92.2363 262.401C92.6823 261.346 92.7774 260.176 92.5076 259.063C92.5076 259.063 107.839 255.545 108.599 256.688C109.162 257.507 109.851 258.232 110.639 258.837C110.801 258.965 110.973 259.087 111.144 259.21C116.877 263.253 127.084 263.424 127.084 263.424L131.399 286.225C136.696 301.769 125.994 331.325 125.994 331.325Z" fill="#9D4C36"/>
<path d="M94.5365 260.26C95.1144 260.966 95.5213 261.795 95.7256 262.684C95.9679 263.564 96.0012 264.488 95.8228 265.383C95.2429 264.679 94.8357 263.848 94.6337 262.959C94.3938 262.079 94.3605 261.155 94.5365 260.26ZM96.8759 259.279C97.4538 259.985 97.8608 260.814 98.065 261.703C98.3073 262.583 98.3406 263.507 98.1622 264.402C97.5823 263.697 97.1751 262.867 96.9731 261.978C96.7332 261.098 96.6999 260.174 96.8759 259.279ZM99.0825 259.279C99.6604 259.985 100.067 260.814 100.272 261.703C100.514 262.583 100.547 263.507 100.369 264.402C99.7889 263.697 99.3817 262.867 99.1797 261.978C98.9398 261.098 98.9065 260.174 99.0825 259.279ZM101.286 258.04C101.864 258.746 102.271 259.576 102.476 260.465C102.718 261.344 102.751 262.268 102.573 263.163C101.993 262.459 101.586 261.629 101.384 260.739C101.144 259.859 101.11 258.935 101.286 258.04ZM103.648 258.04C104.226 258.746 104.633 259.576 104.837 260.465C105.079 261.344 105.113 262.268 104.934 263.163C104.354 262.459 103.947 261.629 103.745 260.739C103.505 259.859 103.472 258.935 103.648 258.04ZM105.757 256.983C106.335 257.689 106.742 258.518 106.946 259.407C107.188 260.287 107.221 261.211 107.043 262.106C106.463 261.401 106.056 260.571 105.854 259.682C105.614 258.802 105.581 257.878 105.757 256.983ZM107.945 258.04C108.523 258.746 108.93 259.576 109.134 260.465C109.376 261.344 109.41 262.268 109.231 263.163C108.651 262.459 108.244 261.629 108.042 260.739C107.802 259.859 107.769 258.935 107.945 258.04ZM85.6824 296C91.4972 301.417 102.333 299.061 104.448 295.058L85.6824 296ZM110.835 293.392C110.835 293.392 122.571 301.063 128.927 288.169L110.835 293.392ZM109.153 318.986C111.499 317.838 113.881 316.91 116.227 315.913C117.4 315.42 118.564 314.914 119.7 314.364C120.862 313.864 121.912 313.137 122.789 312.226C122.232 313.446 121.306 314.461 120.141 315.125C119.038 315.835 117.874 316.446 116.664 316.951C114.265 317.97 111.738 318.655 109.153 318.986ZM110.389 321.234C112.222 320.782 114.009 320.528 115.783 320.199C117.572 319.904 119.342 319.499 121.081 318.986C120.392 319.646 119.583 320.167 118.697 320.52C117.822 320.878 116.912 321.142 115.981 321.307C115.057 321.468 114.121 321.548 113.183 321.545C112.243 321.557 111.304 321.453 110.389 321.234Z" fill="#31247C"/>
<path d="M94.4987 220.988C93.0969 221.696 92.5441 223.03 91.4384 225.699C89.3025 230.853 88.8512 237.353 86.9067 238.946C86.6942 239.14 86.427 239.264 86.1416 239.299C85.2522 239.377 84.6426 238.345 83.3167 237.003C82.3146 235.989 81.9523 235.86 81.3746 235.296C80.3219 234.166 79.5497 232.805 79.1203 231.322C78.6909 229.839 78.6164 228.276 78.9028 226.758C79.531 224.194 81.1085 221.963 83.3167 220.517C87.8177 217.188 93.1002 217.918 94.4398 218.103C102.489 219.215 107.362 225.775 107.152 226.052C106.905 226.377 99.1707 218.629 94.4987 220.988Z" fill="#090716"/>
<path d="M90.8755 229.095C90.7612 229.095 90.6504 229.055 90.5625 228.982C86.6341 225.726 85.2265 225.36 85.2128 225.356C85.0874 225.327 84.9787 225.249 84.9097 225.141C84.8407 225.032 84.817 224.9 84.8437 224.774C84.8561 224.712 84.8808 224.653 84.9161 224.6C84.9515 224.548 84.9969 224.502 85.0497 224.467C85.1026 224.432 85.1618 224.408 85.224 224.396C85.2863 224.384 85.3503 224.384 85.4124 224.397C85.5675 224.426 87.0472 224.793 91.1885 228.227C91.2661 228.291 91.322 228.378 91.3485 228.475C91.375 228.573 91.3708 228.676 91.3366 228.771C91.3024 228.866 91.2398 228.948 91.1573 229.006C91.0748 229.064 90.9764 229.095 90.8755 229.095ZM90.1175 232.822C90.0032 232.822 89.8925 232.782 89.8046 232.708C85.8761 229.453 84.468 229.086 84.4542 229.083C84.3289 229.053 84.2201 228.976 84.1512 228.867C84.0822 228.758 84.0585 228.627 84.0851 228.501C84.1113 228.376 84.1857 228.266 84.2921 228.195C84.3986 228.125 84.5285 228.099 84.6539 228.123C84.809 228.153 86.2886 228.52 90.4305 231.953C90.5081 232.018 90.564 232.105 90.5905 232.202C90.617 232.299 90.6128 232.402 90.5786 232.497C90.5444 232.592 90.4818 232.674 90.3993 232.732C90.3168 232.79 90.2184 232.822 90.1175 232.822Z" fill="#FF7855"/>
<path d="M117.004 236.563L104.971 240.385C104.741 240.458 104.495 240.462 104.263 240.397C104.031 240.332 103.823 240.2 103.665 240.018L102.543 238.726C102.385 238.544 102.177 238.412 101.945 238.347C101.713 238.282 101.467 238.286 101.237 238.359C101.007 238.432 100.804 238.57 100.652 238.758C100.5 238.945 100.406 239.172 100.382 239.412L100.211 241.115C100.187 241.355 100.093 241.583 99.9409 241.77C99.7889 241.957 99.5856 242.096 99.3558 242.169L87.3232 245.991C87.1686 246.04 87.0059 246.058 86.8443 246.045C86.6827 246.031 86.5254 245.985 86.3814 245.911C86.2374 245.836 86.1095 245.734 86.005 245.61C85.9006 245.486 85.8215 245.342 85.7724 245.187L82.7259 235.588C82.6268 235.276 82.6557 234.937 82.8064 234.646C82.957 234.355 83.217 234.136 83.5292 234.036L96.1794 230.018C96.4451 229.934 96.7316 229.942 96.9921 230.041L97.828 230.359C98.1036 230.464 98.4077 230.467 98.6852 230.367C98.9627 230.267 99.1953 230.071 99.3409 229.814L99.656 229.259C99.8096 228.988 100.06 228.786 100.356 228.691L113.21 224.609C113.522 224.509 113.861 224.538 114.151 224.689C114.442 224.84 114.661 225.1 114.76 225.412L117.807 235.012C117.856 235.166 117.874 235.329 117.86 235.491C117.847 235.653 117.801 235.81 117.727 235.954C117.652 236.098 117.55 236.226 117.426 236.331C117.302 236.435 117.158 236.514 117.004 236.563Z" fill="#A191FF"/>
<path d="M94.8918 232.574L85.7397 235.481C85.3495 235.605 85.1336 236.022 85.2575 236.412L87.3384 242.969C87.4623 243.359 87.879 243.575 88.2692 243.451L97.4213 240.544C97.8115 240.42 98.0273 240.003 97.9035 239.613L95.8226 233.056C95.6987 232.666 95.282 232.45 94.8918 232.574Z" fill="#D5D9F3"/>
<path d="M112.293 227.046L103.141 229.953C102.751 230.077 102.535 230.494 102.659 230.884L104.74 237.441C104.863 237.831 105.28 238.047 105.67 237.923L114.822 235.016C115.213 234.892 115.428 234.475 115.305 234.085L113.224 227.528C113.1 227.138 112.683 226.922 112.293 227.046Z" fill="#D5D9F3"/>
<path d="M114.219 223.668C114.043 224.674 114.196 225.71 114.654 226.623C115.111 227.536 115.85 228.277 116.761 228.739C120.166 230.533 125.577 234.017 125.577 234.017L121.288 234.326C115.667 234.824 121.782 236.561 129.706 237.693C136.433 238.655 139.62 237.343 140.43 236.925C138.395 234.075 136.096 231.424 133.563 229.008C132.311 227.751 130.866 226.702 129.283 225.903C126.353 224.42 123.302 223.188 120.164 222.219C115.852 220.918 114.588 221.789 114.219 223.668Z" fill="#F9957A"/>
<path d="M129.012 235.86C128.364 235.732 127.74 235.509 127.158 235.197C126.568 234.896 126.033 234.497 125.577 234.018C126.203 234.207 126.809 234.457 127.386 234.764C127.968 235.066 128.514 235.433 129.012 235.86ZM123.238 229.808C121.739 229.222 120.31 228.524 118.844 227.906C118.124 227.569 117.392 227.262 116.659 226.958C115.925 226.654 115.187 226.364 114.426 226.104C115.229 226.183 116.021 226.351 116.787 226.603C117.559 226.838 118.3 227.152 119.042 227.458C120.512 228.106 121.917 228.893 123.238 229.808ZM123.856 227.516C122.27 226.755 120.739 225.924 119.147 225.23C118.365 224.857 117.563 224.528 116.745 224.244C115.935 223.931 115.084 223.737 114.219 223.668C115.103 223.55 116.001 223.623 116.854 223.883C117.708 224.117 118.542 224.418 119.349 224.783C120.952 225.515 122.465 226.432 123.856 227.516ZM123.92 225.246C122.582 224.63 121.301 223.95 119.973 223.362C118.665 222.728 117.325 222.205 115.946 221.689C117.415 221.86 118.846 222.275 120.179 222.917C121.518 223.534 122.775 224.316 123.92 225.246Z" fill="#DD795E"/>
<path d="M465.249 364.355C467.966 366.466 472.752 371.482 472.881 375.244C472.881 375.244 481.678 365.674 479.177 357.491C477.695 354.433 475.237 351.956 472.191 350.451C472.191 350.451 475.641 348.515 479.263 353.267C479.263 353.267 477.969 340.42 460.075 345.084C460.075 345.084 453.089 330.829 439.247 344.292C439.247 344.292 448.561 343.104 446.75 346.008C443.379 346.956 440.223 348.55 437.458 350.701C436.53 351.522 435.776 352.521 435.239 353.638C434.703 354.755 434.394 355.967 434.332 357.205C434.116 360.681 433.786 367.559 434.461 367.654C435.366 367.786 441.317 362.375 445.327 362.771C449.338 363.167 436.143 375.046 436.143 375.046C436.143 375.046 438.859 385.341 440.024 385.209C441.188 385.077 445.414 382.129 443.689 385.209L440.714 387.585L444.594 392.953L454.34 388.641C454.34 388.641 450.028 376.85 453.995 380.061C453.995 380.061 457.013 384.065 457.056 387.057C457.056 387.057 470.1 381.381 468.806 377.488C467.398 373.875 465.751 370.359 463.876 366.965C463.562 366.391 463.378 365.755 463.337 365.102C463.294 364.112 463.553 363.035 465.249 364.355ZM463.646 350.686C464.868 349.843 467.872 350.385 469.001 353.135C470.208 356.076 470.157 359.354 468.936 360.197C467.714 361.04 464.243 359.94 463.373 357.095C462.41 353.927 462.425 351.529 463.646 350.686Z" fill="#9D4C36"/>
<path d="M460.075 345.084C458.684 346.667 457.397 348.34 456.225 350.091C455.116 351.872 454.201 353.767 453.496 355.743C452.786 357.714 452.213 359.737 451.7 361.782C451.179 363.828 450.682 365.872 450.267 367.937C449.828 369.996 449.445 372.068 449.13 374.149C448.807 376.23 448.621 378.323 448.365 380.428C447.869 384.655 446.609 388.756 444.646 392.532C445.483 390.596 446.173 388.6 446.712 386.561C447.27 384.535 447.638 382.462 447.81 380.368C448.12 376.142 448.704 371.94 449.558 367.789C449.996 365.715 450.519 363.658 451.061 361.616C451.572 359.554 452.212 357.526 452.978 355.544C453.755 353.559 454.745 351.665 455.931 349.895C457.188 348.188 458.574 346.58 460.075 345.084Z" fill="#31247C"/>
<path d="M454.995 351.791C453.572 352.091 452.172 352.494 450.808 352.997C449.447 353.492 448.101 354.029 446.796 354.657C444.149 355.839 441.637 357.294 439.075 358.723C439.634 358.248 440.218 357.805 440.798 357.351C441.404 356.939 442.001 356.509 442.622 356.116C443.87 355.335 445.163 354.628 446.493 353.998C447.838 353.392 449.224 352.88 450.639 352.467C452.054 352.047 453.519 351.819 454.995 351.791ZM449.099 372.205C448.097 372.982 447.054 373.618 446.035 374.282C445.524 374.61 445.025 374.949 444.539 375.298C444.037 375.631 443.614 376.071 443.301 376.586C443.369 375.93 443.675 375.322 444.161 374.876C444.609 374.422 445.105 374.019 445.641 373.673C446.698 372.983 447.869 372.486 449.099 372.205ZM451.097 362.803C452.278 363.909 453.38 365.098 454.393 366.36C455.415 367.619 456.362 368.938 457.23 370.307C458.094 371.688 458.835 373.142 459.445 374.652C460.074 376.159 460.419 377.769 460.463 379.402C460.148 377.832 459.633 376.31 458.932 374.872C458.257 373.426 457.483 372.029 456.615 370.691C455.802 369.315 454.875 368.007 453.951 366.696C453.024 365.387 452.067 364.096 451.097 362.803Z" fill="#31247C"/>
<path d="M439.161 404.04L442.783 407.384C442.783 407.384 446.319 403.644 446.707 406.24C446.707 406.24 446.147 408.836 445.457 409.056C445.457 409.056 454.124 416.029 455.87 410.287C456.572 407.719 457.459 405.205 458.522 402.764C458.522 402.764 460.463 403.82 458.781 412.135C458.781 412.135 465.489 410.163 467.979 406.546C468.266 406.119 468.418 405.616 468.418 405.102C468.442 403.034 468.714 397.213 471.07 399.398C471.07 399.398 472.429 400.058 471.394 404.48C471.394 404.48 476.853 398.323 474.26 394.539C473.747 393.83 473.005 393.32 472.16 393.097C471.314 392.874 470.417 392.951 469.622 393.315C468.106 393.973 465.293 395.185 460.075 397.418C453.356 400.356 446.346 402.575 439.161 404.04Z" fill="#9D4C36"/>
<path d="M451.097 409.144C451.433 407.241 452.033 405.395 452.88 403.66C453.298 402.779 453.812 401.946 454.411 401.177C454.717 400.786 455.071 400.436 455.464 400.133C455.853 399.817 456.339 399.643 456.841 399.64C455.985 400.011 455.287 400.673 454.871 401.509C454.379 402.306 453.932 403.131 453.532 403.978C452.699 405.672 451.957 407.417 451.097 409.144ZM462.877 406.416C462.778 404.712 462.933 403.003 463.337 401.345C463.538 400.509 463.821 399.694 464.183 398.913C464.516 398.097 465.121 397.421 465.896 397C465.336 397.606 464.928 398.336 464.706 399.131C464.453 399.913 464.236 400.71 464.041 401.516C463.649 403.132 463.323 404.769 462.877 406.416ZM523.16 346.473C523.16 346.473 514.449 347.724 522.211 353.883C522.211 353.883 524.194 355.555 530.662 357.491C530.662 357.491 534.716 339.855 523.16 346.473Z" fill="#31247C"/>
<path d="M530.663 357.491C530.501 356.913 530.396 356.335 530.251 355.766C530.069 355.207 529.938 354.638 529.74 354.092C529.367 353.002 528.878 351.954 528.283 350.967C527.677 349.995 526.938 349.113 526.087 348.345C525.223 347.562 524.233 346.929 523.16 346.473C524.355 346.673 525.483 347.164 526.443 347.904C527.419 348.64 528.252 349.548 528.899 350.584C529.524 351.625 529.99 352.753 530.281 353.932C530.439 354.513 530.498 355.116 530.599 355.703C530.628 356.303 530.664 356.898 530.663 357.491Z" fill="#251A66"/>
<path d="M512.105 310.842C512.105 310.842 521.762 304.687 524.654 318.354C524.654 318.354 519.643 314.038 519.576 316.535C521.2 318.436 522.435 320.638 523.212 323.015C523.662 324.786 523.412 326.662 522.513 328.254C521.286 330.489 518.806 334.879 518.37 334.68C517.786 334.414 516.396 328.771 513.885 327.476C511.374 326.181 514.503 338.617 514.503 338.617C514.503 338.617 508.897 343.957 508.264 343.428C507.631 342.899 506.295 339.448 506.11 342.02L506.934 344.636L502.562 346.473L498.514 340.055C498.514 340.055 505.64 334.4 502.058 334.867C502.058 334.867 498.724 336.19 497.534 338.029C497.534 338.029 492.078 329.497 494.355 327.58C496.578 325.89 498.909 324.346 501.333 322.958C501.821 322.68 502.23 322.281 502.52 321.799C502.841 321.245 502.904 320.656 501.56 320.803C499.141 321.069 494.374 322.34 492.833 324.623C492.833 324.623 491.39 315.309 496.047 311.195C498.075 309.881 500.487 309.289 502.894 309.514C502.894 309.514 501.62 306.988 497.641 308.543C497.641 308.543 503.404 301.074 512.105 310.842Z" fill="#31247C"/>
<path d="M516.433 326.143C515.645 324.221 514.905 322.317 514.006 320.5C513.565 319.6 513.042 318.741 512.444 317.936C511.882 317.097 511.022 316.502 510.038 316.274C510.577 316.256 511.113 316.364 511.603 316.587C512.094 316.81 512.527 317.143 512.868 317.561C513.585 318.343 514.186 319.223 514.655 320.175C515.577 322.051 516.178 324.068 516.433 326.143ZM496.597 330.741C497.09 329.674 497.71 328.671 498.443 327.754C499.168 326.815 500.01 325.974 500.948 325.25C501.891 324.503 502.971 323.948 504.127 323.617C505.287 323.309 506.511 323.349 507.647 323.731C506.513 323.633 505.37 323.779 504.296 324.158C503.249 324.564 502.268 325.126 501.389 325.826C500.486 326.519 499.643 327.288 498.87 328.123C498.088 328.96 497.32 329.823 496.597 330.741Z" fill="#251A66"/>
<path d="M505.653 312.086C506.008 311.61 506.455 311.211 506.967 310.91C507.479 310.609 508.046 310.413 508.634 310.333C509.225 310.241 509.825 310.225 510.419 310.286C511.012 310.353 511.597 310.474 512.168 310.646L512.381 310.705L512.294 310.925C511.166 313.775 510.208 316.704 509.261 319.625C508.335 322.556 507.5 325.515 506.683 328.479C505.898 331.451 505.163 334.437 504.478 337.437C503.789 340.436 503.183 343.453 502.562 346.473C502.941 343.415 503.397 340.362 503.994 337.335C504.537 334.297 505.274 331.298 506.022 328.304C506.776 325.311 507.672 322.355 508.636 319.423C509.595 316.487 510.669 313.594 511.916 310.76L512.042 311.038L511.218 310.793C510.937 310.739 510.659 310.669 510.377 310.623C509.811 310.532 509.237 310.513 508.667 310.568C507.504 310.665 506.423 311.209 505.653 312.086Z" fill="#251A66"/>
<path d="M508.638 338.507C508.358 337.453 507.97 336.431 507.482 335.456C507.254 335.018 506.912 334.649 506.492 334.389C506.007 334.172 505.477 334.074 504.947 334.101C505.21 333.946 505.501 333.845 505.804 333.804C506.107 333.764 506.415 333.785 506.71 333.866C507.309 334.091 507.807 334.526 508.108 335.091C508.675 336.134 508.863 337.341 508.638 338.507Z" fill="#251A66"/>
<path d="M476.417 409.144C476.417 409.144 474.7 403.215 470.342 406.567C468.861 407.744 467.801 409.371 467.323 411.202C466.537 414.039 465.857 419.181 467.793 426.478C467.793 426.478 472.254 420.304 475.555 418.119C479.277 415.655 481.678 410.023 476.417 409.144Z" fill="#CE826E"/>
<path d="M476.417 409.144C475.762 409.628 475.19 410.216 474.725 410.885C474.232 411.529 473.786 412.208 473.39 412.916C472.583 414.327 471.865 415.787 471.242 417.288C470.583 418.778 470.016 420.308 469.452 421.843L467.793 426.478C467.935 425.667 468.122 424.866 468.286 424.057C468.475 423.256 468.711 422.466 468.922 421.669C469.38 420.084 469.96 418.537 470.576 417.001C471.237 415.48 472.021 414.015 472.919 412.62C473.774 411.186 474.977 409.99 476.417 409.144ZM482.707 326.788C482.707 326.788 482.852 320.608 477.698 322.437C475.934 323.095 474.435 324.313 473.431 325.906C471.831 328.361 469.641 333.044 469.294 340.595C469.294 340.595 475.394 336.111 479.192 335.063C483.474 333.88 487.45 329.27 482.707 326.788Z" fill="#9D4C36"/>
<path d="M482.707 326.788C481.938 327.044 481.216 327.425 480.572 327.917C479.909 328.376 479.28 328.883 478.691 329.433C477.498 330.524 476.377 331.69 475.333 332.924C474.259 334.137 473.259 335.416 472.263 336.701L469.294 340.595C469.672 339.868 470.09 339.165 470.489 338.447C470.909 337.744 471.37 337.067 471.81 336.374C472.735 335.016 473.728 333.706 474.785 332.449C475.872 331.207 477.058 330.056 478.332 329.007C479.578 327.908 481.084 327.144 482.707 326.788Z" fill="#31247C"/>
<path d="M521.61 409.144C521.61 409.144 523.327 403.215 527.685 406.567C529.166 407.744 530.226 409.371 530.705 411.202C531.491 414.039 532.17 419.181 530.234 426.478C530.234 426.478 525.773 420.304 522.473 418.119C518.751 415.655 516.35 410.023 521.61 409.144Z" fill="#9D4C36"/>
<path d="M521.61 409.144C523.05 409.99 524.253 411.186 525.108 412.62C526.006 414.015 526.79 415.48 527.452 417.001C528.067 418.537 528.647 420.084 529.105 421.669C529.316 422.466 529.552 423.256 529.741 424.057C529.905 424.866 530.092 425.667 530.234 426.478L528.575 421.843C528.011 420.308 527.444 418.778 526.786 417.288C526.162 415.787 525.444 414.327 524.637 412.916C524.241 412.208 523.795 411.53 523.303 410.885C522.837 410.216 522.265 409.628 521.61 409.144Z" fill="#31247C"/>
<path d="M523.159 346.473C523.159 346.473 501.461 327.925 495.838 436.29M502.562 346.473C502.562 346.473 491.768 417.943 498.236 436.29M494.121 436.29C494.121 436.29 486.099 404.083 476.417 409.144M495.273 426.685C495.273 426.685 502.265 307.029 482.707 326.788M503.907 436.29C503.907 436.29 511.929 404.083 521.61 409.144M473.651 393.863C473.651 393.863 488.836 390.137 497.115 435.542M478.653 365.73C478.653 365.73 483.052 368.666 499.699 435.542M520.236 380.902C520.236 380.902 503.793 406.944 502.265 436.29" stroke="#251A66" stroke-width="0.644" stroke-miterlimit="10"/>
<path d="M476.503 428.603V434.629C476.498 435.182 476.713 435.715 477.1 436.111C477.488 436.506 478.016 436.732 478.57 436.737H519.972C520.525 436.732 521.054 436.506 521.442 436.111C521.829 435.716 522.044 435.182 522.038 434.629V429.076C522.044 428.526 521.832 427.996 521.45 427.602C521.067 427.207 520.544 426.979 519.995 426.967L478.593 426.495C478.317 426.494 478.043 426.549 477.789 426.655C477.534 426.761 477.302 426.917 477.108 427.113C476.914 427.309 476.76 427.541 476.656 427.797C476.553 428.053 476.501 428.327 476.503 428.603Z" fill="#D6684B"/>
<path d="M478.48 436.737L479.952 467.836H517.616L520.063 436.737H478.48Z" fill="#E18B74"/>
<path d="M513.457 379.13C513.515 376.292 519.379 381.44 519.379 381.44C515.886 365.755 504.726 372.296 504.726 372.296C494.52 360.769 487.894 368.989 487.894 368.989C492.501 367.412 494.003 370.345 494.003 370.345C491.253 369.959 488.453 370.517 486.061 371.929C480.693 376.388 482.454 387.05 482.454 387.05C484.222 384.527 489.756 383.31 492.558 383.119C494.319 383.002 494.01 383.867 493.536 384.527C493.218 384.955 492.808 385.306 492.336 385.554C489.533 387.015 486.832 388.664 484.251 390.489C481.62 392.557 488.045 402.522 488.045 402.522C489.411 400.491 493.27 399.141 493.27 399.141C497.431 398.782 489.202 404.876 489.202 404.876L493.967 412.37L499.034 410.485L498.049 407.472C498.243 404.553 499.824 408.542 500.564 409.173C501.304 409.811 507.773 404.003 507.773 404.003C507.773 404.003 504.021 389.704 506.946 391.303C509.878 392.894 511.546 399.376 512.228 399.706C512.739 399.956 515.578 395.079 516.986 392.593C517.496 391.706 517.826 390.726 517.957 389.71C518.088 388.695 518.017 387.664 517.748 386.676C516.807 383.912 515.351 381.352 513.457 379.13ZM497.093 379.013C495.225 380.56 492.35 379.702 491.89 378.551C491.423 377.407 492.853 375.126 494.995 373.675C497 372.311 499.307 373.33 499.767 374.481C500.234 375.625 499.17 377.282 497.093 379.013Z" fill="#31247C"/>
<path d="M504.724 372.296C505.096 374.005 505.339 375.74 505.451 377.486C505.486 379.246 505.33 381.004 504.985 382.731C504.634 384.449 504.172 386.143 503.601 387.802C503.062 389.46 502.504 391.12 501.88 392.754C500.607 396.011 499.121 399.18 497.431 402.241C496.606 403.762 495.926 405.356 495.399 407.005C494.85 408.654 494.422 410.342 494.121 412.054C494.432 408.554 495.385 405.142 496.933 401.988C498.538 398.908 499.964 395.737 501.203 392.492C501.843 390.879 502.416 389.243 502.975 387.594C503.539 385.95 504.045 384.296 504.441 382.616C504.842 380.936 505.062 379.218 505.098 377.491C505.081 375.753 504.956 374.018 504.724 372.296Z" fill="#251A66"/>
<path d="M505.216 379.264C506.238 379.953 507.158 380.781 507.951 381.724C508.754 382.658 509.481 383.653 510.127 384.702C510.768 385.75 511.338 386.84 511.83 387.965C512.324 389.087 512.732 390.245 513.051 391.429L511.322 388.215C510.733 387.158 510.15 386.103 509.51 385.083C508.881 384.056 508.214 383.054 507.51 382.076C506.806 381.091 506.04 380.151 505.216 379.264ZM500.144 396.024C500.901 396.761 501.506 397.639 501.922 398.61C502.137 399.098 502.294 399.61 502.39 400.135C502.519 400.675 502.439 401.244 502.169 401.73C502.159 401.229 502.048 400.737 501.843 400.28C501.655 399.82 501.462 399.36 501.258 398.901C500.825 397.967 500.453 397.006 500.144 396.024ZM502.973 388.639L499.289 390.033C498.073 390.511 496.862 390.996 495.684 391.545C494.497 392.068 493.342 392.663 492.227 393.326C491.1 393.979 490.058 394.77 489.126 395.681C489.863 394.566 490.811 393.605 491.916 392.852C493.004 392.083 494.165 391.423 495.384 390.884C497.797 389.786 500.351 389.031 502.973 388.639Z" fill="#251A66"/>
<path d="M539.481 361.4C539.481 361.4 547.894 348.827 558.416 363.674C558.416 363.674 550.175 361.187 551.384 364.218C554.313 365.629 556.932 367.608 559.089 370.042C560.547 371.939 561.215 374.326 560.953 376.704C560.633 380.045 559.922 386.645 559.297 386.641C558.459 386.635 553.88 380.611 550.198 380.405C546.517 380.199 556.688 393.442 556.688 393.442C556.688 393.442 552.715 402.861 551.683 402.566C550.65 402.271 547.266 398.849 548.371 402.034L550.709 404.731L546.412 409.283L538.242 403.755C538.242 403.755 543.876 393.142 539.819 395.627C539.819 395.627 536.501 399.005 536.021 401.85C536.021 401.85 525.072 394.543 526.815 391.019C528.609 387.802 530.605 384.703 532.793 381.74C533.234 381.149 533.521 380.457 533.627 379.728C533.737 378.878 533.521 378.107 531.965 379.017C529.2 380.635 524.136 384.72 523.464 388.287C523.464 388.287 516.927 377.886 520.393 370.448C522.144 367.788 524.729 365.785 527.742 364.754C527.742 364.754 524.911 362.407 520.938 366.41C520.938 366.41 524 354.351 539.481 361.4Z" fill="#CE826E"/>
<path d="M539.481 361.4C540.952 365.186 542.167 369.067 543.12 373.016C544.107 376.958 544.871 380.955 545.469 384.975C546.05 388.998 546.427 393.048 546.597 397.11C546.772 401.168 546.71 405.232 546.412 409.283C546.38 405.225 546.359 401.176 546.039 397.14C545.784 393.103 545.355 389.083 544.752 385.079C544.216 381.07 543.446 377.095 542.579 373.144C541.707 369.192 540.702 365.267 539.481 361.4Z" fill="#9D4C36"/>
<path d="M541.581 368.092C540.9 368.939 540.292 369.842 539.763 370.791C539.235 371.729 538.758 372.696 538.336 373.686C537.912 374.676 537.543 375.69 537.201 376.718C536.863 377.748 536.561 378.793 536.239 379.851C536.272 378.746 536.412 377.646 536.655 376.567C536.899 375.484 537.238 374.424 537.669 373.4C538.109 372.377 538.651 371.401 539.287 370.487C539.912 369.566 540.688 368.756 541.581 368.092ZM545.082 384.745C546.196 384.996 547.246 385.474 548.168 386.149C549.089 386.824 549.861 387.682 550.437 388.669C550.821 389.322 551.095 390.035 551.245 390.778C550.474 389.549 549.562 388.414 548.526 387.397C547.475 386.394 546.32 385.505 545.082 384.745Z" fill="#9D4C36"/>
<path d="M550.861 470H1.12651C0.827738 470 0.541207 469.881 0.329946 469.67C0.118685 469.459 0 469.172 0 468.873C0 468.574 0.118685 468.287 0.329946 468.076C0.541207 467.865 0.827738 467.746 1.12651 467.746H550.861C551.16 467.746 551.447 467.865 551.658 468.076C551.869 468.287 551.988 468.574 551.988 468.873C551.988 469.172 551.869 469.459 551.658 469.67C551.447 469.881 551.16 470 550.861 470Z" fill="#5A5093"/>
</g>
<defs>
<clipPath id="clip0_190_586">
<rect width="561" height="470" fill="white"/>
</clipPath>
</defs>
</svg>
