<svg xmlns="http://www.w3.org/2000/svg" width="153" height="153" viewBox="0 0 153 153" fill="none">
  <g clip-path="url(#clip0_713_484)">
    <path d="M38.25 153C38.25 153 28.6875 153 28.6875 143.437C28.6875 133.875 38.25 105.187 76.5 105.187C114.75 105.187 124.312 133.875 124.312 143.437C124.312 153 114.75 153 114.75 153H38.25ZM76.5 96.103C82.8403 96.103 88.921 93.5843 93.4043 89.101C97.8876 84.6178 100.406 78.5371 100.406 72.1968C100.406 65.8564 97.8876 59.7758 93.4043 55.2925C88.921 50.8092 82.8403 48.2905 76.5 48.2905C70.1597 48.2905 64.079 50.8092 59.5957 55.2925C55.1124 59.7758 52.5938 65.8564 52.5938 72.1968C52.5938 78.5371 55.1124 84.6178 59.5957 89.101C64.079 93.5843 70.1597 96.103 76.5 96.103Z" fill="#222222"/>
    <path d="M19.125 9.5625C14.0527 9.5625 9.18822 11.5774 5.60158 15.1641C2.01495 18.7507 0 23.6152 0 28.6875L0 119.531C0 123.335 1.51121 126.984 4.20119 129.674C6.89116 132.364 10.5396 133.875 14.3438 133.875H20.5881C22.5875 126.848 26.0627 120.328 30.7817 114.75H9.5625V28.6875C9.5625 26.1514 10.57 23.7191 12.3633 21.9258C14.1566 20.1325 16.5889 19.125 19.125 19.125H133.875C136.411 19.125 138.843 20.1325 140.637 21.9258C142.43 23.7191 143.438 26.1514 143.438 28.6875V114.75H122.218C127.516 121.004 130.729 127.879 132.412 133.875H138.656C142.46 133.875 146.109 132.364 148.799 129.674C151.489 126.984 153 123.335 153 119.531V28.6875C153 23.6152 150.985 18.7507 147.398 15.1641C143.812 11.5774 138.947 9.5625 133.875 9.5625H19.125Z" fill="#222222"/>
  </g>
  <defs>
    <clipPath id="clip0_713_484">
      <rect width="153" height="153" fill="white"/>
    </clipPath>
  </defs>
</svg>
