<svg width="24" height="24" viewBox="0 0 24 24" fill="none" xmlns="http://www.w3.org/2000/svg">
<g clip-path="url(#clip0_683_362)">
<path d="M21.69 3.28C21.5596 3.1549 21.3978 3.06745 21.2217 3.02696C21.0457 2.98646 20.8619 2.99442 20.69 3.05L15.6 4.75C14.4665 4.26017 13.2448 4.00749 12.01 4.00749C10.7752 4.00749 9.55348 4.26017 8.42 4.75L3.32 3.05C3.14809 2.99442 2.96433 2.98646 2.78825 3.02696C2.61217 3.06745 2.45036 3.1549 2.32 3.28C2.18799 3.40614 2.09303 3.56603 2.04544 3.74231C1.99784 3.9186 1.99942 4.10455 2.05 4.28L3.63 9.68999C3.21186 10.7434 2.99806 11.8667 3 13C3 17.71 6.7 21 12 21C17.3 21 21 17.71 21 13C21.0019 11.8667 20.7881 10.7434 20.37 9.68999L22 4.28C22.0458 4.10094 22.041 3.91271 21.9863 3.73619C21.9316 3.55966 21.829 3.40176 21.69 3.28Z" fill="white"/>
<path d="M15.71 14.29C15.617 14.1963 15.5064 14.1219 15.3846 14.0711C15.2627 14.0203 15.132 13.9942 15 13.9942C14.868 13.9942 14.7373 14.0203 14.6154 14.0711C14.4936 14.1219 14.383 14.1963 14.29 14.29C14.2579 14.3374 14.2147 14.3763 14.1642 14.4031C14.1136 14.43 14.0573 14.444 14 14.444C13.9428 14.444 13.8864 14.43 13.8358 14.4031C13.7853 14.3763 13.7421 14.3374 13.71 14.29C13.4021 13.9973 13.0228 13.7904 12.61 13.69L13.92 11.94C13.9646 11.8806 13.9917 11.8099 13.9984 11.7359C14.0051 11.6619 13.991 11.5875 13.9578 11.5211C13.9246 11.4547 13.8735 11.3988 13.8103 11.3597C13.7471 11.3207 13.6743 11.3 13.6 11.3H10.4C10.3257 11.3 10.2529 11.3207 10.1897 11.3597C10.1265 11.3988 10.0755 11.4547 10.0422 11.5211C10.009 11.5875 9.99495 11.6619 10.0016 11.7359C10.0083 11.8099 10.0354 11.8806 10.08 11.94L11.39 13.69C10.9772 13.7904 10.5979 13.9973 10.29 14.29C10.2579 14.3374 10.2147 14.3763 10.1642 14.4031C10.1136 14.43 10.0573 14.444 10 14.444C9.94275 14.444 9.88638 14.43 9.83582 14.4031C9.78526 14.3763 9.74206 14.3374 9.71 14.29C9.5217 14.1017 9.2663 13.9959 9 13.9959C8.7337 13.9959 8.47831 14.1017 8.29 14.29C8.1017 14.4783 7.99591 14.7337 7.99591 15C7.99591 15.2663 8.1017 15.5217 8.29 15.71C8.7511 16.149 9.36336 16.3938 10 16.3938C10.6366 16.3938 11.2489 16.149 11.71 15.71C11.7421 15.6626 11.7853 15.6237 11.8358 15.5968C11.8864 15.57 11.9428 15.5559 12 15.5559C12.0573 15.5559 12.1136 15.57 12.1642 15.5968C12.2147 15.6237 12.2579 15.6626 12.29 15.71C12.7463 16.1583 13.3604 16.4094 14 16.4094C14.6396 16.4094 15.2537 16.1583 15.71 15.71C15.8037 15.617 15.8781 15.5064 15.9289 15.3846C15.9797 15.2627 16.0058 15.132 16.0058 15C16.0058 14.868 15.9797 14.7373 15.9289 14.6154C15.8781 14.4936 15.8037 14.383 15.71 14.29Z" fill="#6A75ED"/>
<g clip-path="url(#clip1_683_362)">
<path d="M24 20C24 21.0609 23.5786 22.0783 22.8284 22.8284C22.0783 23.5786 21.0609 24 20 24C18.9391 24 17.9217 23.5786 17.1716 22.8284C16.4214 22.0783 16 21.0609 16 20C16 18.9391 16.4214 17.9217 17.1716 17.1716C17.9217 16.4214 18.9391 16 20 16C21.0609 16 22.0783 16.4214 22.8284 17.1716C23.5786 17.9217 24 18.9391 24 20ZM20.25 18.25C20.25 18.1837 20.2237 18.1201 20.1768 18.0732C20.1299 18.0263 20.0663 18 20 18C19.9337 18 19.8701 18.0263 19.8232 18.0732C19.7763 18.1201 19.75 18.1837 19.75 18.25V19.75H18.25C18.1837 19.75 18.1201 19.7763 18.0732 19.8232C18.0263 19.8701 18 19.9337 18 20C18 20.0663 18.0263 20.1299 18.0732 20.1768C18.1201 20.2237 18.1837 20.25 18.25 20.25H19.75V21.75C19.75 21.8163 19.7763 21.8799 19.8232 21.9268C19.8701 21.9737 19.9337 22 20 22C20.0663 22 20.1299 21.9737 20.1768 21.9268C20.2237 21.8799 20.25 21.8163 20.25 21.75V20.25H21.75C21.8163 20.25 21.8799 20.2237 21.9268 20.1768C21.9737 20.1299 22 20.0663 22 20C22 19.9337 21.9737 19.8701 21.9268 19.8232C21.8799 19.7763 21.8163 19.75 21.75 19.75H20.25V18.25Z" fill="white"/>
</g>
</g>
<defs>
<clipPath id="clip0_683_362">
<rect width="24" height="24" fill="white"/>
</clipPath>
<clipPath id="clip1_683_362">
<rect width="8" height="8" fill="white" transform="translate(16 16)"/>
</clipPath>
</defs>
</svg>
