<svg width="118" height="250" viewBox="0 0 118 250" fill="none" xmlns="http://www.w3.org/2000/svg">
<path d="M86.7767 17.3277V0L73.3288 12.1294C73.3288 12.1294 49.7949 1.73278 36.347 12.7071L18.4164 7.66436e-05L22.3388 20.7933C20.3444 32.0574 19.0344 43.4389 18.4164 54.8713C18.4164 54.8713 -69.8355 112.703 -64.7925 192.988C-64.7925 192.988 -64.9107 203.927 -55.1785 222.535C-49.9556 232.34 -43.418 241.336 -35.7587 249.26C-25.4928 259.93 -17.3657 272.579 -11.8413 286.485C-11.8413 286.485 1.55708 291.856 -6.22478 267.893C-10.0134 256.512 -16.337 246.205 -24.6884 237.799C-33.7992 228.492 -46.9319 212.698 -52.185 194.648H64.3635C64.3635 194.648 61.9121 183.728 56.2332 181.929C56.2332 181.929 78.9321 133.424 83.4147 113.786C87.8974 94.1476 83.4147 58.3369 83.4147 58.3369C83.4147 58.3369 92.9403 35.8107 86.7767 17.3277Z" fill="white"/>
<path d="M44.8382 26.1643C44.1277 25.3911 43.3263 24.7124 42.4526 24.144C41.6335 23.5951 40.7571 23.1427 39.84 22.7954C38.0932 22.1038 36.172 22.0355 34.3831 22.6013C36.0053 22.8309 37.5028 23.6249 38.6273 24.8519C39.1537 25.4216 39.6162 26.0505 40.0061 26.7269C40.381 27.347 40.6743 28.0156 40.8783 28.7153C40.9618 29.0942 41.1286 29.4482 41.366 29.7501C41.6033 30.0519 41.9047 30.2935 42.247 30.4561C42.5894 30.6187 42.9634 30.698 43.3402 30.6879C43.717 30.6778 44.0865 30.5785 44.4202 30.3977C44.7538 30.217 45.0427 29.9596 45.2644 29.6454C45.4862 29.3312 45.6349 28.9687 45.6991 28.5859C45.7633 28.203 45.7412 27.81 45.6346 27.4374C45.528 27.0647 45.3398 26.7223 45.0844 26.4365L44.8382 26.1643ZM71.3836 28.7153C71.5877 28.0156 71.881 27.3469 72.256 26.7269C72.6459 26.0505 73.1083 25.4216 73.6347 24.8519C74.7592 23.625 76.2567 22.8309 77.8789 22.6013C76.09 22.0355 74.1688 22.1038 72.422 22.7954C71.5049 23.1428 70.6286 23.5951 69.8094 24.144C68.9357 24.7124 68.1344 25.3911 67.424 26.1643L67.1851 26.4289C66.9647 26.6725 66.793 26.9585 66.6799 27.2706C66.5668 27.5826 66.5145 27.9146 66.5259 28.2476C66.5374 28.5805 66.6124 28.9078 66.7467 29.2108C66.881 29.5138 67.0719 29.7866 67.3085 30.0135C67.5451 30.2404 67.8228 30.417 68.1256 30.5332C68.4285 30.6494 68.7507 30.703 69.0736 30.6907C69.3966 30.6785 69.714 30.6007 70.0078 30.4619C70.3016 30.3232 70.566 30.126 70.7858 29.8818C71.0804 29.5534 71.2865 29.1513 71.3836 28.7153Z" fill="#070707"/>
<path d="M52.2638 38.0663C52.2662 39.0293 52.639 39.9521 53.3005 40.6322C53.9621 41.3122 54.8582 41.6942 55.7925 41.6942C56.7268 41.6942 57.6229 41.3122 58.2844 40.6322C58.9459 39.9521 59.3188 39.0293 59.3213 38.0663C59.3212 36.0573 52.2638 36.0573 52.2638 38.0663Z" fill="#222222"/>
<path d="M-2.31551 25.001L38.2481 40.2732L38.7671 37.9375L-3.99664 33.4998L38.4723 40.3259L38.9912 37.9903L-2.31551 25.001Z" fill="#222222"/>
<path d="M-3.99633 41.7041C3.12405 42.1286 10.2631 42.1 17.38 41.6186C24.5034 41.2459 31.5971 40.4154 38.6201 39.132C31.4998 38.702 24.3604 38.7306 17.2436 39.2175C10.1207 39.5954 3.02733 40.4259 -3.99633 41.7041Z" fill="#222222"/>
<path d="M116.318 25.0011L75.0136 37.9904L75.5325 40.326L117.999 33.4999L75.2353 37.9376L75.7543 40.2733L116.318 25.0011Z" fill="#222222"/>
<path d="M118 41.704C110.976 40.4258 103.883 39.5953 96.76 39.2174C89.6432 38.7305 82.5039 38.7019 75.3837 39.1319C82.4066 40.4153 89.5004 41.2458 96.6237 41.6185C103.741 42.0999 110.88 42.1285 118 41.704Z" fill="#222222"/>
<path d="M53.5409 84.5932C49.3776 84.5932 46.0027 81.1142 46.0027 76.8227C46.0027 72.5312 49.3776 69.0522 53.5409 69.0522C57.7041 69.0522 61.0791 72.5312 61.0791 76.8227C61.0791 81.1142 57.7041 84.5932 53.5409 84.5932Z" fill="#6A75ED"/>
<path d="M57.0801 112.919L54.4782 130.867L51.6596 148.737C50.6548 154.675 49.5514 160.588 48.2285 166.436L47.188 170.806L45.9701 175.112C45.5659 176.548 45.0246 177.921 44.558 179.335C44.056 180.728 43.3606 182.008 42.7701 183.362L42.4639 184.064L43.0571 184.361C45.1149 185.335 46.9967 186.663 48.6221 188.288C49.4336 189.094 50.0406 190.092 50.3895 191.196C50.7057 192.335 50.6447 193.549 50.2161 194.648C50.815 193.571 51.0282 192.311 50.8185 191.088C50.558 189.86 50.0094 188.716 49.2207 187.756C47.6878 185.83 45.7918 184.244 43.6474 183.094L43.9343 184.093C46.874 178.742 49.0427 172.979 50.3722 166.985C51.817 161.078 52.9897 155.123 53.8902 149.118C54.8014 143.123 55.5188 137.104 56.0426 131.064C56.5989 125.032 56.9718 118.98 57.0801 112.919ZM-30.3314 119.994C-26.3169 116.078 -21.6329 112.962 -16.5167 110.805C-11.5072 108.593 -5.95416 108.041 -0.627003 109.227C4.59076 110.678 9.30956 113.607 12.994 117.683C16.8484 121.591 19.8642 126.29 21.8465 131.476C23.6016 136.699 23.8997 142.326 22.7069 147.715C21.4749 153.164 19.2941 158.338 16.2703 162.984C10.1185 172.389 2.48859 180.671 -6.30564 187.489L-8.41832 189.154L-5.83246 188.622C-2.41323 187.834 1.11301 187.666 4.58827 188.124C6.32161 188.336 7.97234 189.006 9.37959 190.07C10.7652 191.204 11.6767 192.842 11.9269 194.648C11.7975 192.776 10.9727 191.027 9.62406 189.765C8.20964 188.568 6.51887 187.767 4.71586 187.442C1.14998 186.748 -2.50888 186.73 -6.08095 187.39L-5.60777 188.522C3.63696 181.945 11.6437 173.689 18.0215 164.157C21.2397 159.319 23.579 153.918 24.9256 148.218C26.2732 142.404 25.9265 136.309 23.9289 130.697C21.7859 125.231 18.5499 120.291 14.4314 116.2C10.4554 111.904 5.337 108.914 -0.281559 107.605C-5.91425 106.506 -11.7403 107.297 -16.9047 109.862C-21.9831 112.297 -26.5458 115.74 -30.3314 119.994Z" fill="#222222"/>
<path d="M83.415 58.3367C80.9644 60.0005 78.3816 61.4477 75.6944 62.6628C74.3774 63.3047 73.0086 63.8293 71.6708 64.4059C70.2838 64.8584 68.9208 65.3735 67.527 65.7723C61.9838 67.4385 56.2007 68.093 50.4388 67.7061C49.0033 67.6669 47.573 67.5096 46.1618 67.2359C44.732 67.0792 43.3175 66.7996 41.933 66.4001L37.7505 65.2698L33.7066 63.6566L31.6706 62.8592C31.0154 62.5402 30.3839 62.1682 29.7379 61.8248L25.8678 59.7236C23.3177 58.2535 20.9709 56.434 18.4167 54.8711C20.6363 56.8568 22.8718 58.886 25.2522 60.7181L29.0369 63.1621C29.6732 63.5628 30.2963 63.9926 30.9463 64.3703L32.9779 65.3486C34.3341 66.001 35.6919 66.6669 37.0773 67.261L41.3953 68.6105C42.8373 69.063 44.316 69.3806 45.8133 69.5597C47.2928 69.8646 48.7935 70.0477 50.3011 70.1072C56.3321 70.5136 62.3796 69.6359 68.0673 67.5289C73.7242 65.5448 78.9414 62.42 83.415 58.3367Z" fill="#222222"/>
</svg>
