<svg width="112" height="153" viewBox="0 0 112 153" fill="none" xmlns="http://www.w3.org/2000/svg">
<g id="Group 105">
<g id="Clip path group">
<mask id="mask0_398_981" style="mask-type:luminance" maskUnits="userSpaceOnUse" x="-59" y="29" width="154" height="122">
<g id="0c2bccbf52">
<path id="Vector" d="M-30.0098 29.5186L94.7089 98.7306L66.1013 150.281L-58.6174 81.069L-30.0098 29.5186Z" fill="white"/>
</g>
</mask>
<g mask="url(#mask0_398_981)">
<g id="Group">
<path id="Vector_2" d="M15.3788 94.6684C42.2648 109.589 69.7246 114.105 84.8577 107.473C86.6142 105.564 94.3984 99.2376 94.3984 99.2376C94.3984 99.2376 84.2059 117.604 82.9153 119.93C73.7105 136.517 38.333 134.471 3.89574 115.361C-30.5416 96.2498 -50.9984 67.3102 -41.7936 50.7233C-40.595 48.5634 -30.3105 30.031 -30.3105 30.031C-30.3105 30.031 -31.6606 38.496 -32.2479 42.4861C-29.8717 58.8346 -11.5104 79.7464 15.3788 94.6684Z" fill="#222222"/>
</g>
</g>
</g>
<g id="Clip path group_2">
<mask id="mask1_398_981" style="mask-type:luminance" maskUnits="userSpaceOnUse" x="-59" y="29" width="143" height="115">
<g id="c99bb30fc2">
<path id="Vector_3" d="M-30.0098 29.5186L83.3901 92.4492L54.7824 144L-58.6174 81.069L-30.0098 29.5186Z" fill="white"/>
</g>
</mask>
<g mask="url(#mask1_398_981)">
<g id="Group_2">
<path id="Vector_4" d="M-32.2479 42.4861C-29.8717 58.8346 -11.5104 79.7464 15.3788 94.6684C31.5955 103.668 46.2396 112.079 60.0437 113.346C60.0437 113.346 62.8082 113.67 64.149 115.624C65.6181 117.769 66.3 121.822 63.591 126.704C59.1571 134.694 48.557 134.045 48.557 134.045C34.7547 132.775 20.1092 124.358 3.89573 115.361C-30.5416 96.2498 -50.9984 67.3102 -41.7936 50.7233C-40.595 48.5634 -30.3105 30.031 -30.3105 30.031C-30.3105 30.031 -31.6606 38.496 -32.2479 42.4861Z" fill="#222222"/>
</g>
</g>
</g>
<g id="Clip path group_3">
<mask id="mask2_398_981" style="mask-type:luminance" maskUnits="userSpaceOnUse" x="-37" y="0" width="149" height="111">
<g id="ab1cf28839">
<path id="Vector_5" d="M-13.626 0.00184631L111.093 69.2138L88.2528 110.371L-36.4659 41.159L-13.626 0.00184631Z" fill="white"/>
</g>
</mask>
<g mask="url(#mask2_398_981)">
<g id="Group_3">
<path id="Vector_6" d="M37.2257 55.2975C10.3365 40.3755 -17.1233 35.859 -32.2496 42.4861C-32.9203 37.8998 -32.3291 33.6653 -30.3123 30.031C-21.1074 13.444 14.2733 15.4912 48.7106 34.602C83.1479 53.7128 103.602 82.6506 94.3967 99.2375C92.3798 102.872 89.1027 105.616 84.856 107.473C82.473 91.1295 64.1117 70.2177 37.2257 55.2975Z" fill="white"/>
</g>
</g>
</g>
<path id="Vector_7" d="M14.9458 111.523C16.7094 112.502 18.9383 111.861 19.9224 110.088C20.9047 108.317 20.2691 106.087 18.5055 105.108C16.7419 104.13 14.5129 104.77 13.5306 106.54C12.5465 108.314 13.1822 110.544 14.9458 111.523Z" fill="white"/>
<path id="Vector_8" d="M22.3263 101.362C23.7099 102.13 24.2082 103.88 23.4368 105.27L17.3951 116.157C16.6237 117.547 14.8745 118.051 13.4909 117.283L3.72129 111.861C2.3312 111.09 1.83611 109.341 2.60754 107.951L8.64917 97.0642C9.42059 95.6741 11.1665 95.1689 12.5566 95.9403L22.3263 101.362ZM5.68521 90.5935L-4.44967 108.856C-5.74379 111.188 -4.91261 114.13 -2.58713 115.421L13.8049 124.518C16.1304 125.808 19.0668 124.957 20.3609 122.625L30.4958 104.362C31.7899 102.03 30.9551 99.0943 28.6296 97.8038L12.2376 88.7071C9.91209 87.4166 6.97933 88.2615 5.68521 90.5935Z" fill="white"/>
<path id="Vector_9" d="M17.4305 106.585C18.2328 107.03 18.4786 108.118 17.9829 109.012C17.4855 109.908 16.4322 110.275 15.6299 109.83L0.715664 101.553C-0.0865637 101.108 -0.332403 100.02 0.165058 99.1237C0.660717 98.2305 1.71403 97.8635 2.51626 98.3086L17.4305 106.585Z" fill="white"/>
<path id="Vector_10" d="M41.3751 124.066C43.142 125.046 45.3677 124.404 46.35 122.634C47.3341 120.86 46.7017 118.632 44.9349 117.651C43.1713 116.673 40.9455 117.315 39.9614 119.088C38.9791 120.859 39.6115 123.087 41.3751 124.066Z" fill="white"/>
<path id="Vector_11" d="M75.3995 80.7593C73.0868 80.5634 73.9937 77.957 72.8727 76.4939C71.7551 75.0325 68.9634 75.225 69.3019 72.9234C69.8373 69.2486 77.8271 69.6637 79.2393 71.5052C80.6515 73.3467 78.9826 81.0697 75.3995 80.7593Z" fill="#222222"/>
<path id="Vector_12" d="M86.6081 72.6718C86.9688 72.5193 86.8827 72.0085 86.4963 71.9852C86.1091 71.0524 84.4622 70.5676 83.0488 70.8028C81.4777 71.0694 80.7116 72.1438 80.8972 73.2791C81.0842 74.4194 82.1554 75.1838 83.7279 74.9222C85.1399 74.682 86.5414 73.6798 86.6081 72.6718Z" fill="#222222"/>
<path id="Vector_13" d="M83.84 78.9523C84.1398 78.9403 84.2179 78.5546 83.9422 78.4313C83.9173 77.6571 82.8609 76.8585 81.7796 76.6407C80.5712 76.3992 79.7225 76.9563 79.549 77.8201C79.3756 78.6838 79.9362 79.526 81.1446 79.7675C82.2292 79.9871 83.5138 79.6549 83.84 78.9523Z" fill="#222222"/>
<path id="Vector_14" d="M80.4586 64.3482C80.7254 64.0587 81.1733 64.3157 81.0591 64.6899C81.7976 65.3801 81.6822 67.096 80.9702 68.3407C80.1739 69.7297 78.9037 70.0741 77.9056 69.5075C76.9059 68.9357 76.5633 67.6623 77.3564 66.2715C78.0716 65.0286 79.4933 64.0589 80.4586 64.3482Z" fill="#222222"/>
<path id="Vector_15" d="M72.9853 64.785C73.0693 64.4959 73.464 64.5196 73.511 64.8175C74.2547 65.0391 74.7488 66.2691 74.6797 67.3735C74.6016 68.6089 73.8443 69.2846 72.9686 69.232C72.093 69.1793 71.4292 68.4159 71.5054 67.1838C71.5746 66.0794 72.2249 64.9152 72.9853 64.785Z" fill="#222222"/>
<path id="Vector_16" d="M55.7288 61.6701C53.2804 62.1933 53.3999 59.2222 51.7885 58.0688C50.1756 56.9104 47.3577 57.9847 46.9853 55.5095C46.3921 51.5567 54.7703 49.4729 56.8025 50.932C58.8351 52.3828 59.5278 60.8642 55.7288 61.6701Z" fill="#222222"/>
<path id="Vector_17" d="M64.7736 49.82C65.096 49.5529 64.8548 49.0537 64.4432 49.1524C63.753 48.3063 61.8982 48.3263 60.5185 49.0135C58.9776 49.7769 58.5204 51.129 59.0679 52.2399C59.6186 53.3527 60.9609 53.8045 62.5018 53.0411C63.8866 52.3524 65.0205 50.8832 64.7736 49.82Z" fill="#222222"/>
<path id="Vector_18" d="M63.878 57.1604C64.1868 57.0557 64.1451 56.6332 63.8243 56.5911C63.5591 55.7983 62.2201 55.31 61.0313 55.4235C59.7088 55.5562 59.0074 56.3989 59.0966 57.3405C59.184 58.2854 60.0289 58.9752 61.3547 58.8443C62.5402 58.729 63.7644 57.9852 63.878 57.1604Z" fill="#222222"/>
<path id="Vector_19" d="M55.8275 43.1733C56.0135 42.7922 56.5518 42.9168 56.5553 43.3393C57.5307 43.8169 57.9468 45.6238 57.6012 47.127C57.213 48.8063 56.0084 49.5609 54.7996 49.2894C53.5894 49.0129 52.8399 47.8068 53.2262 46.1308C53.5737 44.6243 54.7383 43.1763 55.8275 43.1733Z" fill="#222222"/>
<path id="Vector_20" d="M48.2491 45.9682C48.2482 45.6406 48.6598 45.542 48.8036 45.8341C49.6384 45.8301 50.5333 46.9427 50.8077 48.1018C51.1128 49.3969 50.5439 50.3301 49.6215 50.5531C48.6991 50.7762 47.7745 50.1994 47.4694 48.9043C47.1968 47.742 47.5064 46.342 48.2491 45.9682Z" fill="#222222"/>
<path id="Vector_21" d="M32.7161 47.2506C30.3927 48.1915 29.9974 45.2448 28.2068 44.3913C26.418 43.5346 23.8258 45.0824 23.0284 42.7071C21.7596 38.9231 29.6537 35.4151 31.9069 36.4913C34.1634 37.5694 36.3185 45.796 32.7161 47.2506Z" fill="#222222"/>
<path id="Vector_22" d="M39.5709 34.011C39.8424 33.6901 39.5143 33.2404 39.128 33.4083C38.3022 32.6994 36.4786 33.0383 35.2354 33.9542C33.8512 34.9787 33.6343 36.3877 34.3678 37.3853C35.1029 38.3879 36.5071 38.5979 37.8946 37.5752C39.1345 36.6575 39.9967 35.0119 39.5709 34.011Z" fill="#222222"/>
<path id="Vector_23" d="M39.9608 41.3902C40.2468 41.2346 40.1298 40.8255 39.8065 40.8416C39.4075 40.1061 38.0032 39.8578 36.8521 40.1791C35.5729 40.5398 35.0301 41.4874 35.2801 42.3994C35.5317 43.3164 36.4847 43.8495 37.7639 43.4889C38.915 43.1676 39.9915 42.2229 39.9608 41.3902Z" fill="#222222"/>
<path id="Vector_24" d="M29.5987 29.0297C29.7161 28.6191 30.2685 28.6495 30.3437 29.0651C31.3915 29.3662 32.1164 31.0684 32.0335 32.6112C31.9412 34.3314 30.8892 35.2854 29.6481 35.2254C28.4102 35.1672 27.4598 34.1087 27.5503 32.3917C27.6333 30.849 28.528 29.2214 29.5987 29.0297Z" fill="#222222"/>
<path id="Vector_25" d="M22.6165 33.0989C22.5604 32.7789 22.9486 32.6078 23.1417 32.8721C23.9628 32.7245 25.0365 33.6603 25.5082 34.7547C26.0359 35.9778 25.6363 36.9965 24.767 37.3764C23.8962 37.7513 22.8844 37.347 22.36 36.1257C21.8868 35.0262 21.9482 33.5989 22.6165 33.0989Z" fill="#222222"/>
<path id="Vector_26" d="M6.01291 37.2665C4.26269 38.6826 3.14963 36.2637 1.38853 36.0001C-0.374375 35.7397 -2.19322 37.7465 -3.49975 35.9212C-5.58751 33.0081 0.276075 27.9231 2.49648 28.2547C4.71365 28.5845 8.7246 35.0669 6.01291 37.2665Z" fill="#222222"/>
<path id="Vector_27" d="M8.42625 24.1068C8.58086 23.7593 8.18134 23.4611 7.89138 23.708C6.99538 23.317 5.51725 24.0898 4.69122 25.2032C3.77 26.4422 3.9517 27.707 4.84423 28.3722C5.73856 29.0342 7.00013 28.8507 7.9199 27.6066C8.74774 26.49 9.06085 24.8541 8.42625 24.1068Z" fill="#222222"/>
<path id="Vector_28" d="M10.6996 30.33C10.903 30.1242 10.699 29.8029 10.4238 29.9008C9.88919 29.379 8.61715 29.5354 7.71438 30.1135C6.70738 30.7568 6.48666 31.7134 6.94447 32.4347C7.40084 33.151 8.35808 33.3551 9.36509 32.7118C10.2679 32.1337 10.9467 31.0406 10.6996 30.33Z" fill="#222222"/>
<path id="Vector_29" d="M-1.44506 22.4603C-1.45028 22.0793 -0.96617 21.9571 -0.796086 22.2936C0.184151 22.2726 1.25158 23.5489 1.58629 24.8902C1.96076 26.3894 1.30176 27.485 0.225678 27.763C-0.8551 28.0341 -1.9493 27.3801 -2.32052 25.8827C-2.65668 24.5364 -2.31397 22.9084 -1.44506 22.4603Z" fill="#222222"/>
</g>
</svg>
