<svg xmlns="http://www.w3.org/2000/svg" width="21" height="21" viewBox="0 0 21 21" fill="none">
  <path d="M14.4375 1.96875V3.28125H19.0312C19.2053 3.28125 19.3722 3.35039 19.4953 3.47346C19.6184 3.59653 19.6875 3.76345 19.6875 3.9375C19.6875 4.11155 19.6184 4.27847 19.4953 4.40154C19.3722 4.52461 19.2053 4.59375 19.0312 4.59375H18.3251L17.2056 18.585C17.1528 19.2428 16.8541 19.8566 16.3691 20.3042C15.8841 20.7517 15.2484 21.0001 14.5884 21H6.41156C5.75163 21.0001 5.11586 20.7517 4.63086 20.3042C4.14586 19.8566 3.84723 19.2428 3.79444 18.585L2.67488 4.59375H1.96875C1.7947 4.59375 1.62778 4.52461 1.50471 4.40154C1.38164 4.27847 1.3125 4.11155 1.3125 3.9375C1.3125 3.76345 1.38164 3.59653 1.50471 3.47346C1.62778 3.35039 1.7947 3.28125 1.96875 3.28125H6.5625V1.96875C6.5625 1.44661 6.76992 0.945846 7.13913 0.576634C7.50835 0.207421 8.00911 0 8.53125 0L12.4688 0C12.9909 0 13.4917 0.207421 13.8609 0.576634C14.2301 0.945846 14.4375 1.44661 14.4375 1.96875ZM7.875 1.96875V3.28125H13.125V1.96875C13.125 1.7947 13.0559 1.62778 12.9328 1.50471C12.8097 1.38164 12.6428 1.3125 12.4688 1.3125H8.53125C8.3572 1.3125 8.19028 1.38164 8.06721 1.50471C7.94414 1.62778 7.875 1.7947 7.875 1.96875ZM5.90625 6.60056L6.5625 17.7568C6.566 17.844 6.58687 17.9297 6.62387 18.0087C6.66087 18.0877 6.71327 18.1586 6.778 18.2172C6.84273 18.2757 6.91849 18.3208 7.00084 18.3497C7.08319 18.3786 7.17048 18.3908 7.2576 18.3855C7.34473 18.3803 7.42993 18.3577 7.50822 18.3192C7.58652 18.2806 7.65633 18.2268 7.71358 18.1609C7.77083 18.095 7.81436 18.0184 7.84162 17.9355C7.86889 17.8526 7.87935 17.7651 7.87238 17.6781L7.21613 6.52181C7.21262 6.4346 7.19176 6.34897 7.15475 6.26992C7.11775 6.19088 7.06535 6.12001 7.00062 6.06146C6.93589 6.00291 6.86014 5.95786 6.77779 5.92895C6.69543 5.90004 6.60814 5.88785 6.52102 5.89308C6.4339 5.89832 6.3487 5.92089 6.2704 5.95946C6.19211 5.99802 6.12229 6.05182 6.06505 6.1177C6.0078 6.18359 5.96427 6.26022 5.937 6.34313C5.90973 6.42605 5.89928 6.51356 5.90625 6.60056ZM14.4769 5.90756C14.3032 5.89752 14.1326 5.95686 14.0027 6.07254C13.8727 6.18821 13.794 6.35076 13.7839 6.52444L13.1276 17.6807C13.122 17.8518 13.1834 18.0183 13.2989 18.1447C13.4143 18.2712 13.5745 18.3475 13.7454 18.3574C13.9163 18.3674 14.0844 18.3101 14.2137 18.1979C14.3429 18.0857 14.4233 17.9274 14.4375 17.7568L15.0938 6.60056C15.1038 6.42688 15.0444 6.25631 14.9288 6.12636C14.8131 5.99641 14.6506 5.91771 14.4769 5.90756ZM10.5 5.90625C10.326 5.90625 10.159 5.97539 10.036 6.09846C9.91289 6.22153 9.84375 6.38845 9.84375 6.5625V17.7188C9.84375 17.8928 9.91289 18.0597 10.036 18.1828C10.159 18.3059 10.326 18.375 10.5 18.375C10.674 18.375 10.841 18.3059 10.964 18.1828C11.0871 18.0597 11.1562 17.8928 11.1562 17.7188V6.5625C11.1562 6.38845 11.0871 6.22153 10.964 6.09846C10.841 5.97539 10.674 5.90625 10.5 5.90625Z" fill="#F64545"/>
</svg>
