<svg width="103" height="245" viewBox="0 0 103 245" fill="none" xmlns="http://www.w3.org/2000/svg">
<g id="Group 102">
<path id="Vector" d="M135.761 212.339C135.761 212.339 161.922 177.789 76.14 87.5744L84.0486 44.813C87.3754 41.4517 89.3864 36.9035 89.6868 32.0621L90.1328 24.872C90.1328 24.872 89.8283 21.0333 84.3531 21.3532C84.3531 21.3532 76.14 -0.400852 48.7629 8.55657L34.7701 0.878746C34.7701 0.878746 27.4697 -0.0809582 28.3822 7.9168C28.3822 7.9168 21.2934 13.9077 30.2129 28.1366C31.6376 30.3286 33.3494 32.2981 35.2977 33.9869C38.4283 36.7928 43.6884 43.7753 40.1719 57.2567C38.6328 63.157 37.0437 69.0428 35.764 75.0112L31.4241 95.2523C31.4241 95.2523 12.5644 116.046 33.2493 154.756C33.2493 154.756 23.0484 221.725 13.3143 232.602C13.3143 232.602 -3.76451 236.733 0.764173 243.766C0.879256 243.934 1.03132 244.071 1.20739 244.164C1.38347 244.257 1.57835 244.304 1.77544 244.301H16.9614C17.6128 244.301 18.2532 244.125 18.8214 243.79C19.3895 243.455 19.8662 242.972 20.2059 242.387L32.9451 216.818C32.9451 216.818 37.5079 214.579 37.2037 204.981L46.0252 173.63C46.0252 173.63 43.5926 225.134 36.5963 230.252C29.6 235.371 24.8473 240.491 26.064 244.33H42.5013C43.2962 244.33 44.0711 244.068 44.7171 243.581C45.3631 243.094 45.8476 242.406 46.1026 241.614L49.6753 227.055C49.6753 227.055 52.7172 228.975 53.6298 214.899L61.8429 185.147L65.7973 187.386C65.7973 187.386 64.6585 193.675 79.1837 214.073C80.9425 216.486 82.0946 219.326 82.5334 222.332C83.541 229.853 80.121 240.683 47.915 232.986L45.1773 243.543C58.0803 243.127 70.9951 243.408 83.8707 244.384C83.8707 244.384 65.7973 230.254 67.9266 244.33L115.307 244.49C115.896 244.467 116.472 244.3 116.99 244.002C117.508 243.705 117.952 243.284 118.289 242.775L124.81 230.894C124.81 230.894 190.515 255.207 205.116 219.377C205.116 219.377 206.941 208.5 189.298 220.657C171.655 232.814 147.32 225.136 135.761 212.339Z" fill="white"/>
<path id="Vector_2" d="M63.8201 17.6743C63.3808 16.723 62.896 15.7957 62.3676 14.8959C61.9025 14.0613 61.2835 13.3328 60.5469 12.7533C60.195 12.4966 59.7969 12.3183 59.3771 12.2293C58.9572 12.1403 58.5245 12.1424 58.1055 12.2357C57.1378 12.4352 56.1966 12.7575 55.3027 13.1955C55.6536 12.7822 56.0285 12.3923 56.4253 12.0278C56.8646 11.6839 57.3518 11.4133 57.8696 11.2256C58.4244 11.0032 59.0223 10.9255 59.612 10.9992C60.2016 11.073 60.7655 11.296 61.2553 11.649C62.1609 12.3514 62.8523 13.316 63.2451 14.4249C63.6467 15.4551 63.8424 16.5611 63.8201 17.6743Z" fill="#222222"/>
<path id="Vector_3" d="M77.56 78.7771L77.4079 87.5747C77.4079 87.5747 41.5135 96.0523 31.1711 95.2525L26.3041 97.8118C26.3041 97.8118 24.0227 96.3722 22.958 89.6541C22.958 89.6541 29.1939 85.6552 31.4753 86.6149L77.56 78.7771Z" fill="#342E54"/>
<path id="Vector_4" d="M31.5751 20.2334C30.8841 19.5041 30.2631 18.7049 29.7211 17.8476C28.5835 16.1335 27.7692 14.2057 27.3223 12.1689C27.1439 11.1185 27.1103 10.0465 27.2226 8.98605L28.0036 9.16179C27.6782 10.1509 27.2134 11.0831 26.6247 11.927C26.3342 12.3617 25.9698 12.7363 25.55 13.0319C25.3481 13.1905 25.1161 13.3015 24.8697 13.3573C24.6234 13.4131 24.3685 13.4124 24.1225 13.3553C25.14 13.3348 25.7105 12.4155 26.1798 11.6182C26.618 10.7557 26.9723 9.84901 27.2376 8.91177L28.2557 5.67042L28.0188 9.0875C27.9505 11.0513 28.2887 13.0072 29.0099 14.8201C29.7266 16.6934 30.5844 18.5036 31.5751 20.2334ZM75.6985 18.2743C74.9495 19.8407 74.3036 21.4592 73.7653 23.1186C73.1965 24.7567 72.7409 26.4358 72.402 28.1429C71.6624 31.5231 71.4817 35.0119 71.8679 38.4566C72.0615 40.1675 72.4344 41.8506 72.9797 43.4753C73.2552 44.2867 73.5777 45.0795 73.9455 45.8493C74.2039 46.6214 74.674 47.2958 75.2964 47.7874C75.9217 48.2645 76.679 48.512 77.4514 48.4915C78.2514 48.4165 79.0323 48.1924 79.7577 47.8298C81.2667 47.1002 82.6661 46.1424 83.9116 44.9869C82.7687 46.2958 81.4304 47.3997 79.9493 48.2552C79.1833 48.6927 78.3472 48.9781 77.4828 49.097C76.5723 49.1683 75.6648 48.9224 74.9004 48.3974C74.1445 47.8738 73.5642 47.1137 73.2413 46.2244C72.8469 45.4316 72.499 44.6141 72.1996 43.7765C71.6048 42.0971 71.19 40.3531 70.9632 38.5769C70.5974 35.0232 70.8546 31.4291 71.722 27.973C72.5522 24.5395 73.8944 21.2661 75.6985 18.2743ZM46.7846 164.673C46.7353 167.678 46.5645 170.671 46.3944 173.665L46.3783 173.951L46.158 173.995C45.62 174.061 45.0749 174.005 44.5586 173.833C44.0424 173.661 43.5667 173.376 43.1629 172.996C42.385 172.362 41.674 171.643 41.0421 170.849C39.8013 169.291 38.7177 167.602 37.8087 165.809C36.8598 164.058 36.0181 162.246 35.2887 160.383C34.5026 158.55 33.8803 156.647 33.2482 154.756L35.8003 160.13C36.2172 161.027 36.6672 161.905 37.135 162.772C37.5767 163.654 38.0324 164.525 38.5216 165.375C39.4623 167.085 40.5296 168.714 41.7135 170.248C42.2897 171.005 42.9411 171.694 43.6566 172.305C44.274 172.886 45.0627 173.225 45.8899 173.266L45.6538 173.595C45.9907 170.617 46.3268 167.639 46.7846 164.673ZM66.1006 167.392C64.9782 173.389 63.6506 179.332 62.2627 185.259L62.0078 184.725C65.5416 186.21 68.9898 187.892 72.4398 189.577C74.1475 190.458 75.8464 191.36 77.5186 192.32C79.2281 193.213 80.8112 194.352 82.2226 195.704C80.695 194.529 79.0421 193.545 77.2974 192.773C75.5921 191.908 73.859 191.099 72.1178 190.312C68.6701 188.656 65.1497 187.162 61.6764 185.569L61.3293 185.41L61.4212 185.035C62.8725 179.125 64.3839 173.232 66.1006 167.392ZM118.117 181.548C115.103 179.373 111.868 177.558 108.472 176.136C105.131 174.641 101.538 173.866 97.9062 173.857C96.1225 173.883 94.3643 174.307 92.7477 175.1C91.1311 175.893 89.6931 177.038 88.5283 178.459C86.2973 181.44 84.7967 184.952 84.1582 188.686C84.0061 189.602 83.7521 190.607 83.6835 191.449C83.6578 192.382 83.7055 193.316 83.826 194.241C84.0633 196.128 84.4077 197.998 84.8574 199.842C85.7898 203.546 86.9184 207.192 88.2381 210.763C90.8486 217.93 93.9697 224.889 96.9812 231.906L97.0941 232.169L96.8285 232.207L85.7209 233.774L96.7674 231.786L96.6149 232.086C93.4592 225.15 90.1356 218.272 87.4877 211.067C86.1333 207.473 84.9713 203.803 84.0071 200.072C83.534 198.191 83.1714 196.282 82.9213 194.355C82.7999 193.372 82.7568 192.381 82.7924 191.39C82.8945 190.318 83.1393 189.457 83.3059 188.481C83.9976 184.611 85.5833 180.98 87.9234 177.906C89.1636 176.406 90.6965 175.203 92.4181 174.381C94.1448 173.593 96.0063 173.185 97.8884 173.182C101.597 173.251 105.252 174.126 108.623 175.753C111.982 177.308 115.166 179.252 118.117 181.548ZM126.786 225.136C126.758 226.175 126.569 227.203 126.227 228.178C125.899 229.159 125.42 230.077 124.809 230.894C124.836 229.855 125.025 228.827 125.369 227.852C125.698 226.872 126.177 225.955 126.786 225.136ZM73.7053 244.067C73.3167 243.885 72.9776 243.604 72.7186 243.249C72.4597 242.895 72.2892 242.477 72.2227 242.036C72.1628 241.591 72.1896 241.137 72.3016 240.703C72.4164 240.277 72.6386 239.892 72.9449 239.588C72.9476 240.352 73.0064 241.114 73.1207 241.868C73.2464 242.62 73.4422 243.356 73.7053 244.067ZM27.8871 244.067C27.6285 243.877 27.4127 243.629 27.255 243.342C27.0973 243.054 27.0015 242.734 26.9743 242.403C26.9578 242.055 27.0154 241.708 27.1429 241.386C27.2117 241.222 27.3141 241.077 27.4427 240.959C27.5714 240.842 27.7232 240.756 27.8871 240.708C27.8 241.241 27.7985 241.787 27.8828 242.321C27.9356 242.901 27.9371 243.486 27.8871 244.067ZM4.79763 244.118C4.47637 244.007 4.19561 243.795 3.99389 243.509C3.79217 243.224 3.67935 242.88 3.6709 242.524C3.67397 242.153 3.78409 241.792 3.9867 241.488C4.18317 241.202 4.47109 241 4.79763 240.919C4.65005 241.431 4.5775 241.964 4.58248 242.499C4.60582 243.045 4.67786 243.587 4.79763 244.118ZM53.6289 209.402C53.7513 211.334 53.7484 213.259 53.7176 215.183C53.6529 217.104 53.6001 219.027 53.4361 220.942L53.4325 220.985L53.4299 220.998C53.2025 222.187 52.7707 223.323 52.1558 224.35C51.8997 224.9 51.503 225.364 51.0101 225.691C50.5172 226.017 49.9476 226.192 49.3653 226.197C49.8851 226.065 50.3659 225.8 50.7648 225.426C51.1637 225.051 51.4683 224.578 51.6515 224.05C52.0894 223.023 52.4113 221.945 52.6109 220.839L52.6048 220.894C52.6436 218.971 52.7936 217.054 52.9316 215.137C53.1038 213.222 53.3036 211.308 53.6289 209.402Z" fill="#222222"/>
<path id="Vector_5" d="M59.0339 16.1143C59.8341 16.1143 60.4828 15.1807 60.4828 14.0291C60.4828 12.8774 59.8341 11.9439 59.0339 11.9439C58.2337 11.9439 57.585 12.8774 57.585 14.0291C57.585 15.1807 58.2337 16.1143 59.0339 16.1143Z" fill="#222222"/>
<path id="Vector_6" d="M33.0662 5.11676C34.7677 5.11676 36.147 3.97133 36.147 2.55838C36.147 1.14543 34.7677 0 33.0662 0C31.3647 0 29.9854 1.14543 29.9854 2.55838C29.9854 3.97133 31.3647 5.11676 33.0662 5.11676Z" fill="#342E54"/>
</g>
</svg>
