<svg xmlns="http://www.w3.org/2000/svg" width="206" height="245" viewBox="0 0 206 245" fill="none">
  <path d="M135.761 212.339C135.761 212.339 161.922 177.789 76.14 87.5744L84.0486 44.813C87.3754 41.4517 89.3864 36.9034 89.6868 32.062L90.1328 24.872C90.1328 24.872 89.8283 21.0333 84.3531 21.3532C84.3531 21.3532 76.14 -0.400874 48.7629 8.55655L34.7701 0.878723C34.7701 0.878723 27.4697 -0.0809811 28.3822 7.91677C28.3822 7.91677 21.2934 13.9077 30.2129 28.1365C31.6376 30.3286 33.3494 32.2981 35.2977 33.9869C38.4283 36.7927 43.6884 43.7753 40.1719 57.2567C38.6328 63.157 37.0437 69.0427 35.764 75.0112L31.4241 95.2523C31.4241 95.2523 12.5644 116.046 33.2493 154.756C33.2493 154.756 23.0484 221.724 13.3143 232.602C13.3143 232.602 -3.76451 236.733 0.764173 243.766C0.879256 243.934 1.03132 244.071 1.20739 244.164C1.38347 244.257 1.57835 244.304 1.77544 244.301H16.9614C17.6128 244.301 18.2532 244.125 18.8214 243.79C19.3895 243.455 19.8662 242.972 20.2059 242.387L32.9451 216.818C32.9451 216.818 37.5079 214.579 37.2037 204.981L46.0252 173.63C46.0252 173.63 43.5926 225.134 36.5963 230.252C29.6 235.371 24.8473 240.491 26.064 244.33H42.5013C43.2962 244.33 44.0711 244.068 44.7171 243.581C45.3631 243.094 45.8476 242.406 46.1026 241.614L49.6753 227.055C49.6753 227.055 52.7172 228.975 53.6298 214.899L61.8429 185.147L65.7973 187.386C65.7973 187.386 64.6585 193.674 79.1837 214.073C80.9425 216.486 82.0946 219.326 82.5334 222.332C83.541 229.853 80.121 240.683 47.915 232.986L45.1773 243.543C58.0803 243.127 70.9951 243.408 83.8707 244.384C83.8707 244.384 65.7973 230.254 67.9266 244.33L115.307 244.49C115.896 244.467 116.472 244.3 116.99 244.002C117.508 243.705 117.952 243.284 118.289 242.775L124.81 230.894C124.81 230.894 190.515 255.207 205.116 219.377C205.116 219.377 206.941 208.5 189.298 220.657C171.655 232.814 147.32 225.136 135.761 212.339Z" fill="#6A75ED"/>
  <path d="M63.8196 17.6743C63.3803 16.723 62.8955 15.7956 62.3671 14.8959C61.902 14.0612 61.283 13.3328 60.5464 12.7533C60.1945 12.4966 59.7964 12.3183 59.3766 12.2293C58.9568 12.1402 58.524 12.1424 58.105 12.2357C57.1373 12.4352 56.1962 12.7575 55.3022 13.1955C55.6531 12.7822 56.028 12.3922 56.4248 12.0278C56.8641 11.6838 57.3513 11.4133 57.8691 11.2256C58.4239 11.0032 59.0218 10.9255 59.6115 10.9992C60.2012 11.0729 60.765 11.2959 61.2548 11.649C62.1604 12.3514 62.8518 13.316 63.2446 14.4248C63.6462 15.455 63.842 16.5611 63.8196 17.6743Z" fill="#222222"/>
  <path d="M77.56 78.7771L77.4079 87.5747C77.4079 87.5747 41.5135 96.0523 31.1711 95.2525L26.3041 97.8118C26.3041 97.8118 24.0227 96.3722 22.958 89.6541C22.958 89.6541 29.1939 85.6551 31.4753 86.6149L77.56 78.7771Z" fill="#342E54"/>
  <path d="M31.5756 20.2334C30.8846 19.5041 30.2636 18.7049 29.7215 17.8476C28.584 16.1335 27.7697 14.2057 27.3228 12.1689C27.1444 11.1185 27.1108 10.0465 27.2231 8.98605L28.0041 9.16178C27.6787 10.1509 27.2139 11.083 26.6252 11.927C26.3347 12.3617 25.9703 12.7363 25.5505 13.0319C25.3486 13.1905 25.1166 13.3015 24.8702 13.3573C24.6239 13.4131 24.369 13.4124 24.123 13.3553C25.1405 13.3348 25.711 12.4155 26.1803 11.6182C26.6185 10.7557 26.9728 9.849 27.238 8.91177L28.2562 5.67041L28.0193 9.0875C27.951 11.0513 28.2892 13.0072 29.0104 14.82C29.7271 16.6934 30.5849 18.5036 31.5756 20.2334ZM75.699 18.2743C74.95 19.8407 74.3041 21.4592 73.7658 23.1186C73.197 24.7567 72.7413 26.4358 72.4025 28.1429C71.6629 31.5231 71.4822 35.0119 71.8684 38.4566C72.062 40.1675 72.4348 41.8506 72.9802 43.4753C73.2557 44.2867 73.5782 45.0795 73.946 45.8493C74.2044 46.6214 74.6745 47.2958 75.2969 47.7873C75.9222 48.2645 76.6795 48.5119 77.4519 48.4915C78.2519 48.4165 79.0328 48.1924 79.7582 47.8298C81.2672 47.1002 82.6666 46.1424 83.912 44.9869C82.7692 46.2958 81.4308 47.3997 79.9498 48.2552C79.1838 48.6927 78.3476 48.9781 77.4833 49.097C76.5728 49.1683 75.6653 48.9224 74.9009 48.3974C74.145 47.8738 73.5647 47.1136 73.2418 46.2244C72.8474 45.4316 72.4995 44.6141 72.2001 43.7765C71.6052 42.0971 71.1905 40.3531 70.9637 38.5769C70.5979 35.0232 70.8551 31.4291 71.7224 27.9729C72.5527 24.5395 73.8948 21.2661 75.699 18.2743ZM46.785 164.673C46.7358 167.678 46.565 170.671 46.3949 173.665L46.3787 173.951L46.1585 173.995C45.6205 174.061 45.0754 174.005 44.5591 173.833C44.0429 173.661 43.5672 173.376 43.1634 172.996C42.3855 172.362 41.6745 171.643 41.0426 170.849C39.8018 169.291 38.7182 167.602 37.8092 165.809C36.8603 164.058 36.0186 162.246 35.2892 160.383C34.5031 158.55 33.8807 156.647 33.2487 154.756L35.8008 160.13C36.2176 161.027 36.6677 161.905 37.1355 162.772C37.5772 163.654 38.0329 164.525 38.5221 165.375C39.4628 167.085 40.5301 168.714 41.714 170.248C42.2902 171.005 42.9416 171.694 43.6571 172.305C44.2745 172.886 45.0632 173.225 45.8904 173.266L45.6543 173.595C45.9912 170.617 46.3273 167.639 46.785 164.673ZM66.1011 167.392C64.9787 173.389 63.6511 179.332 62.2632 185.259L62.0083 184.725C65.5421 186.21 68.9903 187.892 72.4403 189.577C74.1479 190.458 75.8468 191.36 77.5191 192.32C79.2286 193.213 80.8117 194.352 82.2231 195.704C80.6955 194.529 79.0426 193.545 77.2979 192.773C75.5926 191.908 73.8595 191.099 72.1183 190.312C68.6706 188.656 65.1501 187.162 61.6769 185.569L61.3298 185.41L61.4217 185.035C62.873 179.125 64.3844 173.232 66.1011 167.392ZM118.117 181.548C115.103 179.373 111.868 177.558 108.473 176.136C105.131 174.641 101.538 173.866 97.9067 173.857C96.123 173.883 94.3648 174.307 92.7482 175.1C91.1316 175.893 89.6935 177.038 88.5288 178.459C86.2978 181.44 84.7972 184.952 84.1587 188.686C84.0066 189.602 83.7526 190.607 83.684 191.449C83.6583 192.382 83.706 193.316 83.8265 194.241C84.0638 196.128 84.4082 197.998 84.8579 199.842C85.7903 203.546 86.9189 207.192 88.2385 210.763C90.8491 217.93 93.9702 224.889 96.9817 231.906L97.0946 232.169L96.8289 232.207L85.7214 233.774L96.7679 231.786L96.6154 232.086C93.4596 225.15 90.1361 218.272 87.4882 211.067C86.1338 207.473 84.9717 203.803 84.0076 200.072C83.5345 198.191 83.1719 196.282 82.9218 194.355C82.8004 193.372 82.7573 192.381 82.7929 191.39C82.895 190.318 83.1398 189.457 83.3064 188.481C83.9981 184.611 85.5838 180.98 87.9238 177.906C89.164 176.406 90.697 175.203 92.4185 174.381C94.1452 173.593 96.0068 173.185 97.8889 173.182C101.597 173.251 105.252 174.126 108.623 175.753C111.983 177.308 115.167 179.252 118.117 181.548ZM126.787 225.136C126.758 226.175 126.569 227.203 126.227 228.178C125.9 229.159 125.421 230.077 124.81 230.894C124.836 229.855 125.025 228.827 125.369 227.852C125.699 226.872 126.177 225.955 126.787 225.136ZM73.7058 244.067C73.3172 243.885 72.978 243.604 72.7191 243.249C72.4602 242.895 72.2897 242.477 72.2232 242.036C72.1633 241.591 72.1901 241.137 72.3021 240.703C72.4168 240.277 72.6391 239.892 72.9453 239.588C72.9481 240.352 73.0069 241.114 73.1212 241.868C73.2469 242.62 73.4427 243.356 73.7058 244.067ZM27.8876 244.067C27.629 243.877 27.4132 243.629 27.2555 243.342C27.0978 243.054 27.0019 242.734 26.9747 242.403C26.9583 242.055 27.0159 241.708 27.1434 241.386C27.2122 241.222 27.3145 241.077 27.4432 240.959C27.5719 240.842 27.7237 240.756 27.8876 240.708C27.8004 241.241 27.799 241.787 27.8833 242.321C27.9361 242.901 27.9376 243.486 27.8876 244.067ZM4.79812 244.118C4.47686 244.007 4.1961 243.795 3.99438 243.509C3.79265 243.224 3.67983 242.88 3.67139 242.524C3.67446 242.153 3.78458 241.792 3.98719 241.488C4.18365 241.202 4.47158 241 4.79812 240.919C4.65054 241.431 4.57798 241.964 4.58296 242.499C4.60631 243.045 4.67835 243.587 4.79812 244.118ZM53.6293 209.402C53.7518 211.334 53.7488 213.259 53.7181 215.183C53.6534 217.104 53.6006 219.027 53.4366 220.942L53.433 220.985L53.4304 220.998C53.203 222.187 52.7712 223.323 52.1563 224.35C51.9002 224.9 51.5035 225.364 51.0106 225.691C50.5177 226.017 49.9481 226.192 49.3657 226.197C49.8856 226.065 50.3664 225.8 50.7653 225.426C51.1641 225.051 51.4688 224.578 51.652 224.05C52.0899 223.023 52.4118 221.945 52.6114 220.839L52.6052 220.894C52.6441 218.971 52.7941 217.054 52.9321 215.137C53.1043 213.222 53.3041 211.308 53.6293 209.402Z" fill="#222222"/>
  <path d="M59.0344 16.1143C59.8346 16.1143 60.4833 15.1807 60.4833 14.0291C60.4833 12.8774 59.8346 11.9438 59.0344 11.9438C58.2342 11.9438 57.5854 12.8774 57.5854 14.0291C57.5854 15.1807 58.2342 16.1143 59.0344 16.1143Z" fill="#222222"/>
  <path d="M33.0662 5.11676C34.7677 5.11676 36.147 3.97133 36.147 2.55838C36.147 1.14543 34.7677 0 33.0662 0C31.3647 0 29.9854 1.14543 29.9854 2.55838C29.9854 3.97133 31.3647 5.11676 33.0662 5.11676Z" fill="#342E54"/>
</svg>
