<svg width="388" height="293" viewBox="0 0 388 293" fill="none" xmlns="http://www.w3.org/2000/svg">
<g clip-path="url(#clip0_653_346)">
<g clip-path="url(#clip1_653_346)">
<path d="M37.4754 291.482C38.6986 291.494 39.8979 291.154 40.9217 290.505C41.9455 289.855 42.7478 288.926 43.2271 287.833C43.7064 286.741 43.8412 285.534 43.6145 284.367C43.3878 283.199 42.8097 282.123 41.9534 281.275C41.0971 280.426 40.001 279.843 38.8036 279.599C37.6063 279.355 36.3616 279.461 35.2269 279.904C34.0922 280.347 33.1184 281.107 32.4288 282.087C31.7391 283.068 31.3645 284.225 31.3524 285.413C31.3361 287.006 31.972 288.54 33.1203 289.678C34.2686 290.816 35.8352 291.465 37.4754 291.482ZM12.676 297.234C12.6881 296.047 12.3373 294.882 11.6678 293.887C10.9984 292.893 10.0403 292.113 8.91492 291.647C7.78949 291.181 6.54721 291.049 5.34516 291.269C4.14311 291.488 3.03529 292.049 2.16178 292.88C1.28827 293.711 0.688307 294.775 0.437761 295.937C0.187216 297.1 0.297339 298.309 0.754207 299.411C1.21107 300.513 1.99417 301.459 3.00445 302.129C4.01474 302.8 5.20685 303.164 6.43003 303.177C8.07027 303.193 9.6498 302.577 10.8211 301.462C11.9925 300.348 12.6597 298.827 12.676 297.234ZM49.8445 291.608C48.6213 291.596 47.422 291.936 46.3982 292.585C45.3744 293.235 44.5721 294.165 44.0928 295.257C43.6135 296.35 43.4787 297.556 43.7054 298.723C43.9321 299.891 44.5102 300.967 45.3665 301.816C46.2228 302.664 47.319 303.248 48.5163 303.492C49.7136 303.736 50.9583 303.629 52.093 303.186C53.2277 302.743 54.2015 301.984 54.8911 301.003C55.5808 300.022 55.9554 298.865 55.9676 297.677C55.9838 296.084 55.3479 294.55 54.1996 293.412C53.0513 292.274 51.4847 291.625 49.8445 291.608ZM18.9219 291.292C20.1451 291.305 21.3444 290.965 22.3682 290.315C23.392 289.666 24.1943 288.736 24.6736 287.643C25.1529 286.551 25.2877 285.345 25.061 284.177C24.8343 283.01 24.2562 281.934 23.3999 281.085C22.5435 280.236 21.4474 279.653 20.2501 279.409C19.0528 279.165 17.8081 279.271 16.6734 279.714C15.5386 280.157 14.5649 280.917 13.8752 281.898C13.1856 282.878 12.811 284.036 12.7988 285.223C12.7825 286.816 13.4185 288.35 14.5668 289.488C15.7151 290.627 17.2817 291.275 18.9219 291.292ZM28.168 294.39C25.6618 294.365 23.2075 295.081 21.1314 296.443C19.0553 297.805 17.4557 299.749 16.5454 302.016C16.0341 303.283 15.1012 304.347 13.895 305.04C11.8148 306.233 10.1425 307.995 9.08653 310.105C8.03055 312.215 7.63755 314.581 7.9565 316.907C8.3499 319.773 9.79436 322.406 12.0248 324.323C14.2553 326.239 17.1222 327.311 20.0995 327.341C21.9177 327.359 23.716 326.976 25.3591 326.221C26.1372 325.867 26.9872 325.689 27.8462 325.697C28.7053 325.706 29.5514 325.902 30.3221 326.271C31.9503 327.06 33.7416 327.48 35.5608 327.499C38.5375 327.529 41.425 326.516 43.6936 324.646C45.9621 322.775 47.4597 320.173 47.9115 317.316C48.2783 314.997 47.9342 312.624 46.9222 310.492C45.9102 308.361 44.2749 306.565 42.2201 305.33C41.0281 304.613 40.1171 303.529 39.6321 302.252C38.7683 299.967 37.2089 297.991 35.1611 296.586C33.1133 295.182 30.6741 294.416 28.168 294.39Z" fill="#8087D0"/>
</g>
</g>
<g clip-path="url(#clip2_653_346)">
<path d="M113.72 264.392C114.902 264.709 116.148 264.678 117.301 264.304C118.454 263.929 119.463 263.229 120.199 262.29C120.935 261.351 121.366 260.216 121.437 259.029C121.508 257.842 121.216 256.656 120.598 255.621C119.98 254.586 119.063 253.748 117.965 253.213C116.866 252.679 115.634 252.472 114.424 252.619C113.215 252.765 112.083 253.259 111.171 254.037C110.259 254.815 109.608 255.843 109.3 256.99C108.888 258.529 109.122 260.173 109.951 261.561C110.78 262.949 112.136 263.967 113.72 264.392ZM88.2693 263.79C88.5767 262.643 88.5269 261.427 88.1261 260.297C87.7253 259.168 86.9915 258.174 86.0175 257.442C85.0435 256.711 83.8731 256.274 82.6543 256.187C81.4354 256.101 80.2229 256.368 79.17 256.955C78.1172 257.543 77.2712 258.424 76.7392 259.488C76.2071 260.551 76.0129 261.749 76.181 262.931C76.3492 264.112 76.8721 265.223 77.6837 266.124C78.4954 267.024 79.5592 267.674 80.7408 267.991C82.3252 268.415 84.0085 268.211 85.4204 267.423C86.8323 266.636 87.8571 265.329 88.2693 263.79ZM125.668 267.594C124.487 267.277 123.241 267.308 122.087 267.682C120.934 268.056 119.926 268.757 119.189 269.696C118.453 270.635 118.022 271.769 117.951 272.956C117.88 274.144 118.172 275.33 118.79 276.365C119.409 277.4 120.325 278.238 121.424 278.772C122.523 279.306 123.755 279.513 124.964 279.367C126.173 279.22 127.305 278.727 128.218 277.949C129.13 277.171 129.781 276.143 130.088 274.995C130.5 273.457 130.266 271.813 129.437 270.425C128.608 269.036 127.253 268.018 125.668 267.594ZM95.7978 259.59C96.9794 259.906 98.2256 259.876 99.3788 259.501C100.532 259.127 101.541 258.426 102.277 257.488C103.013 256.549 103.444 255.414 103.515 254.227C103.586 253.04 103.294 251.854 102.676 250.818C102.058 249.783 101.141 248.946 100.042 248.411C98.9434 247.877 97.7114 247.67 96.5021 247.816C95.2929 247.963 94.1606 248.457 93.2486 249.235C92.3365 250.013 91.6856 251.04 91.3781 252.188C90.9659 253.726 91.1999 255.371 92.0288 256.759C92.8576 258.147 94.2134 259.165 95.7978 259.59ZM103.982 264.891C101.561 264.243 99.0055 264.326 96.6556 265.128C94.3058 265.931 92.2727 267.415 90.8267 269.384C90.0162 270.484 88.8477 271.283 87.507 271.653C85.1952 272.291 83.1371 273.581 81.5891 275.362C80.041 277.143 79.0715 279.336 78.8013 281.669C78.4689 284.543 79.2125 287.452 80.8957 289.864C82.5789 292.275 85.0888 294.027 87.9649 294.797C89.7213 295.267 91.5584 295.344 93.3378 295.021C94.1793 294.873 95.047 294.911 95.8768 295.133C96.7067 295.356 97.4774 295.756 98.132 296.306C99.5125 297.475 101.143 298.328 102.9 298.799C105.776 299.569 108.824 299.307 111.487 298.06C114.15 296.813 116.248 294.665 117.397 292.011C118.329 289.856 118.587 287.472 118.137 285.156C117.688 282.839 116.551 280.693 114.868 278.985C113.892 277.994 113.28 276.718 113.128 275.36C112.86 272.932 111.842 270.63 110.208 268.76C108.574 266.89 106.403 265.54 103.982 264.891Z" fill="#8087D0" fill-opacity="0.9"/>
</g>
<g clip-path="url(#clip3_653_346)">
<path d="M152.258 186.175C153.26 186.876 154.442 187.274 155.654 187.317C156.865 187.359 158.053 187.046 159.066 186.415C160.078 185.785 160.871 184.866 161.344 183.775C161.817 182.684 161.948 181.469 161.721 180.285C161.495 179.101 160.92 178 160.07 177.122C159.22 176.244 158.133 175.628 156.947 175.352C155.76 175.077 154.528 175.153 153.404 175.572C152.281 175.992 151.318 176.735 150.637 177.708C149.723 179.012 149.381 180.638 149.685 182.225C149.989 183.813 150.915 185.234 152.258 186.175ZM128.548 176.905C129.23 175.932 129.598 174.772 129.608 173.574C129.618 172.375 129.268 171.19 128.603 170.17C127.938 169.149 126.988 168.338 125.872 167.84C124.756 167.342 123.526 167.178 122.335 167.37C121.145 167.562 120.049 168.101 119.185 168.918C118.321 169.735 117.729 170.795 117.483 171.962C117.237 173.13 117.348 174.353 117.803 175.477C118.258 176.601 119.035 177.575 120.037 178.277C121.381 179.218 123.032 179.602 124.629 179.344C126.225 179.087 127.635 178.209 128.548 176.905ZM162.391 193.27C161.389 192.568 160.207 192.171 158.996 192.128C157.784 192.085 156.597 192.399 155.584 193.029C154.571 193.66 153.778 194.579 153.305 195.67C152.832 196.761 152.701 197.976 152.928 199.16C153.155 200.344 153.729 201.445 154.579 202.323C155.429 203.2 156.516 203.816 157.702 204.092C158.889 204.368 160.122 204.292 161.245 203.872C162.368 203.453 163.331 202.71 164.013 201.737C164.926 200.432 165.269 198.807 164.964 197.219C164.66 195.631 163.735 194.211 162.391 193.27ZM137.059 175.532C138.061 176.234 139.243 176.631 140.455 176.674C141.666 176.717 142.854 176.403 143.867 175.773C144.879 175.142 145.672 174.223 146.145 173.132C146.618 172.041 146.749 170.827 146.522 169.642C146.296 168.458 145.721 167.358 144.871 166.48C144.021 165.602 142.934 164.986 141.748 164.71C140.561 164.434 139.329 164.511 138.206 164.93C137.082 165.349 136.119 166.092 135.438 167.065C134.524 168.37 134.182 169.995 134.486 171.583C134.79 173.171 135.716 174.592 137.059 175.532ZM142.936 183.313C140.883 181.876 138.454 181.08 135.971 181.03C133.489 180.981 131.07 181.68 129.038 183.036C127.9 183.792 126.529 184.143 125.143 184.033C122.752 183.842 120.377 184.35 118.313 185.494C116.249 186.638 114.588 188.367 113.536 190.467C112.241 193.054 111.945 196.042 112.702 198.884C113.459 201.725 115.218 204.23 117.657 205.937C119.147 206.98 120.847 207.68 122.629 207.986C123.471 208.134 124.273 208.467 124.977 208.96C125.681 209.452 126.268 210.092 126.695 210.832C127.592 212.404 128.833 213.762 130.323 214.806C132.762 216.513 135.716 217.309 138.645 217.048C141.574 216.787 144.28 215.487 146.267 213.385C147.881 211.679 148.938 209.527 149.308 207.197C149.677 204.867 149.343 202.461 148.346 200.28C147.768 199.015 147.629 197.607 147.951 196.279C148.53 193.905 148.36 191.394 147.464 189.078C146.569 186.762 144.989 184.751 142.936 183.313Z" fill="#8087D0" fill-opacity="0.7"/>
</g>
<g clip-path="url(#clip4_653_346)">
<path d="M210.75 130.318C211.452 131.32 212.426 132.098 213.55 132.552C214.674 133.007 215.897 133.118 217.065 132.872C218.232 132.626 219.292 132.034 220.109 131.17C220.926 130.307 221.465 129.21 221.657 128.02C221.849 126.83 221.685 125.599 221.187 124.483C220.689 123.367 219.878 122.417 218.857 121.752C217.837 121.087 216.652 120.737 215.453 120.747C214.255 120.757 213.095 121.126 212.122 121.807C210.818 122.721 209.94 124.131 209.683 125.727C209.425 127.323 209.809 128.974 210.75 130.318ZM191.641 113.498C192.614 112.816 193.357 111.853 193.776 110.73C194.195 109.607 194.272 108.374 193.996 107.188C193.72 106.001 193.104 104.914 192.226 104.064C191.348 103.214 190.248 102.64 189.063 102.413C187.879 102.186 186.665 102.318 185.574 102.79C184.482 103.263 183.564 104.056 182.933 105.069C182.303 106.082 181.989 107.269 182.032 108.481C182.075 109.693 182.472 110.874 183.174 111.876C184.114 113.22 185.535 114.145 187.123 114.45C188.711 114.754 190.336 114.411 191.641 113.498ZM217.845 140.451C217.144 139.449 216.169 138.671 215.045 138.217C213.921 137.762 212.698 137.651 211.531 137.897C210.363 138.143 209.304 138.735 208.486 139.599C207.669 140.462 207.13 141.559 206.938 142.749C206.746 143.939 206.91 145.17 207.408 146.286C207.907 147.401 208.717 148.352 209.738 149.017C210.758 149.682 211.943 150.032 213.142 150.022C214.341 150.012 215.5 149.643 216.473 148.962C217.778 148.048 218.655 146.638 218.913 145.042C219.17 143.446 218.786 141.794 217.845 140.451ZM200.108 115.119C200.809 116.121 201.784 116.899 202.908 117.353C204.032 117.808 205.255 117.919 206.422 117.673C207.59 117.427 208.649 116.835 209.467 115.971C210.284 115.108 210.823 114.011 211.015 112.821C211.207 111.631 211.043 110.4 210.545 109.284C210.046 108.168 209.236 107.218 208.215 106.553C207.194 105.888 206.01 105.538 204.811 105.548C203.612 105.558 202.453 105.927 201.48 106.608C200.175 107.522 199.298 108.932 199.04 110.528C198.783 112.124 199.167 113.776 200.108 115.119ZM202.969 124.441C201.531 122.388 199.521 120.809 197.205 119.913C194.889 119.018 192.377 118.848 190.004 119.427C188.676 119.748 187.267 119.609 186.002 119.031C183.821 118.034 181.416 117.699 179.085 118.068C176.754 118.437 174.602 119.494 172.895 121.108C170.794 123.095 169.493 125.802 169.232 128.731C168.972 131.661 169.769 134.616 171.477 137.054C172.52 138.544 173.878 139.783 175.448 140.68C176.188 141.107 176.829 141.694 177.321 142.398C177.814 143.102 178.147 143.904 178.295 144.746C178.601 146.529 179.302 148.23 180.345 149.72C182.053 152.159 184.557 153.917 187.399 154.674C190.24 155.43 193.228 155.134 195.814 153.839C197.913 152.787 199.643 151.127 200.787 149.063C201.932 147 202.44 144.625 202.25 142.235C202.139 140.848 202.49 139.477 203.247 138.339C204.602 136.307 205.302 133.889 205.252 131.406C205.203 128.924 204.406 126.494 202.969 124.441Z" fill="#8087D0" fill-opacity="0.5"/>
</g>
<g clip-path="url(#clip5_653_346)">
<path d="M222.976 61.5581C223.493 62.6668 224.318 63.6016 225.346 64.2445C226.374 64.8874 227.559 65.2095 228.751 65.17C229.944 65.1304 231.09 64.7311 232.045 64.0225C233 63.3138 233.721 62.3277 234.117 61.1888C234.512 60.0499 234.565 58.8094 234.268 57.6241C233.971 56.4389 233.338 55.3621 232.448 54.5299C231.558 53.6978 230.453 53.1477 229.27 52.9491C228.088 52.7506 226.882 52.9126 225.806 53.4146C224.362 54.0878 223.253 55.3239 222.722 56.8511C222.192 58.3783 222.283 60.0715 222.976 61.5581ZM207.078 41.6748C208.155 41.1728 209.054 40.3533 209.662 39.32C210.269 38.2867 210.559 37.0859 210.493 35.8696C210.428 34.6532 210.01 33.4759 209.293 32.4865C208.576 31.4971 207.592 30.7401 206.465 30.3111C205.338 29.8822 204.119 29.8006 202.962 30.0766C201.806 30.3527 200.763 30.974 199.966 31.8621C199.17 32.7501 198.655 33.865 198.486 35.0657C198.318 36.2664 198.504 37.499 199.021 38.6076C199.714 40.0943 200.953 41.2526 202.464 41.8278C203.975 42.403 205.634 42.348 207.078 41.6748ZM228.204 72.7689C227.687 71.6602 226.863 70.7253 225.835 70.0824C224.807 69.4395 223.622 69.1175 222.429 69.157C221.237 69.1966 220.09 69.5959 219.135 70.3045C218.18 71.0132 217.46 71.9993 217.064 73.1382C216.668 74.2771 216.616 75.5176 216.913 76.7029C217.21 77.8881 217.843 78.9649 218.732 79.7971C219.622 80.6292 220.728 81.1793 221.91 81.3778C223.093 81.5764 224.298 81.4144 225.375 80.9124C226.818 80.2392 227.927 79.0031 228.458 77.4759C228.989 75.9486 228.897 74.2555 228.204 72.7689ZM215.135 44.742C215.652 45.8507 216.477 46.7855 217.504 47.4284C218.532 48.0713 219.717 48.3934 220.91 48.3539C222.102 48.3143 223.249 47.915 224.204 47.2064C225.159 46.4977 225.879 45.5116 226.275 44.3727C226.671 43.2338 226.724 41.9933 226.427 40.808C226.129 39.6228 225.496 38.546 224.607 37.7138C223.717 36.8817 222.611 36.3316 221.429 36.1331C220.246 35.9345 219.041 36.0965 217.964 36.5985C216.521 37.2717 215.412 38.5078 214.881 40.035C214.35 41.5622 214.442 43.2554 215.135 44.742ZM216.334 54.4192C215.275 52.1478 213.569 50.2434 211.444 48.9592C209.318 47.675 206.874 47.0718 204.437 47.2297C203.073 47.3158 201.71 46.9341 200.564 46.1452C198.59 44.7843 196.279 44.0368 193.92 43.9957C191.56 43.9546 189.257 44.6218 187.296 45.9142C184.881 47.5068 183.13 49.9466 182.365 52.786C181.6 55.6255 181.871 58.674 183.13 61.3723C183.899 63.02 185.021 64.4766 186.412 65.6323C187.066 66.1816 187.595 66.871 187.958 67.6496C188.321 68.4282 188.509 69.2761 188.509 70.1306C188.501 71.9399 188.896 73.7368 189.664 75.3858C190.923 78.0836 193.083 80.2504 195.75 81.4887C198.417 82.7271 201.411 82.9539 204.183 82.1276C206.433 81.4569 208.425 80.1217 209.91 78.2885C211.395 76.4552 212.308 74.2049 212.536 71.8178C212.668 70.4331 213.251 69.1436 214.194 68.1545C215.882 66.3886 216.991 64.1286 217.373 61.6751C217.755 59.2216 217.393 56.6908 216.334 54.4192Z" fill="#8087D0" fill-opacity="0.4"/>
</g>
<g clip-path="url(#clip6_653_346)">
<path d="M289.088 99.9851C289.405 101.167 290.054 102.231 290.955 103.042C291.856 103.854 292.967 104.377 294.148 104.545C295.329 104.713 296.527 104.519 297.591 103.987C298.655 103.455 299.536 102.609 300.123 101.556C300.711 100.503 300.978 99.2905 300.891 98.0717C300.805 96.8528 300.368 95.6824 299.636 94.7084C298.905 93.7345 297.911 93.0007 296.781 92.5999C295.651 92.199 294.436 92.1492 293.289 92.4566C291.75 92.8689 290.443 93.8937 289.655 95.3055C288.868 96.7174 288.664 98.4007 289.088 99.9851ZM276.884 77.6432C278.031 77.3357 279.059 76.6848 279.837 75.7728C280.615 74.8607 281.109 73.7284 281.255 72.5192C281.402 71.3099 281.195 70.0779 280.661 68.979C280.126 67.8802 279.289 66.9637 278.253 66.3456C277.218 65.7275 276.032 65.4355 274.845 65.5065C273.658 65.5775 272.523 66.0084 271.584 66.7446C270.645 67.4808 269.945 68.4893 269.57 69.6425C269.196 70.7957 269.165 72.0419 269.482 73.2235C269.907 74.8079 270.925 76.1637 272.313 76.9925C273.701 77.8214 275.345 78.0554 276.884 77.6432ZM292.29 111.933C291.973 110.752 291.323 109.688 290.423 108.876C289.522 108.065 288.411 107.542 287.23 107.374C286.048 107.205 284.85 107.4 283.787 107.932C282.723 108.464 281.842 109.31 281.255 110.363C280.667 111.415 280.4 112.628 280.487 113.847C280.573 115.066 281.01 116.236 281.741 117.21C282.473 118.184 283.467 118.918 284.597 119.319C285.726 119.719 286.942 119.769 288.089 119.462C289.628 119.05 290.935 118.025 291.722 116.613C292.51 115.201 292.714 113.518 292.29 111.933ZM284.286 82.0629C284.602 83.2444 285.252 84.3083 286.153 85.1199C287.054 85.9315 288.165 86.4545 289.346 86.6226C290.527 86.7908 291.725 86.5965 292.789 86.0645C293.852 85.5325 294.734 84.6865 295.321 83.6336C295.908 82.5807 296.176 81.3682 296.089 80.1494C296.002 78.9305 295.566 77.7601 294.834 76.7862C294.102 75.8122 293.109 75.0784 291.979 74.6776C290.849 74.2768 289.634 74.2269 288.486 74.5343C286.948 74.9466 285.641 75.9714 284.853 77.3833C284.065 78.7951 283.861 80.4784 284.286 82.0629ZM283.786 91.8012C283.137 89.3804 281.788 87.2087 279.918 85.575C278.048 83.9412 275.746 82.9228 273.318 82.655C271.96 82.503 270.684 81.8904 269.693 80.9146C267.985 79.2315 265.839 78.094 263.522 77.6438C261.206 77.1936 258.822 77.4507 256.667 78.383C254.011 79.532 251.864 81.6308 250.617 84.2942C249.37 86.9576 249.108 90.007 249.879 92.8829C250.35 94.639 251.203 96.2683 252.371 97.648C252.921 98.3026 253.321 99.0733 253.544 99.9031C253.766 100.733 253.804 101.601 253.656 102.442C253.333 104.223 253.41 106.061 253.881 107.818C254.652 110.693 256.403 113.203 258.815 114.885C261.226 116.568 264.135 117.311 267.008 116.979C269.341 116.709 271.534 115.74 273.315 114.192C275.096 112.645 276.386 110.587 277.025 108.276C277.395 106.935 278.194 105.767 279.294 104.956C281.263 103.51 282.747 101.477 283.55 99.1273C284.352 96.7775 284.435 94.2222 283.786 91.8012Z" fill="#8087D0" fill-opacity="0.3"/>
</g>
<g clip-path="url(#clip7_653_346)">
<path d="M318.223 38.0147C318.33 39.2333 318.785 40.3938 319.531 41.3495C320.277 42.3052 321.281 43.0132 322.415 43.3839C323.549 43.7546 324.763 43.7713 325.902 43.432C327.042 43.0928 328.057 42.4127 328.818 41.4778C329.579 40.5429 330.053 39.3952 330.18 38.1799C330.306 36.9645 330.079 35.736 329.528 34.6498C328.976 33.5636 328.125 32.6684 327.082 32.0775C326.039 31.4866 324.851 31.2264 323.667 31.3299C322.081 31.4688 320.616 32.251 319.595 33.5047C318.574 34.7583 318.08 36.3806 318.223 38.0147ZM310.084 13.8929C311.268 13.7894 312.393 13.3268 313.317 12.5638C314.242 11.8007 314.925 10.7713 315.279 9.60586C315.633 8.44041 315.644 7.19121 315.308 6.01623C314.973 4.84125 314.307 3.79327 313.395 3.0048C312.483 2.21633 311.365 1.72279 310.184 1.58659C309.002 1.4504 307.81 1.67766 306.758 2.23964C305.705 2.80162 304.84 3.67308 304.271 4.74381C303.702 5.81455 303.456 7.03647 303.562 8.25506C303.705 9.88914 304.473 11.4011 305.696 12.4585C306.919 13.5158 308.498 14.0318 310.084 13.8929ZM319.302 50.3373C319.195 49.1187 318.74 47.9582 317.994 47.0025C317.248 46.0468 316.244 45.3388 315.11 44.9681C313.976 44.5974 312.762 44.5807 311.623 44.9199C310.483 45.2592 309.468 45.9393 308.707 46.8742C307.945 47.809 307.472 48.9567 307.345 50.1721C307.219 51.3875 307.446 52.6159 307.997 53.7022C308.549 54.7884 309.4 55.6835 310.443 56.2745C311.486 56.8654 312.674 57.1256 313.858 57.022C315.444 56.8832 316.909 56.1009 317.93 54.8473C318.951 53.5937 319.444 51.9714 319.302 50.3373ZM316.606 19.5308C316.713 20.7494 317.168 21.9099 317.914 22.8656C318.66 23.8213 319.664 24.5293 320.798 24.9C321.932 25.2706 323.145 25.2874 324.285 24.9481C325.425 24.6089 326.44 23.9288 327.201 22.9939C327.962 22.059 328.436 20.9113 328.562 19.696C328.689 18.4806 328.462 17.2521 327.91 16.1659C327.359 15.0797 326.508 14.1845 325.465 13.5936C324.422 13.0027 323.234 12.7425 322.05 12.846C320.463 12.9849 318.998 13.7671 317.978 15.0208C316.957 16.2744 316.463 17.8967 316.606 19.5308ZM314.423 29.0345C314.205 26.5377 313.253 24.1648 311.695 22.2311C310.137 20.2975 308.047 18.8947 305.702 18.2094C304.391 17.8239 303.241 16.999 302.435 15.866C301.045 13.9118 299.129 12.4189 296.926 11.5733C294.723 10.7278 292.33 10.5669 290.046 11.1108C287.231 11.7813 284.752 13.4752 283.061 15.8817C281.371 18.2881 280.584 21.2457 280.843 24.2118C281.002 26.023 281.559 27.7756 282.47 29.3373C282.898 30.0773 283.158 30.9059 283.233 31.7617C283.308 32.6175 283.195 33.4788 282.903 34.2817C282.276 35.979 282.033 37.8026 282.191 39.615C282.451 42.5805 283.74 45.3557 285.822 47.4314C287.905 49.5071 290.641 50.7443 293.528 50.9159C295.872 51.0552 298.2 50.4818 300.223 49.2671C302.246 48.0524 303.873 46.2501 304.903 44.0847C305.501 42.8286 306.49 41.8165 307.715 41.2095C309.905 40.1274 311.72 38.3829 312.918 36.2082C314.116 34.0334 314.642 31.5313 314.423 29.0345Z" fill="#8087D0" fill-opacity="0.2"/>
</g>
<g clip-path="url(#clip8_653_346)">
<path d="M373.716 91.8744C373.822 93.093 374.277 94.2535 375.023 95.2093C375.769 96.165 376.773 96.8729 377.907 97.2436C379.041 97.6143 380.255 97.6311 381.394 97.2918C382.534 96.9525 383.549 96.2724 384.31 95.3376C385.072 94.4027 385.545 93.255 385.672 92.0396C385.798 90.8242 385.571 89.5958 385.02 88.5096C384.468 87.4234 383.617 86.5282 382.574 85.9372C381.531 85.3463 380.343 85.0862 379.16 85.1897C377.573 85.3285 376.108 86.1108 375.087 87.3644C374.066 88.6181 373.573 90.2403 373.716 91.8744ZM365.577 67.7527C366.76 67.6491 367.885 67.1866 368.81 66.4235C369.734 65.6604 370.417 64.631 370.771 63.4656C371.126 62.3001 371.136 61.051 370.8 59.876C370.465 58.701 369.799 57.653 368.887 56.8645C367.975 56.0761 366.857 55.5825 365.676 55.4463C364.495 55.3101 363.302 55.5374 362.25 56.0994C361.197 56.6614 360.332 57.5328 359.763 58.6036C359.195 59.6743 358.948 60.8962 359.055 62.1148C359.197 63.7489 359.965 65.2609 361.188 66.3182C362.411 67.3755 363.99 67.8915 365.577 67.7527ZM374.794 104.197C374.687 102.978 374.232 101.818 373.486 100.862C372.74 99.9065 371.736 99.1985 370.602 98.8279C369.468 98.4572 368.255 98.4404 367.115 98.7797C365.975 99.1189 364.96 99.799 364.199 100.734C363.438 101.669 362.964 102.816 362.838 104.032C362.711 105.247 362.938 106.476 363.49 107.562C364.041 108.648 364.892 109.543 365.935 110.134C366.978 110.725 368.167 110.985 369.35 110.882C370.937 110.743 372.402 109.961 373.423 108.707C374.443 107.453 374.937 105.831 374.794 104.197ZM372.099 73.3905C372.205 74.6091 372.66 75.7696 373.406 76.7253C374.152 77.6811 375.156 78.389 376.29 78.7597C377.424 79.1304 378.638 79.1472 379.777 78.8079C380.917 78.4686 381.932 77.7885 382.693 76.8537C383.455 75.9188 383.928 74.7711 384.055 73.5557C384.181 72.3403 383.954 71.1119 383.403 70.0257C382.851 68.9395 382 68.0443 380.957 67.4533C379.914 66.8624 378.726 66.6023 377.542 66.7058C375.956 66.8446 374.491 67.6269 373.47 68.8805C372.449 70.1341 371.956 71.7564 372.099 73.3905ZM369.916 82.8942C369.697 80.3975 368.745 78.0245 367.187 76.0909C365.63 74.1572 363.539 72.7545 361.194 72.0691C359.884 71.6836 358.734 70.8588 357.927 69.7257C356.537 67.7715 354.621 66.2786 352.418 65.4331C350.215 64.5875 347.822 64.4267 345.538 64.9706C342.724 65.6411 340.244 67.335 338.553 69.7414C336.863 72.1478 336.076 75.1054 336.336 78.0715C336.495 79.8828 337.051 81.6353 337.963 83.197C338.39 83.9371 338.651 84.7656 338.725 85.6214C338.8 86.4773 338.687 87.3385 338.395 88.1415C337.768 89.8387 337.525 91.6624 337.683 93.4747C337.943 96.4403 339.232 99.2154 341.315 101.291C343.397 103.367 346.133 104.604 349.02 104.776C351.364 104.915 353.692 104.341 355.715 103.127C357.738 101.912 359.366 100.11 360.396 97.9445C360.993 96.6884 361.983 95.6763 363.207 95.0692C365.397 93.9871 367.212 92.2427 368.41 90.0679C369.609 87.8931 370.134 85.391 369.916 82.8942Z" fill="#8087D0" fill-opacity="0.1"/>
</g>
<g clip-path="url(#clip9_653_346)">
<path d="M128.428 108.178C129.293 109.043 130.388 109.64 131.574 109.892C132.759 110.145 133.983 110.042 135.09 109.597C136.197 109.152 137.138 108.385 137.793 107.393C138.448 106.4 138.788 105.227 138.77 104.021C138.753 102.816 138.378 101.632 137.693 100.62C137.009 99.6076 136.045 98.8123 134.925 98.3346C133.804 97.8569 132.577 97.7182 131.398 97.9361C130.219 98.1539 129.142 98.7185 128.302 99.5584C127.175 100.685 126.556 102.226 126.58 103.842C126.603 105.459 127.268 107.019 128.428 108.178ZM106.688 94.9319C107.528 94.0919 108.093 93.0144 108.31 91.8355C108.528 90.6565 108.39 89.4292 107.912 88.3086C107.434 87.1881 106.639 86.2247 105.627 85.5402C104.614 84.8557 103.431 84.4809 102.225 84.4632C101.02 84.4455 99.8465 84.7857 98.8539 85.4407C97.8614 86.0958 97.0941 87.0362 96.6492 88.1432C96.2042 89.2502 96.1015 90.474 96.354 91.6599C96.6066 92.8457 97.203 93.9403 98.068 94.8053C99.2279 95.9651 100.788 96.6301 102.404 96.6538C104.021 96.6776 105.562 96.0582 106.688 94.9319ZM137.175 116.925C136.31 116.06 135.215 115.464 134.029 115.211C132.844 114.959 131.62 115.061 130.513 115.506C129.406 115.951 128.465 116.719 127.81 117.711C127.155 118.704 126.815 119.877 126.833 121.082C126.851 122.288 127.225 123.472 127.91 124.484C128.594 125.496 129.558 126.291 130.678 126.769C131.799 127.247 133.026 127.385 134.205 127.168C135.384 126.95 136.462 126.385 137.301 125.545C138.428 124.419 139.047 122.878 139.023 121.261C139 119.645 138.335 118.085 137.175 116.925ZM115.308 95.0585C116.173 95.9234 117.268 96.5199 118.454 96.7724C119.639 97.025 120.863 96.9223 121.97 96.4773C123.077 96.0323 124.018 95.2651 124.673 94.2725C125.328 93.28 125.668 92.1068 125.65 90.9012C125.633 89.6957 125.258 88.512 124.573 87.4998C123.889 86.4876 122.925 85.6923 121.805 85.2146C120.684 84.7369 119.457 84.5982 118.278 84.816C117.099 85.0339 116.022 85.5984 115.182 86.4384C114.055 87.5647 113.436 89.1056 113.46 90.7222C113.483 92.3388 114.148 93.8986 115.308 95.0585ZM119.745 103.742C117.972 101.97 115.718 100.764 113.282 100.284C110.846 99.8039 108.343 100.073 106.106 101.055C104.854 101.602 103.443 101.71 102.096 101.36C99.7753 100.757 97.3481 100.845 95.1169 101.613C92.8858 102.382 90.9495 103.796 89.5492 105.681C87.8244 108.004 87.0136 110.895 87.2656 113.825C87.5176 116.755 88.8154 119.527 90.921 121.632C92.2072 122.918 93.7599 123.902 95.4621 124.513C96.265 124.805 96.9973 125.272 97.6048 125.88C98.2122 126.487 98.6794 127.219 98.9717 128.022C99.5825 129.726 100.568 131.279 101.854 132.566C103.96 134.67 106.731 135.967 109.661 136.219C112.59 136.471 115.481 135.66 117.803 133.935C119.688 132.535 121.103 130.6 121.872 128.369C122.641 126.138 122.729 123.711 122.126 121.39C121.777 120.044 121.884 118.633 122.431 117.381C123.414 115.144 123.683 112.641 123.203 110.205C122.723 107.769 121.517 105.514 119.745 103.742Z" fill="#8087D0" fill-opacity="0.6"/>
</g>
<g clip-path="url(#clip10_653_346)">
<g clip-path="url(#clip11_653_346)">
<path d="M65.1828 197.941C66.2915 198.458 67.5241 198.644 68.7248 198.476C69.9254 198.308 71.0403 197.793 71.9284 196.996C72.8164 196.199 73.4377 195.156 73.7138 194C73.9899 192.843 73.9083 191.624 73.4793 190.497C73.0504 189.371 72.2933 188.386 71.3039 187.669C70.3145 186.952 69.1372 186.535 67.9209 186.469C66.7045 186.403 65.5037 186.693 64.4704 187.301C63.4371 187.909 62.6176 188.808 62.1156 189.884C61.4425 191.328 61.3874 192.988 61.9626 194.499C62.5379 196.01 63.6962 197.248 65.1828 197.941ZM40.2232 192.929C40.7252 191.852 40.8872 190.647 40.6887 189.464C40.4901 188.282 39.94 187.176 39.1079 186.287C38.2757 185.397 37.1989 184.764 36.0137 184.467C34.8284 184.17 33.5879 184.222 32.449 184.618C31.3101 185.014 30.324 185.735 29.6153 186.69C28.9067 187.645 28.5074 188.791 28.4678 189.983C28.4283 191.176 28.7504 192.361 29.3933 193.389C30.0362 194.417 30.971 195.241 32.0797 195.758C33.5663 196.451 35.2595 196.543 36.7867 196.012C38.3139 195.482 39.55 194.373 40.2232 192.929ZM76.3935 203.169C75.2849 202.652 74.0523 202.466 72.8516 202.634C71.6509 202.802 70.5361 203.317 69.648 204.114C68.76 204.911 68.1386 205.953 67.8626 207.11C67.5865 208.267 67.6681 209.486 68.097 210.612C68.526 211.739 69.283 212.723 70.2724 213.44C71.2618 214.158 72.4392 214.575 73.6555 214.641C74.8719 214.707 76.0726 214.417 77.1059 213.809C78.1393 213.201 78.9588 212.302 79.4608 211.226C80.1339 209.782 80.1889 208.122 79.6137 206.611C79.0385 205.1 77.8802 203.862 76.3935 203.169ZM48.3667 190.1C49.4754 190.617 50.708 190.803 51.9087 190.634C53.1094 190.466 54.2242 189.951 55.1123 189.154C56.0003 188.358 56.6216 187.315 56.8977 186.158C57.1738 185.002 57.0922 183.783 56.6632 182.656C56.2343 181.529 55.4772 180.545 54.4878 179.828C53.4984 179.111 52.3211 178.693 51.1048 178.627C49.8884 178.562 48.6876 178.851 47.6543 179.459C46.621 180.067 45.8015 180.966 45.2995 182.043C44.6264 183.486 44.5713 185.146 45.1465 186.657C45.7218 188.168 46.8801 189.406 48.3667 190.1ZM55.5057 196.742C53.2341 195.683 50.7033 195.321 48.2498 195.703C45.7963 196.085 43.5363 197.194 41.7703 198.882C40.7811 199.825 39.4917 200.408 38.1071 200.54C35.7196 200.767 33.4688 201.68 31.635 203.165C29.8012 204.65 28.4656 206.642 27.7944 208.892C26.968 211.664 27.1951 214.659 28.434 217.326C29.6729 219.993 31.8405 222.154 34.5391 223.412C36.1873 224.18 37.9832 224.574 39.7915 224.565C40.646 224.565 41.4938 224.754 42.2725 225.117C43.0511 225.48 43.7405 226.008 44.2898 226.663C45.4462 228.055 46.9038 229.177 48.5525 229.946C51.2506 231.204 54.2987 231.475 57.1375 230.71C59.9763 229.944 62.4156 228.193 64.0079 225.779C65.3004 223.818 65.9679 221.515 65.9274 219.156C65.8868 216.797 65.1398 214.486 63.7796 212.512C62.9906 211.366 62.6088 210.003 62.6951 208.64C62.8531 206.202 62.2499 203.758 60.9656 201.632C59.6814 199.507 57.777 197.801 55.5057 196.742Z" fill="#8087D0" fill-opacity="0.8"/>
</g>
</g>
<defs>
<clipPath id="clip0_653_346">
<rect width="55.6635" height="48.0464" fill="white" transform="translate(0.491211 279.091) rotate(0.585991)"/>
</clipPath>
<clipPath id="clip1_653_346">
<rect width="55.6635" height="48.0464" fill="white" transform="translate(0.491211 279.091) rotate(0.585991)"/>
</clipPath>
<clipPath id="clip2_653_346">
<rect width="55.6635" height="48.0464" fill="white" transform="translate(80.9844 243.185) rotate(15)"/>
</clipPath>
<clipPath id="clip3_653_346">
<rect width="55.6635" height="48.0464" fill="white" transform="translate(128.75 155.051) rotate(35)"/>
</clipPath>
<clipPath id="clip4_653_346">
<rect width="55.6635" height="48.0464" fill="white" transform="translate(199.305 93.0306) rotate(55)"/>
</clipPath>
<clipPath id="clip5_653_346">
<rect width="55.6635" height="48.0464" fill="white" transform="translate(218.18 22.8496) rotate(65)"/>
</clipPath>
<clipPath id="clip6_653_346">
<rect width="55.6635" height="48.0464" fill="white" transform="translate(291.086 61.0317) rotate(75)"/>
</clipPath>
<clipPath id="clip7_653_346">
<rect width="55.6635" height="48.0464" fill="white" transform="translate(326.955) rotate(85)"/>
</clipPath>
<clipPath id="clip8_653_346">
<rect width="55.6635" height="48.0464" fill="white" transform="translate(382.447 53.8597) rotate(85)"/>
</clipPath>
<clipPath id="clip9_653_346">
<rect width="55.6635" height="48.0464" fill="white" transform="translate(110.682 73.4449) rotate(45)"/>
</clipPath>
<clipPath id="clip10_653_346">
<rect width="55.6635" height="48.0464" fill="white" transform="translate(36.627 171.372) rotate(25)"/>
</clipPath>
<clipPath id="clip11_653_346">
<rect width="55.6635" height="48.0464" fill="white" transform="translate(36.627 171.372) rotate(25)"/>
</clipPath>
</defs>
</svg>
