<svg width="114" height="99" viewBox="0 0 114 99" fill="none" xmlns="http://www.w3.org/2000/svg">
<g id="Illustration">
<g id="Group">
<g id="Group_2">
<g id="Group_3">
<path id="Vector" d="M83.3807 85.9813C83.3807 85.9813 88.2366 95.1041 96.6558 93.8766C105.075 92.6492 108.892 79.2168 99.514 71.4798C90.0459 63.8339 83.3807 85.9813 83.3807 85.9813Z" fill="#1B1C1E"/>
<path id="Vector_2" d="M27.4779 86.3103C27.4779 86.3103 22.7297 95.4895 14.2966 94.3613C5.86344 93.233 1.88853 79.8465 11.1749 71.9996C20.5524 64.2428 27.4779 86.3103 27.4779 86.3103Z" fill="#1B1C1E"/>
</g>
<path id="Vector_3" d="M16.95 -39.9343C19.9532 -37.6868 34.9653 -27.1741 40.6595 -29.5634C48.3417 -32.8705 48.1183 -40.0271 47.9286 -41.4757C50.2854 -41.3084 52.4604 -41.2306 54.3631 -41.2418C54.9067 -41.245 55.4503 -41.2482 56.0846 -41.2519C56.6282 -41.2551 57.1718 -41.2583 57.806 -41.262C59.7087 -41.2732 61.8827 -41.3766 64.2373 -41.5717C64.1553 -40.1215 63.9256 -32.9622 71.6461 -29.7457C77.4592 -27.3336 92.2553 -38.1123 95.3226 -40.3955C112.477 -35.3318 116.289 -18.8638 108.876 30.1984C108.526 32.3751 108.177 34.5517 107.828 36.8189C107.391 39.6303 106.863 42.261 106.334 44.8012C105.981 46.3436 105.627 47.7954 105.364 49.2466C104.303 53.6926 103.058 57.7773 101.721 61.5C91.6481 89.6476 74.3918 98.085 56.9062 98.3691C39.4185 98.2908 22.1547 90.0565 11.6605 62.03C10.2796 58.3233 8.98714 54.2535 7.87376 49.8203C7.50282 48.3728 7.13189 46.9253 6.85101 45.3866C6.29246 42.8529 5.73336 40.2286 5.26381 37.4225C4.88806 35.1595 4.51284 32.9872 4.13762 30.8148C-3.67045 -18.0672 -0.0532421 -34.6696 16.95 -39.9343Z" fill="white"/>
<g id="Group_4">
<g id="Group_5">
<path id="Vector_4" d="M59.5375 52.7782C61.0772 52.6785 61.9731 50.9517 60.969 49.6891C59.9649 48.4265 58.4177 47.2577 55.9703 47.0909C53.3417 46.9252 51.5371 48.2043 50.4584 49.6603C49.5593 50.8435 50.3849 52.5602 51.8351 52.6423C54.0101 52.7201 56.9105 52.8842 59.5375 52.7782Z" fill="#1B1C1E" stroke="#1B1C1E" stroke-width="1.3738" stroke-miterlimit="10"/>
<path id="Vector_5" d="M55.4269 47.0941C55.4269 47.0941 55.2227 43.1992 55.3117 42.9268C55.4008 42.6545 59.6442 40.0925 65.2649 40.6031" stroke="#1B1C1E" stroke-width="1.3" stroke-miterlimit="10"/>
<path id="Vector_6" d="M55.3105 42.8363C55.3105 42.8363 52.0328 40.1374 46.0513 39.9007" stroke="#1B1C1E" stroke-width="1.3" stroke-miterlimit="10"/>
</g>
<g id="Group_6">
<path id="Vector_7" d="M76.4708 51.1382C72.968 51.1588 70.1452 54.015 70.1658 57.5178C70.1864 61.0206 73.0427 63.8434 76.5454 63.8228C80.0482 63.8022 82.871 60.9459 82.8504 57.4432C82.8298 53.9404 79.9735 51.1176 76.4708 51.1382Z" fill="#1B1C1E"/>
<path id="Vector_8" d="M34.9737 51.3824C31.4709 51.4031 28.6481 54.2593 28.6687 57.7621C28.6893 61.2648 31.5456 64.0876 35.0483 64.067C38.5511 64.0464 41.3739 61.1902 41.3533 57.6874C41.3327 54.1847 38.4764 51.3618 34.9737 51.3824Z" fill="#1B1C1E"/>
</g>
<path id="Vector_9" d="M60.4629 40.8127C60.4629 40.8127 60.0765 36.7376 55.6358 36.5825C50.6515 36.4306 50.4048 40.6906 50.4048 40.6906" stroke="#1B1C1E" stroke-width="1.3" stroke-miterlimit="10"/>
</g>
<g id="Group_7">
<path id="Vector_10" d="M54.7925 16.4726C55.7044 17.4639 57.2447 17.4548 58.1449 16.4528C60.6663 13.8104 65.253 7.98452 66.0226 0.187763C66.9595 -9.96577 61.4092 -13.9198 56.8779 -14.0744C52.3472 -14.1383 45.8461 -10.2946 47.1769 0.298667C48.3132 8.62785 52.4219 13.9495 54.7925 16.4726Z" fill="#6657BD"/>
</g>
<path id="Vector_11" d="M44.7569 97.0815C44.694 86.3902 49.9793 76.1204 55.8697 76.267C67.5592 76.47 69.22 96.9375 69.22 96.9375C65.0581 97.9587 60.8929 98.4362 56.997 98.4592C53.101 98.4821 48.9305 98.0536 44.7569 97.0815Z" fill="#A5AAE3"/>
<g id="Group_8">
<g id="Group_9">
<g id="Vector_12">
<path d="M76.9381 22.7754C76.9381 22.7754 69.9072 13.5748 61.7155 7.2805C57.4379 4.04381 54.7714 -2.55484 59.5511 -6.38847C64.9623 -10.6789 94.7236 -3.51481 105.807 16.8972" fill="white"/>
<path d="M76.9381 22.7754C76.9381 22.7754 69.9072 13.5748 61.7155 7.2805C57.4379 4.04381 54.7714 -2.55484 59.5511 -6.38847C64.9623 -10.6789 94.7236 -3.51481 105.807 16.8972" stroke="#1B1C1E" stroke-width="1.3" stroke-miterlimit="10"/>
</g>
<path id="Vector_13" d="M56.9565 -0.755569C56.9565 -0.755569 60.222 -0.140529 61.8604 1.11833" stroke="#1B1C1E" stroke-width="1.3" stroke-miterlimit="10"/>
</g>
<g id="Group_10">
<g id="Vector_14">
<path d="M35.8039 23.0174C35.8039 23.0174 42.7261 13.7347 50.8431 7.34444C55.0823 4.05763 57.671 -2.57195 52.8465 -6.34906C47.3852 -10.5755 17.7102 -3.06164 6.86764 17.4794" fill="white"/>
<path d="M35.8039 23.0174C35.8039 23.0174 42.7261 13.7347 50.8431 7.34444C55.0823 4.05763 57.671 -2.57195 52.8465 -6.34906C47.3852 -10.5755 17.7102 -3.06164 6.86764 17.4794" stroke="#1B1C1E" stroke-width="1.3" stroke-miterlimit="10"/>
</g>
<path id="Vector_15" d="M55.5074 -0.74713C55.5074 -0.74713 52.2493 -0.0937001 50.6259 1.18436" stroke="#1B1C1E" stroke-width="1.3" stroke-miterlimit="10"/>
</g>
</g>
<g id="Group_11">
<g id="Group_12">
<g id="Group_13">
<path id="Vector_16" d="M92.336 52.6757C92.7634 48.3241 101.374 48.8171 105.454 49.3367C104.393 53.7827 103.149 57.8673 101.812 61.5901C99.0871 60.5189 91.9101 57.2992 92.336 52.6757Z" fill="#A5AAE3"/>
<path id="Vector_17" d="M101.036 37.5838C101.646 33.4122 105.982 31.2121 108.967 30.2885C108.617 32.4651 108.268 34.6418 107.919 36.909C107.482 39.7204 106.954 42.3511 106.425 44.8912C103.974 43.9996 100.428 41.9365 101.036 37.5838Z" fill="#A5AAE3"/>
</g>
</g>
<g id="Group_14">
<path id="Vector_18" d="M7.9642 49.9104C12.0382 49.3428 20.6424 48.7485 21.121 53.0948C21.6012 57.713 14.4627 61.0169 11.751 62.1201C10.37 58.4133 9.07757 54.3436 7.9642 49.9104Z" fill="#A5AAE3"/>
<path id="Vector_19" d="M4.22839 30.9048C7.2242 31.8839 11.5855 33.9422 12.2442 38.1062C12.9041 42.4515 9.38273 44.5562 6.94175 45.4766C6.3832 42.9429 5.82413 40.3186 5.35458 37.5125C4.97883 35.2495 4.60307 32.9866 4.22839 30.9048Z" fill="#A5AAE3"/>
</g>
</g>
</g>
</g>
</g>
</svg>
