<svg width="300" height="236" viewBox="0 0 300 236" fill="none" xmlns="http://www.w3.org/2000/svg">
<path d="M181.272 204.396C188.236 202.216 194.485 199.989 202.002 195.762C209.755 191.403 244.195 170.656 248.673 134.75C249.847 124.909 248.873 114.93 245.819 105.503C244.435 101.44 241.563 93.2783 234.316 85.2071C225.445 75.3208 215.322 71.4891 209.386 69.3222C196.898 64.7609 186.423 65.0012 181.435 65.1643C176.052 65.3402 166.551 65.735 155.751 70.4592C148.705 73.5401 144.325 77.0544 137.871 82.3064C127.645 90.6351 126.299 94.1022 108.411 111.3C103.499 116.02 99.462 119.74 93.2991 123.405C89.0263 125.945 85.572 127.365 79.1991 129.957C63.5348 136.329 59.0749 137.619 53.9492 141.206C43.9806 148.188 44.6263 155.801 44.1977 157.44C43.0832 161.632 42.8252 166.006 43.4391 170.3C44.7463 178.912 49.3791 184.542 52.2548 187.949C56.2021 192.583 60.9854 196.431 66.3548 199.294C70.0823 201.263 73.9433 202.968 77.9091 204.396H181.272Z" fill="#FFCABC"/>
<path d="M203.383 198.309L203.173 197.935C213.416 192.174 247.186 170.575 251.677 134.543C252.888 124.324 251.877 113.965 248.714 104.175C247.439 100.428 244.451 91.654 236.78 83.1082C227.385 72.6424 216.66 68.7257 210.898 66.6217C201.601 63.2707 191.732 61.8022 181.864 62.3015C176.539 62.4746 166.628 62.7976 155.188 67.7984L155.017 67.4053C166.532 62.3715 176.878 62.0346 181.85 61.8724C191.773 61.3713 201.697 62.8486 211.045 66.2186C216.842 68.3356 227.632 72.2762 237.098 82.8216C244.828 91.4324 247.836 100.265 249.12 104.036C252.303 113.888 253.32 124.313 252.103 134.595C247.586 170.828 213.67 192.523 203.383 198.309Z" fill="#FFCABC"/>
<path d="M81.7297 152.503L143.138 150.089L110.502 148.95L56.3835 152.132L52.6211 153.728L81.7297 152.503Z" fill="#B7C0FF"/>
<path d="M51.6016 167.916L85.8238 176.432L84.8223 152.373L52.6216 153.728L51.6016 167.916Z" fill="white"/>
<path d="M56.5161 153.564L52.6214 153.728L46.012 113.551C45.8603 112.629 45.8943 111.686 46.1122 110.777C46.33 109.868 46.7271 109.012 47.2802 108.259C47.8334 107.507 48.5313 106.872 49.333 106.393C50.1347 105.914 51.0239 105.601 51.9484 105.472L55.2532 105.008L56.5161 153.564Z" fill="white"/>
<path d="M113.475 203.967C113.328 203.597 113.253 203.202 113.255 202.804V174.168C113.255 173.321 113.591 172.508 114.19 171.908C114.789 171.309 115.6 170.972 116.447 170.972C117.294 170.972 118.106 171.309 118.704 171.908C119.303 172.508 119.639 173.321 119.639 174.168V202.804C119.641 203.202 119.566 203.597 119.419 203.967H113.475Z" fill="#5A5093"/>
<path d="M77.9162 180.3C77.9751 180.3 78.0341 180.298 78.0936 180.295L142.72 176.751C143.565 176.703 144.357 176.322 144.921 175.691C145.485 175.06 145.776 174.23 145.73 173.385C145.684 172.539 145.304 171.746 144.674 171.18C144.044 170.615 143.216 170.322 142.371 170.368L77.7445 173.912C76.9144 173.958 76.1348 174.325 75.5714 174.937C75.008 175.55 74.7053 176.357 74.7277 177.189C74.7501 178.021 75.0958 178.812 75.6912 179.393C76.2866 179.974 77.0849 180.299 77.9162 180.3Z" fill="#5A5093"/>
<path d="M139.929 203.967C139.811 203.64 139.748 203.297 139.743 202.95L138.826 138.896C138.809 138.276 138.661 137.667 138.392 137.108C138.123 136.549 137.739 136.053 137.265 135.654C136.652 135.125 135.935 134.729 135.16 134.493C134.386 134.257 133.571 134.185 132.767 134.282L109.598 136.851C108.757 136.944 107.913 136.699 107.252 136.169C106.592 135.64 106.168 134.869 106.075 134.027C105.982 133.184 106.227 132.34 106.756 131.678C107.285 131.017 108.055 130.593 108.896 130.499L132.065 127.925C133.753 127.733 135.463 127.895 137.086 128.4C138.708 128.905 140.208 129.743 141.49 130.86C142.635 131.846 143.558 133.064 144.199 134.433C144.84 135.802 145.185 137.291 145.21 138.803L146.127 202.857C146.133 203.234 146.072 203.61 145.948 203.967H139.929Z" fill="#5A5093"/>
<path d="M85.7571 173.546L143.575 170.867C144.462 170.835 145.303 170.46 145.92 169.821C146.536 169.181 146.881 168.327 146.882 167.438L146.761 153.481C146.752 153.018 146.65 152.562 146.462 152.139C146.273 151.716 146.002 151.336 145.665 151.019C145.327 150.703 144.929 150.458 144.495 150.298C144.061 150.138 143.6 150.067 143.138 150.089L85.1365 152.233C84.2361 152.257 83.381 152.634 82.7561 153.283C82.1313 153.933 81.7868 154.802 81.7971 155.704L82.1009 170.196C82.116 170.659 82.2232 171.113 82.4162 171.533C82.6091 171.953 82.884 172.33 83.2247 172.642C83.5653 172.954 83.9648 173.195 84.3997 173.35C84.8346 173.506 85.2961 173.572 85.7571 173.546ZM56.3837 152.131L110.502 148.95L106.793 108.706C106.686 107.55 106.151 106.475 105.293 105.693C104.434 104.912 103.315 104.481 102.155 104.485L57.0656 104.631C56.421 104.633 55.7839 104.769 55.1949 105.031C54.6058 105.293 54.0777 105.675 53.6443 106.153C53.2108 106.631 52.8814 107.193 52.677 107.806C52.4726 108.418 52.3978 109.066 52.4573 109.708L56.3837 152.131Z" fill="#C39386"/>
<path d="M45.0361 131.929C45.2919 131.597 45.6109 131.32 45.9745 131.112C46.3381 130.905 46.7392 130.772 47.1545 130.72L51.3043 130.191L68.4605 128.012C70.0012 127.817 71.5658 127.951 73.0511 128.405C74.5363 128.86 75.9085 129.624 77.0772 130.648C78.2459 131.672 79.1845 132.932 79.8311 134.346C80.4777 135.76 80.8177 137.295 80.8285 138.85L81.2987 202.874C81.2998 203.246 81.237 203.616 81.1129 203.967H75.1001C74.9761 203.632 74.9132 203.278 74.9144 202.921L74.4443 138.896C74.4387 138.245 74.2955 137.602 74.0242 137.01C73.753 136.418 73.3597 135.89 72.8703 135.461C72.3808 135.032 71.8063 134.711 71.1843 134.52C70.5624 134.329 69.9071 134.272 69.2614 134.352L51.815 136.572L47.9555 137.06C47.4927 137.121 47.0221 137.079 46.5775 136.936C46.133 136.793 45.7255 136.554 45.3844 136.235L45.0361 131.929Z" fill="#5A5093"/>
<path d="M56.9403 203.967C57.0946 203.541 57.156 203.087 57.1202 202.636L51.8155 136.572L51.3047 130.191L49.3546 105.873C49.2869 105.028 48.8866 104.244 48.2417 103.694C47.5968 103.144 46.7601 102.873 45.9158 102.941C45.0715 103.009 44.2887 103.41 43.7396 104.056C43.1905 104.701 42.92 105.539 42.9878 106.384L45.0365 131.929L45.3848 136.235L50.7592 203.153C50.7798 203.431 50.8404 203.705 50.9391 203.967H56.9403Z" fill="#5A5093"/>
<path d="M50.7874 167.716L49.4951 174.568L77.4749 179.858L78.7672 173.006L50.7874 167.716Z" fill="#5A5093"/>
<path d="M165.828 39.1185H223.485V104.644H165.828V39.1185ZM221.436 41.1694H167.877V102.593H221.436V41.1694Z" fill="#D6684B"/>
<path d="M166.84 61.7213L221.996 61.7213V40.3466L166.84 40.3466V61.7213Z" fill="#D6684B"/>
<path d="M164.361 107.732L224.955 107.732C225.26 107.732 225.508 107.484 225.508 107.178V105.216C225.508 104.91 225.26 104.662 224.955 104.662L164.361 104.662C164.055 104.662 163.808 104.91 163.808 105.216V107.178C163.808 107.484 164.055 107.732 164.361 107.732Z" fill="#5A5093"/>
<path d="M167.878 63.3965L221.437 63.3965V60.9404L167.878 60.9404V63.3965Z" fill="#E18B74"/>
<path d="M194.85 71.7261L194.553 72.0356L212.766 89.5462L213.063 89.2367L194.85 71.7261Z" fill="#E18B74"/>
<path d="M197.789 64.554L197.497 64.8692L212.768 79.0238L213.06 78.7086L197.789 64.554Z" fill="#E18B74"/>
<path d="M160.586 41.8867L228.723 42.0322C228.845 42.0325 228.966 42.0086 229.079 41.962C229.192 41.9153 229.295 41.8469 229.382 41.7604C229.468 41.674 229.537 41.5714 229.584 41.4584C229.63 41.3454 229.654 41.2242 229.654 41.1019V40.0489C229.654 39.8021 229.557 39.5655 229.382 39.391C229.208 39.2165 228.972 39.1185 228.725 39.1185H160.588C160.342 39.1185 160.106 39.2165 159.931 39.391C159.757 39.5655 159.659 39.8021 159.659 40.0489V40.9563C159.659 41.2027 159.757 41.4391 159.931 41.6135C160.104 41.7879 160.34 41.8861 160.586 41.8867ZM228.732 45.5463L160.595 46.0329C160.472 46.0338 160.351 46.0104 160.237 45.964C160.124 45.9176 160.021 45.8492 159.934 45.7628C159.847 45.6763 159.778 45.5734 159.731 45.4601C159.683 45.3468 159.659 45.2253 159.659 45.1026V43.6333C159.659 43.5111 159.683 43.3901 159.73 43.2772C159.777 43.1643 159.845 43.0618 159.931 42.9754C160.018 42.889 160.12 42.8205 160.233 42.7737C160.346 42.727 160.466 42.7029 160.588 42.7029H228.725C228.972 42.7029 229.208 42.8009 229.382 42.9754C229.557 43.1499 229.654 43.3865 229.654 43.6333V44.6159C229.654 44.8615 229.557 45.0972 229.385 45.2714C229.212 45.4457 228.977 45.5445 228.732 45.5463ZM228.735 49.287L160.598 49.9743C160.475 49.9756 160.353 49.9524 160.239 49.9062C160.125 49.86 160.022 49.7917 159.935 49.7052C159.847 49.6187 159.778 49.5157 159.731 49.4022C159.684 49.2887 159.659 49.167 159.659 49.044V47.7996C159.659 47.5542 159.756 47.3188 159.929 47.1445C160.101 46.9703 160.336 46.8713 160.581 46.8693L228.717 46.2952C228.84 46.2941 228.962 46.3174 229.075 46.3637C229.189 46.41 229.292 46.4784 229.38 46.5649C229.467 46.6513 229.536 46.7543 229.583 46.8676C229.63 46.981 229.654 47.1026 229.654 47.2255V48.3567C229.654 48.6018 229.558 48.837 229.386 49.0112C229.213 49.1854 228.979 49.2845 228.735 49.287ZM228.711 53.3998L160.574 52.3421C160.33 52.3383 160.097 52.2386 159.926 52.0646C159.755 51.8905 159.659 51.6561 159.659 51.4118V51.384C159.659 51.1386 159.756 50.9031 159.929 50.7289C160.101 50.5546 160.336 50.4557 160.581 50.4536L228.717 49.8795C228.84 49.8785 228.962 49.9018 229.075 49.9481C229.189 49.9944 229.292 50.0627 229.38 50.1492C229.467 50.2357 229.536 50.3386 229.583 50.452C229.63 50.5654 229.654 50.687 229.654 50.8098V52.4696C229.654 52.593 229.63 52.7151 229.582 52.829C229.535 52.9428 229.465 53.046 229.377 53.1325C229.289 53.2191 229.185 53.2873 229.071 53.3332C228.956 53.3791 228.834 53.4017 228.711 53.3998ZM228.716 56.5622L160.58 55.9209C160.335 55.9186 160.101 55.8195 159.928 55.6453C159.756 55.4711 159.659 55.2358 159.659 54.9906V54.0174C159.659 53.8941 159.684 53.7721 159.731 53.6583C159.779 53.5446 159.848 53.4415 159.936 53.3549C160.024 53.2684 160.128 53.2001 160.242 53.1541C160.356 53.1082 160.478 53.0854 160.601 53.0871L228.738 54.0413C228.982 54.0447 229.215 54.1442 229.387 54.3183C229.558 54.4924 229.654 54.727 229.654 54.9715V55.6319C229.654 55.7548 229.63 55.8765 229.583 55.99C229.536 56.1034 229.466 56.2063 229.379 56.2928C229.292 56.3794 229.189 56.4477 229.075 56.4939C228.961 56.5402 228.839 56.5634 228.716 56.5622ZM228.725 58.9428H160.588C160.342 58.9428 160.106 58.8448 159.931 58.6703C159.757 58.4958 159.659 58.2592 159.659 58.0124V57.8033C159.659 57.6809 159.683 57.5597 159.73 57.4466C159.777 57.3336 159.846 57.2309 159.932 57.1444C160.019 57.058 160.122 56.9895 160.235 56.9429C160.348 56.8964 160.469 56.8726 160.591 56.8729L228.728 57.0818C228.974 57.0826 229.21 57.1809 229.383 57.3553C229.557 57.5297 229.654 57.7659 229.654 58.0122C229.654 58.2589 229.557 58.4958 229.382 58.6703C229.208 58.8448 228.972 58.9428 228.725 58.9428Z" fill="#5A5093"/>
<path d="M162.438 59.9007C162.515 59.9006 162.59 59.8723 162.649 59.8211C162.707 59.7699 162.745 59.6993 162.756 59.6222L162.844 58.9878C162.85 58.9459 162.847 58.9033 162.837 58.8624C162.826 58.8215 162.808 58.783 162.782 58.7493C162.757 58.7155 162.725 58.687 162.689 58.6656C162.653 58.6441 162.612 58.63 162.571 58.6241C162.529 58.6181 162.486 58.6205 162.445 58.6311C162.405 58.6416 162.366 58.6601 162.332 58.6855C162.299 58.711 162.27 58.7428 162.249 58.7792C162.227 58.8156 162.213 58.8558 162.207 58.8977L162.119 59.5355C162.107 59.62 162.13 59.7057 162.181 59.7736C162.233 59.8415 162.309 59.8862 162.394 59.8977C162.408 59.8997 162.423 59.9007 162.438 59.9007ZM163.093 98.5027C163.051 98.5026 163.009 98.4942 162.97 98.4779C162.931 98.4616 162.896 98.4378 162.866 98.4078C162.837 98.3779 162.813 98.3423 162.797 98.3032C162.781 98.2642 162.773 98.2223 162.773 98.18L162.773 97.9598C162.773 97.6229 162.77 97.2661 162.764 96.8913C162.763 96.8061 162.796 96.7239 162.855 96.6627C162.914 96.6015 162.995 96.5663 163.08 96.5649C163.165 96.5634 163.248 96.5958 163.309 96.655C163.37 96.7141 163.405 96.7952 163.407 96.8804C163.413 97.259 163.416 97.6196 163.416 97.9598L163.416 98.1817C163.415 98.2669 163.381 98.3485 163.321 98.4087C163.261 98.4689 163.179 98.5027 163.094 98.5027L163.093 98.5027ZM162.729 95.6036C162.713 95.1557 162.692 94.7274 162.667 94.3188C162.665 94.2767 162.67 94.2344 162.684 94.1945C162.698 94.1545 162.719 94.1177 162.747 94.0861C162.775 94.0545 162.809 94.0287 162.847 94.0102C162.885 93.9917 162.926 93.9809 162.969 93.9784C163.011 93.9759 163.053 93.9817 163.093 93.9955C163.133 94.0093 163.17 94.0308 163.201 94.0588C163.233 94.0869 163.258 94.1209 163.277 94.1589C163.295 94.1969 163.306 94.2381 163.309 94.2803C163.334 94.6941 163.355 95.1263 163.372 95.5793C163.373 95.6215 163.367 95.6637 163.352 95.7033C163.337 95.743 163.315 95.7793 163.286 95.8103C163.258 95.8413 163.223 95.8663 163.185 95.884C163.146 95.9016 163.105 95.9115 163.063 95.9131L163.05 95.9133C162.967 95.9132 162.887 95.881 162.828 95.8232C162.768 95.7655 162.733 95.6868 162.729 95.6036ZM162.573 93.0374C162.535 92.5901 162.492 92.1656 162.445 91.7598C162.44 91.7178 162.443 91.6753 162.455 91.6346C162.466 91.594 162.486 91.556 162.512 91.5229C162.538 91.4897 162.571 91.4621 162.608 91.4415C162.644 91.421 162.685 91.4079 162.727 91.403C162.769 91.3981 162.811 91.4016 162.852 91.4132C162.893 91.4247 162.93 91.4442 162.964 91.4704C162.997 91.4967 163.024 91.5292 163.045 91.5661C163.065 91.603 163.078 91.6437 163.083 91.6856C163.131 92.0978 163.175 92.5285 163.214 92.9821C163.217 93.0242 163.213 93.0666 163.2 93.1069C163.187 93.1472 163.167 93.1846 163.139 93.217C163.112 93.2493 163.079 93.276 163.042 93.2954C163.004 93.3149 162.963 93.3268 162.921 93.3304C162.912 93.3312 162.902 93.3316 162.893 93.3316C162.813 93.3315 162.735 93.3012 162.676 93.2468C162.617 93.1923 162.58 93.1176 162.573 93.0374ZM162.278 90.4868C162.214 90.0464 162.146 89.6261 162.075 89.2186C162.061 89.1346 162.081 89.0484 162.13 88.9787C162.179 88.9091 162.253 88.8619 162.337 88.8473C162.421 88.8327 162.507 88.852 162.577 88.9009C162.647 88.9499 162.694 89.0245 162.709 89.1084C162.78 89.5213 162.85 89.9475 162.915 90.3938C162.927 90.4782 162.905 90.5641 162.854 90.6326C162.803 90.701 162.727 90.7464 162.643 90.7587C162.559 90.7711 162.473 90.7494 162.404 90.6984C162.336 90.6474 162.291 90.5712 162.278 90.4868ZM161.843 87.952L161.596 86.6841C161.588 86.6426 161.588 86.5999 161.596 86.5585C161.605 86.517 161.621 86.4777 161.645 86.4426C161.668 86.4075 161.699 86.3775 161.734 86.3541C161.769 86.3308 161.808 86.3146 161.85 86.3065C161.891 86.2984 161.934 86.2986 161.975 86.307C162.017 86.3154 162.056 86.3319 162.091 86.3555C162.126 86.3791 162.156 86.4094 162.179 86.4446C162.203 86.4799 162.219 86.5194 162.227 86.5609L162.474 87.831C162.49 87.9148 162.472 88.0016 162.424 88.0722C162.376 88.1428 162.303 88.1916 162.219 88.2077C162.199 88.2114 162.178 88.2133 162.158 88.2133C162.083 88.2132 162.011 88.1871 161.953 88.1394C161.896 88.0917 161.857 88.0255 161.843 87.952ZM161.354 85.4091C161.279 84.9943 161.206 84.5694 161.137 84.1265C161.13 84.0846 161.131 84.0419 161.141 84.0007C161.151 83.9595 161.169 83.9206 161.194 83.8863C161.219 83.852 161.25 83.823 161.286 83.8009C161.322 83.7788 161.362 83.764 161.404 83.7575C161.446 83.7509 161.489 83.7527 161.53 83.7626C161.571 83.7726 161.61 83.7907 161.644 83.8157C161.678 83.8407 161.707 83.8722 161.729 83.9084C161.751 83.9447 161.765 83.9849 161.772 84.0267C161.84 84.4646 161.912 84.8845 161.987 85.2943C162.002 85.3783 161.983 85.4649 161.934 85.535C161.886 85.6051 161.812 85.6531 161.728 85.6683C161.644 85.6835 161.557 85.6648 161.487 85.6162C161.417 85.5676 161.369 85.4931 161.354 85.4091ZM160.955 82.8363C160.903 82.4243 160.855 81.9942 160.812 81.541C160.807 81.4988 160.811 81.4561 160.824 81.4154C160.836 81.3747 160.856 81.3368 160.883 81.304C160.91 81.2711 160.943 81.2439 160.98 81.2239C161.018 81.2039 161.059 81.1916 161.101 81.1875C161.143 81.1835 161.186 81.1879 161.226 81.2004C161.267 81.2129 161.304 81.2334 161.337 81.2605C161.37 81.2877 161.397 81.3211 161.416 81.3587C161.436 81.3964 161.448 81.4375 161.452 81.4799C161.494 81.9263 161.541 82.3502 161.593 82.7558C161.603 82.8405 161.58 82.9259 161.527 82.9934C161.475 83.0608 161.398 83.1047 161.314 83.1153C161.3 83.117 161.287 83.1179 161.273 83.1179C161.195 83.1178 161.119 83.0891 161.061 83.0373C161.002 82.9855 160.964 82.914 160.955 82.8363ZM160.708 80.2408C160.68 79.8052 160.661 79.3727 160.649 78.9361C160.648 78.8939 160.655 78.8518 160.67 78.8124C160.685 78.7729 160.708 78.7368 160.737 78.7061C160.766 78.6754 160.801 78.6508 160.839 78.6335C160.878 78.6163 160.919 78.6069 160.961 78.6057C161.004 78.6024 161.047 78.6081 161.087 78.6224C161.128 78.6367 161.165 78.6594 161.196 78.6888C161.227 78.7183 161.251 78.754 161.268 78.7935C161.284 78.8331 161.292 78.8757 161.291 78.9185C161.303 79.3476 161.322 79.7721 161.349 80.2001C161.355 80.2853 161.326 80.3692 161.27 80.4332C161.213 80.4972 161.134 80.5362 161.049 80.5416C161.042 80.5421 161.035 80.5423 161.028 80.5423C160.947 80.5422 160.868 80.511 160.808 80.455C160.749 80.399 160.713 80.3224 160.708 80.2408ZM160.955 77.9547C160.913 77.9545 160.871 77.9459 160.832 77.9295C160.794 77.9131 160.758 77.8892 160.729 77.8592C160.699 77.8291 160.675 77.7935 160.659 77.7543C160.644 77.7152 160.635 77.6733 160.636 77.631C160.638 77.2095 160.647 76.7775 160.661 76.3285C160.662 76.286 160.671 76.2441 160.688 76.2052C160.705 76.1664 160.73 76.1314 160.761 76.1023C160.792 76.0733 160.828 76.0508 160.868 76.0361C160.908 76.0215 160.95 76.015 160.993 76.0171C161.035 76.0185 161.076 76.0281 161.115 76.0455C161.153 76.0629 161.188 76.0877 161.217 76.1186C161.246 76.1494 161.268 76.1856 161.283 76.2251C161.298 76.2647 161.305 76.3068 161.304 76.349C161.29 76.7921 161.281 77.2187 161.279 77.6348C161.278 77.7198 161.244 77.8012 161.184 77.8611C161.124 77.9211 161.042 77.9547 160.957 77.9547H160.955ZM161.02 75.3668C160.934 75.3624 160.854 75.3244 160.797 75.2611C160.74 75.1977 160.711 75.1143 160.715 75.029C160.736 74.6152 160.76 74.1845 160.788 73.7332C160.79 73.6908 160.801 73.6493 160.819 73.6111C160.838 73.5729 160.863 73.5388 160.895 73.5107C160.927 73.4827 160.964 73.4612 161.004 73.4477C161.044 73.4342 161.087 73.4288 161.129 73.4319C161.171 73.4345 161.212 73.4454 161.25 73.4639C161.288 73.4825 161.322 73.5083 161.35 73.54C161.378 73.5717 161.399 73.6086 161.413 73.6486C161.427 73.6885 161.432 73.7308 161.43 73.773C161.402 74.2218 161.378 74.65 161.357 75.0617C161.353 75.1441 161.317 75.2217 161.257 75.2786C161.198 75.3354 161.118 75.3672 161.036 75.3672L161.02 75.3668ZM161.171 72.7822C161.129 72.7793 161.088 72.7681 161.05 72.7493C161.013 72.7304 160.979 72.7044 160.951 72.6725C160.924 72.6406 160.902 72.6036 160.889 72.5635C160.876 72.5235 160.87 72.4811 160.873 72.439C160.902 72.0262 160.932 71.5955 160.965 71.1467C160.971 71.0616 161.011 70.9824 161.075 70.9266C161.14 70.8708 161.224 70.8429 161.309 70.8492C161.394 70.8554 161.473 70.8952 161.529 70.9598C161.585 71.0244 161.612 71.1085 161.606 71.1936C161.573 71.6422 161.543 72.0721 161.514 72.4834C161.509 72.5646 161.473 72.6407 161.413 72.6963C161.354 72.7519 161.275 72.7829 161.194 72.783C161.187 72.783 161.179 72.7828 161.171 72.7822ZM161.357 70.2001C161.272 70.1937 161.193 70.1537 161.137 70.089C161.081 70.0243 161.054 69.9401 161.06 69.855L161.157 68.564C161.16 68.5218 161.172 68.4806 161.191 68.4428C161.21 68.405 161.236 68.3713 161.268 68.3437C161.3 68.3161 161.337 68.2951 161.378 68.2819C161.418 68.2687 161.46 68.2636 161.502 68.2668C161.545 68.2701 161.586 68.2816 161.623 68.3007C161.661 68.3199 161.695 68.3463 161.722 68.3784C161.75 68.4106 161.771 68.4479 161.784 68.4881C161.797 68.5284 161.802 68.5708 161.798 68.613L161.701 69.9032C161.695 69.9841 161.659 70.0597 161.6 70.1149C161.54 70.1701 161.462 70.2008 161.381 70.2009C161.373 70.2009 161.365 70.2007 161.357 70.2001ZM161.554 67.6188C161.512 67.6153 161.471 67.6035 161.434 67.584C161.396 67.5646 161.363 67.538 161.336 67.5057C161.309 67.4734 161.288 67.4361 161.275 67.3958C161.263 67.3555 161.258 67.3131 161.261 67.271C161.299 66.8311 161.337 66.4003 161.377 65.9787C161.381 65.9366 161.393 65.8956 161.412 65.8582C161.432 65.8207 161.459 65.7875 161.491 65.7605C161.524 65.7335 161.561 65.7131 161.602 65.7006C161.642 65.6881 161.685 65.6837 161.727 65.6876C161.769 65.6916 161.81 65.7038 161.847 65.7236C161.884 65.7434 161.917 65.7703 161.944 65.8029C161.971 65.8355 161.992 65.8731 162.004 65.9136C162.016 65.954 162.021 65.9965 162.017 66.0387C161.978 66.4585 161.939 66.8875 161.902 67.3255C161.895 67.4058 161.858 67.4806 161.799 67.5351C161.74 67.5896 161.662 67.62 161.582 67.6201C161.573 67.6201 161.564 67.6197 161.554 67.6188ZM161.791 65.0403C161.749 65.0361 161.708 65.0236 161.671 65.0035C161.634 64.9835 161.601 64.9563 161.574 64.9236C161.547 64.8908 161.527 64.8532 161.515 64.8127C161.503 64.7722 161.499 64.7297 161.503 64.6877C161.548 64.2454 161.594 63.8152 161.64 63.3971C161.645 63.3549 161.658 63.3141 161.678 63.277C161.698 63.2398 161.726 63.207 161.759 63.1804C161.792 63.1539 161.83 63.1341 161.87 63.1223C161.911 63.1105 161.953 63.1068 161.995 63.1114C162.038 63.1161 162.078 63.129 162.115 63.1494C162.152 63.1699 162.185 63.1975 162.211 63.2306C162.238 63.2637 162.257 63.3017 162.269 63.3424C162.281 63.3832 162.284 63.4258 162.28 63.4679C162.233 63.8842 162.188 64.3124 162.143 64.7526C162.135 64.8319 162.098 64.9053 162.039 64.9588C161.98 65.0122 161.903 65.0418 161.824 65.042C161.813 65.042 161.802 65.0414 161.791 65.0403ZM162.069 62.4656C161.985 62.4554 161.908 62.412 161.855 62.3448C161.802 62.2777 161.778 62.1924 161.789 62.1077C161.842 61.6621 161.895 61.2329 161.948 60.8202C161.953 60.7782 161.967 60.7376 161.988 60.7008C162.009 60.664 162.037 60.6317 162.07 60.6058C162.103 60.5798 162.142 60.5607 162.183 60.5496C162.223 60.5384 162.266 60.5355 162.308 60.5408C162.35 60.5462 162.39 60.5598 162.427 60.5809C162.464 60.602 162.496 60.6301 162.522 60.6636C162.548 60.6972 162.567 60.7355 162.578 60.7764C162.589 60.8173 162.591 60.8599 162.586 60.9019C162.533 61.3128 162.48 61.7403 162.427 62.1844C162.417 62.2624 162.38 62.3344 162.321 62.3866C162.262 62.4388 162.187 62.4677 162.108 62.4679C162.095 62.4679 162.082 62.4672 162.069 62.4656ZM163.057 100.466C163.14 100.466 163.22 100.434 163.28 100.376C163.34 100.318 163.375 100.239 163.378 100.155C163.384 99.9599 163.391 99.7445 163.397 99.5107C163.399 99.4254 163.367 99.3427 163.308 99.2809C163.249 99.2191 163.169 99.1832 163.083 99.1811C162.999 99.1821 162.918 99.215 162.857 99.2733C162.796 99.3316 162.759 99.4109 162.754 99.4952C162.749 99.7265 162.742 99.9398 162.735 100.133C162.734 100.175 162.741 100.218 162.755 100.257C162.77 100.297 162.793 100.333 162.822 100.364C162.85 100.395 162.885 100.42 162.923 100.437C162.962 100.455 163.003 100.464 163.045 100.466L163.057 100.466Z" fill="#5A5093"/>
<path d="M175.355 102.593H181.413L183.455 91.8508H173.313L175.355 102.593Z" fill="#E18B74"/>
<path d="M173.547 93.0767L173.313 91.8508H183.455L183.222 93.0767H173.547Z" fill="#D6684B"/>
<path d="M180.929 99.6877L182.209 98.4064L180.929 97.1251L179.649 98.4064L180.929 99.6877Z" fill="#D6684B"/>
<path d="M178.369 99.688L179.648 98.4067L178.369 97.1254L177.089 98.4067L178.369 99.688Z" fill="#D6684B"/>
<path d="M175.838 99.688L177.118 98.4067L175.838 97.1254L174.559 98.4067L175.838 99.688Z" fill="#D6684B"/>
<path d="M176.024 82.8103C176.024 82.8103 175.492 90.3355 178.61 91.9303C178.61 91.9303 179.689 89.0772 176.024 82.8103Z" fill="#3C3180"/>
<path d="M186.085 86.0428C186.085 86.0428 180.984 86.924 178.609 91.9303C178.609 91.9303 184.219 90.0227 186.085 86.0428Z" fill="#9F5D4C"/>
<path d="M184.276 95.8998C184.276 95.8998 181.682 92.0139 178.609 91.9303C178.609 91.9303 179.072 95.0591 184.276 95.8998Z" fill="#B87462"/>
<path d="M181.077 83.8829C181.077 83.8829 177.477 87.1735 178.61 91.9303C178.61 91.9303 180.604 89.814 181.077 83.8829Z" fill="#9F5D4C"/>
<path d="M178.61 91.9303C178.61 91.9303 177.345 87.2952 170.952 86.1066C170.952 86.1066 172.391 90.327 178.61 91.9303Z" fill="#B87462"/>
<path d="M169.259 90.7186C169.259 90.7186 174.137 88.7053 178.61 91.9303C178.61 91.9303 172.663 92.6452 169.259 90.7186Z" fill="#9F5D4C"/>
<path d="M169.303 95.406C169.303 95.406 171.658 91.6288 178.61 91.9303L169.303 95.406ZM188.713 91.3189C188.713 91.3189 182.307 88.9406 178.526 91.8165C178.526 91.8165 182.116 93.7963 188.713 91.3189Z" fill="#3C3180"/>
<path d="M183.46 84.4324C183.46 84.4324 177.744 88.4802 178.564 91.9336C178.564 91.9336 182.53 88.75 183.46 84.4324Z" fill="#3C3180"/>
<path d="M173.433 95.9592C173.433 95.9592 178.145 95.1537 178.61 91.9303C178.61 91.9303 175.167 92.101 173.433 95.9592Z" fill="#9F5D4C"/>
<path d="M100.926 86.322H69.364C69.1367 86.322 68.9186 86.2316 68.7579 86.0707C68.5971 85.9097 68.5068 85.6915 68.5068 85.4639V51.2536C68.5068 51.026 68.5971 50.8077 68.7579 50.6467C68.9186 50.4858 69.1367 50.3954 69.364 50.3954H106.773C107.001 50.3954 107.219 50.4858 107.379 50.6467C107.54 50.8077 107.63 51.026 107.63 51.2536V79.8632L100.926 86.322ZM106.773 86.322C107.001 86.322 107.219 86.2316 107.379 86.0707C107.54 85.9097 107.63 85.6915 107.63 85.4639L107.63 79.8632L100.926 86.322H106.773Z" fill="#FF7855"/>
<path d="M75.2108 54.4202C75.1264 54.4202 75.0428 54.4035 74.9648 54.3712C74.8868 54.3389 74.8159 54.2914 74.7562 54.2317C74.6965 54.1719 74.6492 54.1009 74.6168 54.0229C74.5845 53.9448 74.5679 53.8611 74.5679 53.7765V47.5977C74.5679 47.427 74.6357 47.2632 74.7562 47.1425C74.8768 47.0218 75.0403 46.954 75.2108 46.954C75.3813 46.954 75.5448 47.0218 75.6654 47.1425C75.7859 47.2632 75.8537 47.427 75.8537 47.5977V53.7765C75.8537 53.8611 75.8371 53.9448 75.8048 54.0229C75.7725 54.1009 75.7251 54.1719 75.6654 54.2317C75.6057 54.2914 75.5348 54.3389 75.4568 54.3712C75.3788 54.4035 75.2952 54.4202 75.2108 54.4202ZM70.9251 54.4202C70.8407 54.4202 70.7571 54.4035 70.6791 54.3712C70.6011 54.3389 70.5302 54.2914 70.4705 54.2317C70.4108 54.1719 70.3634 54.1009 70.3311 54.0229C70.2988 53.9448 70.2822 53.8611 70.2822 53.7765V47.5977C70.2822 47.427 70.35 47.2632 70.4705 47.1425C70.5911 47.0218 70.7546 46.954 70.9251 46.954C71.0956 46.954 71.2591 47.0218 71.3797 47.1425C71.5002 47.2632 71.5679 47.427 71.5679 47.5977V53.7765C71.568 53.8611 71.5513 53.9448 71.519 54.0229C71.4867 54.1009 71.4394 54.1719 71.3797 54.2317C71.32 54.2914 71.2491 54.3389 71.1711 54.3712C71.0931 54.4035 71.0095 54.4202 70.9251 54.4202ZM79.4965 54.4202C79.4121 54.4202 79.3285 54.4035 79.2505 54.3712C79.1725 54.3389 79.1016 54.2914 79.0419 54.2317C78.9822 54.1719 78.9349 54.1009 78.9026 54.0229C78.8703 53.9448 78.8536 53.8611 78.8537 53.7765V47.5977C78.8537 47.427 78.9214 47.2632 79.0419 47.1425C79.1625 47.0218 79.326 46.954 79.4965 46.954C79.667 46.954 79.8305 47.0218 79.9511 47.1425C80.0716 47.2632 80.1394 47.427 80.1394 47.5977V53.7765C80.1394 53.8611 80.1228 53.9448 80.0905 54.0229C80.0582 54.1009 80.0108 54.1719 79.9511 54.2317C79.8914 54.2914 79.8205 54.3389 79.7425 54.3712C79.6645 54.4035 79.5809 54.4202 79.4965 54.4202ZM83.7822 54.4202C83.6978 54.4202 83.6142 54.4035 83.5362 54.3712C83.4582 54.3389 83.3873 54.2914 83.3276 54.2317C83.2679 54.1719 83.2206 54.1009 83.1883 54.0229C83.156 53.9448 83.1394 53.8611 83.1394 53.7765V47.5977C83.1394 47.427 83.2071 47.2632 83.3277 47.1425C83.4482 47.0218 83.6117 46.954 83.7822 46.954C83.9527 46.954 84.1162 47.0218 84.2368 47.1425C84.3574 47.2632 84.4251 47.427 84.4251 47.5977V53.7765C84.4251 53.8611 84.4085 53.9448 84.3762 54.0229C84.3439 54.1009 84.2965 54.1719 84.2368 54.2317C84.1771 54.2914 84.1063 54.3389 84.0283 54.3712C83.9503 54.4035 83.8667 54.4202 83.7822 54.4202ZM88.0679 54.4202C87.9835 54.4202 87.8999 54.4035 87.8219 54.3712C87.7439 54.3389 87.673 54.2914 87.6133 54.2317C87.5537 54.1719 87.5063 54.1009 87.474 54.0229C87.4417 53.9448 87.4251 53.8611 87.4251 53.7765V47.5977C87.4251 47.427 87.4928 47.2632 87.6134 47.1425C87.7339 47.0218 87.8974 46.954 88.0679 46.954C88.2384 46.954 88.402 47.0218 88.5225 47.1425C88.6431 47.2632 88.7108 47.427 88.7108 47.5977V53.7765C88.7108 53.8611 88.6942 53.9448 88.6619 54.0229C88.6296 54.1009 88.5822 54.1719 88.5225 54.2317C88.4628 54.2914 88.392 54.3389 88.314 54.3712C88.236 54.4035 88.1524 54.4202 88.0679 54.4202ZM92.3537 54.4202C92.2692 54.4202 92.1856 54.4035 92.1076 54.3712C92.0296 54.3389 91.9588 54.2914 91.8991 54.2317C91.8394 54.1719 91.792 54.1009 91.7597 54.0229C91.7274 53.9448 91.7108 53.8611 91.7108 53.7765V47.5977C91.7108 47.427 91.7785 47.2632 91.8991 47.1425C92.0196 47.0218 92.1832 46.954 92.3537 46.954C92.5242 46.954 92.6877 47.0218 92.8082 47.1425C92.9288 47.2632 92.9965 47.427 92.9965 47.5977V53.7765C92.9965 53.8611 92.9799 53.9448 92.9476 54.0229C92.9153 54.1009 92.868 54.1719 92.8083 54.2317C92.7486 54.2914 92.6777 54.3389 92.5997 54.3712C92.5217 54.4035 92.4381 54.4202 92.3537 54.4202ZM96.6394 54.4202C96.5549 54.4202 96.4713 54.4035 96.3934 54.3712C96.3153 54.3389 96.2445 54.2914 96.1848 54.2317C96.1251 54.1719 96.0777 54.1009 96.0454 54.0229C96.0131 53.9448 95.9965 53.8611 95.9965 53.7765V47.5977C95.9965 47.427 96.0642 47.2632 96.1848 47.1425C96.3054 47.0218 96.4689 46.954 96.6394 46.954C96.8099 46.954 96.9734 47.0218 97.0939 47.1425C97.2145 47.2632 97.2822 47.427 97.2822 47.5977V53.7765C97.2822 53.8611 97.2656 53.9448 97.2333 54.0229C97.201 54.1009 97.1537 54.1719 97.094 54.2317C97.0343 54.2914 96.9634 54.3389 96.8854 54.3712C96.8074 54.4035 96.7238 54.4202 96.6394 54.4202ZM100.925 54.4202C100.841 54.4202 100.757 54.4035 100.679 54.3712C100.601 54.3389 100.53 54.2914 100.47 54.2317C100.411 54.1719 100.363 54.1009 100.331 54.0229C100.299 53.9448 100.282 53.8611 100.282 53.7765V47.5977C100.282 47.427 100.35 47.2632 100.471 47.1425C100.591 47.0218 100.755 46.954 100.925 46.954C101.096 46.954 101.259 47.0218 101.38 47.1425C101.5 47.2632 101.568 47.427 101.568 47.5977V53.7765C101.568 53.8611 101.551 53.9448 101.519 54.0229C101.487 54.1009 101.439 54.1719 101.38 54.2317C101.32 54.2914 101.249 54.3389 101.171 54.3712C101.093 54.4035 101.01 54.4202 100.925 54.4202ZM105.211 54.4202C105.126 54.4202 105.043 54.4035 104.965 54.3712C104.887 54.3389 104.816 54.2914 104.756 54.2317C104.697 54.1719 104.649 54.1009 104.617 54.0229C104.585 53.9448 104.568 53.8611 104.568 53.7765V47.5977C104.568 47.427 104.636 47.2632 104.756 47.1425C104.877 47.0218 105.04 46.954 105.211 46.954C105.381 46.954 105.545 47.0218 105.665 47.1425C105.786 47.2632 105.854 47.427 105.854 47.5977V53.7765C105.854 53.8611 105.837 53.9448 105.805 54.0229C105.772 54.1009 105.725 54.1719 105.665 54.2317C105.606 54.2914 105.535 54.3389 105.457 54.3712C105.379 54.4035 105.295 54.4202 105.211 54.4202Z" fill="#E6512A"/>
<path d="M107.601 79.8324L100.896 79.8942L100.956 86.3528L107.601 79.8324Z" fill="#E6512A"/>
<path d="M91.7117 63.8513C93.2455 63.8513 94.4889 62.6064 94.4889 61.0708C94.4889 59.5352 93.2455 58.2903 91.7117 58.2903C90.1779 58.2903 88.9346 59.5352 88.9346 61.0708C88.9346 62.6064 90.1779 63.8513 91.7117 63.8513Z" fill="#E6512A"/>
<path d="M99.4168 63.8513C100.951 63.8513 102.194 62.6064 102.194 61.0708C102.194 59.5352 100.951 58.2903 99.4168 58.2903C97.883 58.2903 96.6396 59.5352 96.6396 61.0708C96.6396 62.6064 97.883 63.8513 99.4168 63.8513Z" fill="#E6512A"/>
<path d="M75.6775 70.7168C77.2113 70.7168 78.4547 69.4719 78.4547 67.9362C78.4547 66.4006 77.2113 65.1557 75.6775 65.1557C74.1438 65.1557 72.9004 66.4006 72.9004 67.9362C72.9004 69.4719 74.1438 70.7168 75.6775 70.7168Z" fill="#E6512A"/>
<path d="M83.783 70.7168C85.3168 70.7168 86.5601 69.4719 86.5601 67.9362C86.5601 66.4006 85.3168 65.1557 83.783 65.1557C82.2492 65.1557 81.0059 66.4006 81.0059 67.9362C81.0059 69.4719 82.2492 70.7168 83.783 70.7168Z" fill="#E6512A"/>
<path d="M91.7117 70.7168C93.2455 70.7168 94.4889 69.4719 94.4889 67.9362C94.4889 66.4006 93.2455 65.1557 91.7117 65.1557C90.1779 65.1557 88.9346 66.4006 88.9346 67.9362C88.9346 69.4719 90.1779 70.7168 91.7117 70.7168Z" fill="#E6512A"/>
<path d="M99.4168 70.7168C100.951 70.7168 102.194 69.4719 102.194 67.9362C102.194 66.4006 100.951 65.1557 99.4168 65.1557C97.883 65.1557 96.6396 66.4006 96.6396 67.9362C96.6396 69.4719 97.883 70.7168 99.4168 70.7168Z" fill="#E6512A"/>
<path d="M75.6775 77.5822C77.2113 77.5822 78.4547 76.3373 78.4547 74.8017C78.4547 73.2661 77.2113 72.0212 75.6775 72.0212C74.1438 72.0212 72.9004 73.2661 72.9004 74.8017C72.9004 76.3373 74.1438 77.5822 75.6775 77.5822Z" fill="#E6512A"/>
<path d="M83.783 77.5822C85.3168 77.5822 86.5601 76.3373 86.5601 74.8017C86.5601 73.2661 85.3168 72.0212 83.783 72.0212C82.2492 72.0212 81.0059 73.2661 81.0059 74.8017C81.0059 76.3373 82.2492 77.5822 83.783 77.5822Z" fill="#E6512A"/>
<path d="M91.7117 77.5822C93.2455 77.5822 94.4889 76.3373 94.4889 74.8017C94.4889 73.2661 93.2455 72.0212 91.7117 72.0212C90.1779 72.0212 88.9346 73.2661 88.9346 74.8017C88.9346 76.3373 90.1779 77.5822 91.7117 77.5822Z" fill="#E6512A"/>
<path d="M99.4168 77.5822C100.951 77.5822 102.194 76.3373 102.194 74.8017C102.194 73.2661 100.951 72.0212 99.4168 72.0212C97.883 72.0212 96.6396 73.2661 96.6396 74.8017C96.6396 76.3373 97.883 77.5822 99.4168 77.5822Z" fill="#E6512A"/>
<path d="M75.6775 84.0186C77.2113 84.0186 78.4547 82.7737 78.4547 81.2381C78.4547 79.7024 77.2113 78.4576 75.6775 78.4576C74.1438 78.4576 72.9004 79.7024 72.9004 81.2381C72.9004 82.7737 74.1438 84.0186 75.6775 84.0186Z" fill="#E6512A"/>
<path d="M82.1689 72.0819C82.8691 72.8786 83.4893 73.7423 84.0205 74.6606C84.2853 75.1164 84.5442 75.5758 84.7754 76.0516C85.0164 76.5267 85.224 77.018 85.3969 77.522C85.0375 77.1289 84.7059 76.7114 84.4043 76.2723C84.0975 75.8415 83.8185 75.3941 83.5453 74.9433C82.994 74.0369 82.533 73.0785 82.1689 72.0819Z" fill="#AF4A2F"/>
<path d="M85.3968 72.0819C85.0329 73.0785 84.5719 74.0369 84.0205 74.9433C83.7474 75.3941 83.4683 75.8415 83.1615 76.2723C82.8599 76.7114 82.5283 77.1289 82.1689 77.522C82.3418 77.018 82.5495 76.5267 82.7905 76.0516C83.0216 75.5758 83.2804 75.1164 83.5453 74.6606C84.0765 73.7423 84.6967 72.8786 85.3968 72.0819Z" fill="#AF4A2F"/>
<path d="M230.478 192.957C230.638 192.641 246.497 161.173 245.513 148.515L246.043 148.474C247.039 161.281 231.609 191.901 230.952 193.198L230.478 192.957Z" fill="#9D4C36"/>
<path d="M245.763 149.208C245.391 148.49 245.163 147.707 245.091 146.902C245.019 146.174 245.043 145.44 245.163 144.719C245.281 143.997 245.495 143.295 245.799 142.63L245.809 142.609C245.911 142.399 246.079 142.228 246.286 142.121C246.494 142.014 246.73 141.977 246.961 142.016C247.191 142.054 247.403 142.166 247.564 142.335C247.726 142.503 247.829 142.72 247.858 142.952L247.86 142.974C247.933 143.702 247.907 144.436 247.785 145.156C247.664 145.878 247.449 146.58 247.145 147.245C246.816 147.983 246.346 148.65 245.763 149.208ZM244.677 157.327C243.843 157.219 243.06 156.866 242.427 156.312C241.811 155.788 241.316 155.137 240.977 154.403C240.624 153.648 240.463 152.817 240.506 151.985L240.507 151.957C240.528 151.727 240.622 151.509 240.775 151.337C240.929 151.165 241.134 151.046 241.36 151C241.586 150.953 241.82 150.98 242.03 151.078C242.239 151.176 242.411 151.338 242.52 151.541C242.535 151.568 242.549 151.594 242.564 151.621C242.875 152.191 243.127 152.73 243.392 153.294C243.663 153.88 243.905 154.48 244.116 155.091C244.371 155.818 244.559 156.566 244.677 157.327ZM245.645 152.222C244.81 152.115 244.027 151.762 243.394 151.207C242.778 150.684 242.283 150.032 241.944 149.298C241.592 148.543 241.43 147.713 241.473 146.88L241.475 146.852C241.495 146.622 241.589 146.405 241.742 146.232C241.896 146.06 242.101 145.942 242.327 145.895C242.553 145.848 242.788 145.876 242.997 145.974C243.206 146.071 243.378 146.234 243.488 146.437C243.502 146.463 243.517 146.49 243.531 146.516C243.842 147.086 244.094 147.625 244.359 148.189C244.631 148.776 244.872 149.376 245.083 149.987C245.338 150.713 245.526 151.462 245.645 152.222ZM245.496 153.623C245.602 152.796 245.863 151.997 246.267 151.267C246.628 150.6 247.073 149.982 247.59 149.427C248.105 148.87 248.69 148.382 249.33 147.976L249.372 147.95C249.572 147.83 249.805 147.779 250.037 147.803C250.268 147.828 250.486 147.927 250.656 148.086C250.827 148.245 250.941 148.456 250.981 148.685C251.022 148.915 250.987 149.152 250.881 149.36L250.858 149.403C250.497 150.071 250.052 150.689 249.533 151.242C249.015 151.796 248.43 152.283 247.79 152.69C247.091 153.144 246.313 153.46 245.496 153.623ZM242.664 164.221C241.956 163.781 241.337 163.211 240.841 162.54C240.383 161.933 240.005 161.271 239.714 160.57C239.421 159.869 239.219 159.133 239.115 158.38C239.111 158.352 239.107 158.324 239.104 158.296C239.078 158.066 239.128 157.834 239.245 157.635C239.362 157.436 239.541 157.281 239.754 157.193C239.967 157.104 240.203 157.087 240.426 157.145C240.65 157.202 240.849 157.331 240.993 157.511C241.01 157.534 241.028 157.556 241.045 157.579C241.503 158.185 241.881 158.848 242.169 159.55C242.459 160.252 242.66 160.988 242.765 161.741C242.888 162.566 242.854 163.408 242.664 164.221ZM240.654 170.337C239.932 169.83 239.308 169.196 238.811 168.466C238.348 167.799 237.966 167.079 237.672 166.322C237.375 165.566 237.171 164.776 237.064 163.971C237.061 163.947 237.059 163.923 237.056 163.899C237.031 163.667 237.083 163.432 237.205 163.232C237.326 163.032 237.511 162.877 237.729 162.793C237.947 162.708 238.187 162.698 238.411 162.763C238.636 162.829 238.832 162.966 238.971 163.155C238.985 163.175 238.999 163.194 239.013 163.214C239.477 163.88 239.858 164.601 240.149 165.359C240.443 166.116 240.645 166.906 240.753 167.711C240.879 168.585 240.845 169.475 240.654 170.337ZM238.406 175.922C237.612 175.402 236.913 174.751 236.338 173.996C235.795 173.298 235.331 172.543 234.952 171.745C234.57 170.948 234.278 170.111 234.081 169.249L234.069 169.195C234.021 168.962 234.053 168.72 234.159 168.507C234.266 168.294 234.44 168.122 234.655 168.02C234.869 167.918 235.112 167.891 235.344 167.943C235.576 167.995 235.784 168.123 235.934 168.308L235.968 168.35C236.511 169.048 236.975 169.803 237.352 170.603C237.731 171.401 238.022 172.239 238.219 173.1C238.441 174.024 238.504 174.978 238.406 175.922ZM236.143 181.521C235.328 181.027 234.603 180.397 233.999 179.66C233.428 178.978 232.934 178.237 232.523 177.449C232.11 176.662 231.785 175.832 231.554 174.973C231.494 174.738 231.515 174.49 231.613 174.269C231.712 174.047 231.882 173.866 232.097 173.754C232.312 173.642 232.558 173.606 232.796 173.651C233.033 173.697 233.249 173.822 233.407 174.005C233.977 174.686 234.471 175.428 234.879 176.218C235.29 177.006 235.614 177.837 235.846 178.695C236.104 179.614 236.204 180.569 236.143 181.521ZM234.146 186.178C233.256 185.712 232.448 185.105 231.752 184.379C231.092 183.706 230.503 182.966 229.994 182.173C229.481 181.381 229.052 180.537 228.715 179.656C228.63 179.427 228.626 179.176 228.703 178.945C228.78 178.713 228.934 178.515 229.139 178.383C229.344 178.251 229.588 178.193 229.831 178.219C230.073 178.244 230.3 178.352 230.473 178.524C231.133 179.198 231.722 179.938 232.229 180.734C232.739 181.527 233.166 182.371 233.504 183.252C233.875 184.186 234.092 185.174 234.146 186.178ZM231.658 191.225C230.81 190.625 230.062 189.895 229.441 189.061C228.847 188.282 228.331 187.446 227.901 186.566C227.468 185.687 227.124 184.767 226.874 183.819C226.814 183.581 226.838 183.33 226.941 183.108C227.044 182.885 227.22 182.705 227.44 182.597C227.66 182.489 227.911 182.461 228.149 182.515C228.388 182.57 228.601 182.706 228.751 182.899C229.346 183.678 229.861 184.514 230.288 185.396C230.719 186.276 231.062 187.197 231.312 188.145C231.588 189.147 231.705 190.186 231.658 191.225ZM244.128 159.883C244.389 158.996 244.802 158.161 245.35 157.416C245.85 156.72 246.427 156.082 247.07 155.515C247.71 154.946 248.414 154.452 249.167 154.043L249.221 154.015C249.431 153.907 249.671 153.872 249.904 153.917C250.136 153.961 250.347 154.081 250.503 154.259C250.66 154.436 250.752 154.661 250.767 154.897C250.781 155.134 250.717 155.368 250.584 155.563L250.549 155.613C250.049 156.31 249.471 156.947 248.826 157.511C248.184 158.078 247.48 158.571 246.727 158.981C245.92 159.43 245.04 159.736 244.128 159.883ZM242.342 165.704C242.63 164.906 243.065 164.168 243.624 163.529C244.128 162.941 244.705 162.418 245.339 161.972C245.971 161.524 246.657 161.157 247.382 160.882L247.404 160.874C247.626 160.796 247.867 160.792 248.092 160.864C248.316 160.936 248.51 161.079 248.645 161.272C248.781 161.465 248.849 161.697 248.841 161.932C248.832 162.168 248.747 162.394 248.598 162.576L248.583 162.595C248.078 163.183 247.501 163.706 246.866 164.149C246.232 164.595 245.545 164.96 244.821 165.236C244.031 165.545 243.19 165.704 242.342 165.704ZM240.404 171.222C240.851 170.44 241.433 169.743 242.123 169.165C242.756 168.625 243.448 168.16 244.187 167.78C244.925 167.397 245.706 167.103 246.512 166.903C246.746 166.849 246.992 166.874 247.209 166.975C247.427 167.076 247.605 167.247 247.715 167.461C247.824 167.675 247.86 167.919 247.815 168.155C247.77 168.391 247.648 168.606 247.468 168.764C246.836 169.305 246.142 169.769 245.402 170.146C244.663 170.527 243.882 170.82 243.075 171.02C242.204 171.246 241.299 171.314 240.404 171.222ZM237.984 177.161C238.528 176.411 239.198 175.762 239.964 175.242C240.669 174.753 241.427 174.344 242.224 174.024C243.019 173.701 243.849 173.471 244.697 173.336L244.757 173.328C244.991 173.296 245.229 173.344 245.433 173.463C245.638 173.583 245.796 173.767 245.884 173.987C245.973 174.206 245.985 174.449 245.92 174.677C245.855 174.904 245.716 175.104 245.525 175.243L245.475 175.279C244.77 175.768 244.011 176.176 243.214 176.493C242.417 176.813 241.587 177.043 240.74 177.177C239.827 177.332 238.895 177.326 237.984 177.161ZM235.954 182.108C236.693 181.407 237.539 180.829 238.461 180.396C239.324 179.979 240.226 179.651 241.154 179.415C242.082 179.177 243.031 179.034 243.987 178.989C244.231 178.98 244.471 179.056 244.667 179.202C244.862 179.349 245.001 179.559 245.061 179.796C245.121 180.033 245.099 180.283 244.997 180.506C244.895 180.728 244.72 180.908 244.501 181.017C243.639 181.434 242.736 181.762 241.807 181.994C240.879 182.23 239.93 182.372 238.973 182.417C237.957 182.476 236.937 182.372 235.954 182.108Z" fill="#9D4C36"/>
<path d="M233.938 186.318C234.663 185.715 235.487 185.24 236.373 184.914C237.194 184.603 238.047 184.383 238.916 184.258C239.785 184.13 240.665 184.099 241.54 184.167C241.781 184.189 242.007 184.291 242.183 184.458C242.358 184.624 242.472 184.845 242.507 185.085C242.541 185.324 242.494 185.569 242.373 185.778C242.251 185.987 242.063 186.15 241.838 186.238C241.017 186.55 240.164 186.769 239.294 186.891C238.425 187.016 237.545 187.046 236.67 186.979C235.728 186.916 234.804 186.693 233.938 186.318ZM232.487 189.715C233.412 189.187 234.412 188.804 235.452 188.581C236.434 188.359 237.435 188.232 238.441 188.202C239.446 188.168 240.453 188.232 241.446 188.394C241.688 188.436 241.908 188.561 242.069 188.747C242.23 188.932 242.322 189.168 242.33 189.414C242.337 189.66 242.26 189.901 242.111 190.096C241.961 190.291 241.749 190.429 241.51 190.486C240.529 190.708 239.528 190.834 238.522 190.861C237.516 190.892 236.509 190.827 235.516 190.666C234.464 190.506 233.442 190.186 232.487 189.715ZM240.015 192.31C240.242 192.398 240.433 192.56 240.555 192.771C240.677 192.982 240.723 193.229 240.686 193.47C240.649 193.71 240.53 193.931 240.35 194.095C240.17 194.259 239.939 194.357 239.696 194.371C238.736 194.416 237.774 194.364 236.824 194.216C235.874 194.072 234.942 193.831 234.041 193.497C233.078 193.153 232.177 192.656 231.373 192.024C232.33 191.666 233.339 191.465 234.361 191.429C235.321 191.384 236.282 191.437 237.231 191.587C238.181 191.734 239.114 191.977 240.015 192.31Z" fill="#9D4C36"/>
<path d="M238.085 186.818C238.018 186.417 231.469 146.509 236.895 132.992L236.329 132.764C230.839 146.44 237.209 185.272 237.483 186.918L238.085 186.818Z" fill="#41377D"/>
<path d="M236.385 133.665C237.038 133.007 237.557 132.228 237.912 131.371C238.241 130.6 238.467 129.788 238.583 128.957C238.702 128.127 238.71 127.284 238.605 126.452L238.601 126.426C238.561 126.161 238.437 125.915 238.246 125.727C238.056 125.538 237.81 125.416 237.544 125.379C237.279 125.342 237.009 125.391 236.774 125.52C236.539 125.649 236.352 125.851 236.241 126.095L236.23 126.119C235.901 126.89 235.677 127.702 235.564 128.533C235.448 129.364 235.442 130.207 235.546 131.039C235.652 131.961 235.937 132.853 236.385 133.665ZM234.784 142.925C235.733 143.095 236.712 142.978 237.595 142.589C238.45 142.229 239.215 141.686 239.839 141C240.484 140.294 240.946 139.441 241.185 138.514L241.193 138.484C241.25 138.225 241.222 137.954 241.113 137.713C241.004 137.471 240.82 137.271 240.589 137.142C240.358 137.013 240.091 136.962 239.829 136.997C239.566 137.032 239.322 137.151 239.132 137.336C239.107 137.359 239.082 137.383 239.057 137.407C238.521 137.924 238.06 138.428 237.576 138.953C237.077 139.502 236.607 140.076 236.166 140.672C235.637 141.379 235.175 142.134 234.784 142.925ZM235.479 137.005C236.428 137.175 237.407 137.058 238.29 136.669C239.145 136.308 239.91 135.765 240.534 135.079C241.179 134.373 241.641 133.52 241.88 132.594L241.888 132.563C241.945 132.304 241.917 132.034 241.808 131.792C241.699 131.55 241.515 131.35 241.284 131.221C241.053 131.093 240.786 131.042 240.524 131.077C240.261 131.111 240.017 131.23 239.827 131.415C239.802 131.439 239.777 131.463 239.752 131.486C239.216 132.004 238.755 132.507 238.271 133.033C237.772 133.582 237.302 134.155 236.861 134.751C236.332 135.459 235.87 136.213 235.479 137.005ZM235.16 138.59C235.328 137.648 235.316 136.682 235.125 135.745C234.959 134.89 234.685 134.06 234.31 133.275C233.937 132.488 233.464 131.753 232.903 131.087L232.866 131.045C232.689 130.845 232.451 130.708 232.189 130.655C231.927 130.602 231.655 130.636 231.414 130.751C231.172 130.867 230.975 131.058 230.852 131.295C230.729 131.533 230.686 131.804 230.73 132.068L230.74 132.124C230.906 132.979 231.181 133.808 231.559 134.592C231.935 135.378 232.409 136.112 232.969 136.778C233.578 137.515 234.322 138.13 235.16 138.59ZM234.619 151.165C235.545 150.928 236.419 150.516 237.192 149.953C237.901 149.447 238.543 148.853 239.103 148.184C239.664 147.518 240.138 146.782 240.511 145.995C240.524 145.965 240.538 145.935 240.551 145.905C240.659 145.663 240.684 145.392 240.624 145.134C240.564 144.876 240.422 144.644 240.219 144.474C240.016 144.304 239.764 144.204 239.499 144.19C239.235 144.176 238.973 144.249 238.754 144.397C238.727 144.415 238.7 144.434 238.673 144.452C237.964 144.958 237.323 145.553 236.766 146.224C236.207 146.892 235.734 147.629 235.36 148.416C234.942 149.277 234.69 150.21 234.619 151.165ZM234.718 158.553C235.682 158.246 236.583 157.767 237.377 157.139C238.114 156.569 238.78 155.912 239.362 155.185C239.946 154.459 240.44 153.665 240.834 152.82C240.846 152.795 240.857 152.77 240.868 152.745C240.976 152.499 240.999 152.224 240.934 151.963C240.87 151.702 240.722 151.47 240.512 151.302C240.302 151.134 240.043 151.04 239.775 151.034C239.507 151.029 239.244 151.112 239.028 151.271C239.006 151.287 238.984 151.304 238.962 151.32C238.225 151.89 237.56 152.547 236.981 153.277C236.399 154.005 235.906 154.8 235.511 155.644C235.073 156.558 234.804 157.543 234.718 158.553ZM235.26 165.44C236.307 165.145 237.297 164.672 238.185 164.044C239.019 163.467 239.787 162.801 240.476 162.057C241.168 161.316 241.775 160.501 242.287 159.625L242.318 159.57C242.45 159.332 242.499 159.055 242.456 158.786C242.413 158.516 242.281 158.268 242.081 158.083C241.881 157.897 241.625 157.783 241.353 157.761C241.081 157.738 240.81 157.807 240.581 157.957L240.529 157.992C239.695 158.568 238.928 159.235 238.241 159.981C237.552 160.724 236.946 161.541 236.433 162.416C235.873 163.35 235.477 164.373 235.26 165.44ZM235.813 172.349C236.875 172.088 237.885 171.649 238.8 171.049C239.659 170.5 240.455 169.859 241.175 169.137C241.898 168.418 242.539 167.622 243.087 166.762C243.233 166.525 243.295 166.246 243.263 165.97C243.231 165.694 243.107 165.436 242.911 165.24C242.714 165.043 242.457 164.919 242.181 164.887C241.905 164.855 241.627 164.917 241.391 165.064C240.532 165.613 239.736 166.255 239.019 166.979C238.298 167.7 237.658 168.498 237.11 169.358C236.512 170.274 236.073 171.285 235.813 172.349ZM236.4 178.134C237.534 177.93 238.627 177.544 239.637 176.989C240.591 176.479 241.49 175.873 242.321 175.179C243.154 174.489 243.913 173.714 244.585 172.866C244.757 172.644 244.847 172.371 244.842 172.091C244.837 171.811 244.737 171.541 244.558 171.325C244.379 171.11 244.132 170.963 243.857 170.908C243.583 170.852 243.298 170.892 243.05 171.021C242.096 171.531 241.197 172.138 240.369 172.834C239.538 173.527 238.78 174.304 238.107 175.151C237.38 176.046 236.804 177.054 236.4 178.134ZM237.389 184.515C238.523 184.15 239.593 183.609 240.559 182.911C241.477 182.262 242.329 181.525 243.102 180.709C243.878 179.896 244.571 179.007 245.17 178.056C245.317 177.816 245.377 177.533 245.341 177.254C245.305 176.975 245.174 176.717 244.97 176.523C244.766 176.33 244.502 176.212 244.222 176.19C243.942 176.168 243.662 176.243 243.431 176.402C242.513 177.05 241.662 177.789 240.891 178.607C240.117 179.422 239.426 180.312 238.826 181.263C238.179 182.265 237.694 183.362 237.389 184.515ZM234.506 145.913C234.526 144.852 234.36 143.796 234.017 142.792C233.709 141.857 233.296 140.961 232.787 140.119C232.282 139.275 231.681 138.492 230.997 137.785L230.948 137.735C230.755 137.545 230.504 137.424 230.234 137.393C229.965 137.361 229.692 137.42 229.46 137.561C229.228 137.701 229.05 137.915 228.952 138.169C228.855 138.422 228.845 138.701 228.924 138.961L228.945 139.028C229.253 139.962 229.667 140.858 230.178 141.699C230.687 142.541 231.289 143.323 231.972 144.03C232.701 144.8 233.558 145.438 234.506 145.913ZM234.461 152.9C234.421 151.927 234.199 150.969 233.806 150.078C233.456 149.26 233.005 148.489 232.464 147.782C231.926 147.074 231.3 146.437 230.602 145.886L230.58 145.869C230.364 145.707 230.101 145.62 229.831 145.622C229.561 145.623 229.299 145.713 229.085 145.877C228.87 146.042 228.715 146.272 228.644 146.533C228.572 146.793 228.588 147.07 228.688 147.322L228.699 147.347C229.049 148.165 229.501 148.935 230.044 149.64C230.585 150.346 231.212 150.982 231.909 151.533C232.667 152.144 233.533 152.608 234.461 152.9ZM234.687 159.607C234.467 158.597 234.069 157.634 233.512 156.764C233.005 155.955 232.407 155.207 231.729 154.537C231.052 153.863 230.299 153.272 229.485 152.776C229.247 152.636 228.97 152.579 228.697 152.615C228.424 152.65 228.171 152.776 227.977 152.973C227.784 153.169 227.661 153.424 227.629 153.698C227.597 153.972 227.657 154.249 227.8 154.485C228.306 155.294 228.905 156.04 229.586 156.709C230.265 157.38 231.018 157.969 231.833 158.466C232.709 159.014 233.676 159.4 234.687 159.607ZM235.296 166.941C234.958 165.933 234.448 164.992 233.788 164.159C233.184 163.381 232.495 162.672 231.733 162.048C230.973 161.421 230.144 160.882 229.262 160.443L229.2 160.413C228.954 160.298 228.677 160.269 228.412 160.329C228.147 160.389 227.911 160.536 227.739 160.746C227.567 160.956 227.47 161.218 227.463 161.489C227.456 161.761 227.54 162.027 227.701 162.246L227.743 162.301C228.346 163.08 229.037 163.788 229.801 164.41C230.563 165.034 231.393 165.571 232.274 166.011C233.22 166.494 234.242 166.809 235.296 166.941ZM235.819 173.056C235.251 172.034 234.523 171.11 233.662 170.318C232.861 169.565 231.987 168.895 231.051 168.318C230.118 167.737 229.128 167.254 228.097 166.875C227.832 166.782 227.544 166.782 227.28 166.875C227.015 166.968 226.791 167.15 226.644 167.388C226.496 167.627 226.435 167.909 226.471 168.188C226.506 168.466 226.635 168.724 226.837 168.919C227.638 169.672 228.513 170.341 229.45 170.916C230.385 171.494 231.376 171.976 232.407 172.355C233.5 172.77 234.652 173.006 235.819 173.056Z" fill="#41377D"/>
<path d="M236.579 178.359C235.992 177.448 235.253 176.645 234.395 175.984C233.603 175.36 232.746 174.825 231.837 174.389C230.93 173.95 229.977 173.613 228.996 173.386C228.725 173.327 228.442 173.361 228.192 173.483C227.943 173.605 227.742 173.807 227.622 174.058C227.502 174.308 227.47 174.592 227.531 174.863C227.592 175.134 227.743 175.376 227.958 175.551C228.75 176.175 229.609 176.709 230.518 177.142C231.427 177.578 232.38 177.913 233.362 178.141C234.414 178.397 235.502 178.471 236.579 178.359ZM236.999 182.577C236.169 181.68 235.206 180.917 234.143 180.314C233.145 179.734 232.093 179.25 231.002 178.87C229.913 178.487 228.789 178.21 227.647 178.045C227.367 178.008 227.083 178.069 226.843 178.217C226.603 178.365 226.421 178.591 226.329 178.857C226.236 179.124 226.238 179.414 226.335 179.68C226.431 179.945 226.616 180.169 226.858 180.313C227.856 180.894 228.908 181.377 230 181.753C231.09 182.134 232.215 182.409 233.357 182.574C234.564 182.762 235.792 182.763 236.999 182.577ZM227.868 182.825C227.589 182.843 227.324 182.955 227.118 183.144C226.912 183.333 226.777 183.587 226.735 183.863C226.693 184.14 226.747 184.422 226.888 184.664C227.029 184.905 227.248 185.091 227.509 185.191C228.544 185.57 229.615 185.845 230.706 186.01C231.795 186.18 232.899 186.237 234 186.182C235.172 186.137 236.329 185.903 237.426 185.488C236.501 184.766 235.466 184.199 234.36 183.808C233.325 183.428 232.254 183.154 231.163 182.992C230.073 182.826 228.969 182.77 227.868 182.825Z" fill="#41377D"/>
<path d="M238.604 195.101C238.472 194.841 225.455 169.011 226.262 158.621L225.827 158.588C225.01 169.1 237.675 194.234 238.215 195.299L238.604 195.101Z" fill="#CE826E"/>
<path d="M226.058 159.19C226.363 158.601 226.55 157.958 226.609 157.297C226.668 156.7 226.648 156.097 226.55 155.505C226.453 154.913 226.278 154.336 226.028 153.791L226.02 153.774C225.936 153.601 225.798 153.461 225.628 153.373C225.458 153.285 225.263 153.255 225.074 153.286C224.885 153.318 224.712 153.41 224.579 153.548C224.446 153.687 224.362 153.864 224.338 154.055L224.336 154.073C224.276 154.67 224.297 155.273 224.398 155.864C224.497 156.456 224.673 157.033 224.923 157.578C225.193 158.184 225.579 158.732 226.058 159.19ZM226.949 165.854C227.633 165.766 228.276 165.476 228.796 165.021C229.301 164.591 229.708 164.057 229.986 163.454C230.275 162.834 230.408 162.153 230.373 161.469L230.371 161.446C230.355 161.258 230.278 161.079 230.152 160.938C230.026 160.796 229.857 160.699 229.672 160.661C229.486 160.622 229.294 160.645 229.122 160.725C228.95 160.805 228.809 160.939 228.719 161.105C228.707 161.127 228.695 161.149 228.683 161.17C228.428 161.639 228.221 162.081 228.004 162.544C227.781 163.025 227.582 163.518 227.409 164.019C227.2 164.616 227.046 165.23 226.949 165.854ZM226.155 161.664C226.839 161.576 227.482 161.286 228.002 160.831C228.507 160.401 228.914 159.867 229.192 159.264C229.481 158.644 229.614 157.963 229.579 157.279L229.577 157.257C229.561 157.068 229.484 156.889 229.358 156.748C229.232 156.606 229.064 156.509 228.878 156.471C228.693 156.432 228.5 156.455 228.328 156.535C228.156 156.615 228.015 156.749 227.925 156.915C227.913 156.937 227.901 156.959 227.889 156.98C227.634 157.449 227.427 157.891 227.21 158.354C226.987 158.835 226.789 159.328 226.615 159.829C226.406 160.426 226.252 161.04 226.155 161.664ZM226.277 162.814C226.19 162.135 225.975 161.479 225.644 160.88C225.347 160.333 224.982 159.825 224.558 159.37C224.135 158.913 223.655 158.512 223.13 158.179L223.095 158.157C222.931 158.059 222.74 158.017 222.549 158.037C222.359 158.057 222.181 158.139 222.041 158.269C221.901 158.4 221.807 158.572 221.774 158.761C221.741 158.95 221.77 159.144 221.856 159.315L221.875 159.351C222.171 159.898 222.537 160.406 222.963 160.859C223.388 161.315 223.868 161.714 224.394 162.048C224.967 162.421 225.606 162.681 226.277 162.814ZM228.601 171.513C229.183 171.152 229.691 170.684 230.098 170.133C230.473 169.635 230.784 169.092 231.023 168.516C231.263 167.941 231.429 167.337 231.515 166.719C231.518 166.696 231.521 166.673 231.523 166.649C231.544 166.461 231.504 166.271 231.408 166.108C231.311 165.944 231.165 165.817 230.99 165.744C230.815 165.671 230.621 165.658 230.438 165.705C230.255 165.752 230.091 165.858 229.973 166.006C229.959 166.024 229.944 166.043 229.93 166.061C229.554 166.559 229.244 167.103 229.008 167.679C228.769 168.256 228.605 168.86 228.518 169.478C228.417 170.155 228.445 170.846 228.601 171.513ZM230.251 176.534C230.844 176.117 231.356 175.597 231.763 174.998C232.144 174.45 232.458 173.859 232.699 173.238C232.942 172.617 233.11 171.969 233.198 171.308L233.205 171.249C233.225 171.058 233.182 170.866 233.082 170.701C232.982 170.537 232.831 170.41 232.652 170.341C232.473 170.271 232.276 170.263 232.092 170.316C231.908 170.37 231.746 170.483 231.633 170.638L231.598 170.686C231.218 171.234 230.904 171.825 230.666 172.447C230.425 173.069 230.258 173.717 230.17 174.378C230.066 175.096 230.094 175.826 230.251 176.534ZM232.096 181.118C232.748 180.691 233.322 180.156 233.794 179.536C234.239 178.964 234.621 178.345 234.932 177.689C235.245 177.035 235.485 176.348 235.647 175.64L235.656 175.596C235.695 175.405 235.669 175.206 235.582 175.031C235.495 174.856 235.352 174.716 235.176 174.632C234.999 174.548 234.8 174.526 234.61 174.568C234.419 174.611 234.249 174.716 234.125 174.868L234.097 174.903C233.651 175.475 233.271 176.095 232.962 176.752C232.65 177.407 232.412 178.094 232.249 178.802C232.067 179.559 232.016 180.343 232.096 181.118ZM233.954 185.714C234.623 185.308 235.218 184.791 235.714 184.186C236.182 183.626 236.588 183.018 236.925 182.371C237.265 181.725 237.531 181.044 237.721 180.339C237.77 180.146 237.753 179.942 237.672 179.761C237.591 179.579 237.451 179.43 237.275 179.338C237.099 179.246 236.897 179.216 236.702 179.254C236.506 179.291 236.33 179.394 236.2 179.545C235.731 180.104 235.326 180.713 234.991 181.361C234.654 182.008 234.388 182.69 234.198 183.394C233.986 184.148 233.903 184.932 233.954 185.714ZM235.593 189.536C236.324 189.154 236.987 188.655 237.558 188.06C238.099 187.507 238.583 186.9 239.002 186.248C239.422 185.598 239.774 184.906 240.051 184.183C240.121 183.995 240.124 183.789 240.061 183.599C239.997 183.409 239.871 183.246 239.703 183.138C239.534 183.029 239.334 182.982 239.135 183.003C238.936 183.024 238.75 183.113 238.608 183.254C238.066 183.807 237.583 184.414 237.167 185.067C236.748 185.719 236.397 186.411 236.12 187.134C235.815 187.901 235.638 188.712 235.593 189.536ZM237.635 193.679C238.331 193.186 238.945 192.587 239.455 191.903C239.943 191.263 240.366 190.577 240.719 189.854C241.075 189.133 241.357 188.378 241.562 187.6C241.611 187.405 241.592 187.198 241.507 187.016C241.422 186.833 241.278 186.685 241.097 186.597C240.917 186.508 240.711 186.485 240.515 186.53C240.319 186.575 240.145 186.686 240.021 186.845C239.533 187.484 239.111 188.171 238.76 188.894C238.406 189.617 238.125 190.373 237.919 191.15C237.693 191.973 237.597 192.826 237.635 193.679ZM227.399 167.953C227.185 167.224 226.846 166.539 226.397 165.927C225.986 165.356 225.513 164.833 224.985 164.367C224.459 163.9 223.882 163.495 223.264 163.159L223.219 163.136C223.047 163.047 222.849 163.019 222.659 163.055C222.468 163.091 222.295 163.19 222.167 163.336C222.038 163.482 221.962 163.666 221.95 163.86C221.938 164.054 221.991 164.246 222.101 164.407L222.129 164.448C222.539 165.019 223.014 165.542 223.543 166.006C224.07 166.471 224.649 166.876 225.266 167.212C225.929 167.581 226.651 167.832 227.399 167.953ZM228.865 172.731C228.629 172.075 228.272 171.469 227.814 170.945C227.399 170.462 226.926 170.033 226.406 169.667C225.887 169.299 225.323 168.999 224.729 168.773L224.711 168.766C224.528 168.702 224.33 168.699 224.146 168.758C223.962 168.817 223.802 168.934 223.691 169.093C223.58 169.251 223.524 169.441 223.531 169.634C223.538 169.828 223.608 170.013 223.73 170.163L223.743 170.178C224.157 170.661 224.631 171.09 225.152 171.454C225.673 171.82 226.237 172.12 226.831 172.346C227.479 172.6 228.169 172.731 228.865 172.731ZM230.456 177.26C230.09 176.618 229.612 176.046 229.045 175.571C228.526 175.128 227.957 174.747 227.351 174.434C226.745 174.12 226.105 173.879 225.442 173.715C225.25 173.67 225.049 173.691 224.87 173.774C224.691 173.857 224.545 173.997 224.455 174.173C224.365 174.348 224.336 174.549 224.373 174.743C224.41 174.936 224.51 175.112 224.658 175.243C225.177 175.686 225.746 176.067 226.354 176.377C226.961 176.689 227.601 176.93 228.263 177.094C228.979 177.279 229.721 177.336 230.456 177.26ZM232.442 182.135C231.996 181.519 231.446 180.986 230.818 180.56C230.239 180.158 229.616 179.822 228.962 179.56C228.31 179.295 227.629 179.106 226.933 178.995L226.884 178.988C226.691 178.963 226.496 179.002 226.328 179.1C226.16 179.198 226.03 179.349 225.958 179.529C225.885 179.709 225.875 179.909 225.929 180.096C225.982 180.282 226.096 180.446 226.253 180.561L226.294 180.59C226.873 180.992 227.495 181.326 228.15 181.587C228.804 181.849 229.485 182.038 230.181 182.148C230.93 182.275 231.695 182.271 232.442 182.135ZM234.109 186.195C233.503 185.62 232.808 185.145 232.051 184.79C231.343 184.448 230.602 184.178 229.841 183.985C229.079 183.789 228.3 183.672 227.515 183.635C227.315 183.628 227.118 183.69 226.957 183.81C226.797 183.931 226.683 184.103 226.633 184.297C226.584 184.492 226.603 184.698 226.686 184.88C226.77 185.063 226.914 185.211 227.093 185.3C227.801 185.642 228.542 185.911 229.304 186.102C230.066 186.296 230.846 186.412 231.631 186.449C232.465 186.498 233.302 186.412 234.109 186.195Z" fill="#CE826E"/>
<path d="M235.764 189.651C235.168 189.156 234.492 188.766 233.764 188.499C233.09 188.243 232.39 188.063 231.677 187.96C230.964 187.855 230.242 187.83 229.523 187.885C229.325 187.903 229.14 187.987 228.996 188.124C228.852 188.261 228.758 188.442 228.73 188.639C228.701 188.836 228.74 189.036 228.84 189.208C228.94 189.38 229.094 189.513 229.279 189.586C229.953 189.842 230.653 190.021 231.367 190.122C232.08 190.224 232.803 190.248 233.521 190.193C234.294 190.142 235.052 189.959 235.764 189.651ZM236.954 192.439C236.195 192.006 235.374 191.692 234.52 191.509C233.714 191.327 232.893 191.222 232.067 191.197C231.242 191.17 230.416 191.222 229.6 191.355C229.402 191.39 229.221 191.492 229.089 191.644C228.957 191.797 228.881 191.99 228.875 192.192C228.869 192.394 228.932 192.592 229.055 192.752C229.177 192.912 229.352 193.025 229.548 193.072C230.353 193.254 231.175 193.358 232.001 193.38C232.826 193.406 233.653 193.352 234.468 193.22C235.332 193.089 236.17 192.826 236.954 192.439ZM230.775 194.57C230.588 194.641 230.432 194.775 230.332 194.948C230.232 195.121 230.194 195.324 230.224 195.521C230.255 195.719 230.352 195.9 230.5 196.035C230.648 196.17 230.837 196.249 231.037 196.261C231.825 196.298 232.615 196.255 233.394 196.134C234.174 196.016 234.94 195.818 235.679 195.544C236.469 195.261 237.209 194.853 237.869 194.335C237.083 194.041 236.255 193.876 235.416 193.846C234.628 193.809 233.839 193.853 233.06 193.976C232.28 194.097 231.515 194.296 230.775 194.57Z" fill="#CE826E"/>
<path d="M230.192 203.967H241.215L244.762 185.129C244.783 185.021 244.779 184.91 244.753 184.803C244.726 184.697 244.675 184.597 244.606 184.512C244.536 184.427 244.449 184.358 244.349 184.311C244.25 184.264 244.142 184.239 244.032 184.238H227.375C227.265 184.239 227.157 184.264 227.058 184.311C226.959 184.358 226.871 184.427 226.801 184.512C226.732 184.597 226.682 184.697 226.655 184.803C226.628 184.91 226.625 185.021 226.645 185.129L230.192 203.967Z" fill="#5A5093"/>
<path d="M226.902 186.49L226.645 185.129C226.625 185.021 226.628 184.91 226.655 184.803C226.682 184.697 226.732 184.597 226.801 184.512C226.871 184.427 226.959 184.358 227.058 184.311C227.157 184.264 227.265 184.239 227.375 184.238H244.032C244.142 184.239 244.25 184.264 244.349 184.311C244.449 184.358 244.536 184.427 244.606 184.512C244.676 184.597 244.726 184.697 244.753 184.803C244.78 184.91 244.783 185.021 244.762 185.129L244.506 186.49H226.902Z" fill="#D6684B"/>
<path d="M240.335 198.632L242.663 196.278L240.335 193.925L238.006 196.278L240.335 198.632Z" fill="#D6684B"/>
<path d="M235.677 198.632L238.005 196.278L235.677 193.925L233.348 196.278L235.677 198.632Z" fill="#D6684B"/>
<path d="M231.074 198.632L233.402 196.278L231.074 193.925L228.745 196.278L231.074 198.632Z" fill="#D6684B"/>
<path d="M209.226 195.914C209.226 195.914 216.476 186.799 192.704 162.999L194.896 151.717C195.818 150.831 196.375 149.631 196.458 148.354L196.582 146.457C196.582 146.457 196.497 145.444 194.98 145.528C194.98 145.528 192.704 139.571 185.117 141.934L181.458 140.783C181.458 140.783 179.435 140.529 179.688 142.639C179.688 142.639 177.724 144.22 180.195 147.974C180.59 148.552 181.064 149.072 181.604 149.517C182.472 150.257 183.711 151.444 182.737 155C182.31 156.557 181.87 158.11 181.515 159.684L180.313 165.024C180.313 165.024 175.086 170.51 180.818 180.722C180.818 180.722 177.992 198.39 175.294 201.259C175.294 201.259 170.561 202.349 171.816 204.205C171.848 204.249 171.89 204.285 171.939 204.31C171.988 204.334 172.042 204.347 172.096 204.346H176.305C176.485 204.346 176.663 204.299 176.82 204.211C176.978 204.123 177.11 203.995 177.204 203.841L180.734 197.095C180.734 197.095 181.999 196.505 181.914 193.973L184.359 185.702C184.359 185.702 183.685 199.289 181.746 200.64C179.807 201.99 178.49 203.341 178.827 204.354H183.382C183.603 204.354 183.817 204.284 183.996 204.156C184.175 204.027 184.31 203.846 184.38 203.637L185.37 199.796C185.37 199.796 186.213 200.303 186.466 196.589L188.742 188.74L189.838 189.331C189.838 189.331 189.522 190.99 193.548 196.371C194.035 197.008 194.354 197.757 194.476 198.55C194.755 200.534 193.807 203.391 184.883 201.361L184.124 204.146C184.124 204.146 187.428 203.946 194.846 204.368C194.846 204.368 189.838 200.64 190.428 204.354L203.558 204.396C203.721 204.39 203.881 204.346 204.024 204.267C204.168 204.189 204.291 204.078 204.384 203.943L206.191 200.809C206.191 200.809 224.399 207.223 228.445 197.771C228.445 197.771 228.951 194.901 224.062 198.108C219.173 201.315 212.429 199.29 209.226 195.914Z" fill="#DB8872"/>
<path d="M180.818 180.722C180.818 180.722 177.992 198.39 175.294 201.259C175.294 201.259 170.561 202.349 171.816 204.205C171.848 204.249 171.89 204.285 171.939 204.31C171.988 204.334 172.042 204.347 172.096 204.346H176.305C176.485 204.346 176.663 204.299 176.82 204.211C176.978 204.123 177.11 203.995 177.204 203.841L180.734 197.095C180.734 197.095 181.999 196.505 181.914 193.973L184.359 185.702L180.818 180.722Z" fill="#DB8872"/>
<path d="M188.439 145.475C188.4 145.199 188.347 144.925 188.28 144.654C188.225 144.405 188.12 144.17 187.973 143.961C187.901 143.867 187.81 143.788 187.706 143.73C187.603 143.672 187.489 143.636 187.371 143.624C187.24 143.603 187.108 143.594 186.977 143.598C186.839 143.6 186.702 143.627 186.554 143.627C186.68 143.553 186.81 143.486 186.944 143.429C187.088 143.38 187.238 143.353 187.39 143.35C187.554 143.341 187.718 143.373 187.868 143.441C188.017 143.51 188.148 143.614 188.249 143.744C188.431 143.998 188.535 144.299 188.549 144.611C188.572 144.903 188.534 145.198 188.439 145.475Z" fill="#010004"/>
<path d="M193.097 160.678L193.055 162.999C193.055 162.999 183.108 165.235 180.242 165.024L178.893 165.699C178.893 165.699 178.261 165.32 177.966 163.547C177.966 163.547 179.694 162.492 180.326 162.745L193.097 160.678Z" fill="#342E54"/>
<path d="M180.985 145.986C180.771 145.769 180.575 145.534 180.4 145.285C180.22 145.036 180.059 144.774 179.918 144.502C179.775 144.227 179.661 143.937 179.578 143.637C179.491 143.33 179.466 143.009 179.503 142.693L179.504 142.687C179.508 142.657 179.524 142.631 179.547 142.613C179.571 142.595 179.601 142.586 179.63 142.59C179.66 142.594 179.687 142.609 179.705 142.632C179.724 142.655 179.732 142.685 179.729 142.714C179.698 143.014 179.632 143.308 179.531 143.592C179.484 143.737 179.412 143.873 179.318 143.995C179.277 144.06 179.217 144.112 179.146 144.144C179.075 144.175 178.996 144.185 178.92 144.172C178.99 144.169 179.058 144.146 179.116 144.106C179.174 144.066 179.22 144.011 179.247 143.946C179.31 143.82 179.358 143.686 179.39 143.549C179.452 143.269 179.489 142.985 179.503 142.699L179.729 142.72C179.723 143.305 179.859 143.882 180.123 144.403C180.248 144.673 180.376 144.944 180.525 145.205C180.674 145.466 180.823 145.729 180.985 145.986ZM192.581 144.716C192.374 145.129 192.195 145.556 192.046 145.994C191.888 146.426 191.762 146.869 191.668 147.32C191.463 148.211 191.413 149.132 191.52 150.041C191.574 150.492 191.677 150.936 191.828 151.365C191.904 151.579 191.994 151.788 192.096 151.991C192.167 152.194 192.298 152.372 192.47 152.502C192.643 152.628 192.853 152.693 193.067 152.688C193.289 152.668 193.505 152.609 193.706 152.513C194.124 152.321 194.512 152.068 194.857 151.763C194.541 152.109 194.17 152.4 193.759 152.625C193.547 152.741 193.315 152.816 193.076 152.848C192.824 152.866 192.572 152.802 192.36 152.663C192.151 152.525 191.99 152.324 191.901 152.09C191.791 151.881 191.695 151.665 191.612 151.444C191.447 151.001 191.332 150.541 191.269 150.072C191.168 149.135 191.239 148.186 191.479 147.275C191.71 146.369 192.081 145.505 192.581 144.716ZM184.569 183.339C184.555 184.131 184.508 184.921 184.461 185.711L184.456 185.786L184.395 185.798C184.246 185.815 184.095 185.801 183.952 185.755C183.809 185.71 183.677 185.634 183.565 185.534C183.35 185.367 183.153 185.177 182.978 184.968C182.634 184.557 182.333 184.111 182.082 183.638C181.819 183.176 181.585 182.698 181.383 182.207C181.165 181.723 180.993 181.221 180.818 180.722L181.525 182.14C181.64 182.377 181.765 182.608 181.895 182.837C182.017 183.07 182.144 183.3 182.279 183.524C182.54 183.975 182.836 184.405 183.164 184.809C183.323 185.009 183.504 185.191 183.702 185.352C183.8 185.426 183.905 185.49 184.016 185.544C184.111 185.588 184.216 185.609 184.321 185.605L184.256 185.692C184.349 184.907 184.442 184.121 184.569 183.339ZM189.922 184.056C189.768 184.847 189.597 185.635 189.417 186.419C189.245 187.206 189.047 187.987 188.858 188.769L188.788 188.629C189.767 189.02 190.722 189.464 191.678 189.909C192.152 190.141 192.622 190.379 193.086 190.632C193.319 190.757 193.544 190.895 193.768 191.036C193.997 191.169 194.206 191.333 194.389 191.525C193.966 191.215 193.508 190.956 193.025 190.752C192.552 190.524 192.072 190.31 191.589 190.103C190.634 189.666 189.658 189.271 188.696 188.851L188.599 188.809L188.625 188.711C188.83 187.932 189.025 187.151 189.247 186.376C189.46 185.6 189.682 184.826 189.922 184.056ZM204.336 187.79C203.501 187.217 202.605 186.738 201.664 186.363C200.738 185.968 199.742 185.764 198.736 185.762C198.241 185.768 197.754 185.88 197.306 186.089C196.858 186.299 196.46 186.601 196.137 186.976C195.519 187.762 195.103 188.689 194.926 189.674C194.884 189.915 194.813 190.18 194.794 190.403C194.787 190.649 194.8 190.895 194.834 191.139C194.9 191.637 194.995 192.13 195.12 192.617C195.378 193.594 195.691 194.556 196.056 195.498C196.78 197.389 197.645 199.225 198.479 201.076L198.51 201.145L198.437 201.155L195.359 201.568L198.42 201.044L198.378 201.123C197.503 199.294 196.582 197.479 195.848 195.578C195.473 194.63 195.151 193.662 194.884 192.677C194.753 192.181 194.652 191.678 194.583 191.169C194.549 190.91 194.537 190.648 194.547 190.387C194.576 190.104 194.643 189.877 194.69 189.619C194.881 188.599 195.321 187.641 195.969 186.83C196.313 186.434 196.738 186.117 197.215 185.9C197.693 185.692 198.209 185.584 198.731 185.583C199.758 185.602 200.771 185.833 201.705 186.262C202.636 186.672 203.519 187.185 204.336 187.79ZM206.739 199.29C206.739 199.429 206.724 199.567 206.693 199.702C206.666 199.835 206.63 199.965 206.584 200.092C206.538 200.22 206.483 200.343 206.419 200.462C206.356 200.586 206.28 200.702 206.191 200.809C206.19 200.67 206.206 200.531 206.236 200.396C206.263 200.264 206.3 200.133 206.346 200.006C206.392 199.879 206.447 199.756 206.511 199.637C206.573 199.513 206.65 199.396 206.739 199.29ZM192.029 204.284C191.92 204.242 191.825 204.168 191.758 204.071C191.687 203.976 191.639 203.865 191.618 203.748C191.598 203.631 191.605 203.51 191.64 203.397C191.672 203.284 191.734 203.183 191.818 203.102C191.83 203.221 191.823 203.323 191.833 203.422C191.839 203.516 191.85 203.611 191.867 203.704C191.883 203.798 191.904 203.891 191.93 203.982C191.957 204.078 191.992 204.173 192.029 204.284ZM179.332 204.284C179.258 204.236 179.197 204.17 179.157 204.092C179.113 204.016 179.086 203.932 179.079 203.845C179.07 203.753 179.086 203.66 179.126 203.577C179.145 203.534 179.173 203.495 179.209 203.464C179.245 203.433 179.287 203.411 179.332 203.398C179.318 203.473 179.312 203.549 179.314 203.625L179.331 203.823C179.333 203.891 179.344 203.961 179.343 204.037C179.346 204.12 179.343 204.202 179.332 204.284ZM172.934 204.298C172.845 204.273 172.768 204.218 172.715 204.142C172.657 204.066 172.624 203.973 172.621 203.877C172.617 203.778 172.648 203.681 172.709 203.604C172.763 203.528 172.843 203.475 172.934 203.454C172.918 203.548 172.893 203.618 172.885 203.686C172.875 203.747 172.872 203.809 172.874 203.87C172.876 203.934 172.882 203.998 172.891 204.061C172.902 204.131 172.919 204.205 172.934 204.298ZM186.466 195.139C186.516 196.154 186.5 197.171 186.417 198.184L186.416 198.194L186.415 198.199C186.348 198.512 186.227 198.811 186.057 199.082C185.975 199.223 185.865 199.344 185.734 199.44C185.605 199.537 185.445 199.583 185.284 199.57C185.428 199.535 185.561 199.465 185.672 199.366C185.782 199.267 185.867 199.143 185.918 199.003C186.04 198.733 186.128 198.448 186.179 198.155L186.177 198.17C186.206 197.155 186.303 196.142 186.466 195.139Z" fill="#BC6A55"/>
<path d="M187.852 144.276C187.945 143.987 187.849 143.698 187.638 143.629C187.427 143.561 187.18 143.741 187.087 144.03C186.994 144.319 187.09 144.609 187.301 144.677C187.512 144.745 187.759 144.566 187.852 144.276Z" fill="#010004"/>
<path d="M180.985 141.901C181.456 141.901 181.838 141.599 181.838 141.226C181.838 140.853 181.456 140.55 180.985 140.55C180.514 140.55 180.132 140.853 180.132 141.226C180.132 141.599 180.514 141.901 180.985 141.901Z" fill="#342E54"/>
<path d="M177.477 169.237C178.547 169.237 179.415 168.369 179.415 167.297C179.415 166.225 178.547 165.357 177.477 165.357C176.407 165.357 175.539 166.225 175.539 167.297C175.539 168.369 176.407 169.237 177.477 169.237Z" fill="#F95E35"/>
<path d="M101.441 184.944L91.28 179.522C91.28 179.522 87.0093 184.615 92.3747 190.657L98.6379 193.153L101.441 184.944Z" fill="#F9957A"/>
<path d="M96.6528 182.411C96.6528 182.411 92.0457 175.609 87.5978 177.212C87.3672 177.297 87.1596 177.435 86.9914 177.614C86.8232 177.793 86.6991 178.01 86.6289 178.245L79.2508 202.613C79.2173 202.725 79.2077 202.843 79.2227 202.959C79.2376 203.074 79.2768 203.185 79.3376 203.285C79.3983 203.385 79.4794 203.47 79.5755 203.536C79.6715 203.602 79.7804 203.647 79.895 203.668C81.1969 203.918 83.6549 204.034 85.4349 201.978C87.9657 199.054 86.0286 195.825 92.6172 191.683C92.6172 191.683 92.7757 183.719 96.6528 182.411Z" fill="#FF7855"/>
<path d="M128.729 203.816C146.428 203.802 134.659 187.348 134.612 187.252C134.612 187.252 117.08 151.155 116.912 150.917C110.944 142.456 102.787 145.653 102.712 145.697C92.8779 151.473 90.8881 159.83 96.0126 167.266C96.0598 167.334 95.1998 167.882 95.2946 168.016C100.494 175.382 111.528 183.299 118.801 188.622L100.682 183.994L96.8218 192.83C98.9671 193.663 128.55 203.816 128.729 203.816Z" fill="#A191FF"/>
<path d="M118.192 176.407L121.571 181.222L124.931 186.052L131.638 195.72L131.79 195.937L131.53 195.885L123.259 194.208L114.994 192.502L106.729 190.796L98.4717 189.051L106.754 190.671L115.029 192.33L123.304 193.988L131.572 195.676L131.463 195.841L124.811 186.135L121.492 181.278L118.192 176.407Z" fill="#19104F"/>
<path d="M154.343 171.5C161.08 163.318 152.91 156.6 145.682 155.279C145.575 155.26 145.469 155.241 145.363 155.225C145.363 155.225 104.664 150.638 104.374 150.638C94.0277 150.635 91.9375 159.151 91.921 159.237C89.6965 170.765 96.6262 177.06 105.649 177.161C105.732 177.162 105.859 177.162 106.023 177.162C115.032 177.159 123.981 175.691 132.52 172.814L138.912 170.662L128.387 185.055L137.54 190.353C139.458 189.079 153.809 172.149 154.343 171.5Z" fill="#A191FF"/>
<path d="M128.417 185.075L122.014 193.983C122.014 193.983 126.484 198.066 133.455 193.986L136.846 189.953L128.417 185.075Z" fill="#F9957A"/>
<path d="M122.013 192.595C122.013 192.595 115.99 200.187 120.08 203.759L148.838 203.768C148.838 203.768 151.177 199.672 147.612 198.179C144.047 196.686 144.134 200.461 133.775 193.538C133.775 193.538 124.467 195.873 122.013 192.595Z" fill="#FF7855"/>
<path d="M91.5205 164.218L101.673 164.162L111.825 164.143L132.13 164.108L142.282 164.131C142.707 164.137 143.124 164.123 143.555 164.144C143.993 164.16 144.422 164.272 144.812 164.472C145.204 164.668 145.547 164.949 145.817 165.294C146.095 165.632 146.295 166.027 146.404 166.451C146.519 166.873 146.542 167.315 146.471 167.746C146.4 168.178 146.238 168.589 145.994 168.952C145.512 169.655 145.013 170.334 144.524 171.026L138.62 179.295L132.685 187.542L138.523 179.227L144.392 170.933C144.878 170.241 145.379 169.552 145.851 168.858C146.08 168.515 146.231 168.126 146.297 167.719C146.362 167.312 146.338 166.896 146.229 166.499C146.125 166.1 145.935 165.729 145.672 165.411C145.417 165.088 145.094 164.826 144.725 164.643C143.992 164.242 143.127 164.347 142.282 164.333L132.13 164.351L111.825 164.304L101.673 164.28L91.5205 164.218Z" fill="#19104F"/>
<path d="M103.88 177.059C105.982 177.152 108.087 177.111 110.186 177.017C112.285 176.917 114.382 176.762 116.467 176.499C118.554 176.261 120.63 175.941 122.695 175.539C124.763 175.16 126.805 174.655 128.843 174.129C127.831 174.418 126.829 174.747 125.808 175.003C124.787 175.261 123.765 175.516 122.732 175.722C120.672 176.167 118.586 176.483 116.495 176.74C114.402 176.984 112.298 177.142 110.193 177.203C109.14 177.234 108.086 177.238 107.033 177.225C105.981 177.194 104.928 177.152 103.88 177.059ZM131.485 180.818C130.987 181.538 130.501 182.266 129.993 182.978C129.486 183.692 128.989 184.412 128.472 185.118L128.44 184.963L130.736 186.275L133.017 187.611C133.779 188.053 134.531 188.514 135.287 188.967C136.045 189.417 136.789 189.891 137.54 190.353C136.766 189.931 135.984 189.523 135.216 189.09C134.447 188.66 133.673 188.238 132.91 187.796L130.614 186.484L128.333 185.147L128.231 185.088L128.301 184.992C128.817 184.286 129.353 183.594 129.879 182.895C130.404 182.195 130.951 181.511 131.485 180.818ZM106.423 164.222C106.726 163.572 106.972 162.897 107.161 162.205C107.361 161.52 107.501 160.818 107.579 160.109C107.771 158.697 107.591 157.26 107.057 155.94C106.479 154.639 105.522 153.543 104.311 152.795C103.098 152.035 101.773 151.47 100.386 151.12C101.806 151.385 103.169 151.898 104.411 152.637C105.039 153.007 105.604 153.473 106.088 154.018C106.583 154.557 106.985 155.174 107.28 155.844C107.821 157.204 107.988 158.685 107.763 160.131C107.561 161.563 107.107 162.948 106.423 164.222Z" fill="#19104F"/>
<path d="M124.244 166.496C124.244 166.496 126.744 166.389 131.001 169.905C135.258 173.42 138.234 176.641 134.747 174.914L132.112 173.554C132.112 173.554 134.046 177.552 135.407 179.833C135.777 180.432 135.946 181.135 135.887 181.837C135.829 182.539 135.547 183.204 135.083 183.734C134.191 184.708 133.135 184.766 131.064 182.45C127.966 178.985 126.737 177.188 126.222 176.109C126.044 175.735 125.135 174.423 125.135 174.423L124.244 166.496Z" fill="#F9957A"/>
<path d="M130.752 171.234C131.09 171.54 131.378 171.896 131.605 172.291C131.848 172.679 132.02 173.106 132.112 173.554C131.809 173.22 131.542 172.855 131.315 172.464C131.078 172.079 130.888 171.666 130.752 171.234ZM131.978 176.875C132.312 177.318 132.626 177.771 132.942 178.222L133.882 179.574C134.192 180.026 134.507 180.474 134.828 180.919C135.15 181.362 135.481 181.797 135.835 182.224C135.391 181.889 134.985 181.505 134.625 181.081C134.259 180.664 133.918 180.225 133.604 179.767C133.291 179.31 132.992 178.844 132.723 178.36C132.446 177.88 132.197 177.384 131.978 176.875ZM130.792 178.003L131.757 179.536C132.083 180.042 132.404 180.549 132.743 181.042C133.074 181.542 133.431 182.021 133.803 182.486C133.988 182.719 134.187 182.942 134.397 183.153L134.722 183.461C134.842 183.548 134.962 183.639 135.083 183.734C134.52 183.486 134.018 183.119 133.609 182.66C133.185 182.219 132.802 181.741 132.464 181.233C132.123 180.729 131.812 180.206 131.533 179.665C131.249 179.128 131.001 178.573 130.792 178.003ZM129.939 179.317C130.5 180.164 131.028 181.014 131.586 181.845C132.141 182.68 132.724 183.483 133.356 184.278C132.55 183.652 131.857 182.893 131.306 182.033C130.735 181.191 130.276 180.277 129.939 179.317Z" fill="#DD795E"/>
<path d="M153.946 143.797C153.946 143.797 156.412 144.221 161.08 141.273C165.747 138.325 169.107 135.507 165.429 136.778L162.643 137.793C162.643 137.793 165.067 134.072 166.705 131.982C167.148 131.435 167.404 130.76 167.435 130.056C167.466 129.351 167.27 128.656 166.877 128.072C166.115 126.993 165.075 126.801 162.728 128.837C159.217 131.881 157.77 133.507 157.123 134.513C156.899 134.861 155.832 136.048 155.832 136.048L153.946 143.797Z" fill="#F9957A"/>
<path d="M161.001 139.922C161.191 139.511 161.431 139.126 161.715 138.773C161.99 138.415 162.301 138.087 162.644 137.793C162.495 138.226 162.271 138.628 161.981 138.982C161.706 139.345 161.375 139.662 161.001 139.922ZM162.931 134.483C163.212 134.005 163.521 133.545 163.857 133.104C164.185 132.657 164.541 132.233 164.909 131.819C165.279 131.405 165.672 131.013 166.088 130.645C166.499 130.27 166.95 129.941 167.433 129.664C167.027 130.043 166.644 130.434 166.269 130.832C165.895 131.233 165.526 131.638 165.16 132.046L164.057 133.269C163.687 133.676 163.318 134.085 162.931 134.483ZM161.896 133.213C162.176 132.674 162.492 132.155 162.842 131.658C163.187 131.157 163.561 130.678 163.963 130.221C164.363 129.759 164.804 129.334 165.279 128.951C165.743 128.546 166.288 128.247 166.878 128.072C166.746 128.151 166.616 128.225 166.486 128.297L166.124 128.562C165.888 128.744 165.663 128.94 165.45 129.147C165.022 129.562 164.607 129.992 164.216 130.445C163.818 130.892 163.435 131.354 163.048 131.815L161.896 133.213ZM161.217 131.802C161.672 130.891 162.243 130.044 162.916 129.28C163.571 128.497 164.355 127.832 165.233 127.313C164.506 128.022 163.826 128.745 163.17 129.502C162.512 130.256 161.881 131.032 161.217 131.802Z" fill="#DD795E"/>
<path d="M100.151 153.493C100.292 154.154 100.467 154.808 100.676 155.451C100.878 156.085 101.132 156.701 101.436 157.294C101.742 157.877 102.12 158.42 102.561 158.909C103.03 159.386 103.571 159.786 104.163 160.096C103.486 159.931 102.857 159.607 102.329 159.151C101.813 158.675 101.383 158.114 101.056 157.493C100.741 156.874 100.505 156.218 100.354 155.539C100.197 154.869 100.128 154.181 100.151 153.493Z" fill="#B04023"/>
<path d="M120.339 97.3611C121.999 97.108 123.696 97.2536 125.289 97.786C126.036 98.0511 128.768 99.0207 130.099 101.61C130.605 102.593 130.719 103.776 130.948 106.142C131.091 107.62 131.659 108.678 131.658 110.48C131.629 111.941 131.389 113.389 130.948 114.781C130.286 116.96 130.712 118.198 130.382 118.605C129.052 120.246 125.013 118.958 124.952 121.1C124.915 122.423 125.923 122.669 125.838 124.217C125.727 126.223 119.276 125.131 117.368 124.128C117.108 123.992 114.742 122.44 114.999 120.101C115.137 118.852 116.197 112.988 116.095 112.232C115.727 109.497 114.351 109.164 113.266 105.859C112.972 105.029 112.895 104.137 113.044 103.269C113.192 102.401 113.561 101.586 114.115 100.902C115.71 99.0273 117.913 97.774 120.339 97.3611Z" fill="#F9957A"/>
<path d="M115.188 119.074C115.188 119.074 94.8676 127.018 97.577 144.456L93.916 155.348L97.964 155.307C97.964 155.307 98.1569 159.08 107.753 165.581C110.359 167.347 113.053 169.3 115.965 170.495L124.024 174.824C124.331 174.95 124.669 174.984 124.995 174.922C125.321 174.859 125.623 174.703 125.862 174.473L129.802 170.678C129.984 170.502 130.125 170.288 130.215 170.052C130.305 169.815 130.341 169.561 130.322 169.309C130.302 169.056 130.227 168.811 130.102 168.591C129.976 168.371 129.804 168.182 129.597 168.036C124.556 164.469 120.128 160.105 116.488 155.114C118.672 155.806 120.975 156.046 123.255 155.818C125.535 155.591 127.745 154.901 129.75 153.791L130.347 151.302C130.347 151.302 137.83 158.407 146.345 154.144C151.245 151.688 155.473 148.073 158.662 143.611C158.853 143.335 158.928 142.995 158.871 142.665C158.416 140.224 157.355 137.938 155.785 136.016C155.592 135.785 155.323 135.63 155.027 135.577C154.731 135.524 154.425 135.578 154.164 135.728L141.325 143.038L137.946 134.558C136.099 130.559 133.168 127.16 129.485 124.75L125.057 121.851L115.188 119.074Z" fill="#FF7855"/>
<path d="M130.347 151.302C130.468 150.562 130.586 149.823 130.668 149.079C130.768 148.338 130.85 147.595 130.91 146.851C131.033 145.363 131.115 143.874 131.109 142.385C131.097 140.897 130.994 139.411 130.801 137.935C130.691 137.199 130.543 136.47 130.356 135.749C130.177 135.023 129.959 134.308 129.702 133.606C130.365 134.961 130.844 136.398 131.126 137.88C131.389 139.367 131.526 140.873 131.537 142.383C131.536 143.889 131.435 145.394 131.237 146.887C131.049 148.379 130.752 149.855 130.347 151.302Z" fill="#E6512A"/>
<path d="M130.38 109.151C130.686 109.151 130.934 108.842 130.934 108.461C130.934 108.08 130.686 107.77 130.38 107.77C130.073 107.77 129.825 108.08 129.825 108.461C129.825 108.842 130.073 109.151 130.38 109.151Z" fill="#07070A"/>
<path d="M125.38 109.151C125.686 109.151 125.934 108.842 125.934 108.461C125.934 108.08 125.686 107.77 125.38 107.77C125.073 107.77 124.825 108.08 124.825 108.461C124.825 108.842 125.073 109.151 125.38 109.151Z" fill="#07070A"/>
<path d="M127.742 107.224C127.666 107.225 127.593 107.2 127.532 107.155C127.472 107.11 127.428 107.046 127.406 106.974C127.385 106.901 127.387 106.824 127.413 106.753C127.439 106.682 127.488 106.622 127.551 106.58C128.166 106.169 128.889 105.95 129.628 105.953C130.367 105.955 131.089 106.179 131.701 106.595C131.775 106.651 131.824 106.734 131.837 106.826C131.85 106.918 131.826 107.011 131.77 107.085C131.714 107.159 131.631 107.208 131.539 107.221C131.448 107.234 131.354 107.21 131.28 107.155C130.786 106.818 130.201 106.64 129.604 106.642C129.006 106.645 128.424 106.828 127.932 107.168C127.876 107.205 127.809 107.225 127.742 107.224ZM122.56 107.224C122.485 107.225 122.411 107.2 122.351 107.155C122.29 107.11 122.246 107.046 122.224 106.974C122.203 106.901 122.205 106.824 122.232 106.753C122.258 106.682 122.306 106.622 122.369 106.58C122.984 106.169 123.707 105.95 124.446 105.953C125.186 105.955 125.907 106.179 126.519 106.595C126.593 106.651 126.642 106.734 126.655 106.826C126.668 106.918 126.644 107.011 126.588 107.085C126.532 107.159 126.45 107.208 126.358 107.221C126.266 107.234 126.173 107.21 126.098 107.155C125.604 106.819 125.02 106.64 124.422 106.642C123.825 106.645 123.242 106.828 122.75 107.168C122.694 107.205 122.628 107.225 122.56 107.224Z" fill="#1E1D22"/>
<path d="M127.266 107.367C127.211 107.942 127.316 108.521 127.569 109.04C127.797 109.566 128.089 110.063 128.439 110.517L128.719 110.851C128.836 110.979 128.9 111.146 128.899 111.319C128.883 111.479 128.832 111.634 128.751 111.773C128.67 111.912 128.559 112.031 128.427 112.123C128.175 112.287 127.888 112.392 127.589 112.43C127.291 112.468 126.987 112.438 126.701 112.342C126.988 112.376 127.278 112.367 127.563 112.318C127.839 112.278 128.099 112.163 128.314 111.984C128.521 111.82 128.655 111.58 128.686 111.317C128.704 111.082 128.44 110.903 128.258 110.664C127.903 110.189 127.616 109.667 127.406 109.112C127.171 108.561 127.122 107.949 127.266 107.367ZM118.18 107.601C117.991 107.663 117.813 107.752 117.649 107.864C117.49 107.974 117.342 108.098 117.205 108.235C117.067 108.374 116.936 108.519 116.814 108.672C116.689 108.826 116.574 108.99 116.441 109.151C116.464 109.05 116.5 108.954 116.53 108.853L116.664 108.572C116.765 108.387 116.892 108.217 117.042 108.069C117.192 107.918 117.369 107.795 117.563 107.707C117.754 107.614 117.968 107.577 118.18 107.601Z" fill="#DD795E"/>
<path d="M117.729 110.48C117.787 110.054 117.783 109.622 117.715 109.198C117.682 108.99 117.63 108.785 117.561 108.586C117.497 108.381 117.399 108.19 117.311 107.983C117.48 108.133 117.62 108.313 117.725 108.513C117.835 108.715 117.91 108.934 117.945 109.16C117.984 109.386 117.984 109.617 117.948 109.843C117.917 110.068 117.843 110.284 117.729 110.48Z" fill="#DD795E"/>
<path d="M121.121 113.053C121.121 113.053 120.202 109.083 120.37 107.946C120.605 106.362 120.722 105.57 120.533 104.926C120.229 103.894 120.732 103.76 121.377 102.651C121.984 101.61 123.862 102.452 124.331 102.279C125.646 101.792 125.597 101.237 126.487 101.182C127.399 101.125 128.068 100.884 128.657 101.473C129.258 102.075 130.361 103.673 130.633 103.396C131.206 102.632 131.558 101.724 131.65 100.772C131.657 99.8346 131.435 98.9093 131.004 98.0766C130.788 97.5956 129.984 95.8054 128.31 95.3275C127.346 95.0522 127.161 95.5171 125.075 95.6407C122.912 95.7689 122.845 95.2846 121.712 95.607C120.458 95.964 120.506 96.5669 118.363 97.739C117.652 98.115 116.922 98.4521 116.175 98.7488C113.484 99.8896 113.132 99.7072 112.513 100.306C111.179 101.597 111.397 103.816 111.45 104.352C111.598 105.862 112.187 106.315 113.467 108.734C115.495 112.563 115.088 114.173 115.831 114.71C116.196 114.973 118.119 113.604 118.11 112.93C118.099 112.046 117.462 111.767 116.713 110.489C116.19 109.595 115.438 108.313 115.871 107.15C116.132 106.448 116.425 106.64 117.152 106.708C118.139 106.799 118.624 108.176 119.02 109.186C119.305 109.917 119.429 110.702 119.381 111.485C119.276 113.233 121.461 113.749 121.121 113.053Z" fill="#1E1D22"/>
<path d="M125.55 114.782C125.55 114.782 127.734 116.822 129.687 114.782H125.55Z" fill="#07070A"/>
<path d="M115.187 119.074C115.187 119.074 114.8 124.628 121.09 127.276L122.412 125.468L123.444 127.276C123.444 127.276 126.218 124.564 125.057 121.851L115.187 119.074Z" fill="#5A5093"/>
<path d="M115.188 119.074C115.188 119.074 118.993 124.693 122.412 125.468C122.412 125.468 124.67 123.272 125.057 121.851L122.262 120.344L115.188 119.074Z" fill="#F9957A"/>
<path d="M112.672 138.773C112.725 139.802 112.766 140.83 112.793 141.859C112.813 142.888 112.852 143.917 112.858 144.946L112.882 148.033C112.891 149.062 112.87 150.091 112.866 151.12L112.816 150.991C113.912 152.222 114.995 153.464 116.065 154.719C117.145 155.964 118.209 157.223 119.259 158.496C118.115 157.307 116.985 156.107 115.866 154.897C114.743 153.69 113.631 152.474 112.528 151.25L112.478 151.195L112.478 151.12C112.474 150.091 112.453 149.062 112.462 148.033L112.486 144.946C112.492 143.917 112.531 142.888 112.551 141.859C112.578 140.831 112.618 139.802 112.672 138.773ZM97.5772 144.456C97.6127 145.368 97.6175 146.275 97.6265 147.182L97.6471 149.9C97.6498 150.805 97.6729 151.708 97.6959 152.611C97.7098 153.063 97.7351 153.513 97.777 153.963C97.7884 154.189 97.8236 154.411 97.846 154.637C97.8735 154.861 97.9292 155.079 97.9643 155.307C97.6386 154.449 97.4375 153.55 97.3671 152.636C97.2657 151.727 97.2312 150.814 97.2188 149.903C97.219 148.992 97.235 148.082 97.2985 147.173C97.3581 146.265 97.4362 145.358 97.5772 144.456ZM122.413 125.468C122.865 127.974 123.146 130.51 123.347 133.049C123.552 135.59 123.622 138.139 123.637 140.688C123.625 143.237 123.526 145.787 123.296 148.326C123.076 150.864 122.716 153.389 122.218 155.888L122.448 153.993L122.567 153.048L122.653 152.098L122.84 150.201L122.967 148.3C123.058 147.034 123.102 145.764 123.159 144.496C123.186 143.226 123.223 141.957 123.208 140.687C123.229 138.148 123.153 135.608 123.02 133.07C122.954 131.802 122.87 130.534 122.768 129.267C122.675 127.999 122.551 126.733 122.413 125.468ZM135.299 150.082C135.949 150.6 136.64 151.063 137.365 151.467C138.079 151.868 138.835 152.188 139.619 152.422C140.399 152.651 141.211 152.752 142.023 152.719L142.634 152.676L143.237 152.558C143.338 152.538 143.441 152.525 143.541 152.5L143.836 152.403C144.032 152.336 144.231 152.274 144.434 152.214C143.71 152.664 142.897 152.95 142.05 153.053C141.194 153.151 140.328 153.076 139.501 152.834C138.683 152.589 137.905 152.224 137.192 151.752C136.483 151.292 135.845 150.729 135.299 150.082ZM100.522 152.879C100.64 153.702 100.826 154.514 101.077 155.306C101.321 156.088 101.652 156.84 102.062 157.549C102.473 158.251 102.995 158.882 103.608 159.416L104.082 159.805L104.602 160.132C104.689 160.188 104.773 160.249 104.863 160.3L105.144 160.431C105.332 160.517 105.52 160.609 105.709 160.705C104.874 160.535 104.085 160.184 103.399 159.678C102.71 159.161 102.13 158.512 101.694 157.768C101.267 157.027 100.951 156.228 100.756 155.395C100.555 154.573 100.476 153.725 100.522 152.879Z" fill="#E6512A"/>
<path d="M125.845 119.948C125.845 119.948 121.574 119.724 120.803 117.819C120.803 117.819 120.998 120.506 125.058 121.851C124.948 121.51 124.926 121.146 124.995 120.794C125.196 120.44 125.49 120.147 125.845 119.948Z" fill="#DD795E"/>
<path d="M134.418 154.002L143.944 155.074C143.944 155.074 136.546 159.87 134.418 154.002Z" fill="#A191FF"/>
<path d="M257.143 203.538H42.8574V204.396H257.143V203.538Z" fill="#5A5093"/>
</svg>
