<svg width="56" height="57" viewBox="0 0 56 57" fill="none" xmlns="http://www.w3.org/2000/svg">
<path d="M40.5002 38.8751C39.5168 37.9828 38.5979 37.0221 37.7502 36.0001C37.3525 35.29 37.0419 34.5346 36.8252 33.7501C35.8002 30.6501 34.0752 25.5001 28.0002 25.5001C21.9252 25.5001 20.2002 30.6501 19.1752 33.7251C18.9595 34.51 18.6489 35.2655 18.2502 35.9751C17.403 37.0054 16.4841 37.9745 15.5002 38.8751C13.1502 41.2001 10.5002 43.8751 10.5002 47.9751C10.4412 48.9698 10.5811 49.9663 10.9116 50.9063C11.2421 51.8464 11.7567 52.7112 12.4252 53.4501C13.1659 54.1534 14.0424 54.698 15.0011 55.0505C15.9597 55.4031 16.9803 55.556 18.0002 55.5001C20.1187 55.4829 22.1863 54.8488 23.9502 53.6751C25.1409 52.8423 26.5479 52.3733 28.0002 52.3251C29.4524 52.3733 30.8594 52.8423 32.0502 53.6751C33.814 54.8488 35.8816 55.4829 38.0002 55.5001C39.02 55.556 40.0406 55.4031 40.9993 55.0505C41.9579 54.698 42.8345 54.1534 43.5752 53.4501C44.2406 52.7142 44.7533 51.8535 45.0838 50.918C45.4142 49.9825 45.5557 48.9907 45.5002 48.0001C45.5002 43.8501 42.7752 41.2001 40.5002 38.8751ZM54.3252 22.5751C53.9448 21.9461 53.4096 21.4251 52.7706 21.0618C52.1316 20.6986 51.4102 20.5052 50.6752 20.5001C47.4002 20.5001 44.1502 24.2501 43.1752 29.0251C43.0262 29.808 42.9509 30.6032 42.9502 31.4001C42.8973 32.9902 43.3054 34.5616 44.1252 35.9251C44.5055 36.5541 45.0407 37.0751 45.6797 37.4384C46.3187 37.8016 47.0401 37.995 47.7752 38.0001C51.0502 38.0001 54.3002 34.2501 55.2752 29.4751C55.4241 28.6922 55.4994 27.8971 55.5002 27.1001C55.553 25.51 55.1449 23.9386 54.3252 22.5751ZM36.4252 20.5001C40.5002 20.5001 44.2752 16.2001 45.2752 10.7251C45.4058 10.0154 45.481 9.29652 45.5002 8.57511C45.6665 6.21756 44.8936 3.88991 43.3502 2.10011C42.8631 1.59032 42.277 1.18544 41.6279 0.910302C40.9787 0.635165 40.2802 0.495578 39.5752 0.500107C35.5002 0.500107 31.7252 4.80011 30.7252 10.2751C30.5958 10.9766 30.5206 11.6871 30.5002 12.4001C30.3338 14.7577 31.1067 17.0853 32.6502 18.8751C33.135 19.3894 33.7202 19.7989 34.3694 20.0784C35.0187 20.3579 35.7183 20.5014 36.4252 20.5001ZM11.8252 35.9251C12.6449 34.5616 13.053 32.9902 13.0002 31.4001C13.0072 30.5614 12.9319 29.7241 12.7752 28.9001C11.8502 24.2501 8.57516 20.5001 5.32516 20.5001C4.59014 20.5052 3.86869 20.6986 3.22969 21.0618C2.59069 21.4251 2.05548 21.9461 1.67516 22.5751C0.855377 23.9386 0.447324 25.51 0.500157 27.1001C0.492908 27.9388 0.568272 28.7762 0.725157 29.6001C1.65016 34.2501 4.92516 38.0001 8.17516 38.0001C8.91018 37.995 9.63163 37.8016 10.2706 37.4384C10.9096 37.0751 11.4448 36.5541 11.8252 35.9251ZM19.5752 20.5001C20.2802 20.5046 20.9787 20.365 21.6279 20.0899C22.277 19.8148 22.8631 19.4099 23.3502 18.9001C24.8936 17.1103 25.6665 14.7827 25.5002 12.4251C25.4797 11.7121 25.4045 11.0016 25.2752 10.3001C24.2752 4.80011 20.5002 0.500107 16.4252 0.500107C15.7201 0.495578 15.0216 0.635165 14.3724 0.910302C13.7233 1.18544 13.1372 1.59032 12.6502 2.10011C11.1067 3.88991 10.3338 6.21756 10.5002 8.57511C10.5206 9.28816 10.5958 9.99858 10.7252 10.7001C11.7252 16.2001 15.5002 20.5001 19.5752 20.5001Z" fill="#6A75ED"/>
<rect x="30.5" y="47.5" width="22" height="9" rx="4.5" fill="#6A75ED" stroke="white"/>
<path d="M34.9114 54.048C34.7914 54.048 34.6994 54.016 34.6354 53.952C34.5714 53.884 34.5394 53.788 34.5394 53.664V51.396C34.5394 51.272 34.5714 51.178 34.6354 51.114C34.6994 51.05 34.7894 51.018 34.9054 51.018C35.0214 51.018 35.1114 51.05 35.1754 51.114C35.2394 51.178 35.2714 51.272 35.2714 51.396V51.804L35.2054 51.654C35.2934 51.442 35.4294 51.282 35.6134 51.174C35.8014 51.062 36.0134 51.006 36.2494 51.006C36.4854 51.006 36.6794 51.05 36.8314 51.138C36.9834 51.226 37.0974 51.36 37.1734 51.54C37.2494 51.716 37.2874 51.94 37.2874 52.212V53.664C37.2874 53.788 37.2554 53.884 37.1914 53.952C37.1274 54.016 37.0354 54.048 36.9154 54.048C36.7954 54.048 36.7014 54.016 36.6334 53.952C36.5694 53.884 36.5374 53.788 36.5374 53.664V52.248C36.5374 52.02 36.4934 51.854 36.4054 51.75C36.3214 51.646 36.1894 51.594 36.0094 51.594C35.7894 51.594 35.6134 51.664 35.4814 51.804C35.3534 51.94 35.2894 52.122 35.2894 52.35V53.664C35.2894 53.92 35.1634 54.048 34.9114 54.048ZM39.4952 54.06C39.1632 54.06 38.8772 53.998 38.6372 53.874C38.3972 53.75 38.2112 53.574 38.0792 53.346C37.9512 53.118 37.8872 52.848 37.8872 52.536C37.8872 52.232 37.9492 51.966 38.0732 51.738C38.2012 51.51 38.3752 51.332 38.5952 51.204C38.8192 51.072 39.0732 51.006 39.3572 51.006C39.5652 51.006 39.7512 51.04 39.9152 51.108C40.0832 51.176 40.2252 51.274 40.3412 51.402C40.4612 51.53 40.5512 51.686 40.6112 51.87C40.6752 52.05 40.7072 52.254 40.7072 52.482C40.7072 52.554 40.6812 52.61 40.6292 52.65C40.5812 52.686 40.5112 52.704 40.4192 52.704H38.4932V52.272H40.1792L40.0832 52.362C40.0832 52.178 40.0552 52.024 39.9992 51.9C39.9472 51.776 39.8692 51.682 39.7652 51.618C39.6652 51.55 39.5392 51.516 39.3872 51.516C39.2192 51.516 39.0752 51.556 38.9552 51.636C38.8392 51.712 38.7492 51.822 38.6852 51.966C38.6252 52.106 38.5952 52.274 38.5952 52.47V52.512C38.5952 52.84 38.6712 53.086 38.8232 53.25C38.9792 53.41 39.2072 53.49 39.5072 53.49C39.6112 53.49 39.7272 53.478 39.8552 53.454C39.9872 53.426 40.1112 53.38 40.2272 53.316C40.3112 53.268 40.3852 53.248 40.4492 53.256C40.5132 53.26 40.5632 53.282 40.5992 53.322C40.6392 53.362 40.6632 53.412 40.6712 53.472C40.6792 53.528 40.6672 53.586 40.6352 53.646C40.6072 53.706 40.5572 53.758 40.4852 53.802C40.3452 53.89 40.1832 53.956 39.9992 54C39.8192 54.04 39.6512 54.06 39.4952 54.06ZM42.3883 54.048C42.2883 54.048 42.2023 54.024 42.1303 53.976C42.0583 53.924 42.0003 53.844 41.9563 53.736L41.0863 51.516C41.0503 51.42 41.0383 51.336 41.0503 51.264C41.0663 51.188 41.1043 51.128 41.1643 51.084C41.2243 51.04 41.3043 51.018 41.4043 51.018C41.4923 51.018 41.5643 51.04 41.6203 51.084C41.6763 51.124 41.7243 51.202 41.7643 51.318L42.4903 53.316H42.3523L43.1023 51.27C43.1343 51.182 43.1763 51.118 43.2283 51.078C43.2843 51.038 43.3563 51.018 43.4443 51.018C43.5323 51.018 43.6043 51.04 43.6603 51.084C43.7163 51.124 43.7583 51.186 43.7863 51.27L44.5243 53.316H44.3983L45.1303 51.3C45.1703 51.192 45.2203 51.118 45.2803 51.078C45.3443 51.038 45.4143 51.018 45.4903 51.018C45.5863 51.018 45.6603 51.042 45.7123 51.09C45.7643 51.138 45.7943 51.2 45.8023 51.276C45.8103 51.348 45.7963 51.428 45.7603 51.516L44.8963 53.736C44.8563 53.84 44.7983 53.918 44.7223 53.97C44.6503 54.022 44.5643 54.048 44.4643 54.048C44.3643 54.048 44.2763 54.022 44.2003 53.97C44.1283 53.918 44.0723 53.84 44.0323 53.736L43.2463 51.654H43.5883L42.8203 53.73C42.7803 53.838 42.7243 53.918 42.6523 53.97C42.5803 54.022 42.4923 54.048 42.3883 54.048ZM47.3849 54.06C47.2129 54.06 47.0309 54.042 46.8389 54.006C46.6469 53.97 46.4749 53.908 46.3229 53.82C46.2589 53.78 46.2129 53.734 46.1849 53.682C46.1609 53.626 46.1509 53.572 46.1549 53.52C46.1629 53.464 46.1829 53.416 46.2149 53.376C46.2509 53.336 46.2949 53.31 46.3469 53.298C46.4029 53.286 46.4629 53.296 46.5269 53.328C46.6869 53.404 46.8369 53.458 46.9769 53.49C47.1169 53.518 47.2549 53.532 47.3909 53.532C47.5829 53.532 47.7249 53.5 47.8169 53.436C47.9129 53.368 47.9609 53.28 47.9609 53.172C47.9609 53.08 47.9289 53.01 47.8649 52.962C47.8049 52.91 47.7129 52.872 47.5889 52.848L46.9889 52.734C46.7409 52.686 46.5509 52.596 46.4189 52.464C46.2909 52.328 46.2269 52.154 46.2269 51.942C46.2269 51.75 46.2789 51.584 46.3829 51.444C46.4909 51.304 46.6389 51.196 46.8269 51.12C47.0149 51.044 47.2309 51.006 47.4749 51.006C47.6509 51.006 47.8149 51.026 47.9669 51.066C48.1229 51.102 48.2729 51.16 48.4169 51.24C48.4769 51.272 48.5169 51.314 48.5369 51.366C48.5609 51.418 48.5669 51.472 48.5549 51.528C48.5429 51.58 48.5189 51.628 48.4829 51.672C48.4469 51.712 48.4009 51.738 48.3449 51.75C48.2929 51.758 48.2329 51.746 48.1649 51.714C48.0409 51.65 47.9209 51.604 47.8049 51.576C47.6929 51.548 47.5849 51.534 47.4809 51.534C47.2849 51.534 47.1389 51.568 47.0429 51.636C46.9509 51.704 46.9049 51.794 46.9049 51.906C46.9049 51.99 46.9329 52.06 46.9889 52.116C47.0449 52.172 47.1309 52.21 47.2469 52.23L47.8469 52.344C48.1069 52.392 48.3029 52.48 48.4349 52.608C48.5709 52.736 48.6389 52.908 48.6389 53.124C48.6389 53.416 48.5249 53.646 48.2969 53.814C48.0689 53.978 47.7649 54.06 47.3849 54.06Z" fill="white"/>
</svg>
