<svg width="122" height="128" viewBox="0 0 122 128" fill="none" xmlns="http://www.w3.org/2000/svg">
<g id="Illustration">
<g id="Group">
<path id="Vector" d="M4.8356 124.445C4.8356 124.445 -0.131754 126.402 13.4908 127.004C27.1887 127.606 99.4412 127.907 106.817 127.004C114.268 126.101 128.718 126.627 109.526 124.445C90.3344 122.262 70.6155 123.542 51.2729 122.262C31.9303 120.907 7.6956 122.112 4.8356 124.445Z" fill="#1B1C1E"/>
<path id="Vector_2" d="M95.6775 89.6732C95.6775 89.6732 101.096 89.3722 100.946 84.7059C100.72 80.0395 97.4085 80.3406 96.957 78.459C96.4301 76.2764 102.978 75.3732 106.515 80.7169C110.128 86.2111 107.87 97.049 100.344 99.7585C92.8928 102.393 95.6775 89.6732 95.6775 89.6732Z" fill="white"/>
<g id="Group_2">
<g id="Clip path group">
<mask id="mask0_398_760" style="mask-type:luminance" maskUnits="userSpaceOnUse" x="95" y="76" width="14" height="25">
<g id="SVGID_00000158020194790857959990000010621103141334014882_">
<path id="Vector_3" d="M95.6775 89.6732C95.6775 89.6732 101.096 89.3722 100.946 84.7059C100.72 80.0395 97.4085 80.3406 96.957 78.459C96.4301 76.2764 102.978 75.3732 106.515 80.7169C110.128 86.2111 107.87 97.049 100.344 99.7585C92.8928 102.393 95.6775 89.6732 95.6775 89.6732Z" fill="white"/>
</g>
</mask>
<g mask="url(#mask0_398_760)">
<g id="Group_3" opacity="0.53">
<g id="Group_4">
<g id="Group_5">
<g id="Group_6">
<g id="Group_7">
<path id="Vector_4" d="M100.645 91.1784L100.494 91.2537C100.569 91.2537 100.569 91.2537 100.645 91.1784Z" fill="#080809"/>
<path id="Vector_5" d="M103.354 92.6091C103.354 92.6091 103.43 92.6091 103.43 92.5332C103.354 92.5332 103.354 92.6091 103.354 92.6091Z" fill="#080809"/>
<path id="Vector_6" d="M104.784 95.92L105.01 95.8448C104.935 95.8448 104.859 95.92 104.784 95.92Z" fill="#080809"/>
<path id="Vector_7" d="M100.118 90.4258L100.042 90.4258C100.042 90.5017 100.042 90.5017 100.118 90.4258Z" fill="#080809"/>
<path id="Vector_8" d="M101.849 94.9416C102.376 94.7158 101.924 95.0168 102.451 94.7911C102.301 94.7911 102.226 94.7911 102.527 94.6405C102.828 94.5653 102.527 94.7158 102.978 94.5653L102.752 94.5653C102.978 94.4147 103.354 94.3395 103.279 94.3395C102.602 94.49 103.43 94.0384 103.354 94.0384L103.43 94.0384L103.656 93.8126C103.656 93.8126 103.58 93.8126 103.505 93.8879C103.806 93.7374 104.032 93.5869 103.881 93.5116C103.505 93.5869 103.656 93.2858 103.354 93.3611C103.43 93.3611 103.505 93.3611 103.43 93.4363L102.978 93.5868C102.978 93.5116 103.354 93.4363 103.053 93.4363C102.451 93.6621 103.129 93.5116 103.053 93.5868C102.903 93.5868 102.752 93.6621 102.677 93.6621C102.677 93.7374 102.527 93.9632 103.129 93.8126C102.978 93.8879 102.752 93.9632 102.677 93.9632C103.053 93.8879 102.376 94.1137 102.677 94.1137C102.15 94.2642 102.301 94.0384 102 94.1137C102.376 93.8879 101.924 93.8879 101.849 93.8126C102.226 93.6621 102.602 93.5868 102.828 93.4363C103.053 93.2105 102.602 93.4363 102.301 93.4363C102.376 93.2858 102.978 93.1353 102.903 93.06L103.204 93.06C103.731 92.759 102.978 93.06 103.053 92.9847C102.903 93.06 102.752 93.1353 102.828 93.2105C102.602 93.2858 102.527 93.2858 102.451 93.2858C102.15 93.3611 101.849 93.5116 102 93.3611C102.376 93.2858 102.226 93.2105 102.376 93.1353L102.451 93.1353C102.301 93.1353 102.376 93.06 102.301 93.06L102.376 93.06C102.226 93.06 101.774 93.2105 101.849 93.1353C102 93.06 102.527 92.9095 102.376 92.9095C102.602 92.8342 102.677 92.9095 102.602 92.9847C102.677 92.9095 103.053 92.6837 103.129 92.759C103.43 92.6084 102.978 92.759 103.129 92.6084C103.053 92.6837 102.903 92.6837 102.828 92.759C103.279 92.6084 102.828 92.6084 102.527 92.759L102.828 92.759C102.451 92.9095 102.226 92.9095 102.075 93.06C102.602 92.759 101.699 92.9847 102.15 92.759L101.849 92.9095C101.924 92.6837 101.247 92.8342 101.097 92.759C101.322 92.759 101.849 92.4579 101.699 92.6084C101.774 92.3826 102.226 92.3074 102.527 92.1569C102.677 91.9311 101.924 92.3826 101.774 92.3826L101.924 92.3826C101.172 92.6084 101.924 92.0063 101.473 92.0816C101.623 92.0063 101.623 92.0816 101.699 92.0816C102 91.8558 101.623 92.0816 101.473 92.0816C101.473 92.0063 101.623 91.8558 102.075 91.63C102.15 91.4795 101.849 91.7805 101.699 91.7805L101.774 91.7053L101.247 91.8558C101.322 91.7053 101.548 91.5547 101.924 91.329C101.774 91.2537 100.946 91.7805 100.72 91.7805C100.871 91.63 101.021 91.63 101.172 91.5547L101.097 91.4795C101.548 91.2537 101.398 91.4795 101.924 91.1784C101.322 91.4042 101.699 91.1784 101.322 91.2537L101.247 91.2537C100.871 91.4042 101.021 91.1784 100.946 91.1784C101.172 91.1032 101.247 91.1032 101.322 91.1032C101.473 90.9526 101.172 90.8774 100.72 91.1032C100.796 91.0279 100.946 90.8021 101.172 90.8021C101.172 90.6516 100.494 91.1784 100.57 90.9526L100.946 90.7269C101.398 90.2753 100.344 90.7269 100.72 90.3505L100.269 90.6516C100.419 90.5011 100.494 90.4258 100.645 90.2753L100.796 90.2753C101.097 89.9742 100.419 90.4258 100.645 90.2C100.494 90.2753 100.269 90.5011 100.118 90.6516C100.494 90.7269 100.043 91.329 100.645 91.329C100.72 91.2537 100.72 91.2537 100.796 91.1784C100.72 91.2537 100.871 91.2537 100.645 91.4042C100.796 91.4042 100.269 91.7805 100.344 91.7805C100.645 91.63 100.269 92.0063 100.796 91.7053L100.494 91.9311C100.72 91.8558 100.946 91.7053 101.021 91.7053C101.021 91.7805 100.796 91.8558 100.645 91.9311C100.57 92.2321 100.72 92.3826 100.946 92.5332L100.645 92.6084C100.57 92.6837 101.172 92.5332 100.494 92.8342C100.796 92.8342 100.419 93.1353 101.097 92.8342C100.494 93.2105 100.946 93.2105 101.097 93.2858C101.623 92.9847 101.322 93.2858 101.548 93.2105C101.097 93.4363 101.021 93.2858 100.72 93.4363C101.473 93.2858 100.419 94.0384 101.548 93.5868C101.548 93.5868 101.473 93.6621 101.398 93.6621C101.398 93.6621 101.247 93.8126 101.172 93.8879C101.398 93.8126 101.473 93.7374 101.548 93.7374C101.548 93.8126 101.172 93.8879 101.097 93.9632C101.398 93.9632 101.548 94.0384 102 93.8879C101.849 93.9632 101.623 94.1137 101.548 94.1137C102 94.1137 101.548 94.2642 101.849 94.3395C101.849 94.2642 101.322 94.49 101.548 94.3395C100.946 94.6405 101.774 94.5653 101.473 94.7911L101.924 94.7158C102 94.7911 101.623 94.9416 101.473 94.9416C101.247 95.1674 101.548 95.1674 101.548 95.2426C101.473 95.2426 101.398 95.3179 101.398 95.2426L101.398 95.3932C101.473 95.3932 101.774 95.3179 102 95.2426C101.849 95.0168 101.699 95.0921 101.849 94.9416Z" fill="#080809"/>
<path id="Vector_9" d="M103.43 92.9095C103.355 92.9847 103.279 92.9847 103.279 92.9847C103.355 92.9847 103.43 92.9847 103.43 92.9095Z" fill="#080809"/>
<path id="Vector_10" d="M103.354 96.0706C104.032 95.8448 103.204 95.9953 103.354 95.92C103.505 95.92 103.881 95.8448 104.032 95.7695C103.129 95.9953 104.182 95.619 103.956 95.5437C104.258 95.4685 104.333 95.4685 104.634 95.3932C104.408 95.3932 104.258 95.3179 103.731 95.4684C103.655 95.3179 103.806 95.1674 103.731 95.1674C103.956 95.1674 104.182 95.0169 104.634 94.9416C104.032 95.0169 103.354 95.0169 102.602 95.1674C103.129 94.9416 103.129 94.9416 103.655 94.7911C103.956 94.49 103.129 94.9416 103.279 94.7158L103.204 94.7911C103.053 94.7911 102.526 94.9416 102.225 95.0169L102.376 95.1674C102 95.3179 102.075 95.1674 101.924 95.1674C101.473 95.2427 101.623 95.3932 101.322 95.4684C101.623 95.3932 101.548 95.4684 101.699 95.4684L101.548 95.5437C101.398 95.6942 101.849 95.5437 101.849 95.619C101.774 95.619 101.774 95.6942 101.699 95.6942C101.924 95.619 102.225 95.5437 102.301 95.619C102.752 95.5437 103.129 95.5437 103.58 95.3179L103.505 95.5437C102.978 95.6942 102.225 95.92 102.15 95.8448L101.924 95.92C101.699 96.0706 102.376 95.9953 102.752 95.7695C103.956 95.4685 102.903 95.9953 103.43 95.9953C103.129 96.1458 102.978 96.0706 102.752 96.1458C102.677 96.1458 102.677 96.0706 102.978 95.9953C102.752 95.92 101.924 96.3716 102 96.1458C102.15 95.9953 102.526 96.0706 102.526 95.92L101.623 96.1458C101.699 96.2211 101.849 96.2211 102 96.2963C102.752 96.4469 102.301 96.8985 102.301 96.8985C102.602 97.4253 102.828 97.9521 103.129 98.479C103.279 98.6295 103.279 98.7048 104.182 98.479C104.333 98.4037 104.258 98.3284 104.559 98.2532C104.182 98.3284 104.032 98.3284 104.032 98.1779C104.333 98.1027 104.182 98.2532 104.258 98.1779C104.408 98.1027 104.559 98.1027 104.559 98.1779C105.01 97.9521 104.86 97.7263 104.182 97.8769C104.483 97.7263 104.709 97.8016 105.01 97.7263C105.161 97.35 105.085 97.1242 105.01 96.8232C104.408 96.9737 104.634 96.8984 104.258 96.9737L104.483 96.8985C104.408 96.9737 103.956 97.049 103.881 97.1242C104.258 96.8232 103.053 97.1242 102.752 97.1242L103.053 97.049C102.978 96.9737 102.978 96.9737 102.752 96.8985C103.279 96.5974 102.903 96.9737 103.58 96.7479L103.43 96.7479C103.731 96.6727 104.258 96.5221 104.483 96.5221C103.956 96.5221 104.634 96.2211 104.182 96.2211C104.559 96.1458 104.86 96.2211 104.86 96.2211C104.86 96.1458 104.634 96.1458 104.935 95.9953L104.483 96.1458C104.408 96.0706 104.86 96.0706 105.161 95.92C104.86 95.619 103.655 96.2211 103.354 96.0706Z" fill="#080809"/>
<path id="Vector_11" d="M103.73 93.8879C103.806 93.8879 103.806 93.8879 103.881 93.8126C103.881 93.8126 103.806 93.8126 103.73 93.8879Z" fill="#080809"/>
<path id="Vector_12" d="M104.332 93.6621C104.182 93.7374 104.107 93.7374 103.881 93.8127C104.031 93.8127 104.031 93.8879 104.332 93.6621Z" fill="#080809"/>
<path id="Vector_13" d="M99.9671 86.7379C99.8918 86.8132 99.7413 86.8884 99.666 86.9637L99.8165 86.9637L99.9671 86.7379Z" fill="#080809"/>
<path id="Vector_14" d="M99.8165 87.1895L99.7412 87.34L100.193 86.9637C100.118 86.9637 99.8917 87.2648 99.8165 87.1895Z" fill="#080809"/>
<path id="Vector_15" d="M99.7413 87.6411L99.5908 87.7163C99.6661 87.6411 99.6661 87.6411 99.7413 87.6411Z" fill="#080809"/>
<path id="Vector_16" d="M99.8918 87.4153L100.268 87.1895L99.9671 87.34L99.8918 87.4153C99.7413 87.4906 99.7413 87.5658 99.666 87.5658L99.8918 87.4153C99.9671 87.4906 99.8918 87.4906 99.8918 87.4153Z" fill="#080809"/>
<path id="Vector_17" d="M99.9668 87.4912L100.043 87.4153C100.043 87.4912 100.043 87.4912 99.9668 87.4912Z" fill="#080809"/>
<path id="Vector_18" d="M99.5156 88.2432C99.5909 88.0927 99.8167 88.0174 99.9672 87.8669C100.042 87.7164 99.5156 88.0927 99.6662 87.9421C100.042 87.7916 99.8167 87.7164 99.9672 87.5658C99.7414 87.7916 99.5156 88.0174 99.5156 88.2432L99.6662 88.0174C99.7414 88.0174 99.5909 88.0927 99.5156 88.2432Z" fill="#080809"/>
<path id="Vector_19" d="M100.343 88.1679L99.9671 88.3937C100.118 88.2432 100.042 88.1679 100.343 87.9421C100.268 87.9421 100.118 88.0927 100.042 88.0927C100.193 87.9421 100.268 87.7916 100.042 87.9421C99.9671 88.2432 99.8165 88.3185 99.8165 88.469C99.7413 88.5442 99.7413 88.469 99.7413 88.469L99.666 88.6948C100.042 88.3937 100.193 88.469 100.343 88.1679Z" fill="#080809"/>
<path id="Vector_20" d="M100.193 88.469C100.118 88.3937 99.8166 88.6195 99.5908 88.8453L99.9671 88.77C99.9671 88.6948 99.8919 88.6947 100.193 88.469Z" fill="#080809"/>
<path id="Vector_21" d="M100.269 88.5442C100.118 88.6947 99.817 88.9958 100.118 88.8453C100.043 88.8453 100.57 88.469 100.269 88.5442Z" fill="#080809"/>
<path id="Vector_22" d="M100.343 89.2969L100.494 88.9958C100.87 88.6195 100.644 88.9206 100.87 88.8453C100.87 88.6948 100.795 88.8453 100.418 88.9206C100.418 88.8453 100.193 88.9958 100.042 89.0711C100.494 88.9206 99.4401 89.7484 100.343 89.2969Z" fill="#080809"/>
<path id="Vector_23" d="M100.57 88.6948L100.344 88.7701L100.57 88.7701L100.57 88.6948Z" fill="#080809"/>
<path id="Vector_24" d="M100.042 89.899C99.5906 90.3506 100.419 89.8237 100.268 90.0495C100.268 90.0495 100.193 90.1248 100.117 90.1248L100.193 90.1248L100.042 90.2001C100.343 89.9743 100.494 89.9743 100.795 89.8237C101.096 89.5227 100.343 90.0495 100.72 89.7485C100.87 89.6732 101.096 89.5227 101.246 89.4474C101.021 89.5227 100.87 89.598 100.644 89.7485C100.569 89.7485 100.795 89.598 100.87 89.5227C100.644 89.598 100.193 89.899 100.268 89.7485C100.494 89.5227 100.72 89.4474 100.569 89.4474C100.117 89.8237 100.569 89.2969 100.268 89.5227C100.343 89.3722 100.569 89.1464 100.795 88.9958C100.419 89.2969 100.042 89.4474 99.8917 89.4474L100.268 89.2969L99.8164 89.6732C100.117 89.7485 100.117 89.7485 100.042 89.899Z" fill="#080809"/>
<path id="Vector_25" d="M100.87 88.9958L100.945 88.9205L101.096 88.8453L100.87 88.9958Z" fill="#080809"/>
<path id="Vector_26" d="M101.398 89.6732L101.172 89.899L101.398 89.7485L101.398 89.6732Z" fill="#080809"/>
<path id="Vector_27" d="M102.075 91.4795C102.225 91.329 101.849 91.4795 101.623 91.63C101.623 91.7806 101.924 91.4795 102.075 91.4795Z" fill="#080809"/>
<path id="Vector_28" d="M103.053 92.3827C103.279 92.2322 102.903 92.3074 102.903 92.2321C102.677 92.3827 102.827 92.4579 103.053 92.3827Z" fill="#080809"/>
<path id="Vector_29" d="M104.407 92.3827C104.257 92.3827 104.257 92.3827 104.182 92.4579L103.504 92.6837C103.429 92.8342 104.182 92.5332 104.407 92.3827Z" fill="#080809"/>
<path id="Vector_30" d="M104.709 92.9095L104.408 92.9095L104.408 92.9847C104.182 93.06 104.031 93.06 103.806 93.1353C104.031 93.1353 104.332 93.1353 104.709 92.9095Z" fill="#080809"/>
<path id="Vector_31" d="M103.73 93.06C103.73 93.1353 103.73 93.1353 103.73 93.06C103.881 93.06 103.956 93.06 103.73 93.06Z" fill="#080809"/>
<path id="Vector_32" d="M104.482 93.1353L104.633 93.2858L104.708 93.2105C104.332 93.2858 104.859 92.9847 104.482 93.1353Z" fill="#080809"/>
<path id="Vector_33" d="M104.408 94.0384L104.032 94.1889C103.957 94.3395 104.86 94.1137 104.258 94.4147C104.483 94.2642 104.709 94.3395 104.784 94.1889C104.483 94.3395 104.408 94.1889 104.408 94.0384Z" fill="#080809"/>
<path id="Vector_34" d="M104.032 94.6406C103.881 94.6406 103.881 94.7158 103.73 94.7911C103.73 94.8663 103.881 94.7911 104.032 94.7158C103.505 94.8663 104.333 94.5653 104.032 94.6406Z" fill="#080809"/>
<path id="Vector_35" d="M104.182 95.0921C104.182 95.0921 104.107 95.0169 104.031 95.0921C104.107 95.1674 104.483 95.0169 104.784 94.9416C105.01 94.7911 104.408 94.9416 104.182 95.0921Z" fill="#080809"/>
<path id="Vector_36" d="M101.623 96.6726C101.924 96.5221 101.849 96.5221 101.774 96.5221C101.849 96.5221 101.774 96.5974 101.623 96.6726Z" fill="#080809"/>
<path id="Vector_37" d="M104.332 95.8447L104.408 95.7695L103.881 95.92L104.332 95.8447Z" fill="#080809"/>
<path id="Vector_38" d="M104.784 96.2211L105.16 96.2211L105.01 96.1458L104.784 96.2211Z" fill="#080809"/>
<path id="Vector_39" d="M104.709 96.3716L104.784 96.4469L104.935 96.3716C105.01 96.2963 104.784 96.3716 104.709 96.3716Z" fill="#080809"/>
<path id="Vector_40" d="M103.204 98.6295C102.827 98.7048 103.128 98.7048 103.053 98.78C103.128 98.7048 103.505 98.5542 103.204 98.6295Z" fill="#080809"/>
</g>
</g>
</g>
</g>
</g>
</g>
</g>
</g>
<path id="Vector_41" d="M17.6298 64.6106C17.6298 64.6106 11.8345 97.5758 11.1572 111.725C11.1572 111.725 4.83509 118.273 7.16824 125.197L39.5313 125.197C39.5313 125.197 40.8861 116.693 41.2624 112.628C41.2624 112.628 58.1213 114.661 76.4102 112.403C76.4102 112.403 80.7755 123.015 83.7107 125.197L114.569 125.197C114.569 125.197 111.257 120.004 103.505 97.8769C102.978 96.2964 102.376 94.6406 101.774 93.0601C101.096 91.329 100.494 89.6732 99.7417 87.9422C96.1291 79.2117 91.8391 70.5564 86.7965 63.1807C66.8518 34.0539 19.2856 50.5365 17.6298 64.6106Z" fill="white"/>
<g id="Group_8">
<g id="Clip path group_2">
<mask id="mask1_398_760" style="mask-type:luminance" maskUnits="userSpaceOnUse" x="31" y="111" width="11" height="15">
<g id="SVGID_00000181784673975758807680000014282839619949484439_">
<path id="Vector_42" d="M41.3384 112.553C40.8868 116.693 39.6073 125.122 39.6073 125.122L31.0273 125.122C31.0273 125.122 32.7584 121.585 34.1884 114.736C34.4142 113.757 34.64 112.704 34.8658 111.575C35.8442 112.252 41.3384 112.553 41.3384 112.553Z" fill="white"/>
</g>
</mask>
<g mask="url(#mask1_398_760)">
<g id="Group_9" opacity="0.73">
<g id="Group_10">
<g id="Group_11">
<g id="Group_12">
<g id="Group_13">
<path id="Vector_43" d="M35.6182 112.403C35.6182 112.478 35.6182 112.553 35.6182 112.628C35.6934 112.628 35.6934 112.553 35.6182 112.403Z" fill="#080809"/>
<path id="Vector_44" d="M39.9082 112.403L39.9835 112.102C39.9082 112.252 39.9082 112.327 39.9082 112.403Z" fill="#080809"/>
<path id="Vector_45" d="M36.1445 114.209C36.1445 114.284 36.1445 114.359 36.2198 114.51L36.1445 114.209Z" fill="#080809"/>
<path id="Vector_46" d="M36.8975 115.112C36.8975 115.187 36.9727 115.187 36.9727 115.263C36.9727 115.187 36.9727 115.112 36.8975 115.112Z" fill="#080809"/>
<path id="Vector_47" d="M32.0056 114.435L31.9297 114.359C32.0056 114.359 32.0056 114.435 32.0056 114.435Z" fill="#080809"/>
<path id="Vector_48" d="M32.2317 114.962C32.1558 114.962 32.1558 114.962 32.2317 114.962L32.2317 115.037C32.3076 115.113 32.2317 114.962 32.2317 114.962Z" fill="#080809"/>
<path id="Vector_49" d="M32.5322 115.037C32.6081 115.113 32.6081 115.113 32.5322 115.037V115.037Z" fill="#080809"/>
<path id="Vector_50" d="M34.4893 118.198L34.715 118.348C34.6398 118.273 34.5645 118.198 34.4893 118.198Z" fill="#080809"/>
<path id="Vector_51" d="M31.7793 114.134C31.7793 114.209 31.8546 114.284 31.9298 114.36C31.9298 114.284 31.9298 114.209 31.7793 114.134Z" fill="#080809"/>
<path id="Vector_52" d="M41.2627 112.478L41.338 112.403C41.2627 112.252 41.2627 112.327 41.2627 112.478Z" fill="#080809"/>
<path id="Vector_53" d="M33.2097 113.983C33.8118 114.51 33.1344 114.134 33.7365 114.661C33.6612 114.51 33.586 114.359 33.9623 114.661C34.2633 115.037 33.8118 114.736 34.3386 115.263L34.1881 115.037C34.4891 115.263 34.7902 115.714 34.7902 115.639C34.1881 114.886 35.2418 115.714 35.1665 115.564L35.2418 115.639L35.6181 115.865C35.6181 115.865 35.6181 115.865 35.6181 115.94C35.6181 115.865 35.5428 115.865 35.5428 115.789C35.9191 116.091 36.1449 116.316 36.1449 116.166C35.8439 115.714 36.2955 115.865 35.9944 115.413C36.0697 115.564 35.9944 115.564 35.9191 115.488L35.5428 114.962C35.6181 114.886 35.9191 115.413 35.7686 115.037C35.2418 114.359 35.6181 115.112 35.5428 115.112C35.4676 114.962 35.3923 114.736 35.317 114.661C35.1665 114.736 34.8654 114.585 35.317 115.338C35.1665 115.187 34.9407 114.962 34.8655 114.811C35.0912 115.263 34.4891 114.51 34.7149 114.886C34.1881 114.209 34.6397 114.435 34.4139 113.983C34.9407 114.359 34.7149 113.757 34.7902 113.532C35.1665 114.058 35.317 114.51 35.6181 114.736C35.9944 114.962 35.5428 114.359 35.4676 114.058C35.6933 114.209 36.0697 114.886 36.2202 114.811L36.3707 115.187C36.8976 115.865 36.2202 114.886 36.446 114.962C36.2954 114.811 36.2202 114.585 36.1449 114.661C35.9944 114.435 35.9191 114.284 35.9944 114.209C35.7686 113.833 35.6181 113.456 35.7686 113.532C35.9944 113.983 36.0697 113.833 36.1449 113.983L36.1449 114.058C36.1449 113.833 36.2202 113.908 36.2202 113.757L36.2954 113.908C36.2202 113.682 35.9944 113.08 36.1449 113.231C36.2202 113.456 36.446 114.134 36.446 113.983C36.5965 114.359 36.5212 114.435 36.3707 114.284C36.5212 114.359 36.8223 114.962 36.747 114.962C36.9728 115.413 36.747 114.736 36.8223 114.962C36.747 114.811 36.6718 114.661 36.5965 114.51C36.8975 115.112 36.747 114.51 36.5965 114.058C36.5965 114.209 36.5965 114.284 36.6718 114.435C36.446 113.983 36.446 113.607 36.2954 113.306C36.5965 114.058 36.446 112.854 36.747 113.456L36.5965 113.08C36.8975 113.231 36.8976 112.327 37.1233 112.026C37.0481 112.327 37.1986 113.155 36.9728 112.929C37.1986 113.08 37.1986 113.833 37.3491 114.209C37.4997 114.51 37.2739 113.381 37.2739 113.08L37.1986 113.231C37.1986 112.177 37.6502 113.381 37.876 112.704C37.876 113.005 37.8007 112.854 37.8007 112.929C37.9512 113.456 37.876 112.779 37.9512 112.628C38.1018 112.704 38.177 112.929 38.177 113.607C38.3275 113.757 38.177 113.231 38.177 113.005L38.177 113.155L38.3275 112.403C38.4028 112.628 38.5533 113.005 38.6286 113.607C38.8544 113.456 38.7791 112.102 38.9297 111.876C39.0049 112.252 38.9296 112.403 38.8544 112.628L39.0049 112.553C38.9297 113.306 38.7791 112.929 38.7791 113.757C38.9297 112.929 38.9297 113.532 39.1554 112.929L39.1554 112.854C39.2307 112.252 39.4565 112.704 39.5318 112.553C39.4565 112.929 39.3812 112.929 39.306 113.08C39.3812 113.381 39.6823 113.08 39.8328 112.327C39.9081 112.478 39.9833 112.779 39.9081 113.08C40.1339 113.231 40.0586 112.026 40.2844 112.252L40.2091 112.854C40.3596 113.682 40.736 112.177 40.8112 112.929L40.8865 112.252C40.8865 112.553 40.9618 112.704 40.9618 113.005L40.8112 113.231C40.8112 113.833 40.9618 112.704 41.037 113.08C41.037 112.854 41.037 112.403 41.037 112.177C40.5854 112.553 40.2091 111.499 39.6823 112.177C39.6823 112.252 39.6823 112.327 39.6823 112.478C39.6823 112.327 39.5318 112.478 39.607 112.102L39.607 112.026C39.4565 112.177 39.4565 111.274 39.3812 111.274C39.306 111.725 39.1554 111.048 39.1554 111.876L39.0802 111.349C39.0049 111.65 39.0049 112.026 39.0049 112.177C38.9297 112.102 38.9297 111.801 39.0049 111.575C38.7039 111.274 38.2523 111.349 37.876 111.575L37.9512 111.198C37.876 111.048 37.6502 111.876 37.6502 110.897C37.4997 111.274 37.0481 110.672 37.1986 111.725C36.9728 110.747 36.6718 111.349 36.3707 111.575C36.5965 112.403 36.2202 111.876 36.2202 112.252C35.9944 111.65 36.2955 111.499 36.1449 111.048C36.1449 111.575 35.8439 111.499 35.6181 111.424C35.3923 111.424 35.1665 111.499 35.4676 112.252C35.3923 112.177 35.3923 112.177 35.3923 112.102C35.317 112.102 35.0912 111.876 35.016 111.876C35.0912 112.177 35.317 112.252 35.2418 112.403C35.0912 112.403 34.9407 111.951 34.7902 111.801C34.7902 112.252 34.6397 112.553 35.016 113.155C34.8655 113.005 34.6397 112.704 34.5644 112.553C34.6397 113.155 34.2634 112.628 34.2634 113.08C34.3386 113.005 33.887 112.478 34.1881 112.628C33.5107 111.876 33.9623 113.08 33.4355 112.779L33.7365 113.306C33.7365 113.456 33.2849 113.005 33.2097 112.779C32.7581 112.628 32.9086 113.08 32.7581 113.155C32.6828 113.08 32.6076 113.005 32.6828 113.005L32.457 113.155C32.5323 113.306 32.6828 113.607 33.0591 113.833C33.0591 114.134 32.9839 113.908 33.2097 113.983Z" fill="#080809"/>
<path id="Vector_54" d="M33.2852 114.359C33.3611 114.435 33.3611 114.435 33.2852 114.359V114.359Z" fill="#080809"/>
<path id="Vector_55" d="M36.5968 115.263C36.5215 115.112 36.4463 115.112 36.4463 115.037C36.5216 115.112 36.5215 115.187 36.5968 115.263Z" fill="#080809"/>
<path id="Vector_56" d="M32.9083 116.918C33.7362 117.37 32.833 116.693 33.1341 116.768C33.2093 116.918 33.7362 117.219 33.962 117.295C32.9835 116.542 34.263 117.295 34.1125 116.994C34.4888 117.219 34.4888 117.295 34.8651 117.596C34.6393 117.37 34.5641 117.144 34.0372 116.693C34.1125 116.542 34.4135 116.542 34.4135 116.392C34.5641 116.693 34.9404 116.843 35.392 117.219C34.7899 116.693 34.1877 115.789 33.5856 115.037C34.1877 115.488 34.263 115.564 34.7899 116.015C35.3167 116.166 34.3383 115.488 34.6393 115.488L34.4888 115.488C34.4135 115.263 33.8867 114.736 33.5104 114.359L33.3599 114.661C32.9835 114.284 33.1341 114.209 33.1341 114.058C32.7578 113.532 32.6825 113.908 32.3062 113.532C32.6072 113.833 32.3814 113.833 32.4567 114.058L32.2309 113.908C31.9299 113.833 32.3814 114.359 32.3062 114.435C32.2309 114.359 32.1557 114.359 32.1557 114.359C32.3814 114.585 32.6825 114.886 32.6825 115.037L32.6825 114.962C33.1341 115.488 33.3599 115.94 34.0372 116.241L33.7362 116.316C33.1341 115.865 32.2309 115.187 32.3062 114.962L32.0804 114.736C31.6288 114.585 32.3062 115.413 32.9083 115.639C34.3383 116.768 32.7577 116.015 33.2093 116.617C32.7577 116.392 32.6825 116.166 32.4567 115.94C32.4567 115.865 32.4567 115.789 32.833 116.015C32.7577 115.639 31.4783 115.263 31.8546 115.037C32.1557 115.037 32.3814 115.639 32.6072 115.488C32.2309 115.187 31.9299 114.886 31.6288 114.585C31.5535 114.736 31.6288 114.962 31.7041 115.187C31.8546 115.714 31.7793 116.015 31.6288 116.166C31.4783 116.316 31.2525 116.316 31.2525 116.316C30.9514 117.295 30.7257 118.273 30.6504 119.252C30.8009 119.628 30.6504 119.703 32.0051 120.079C32.3062 120.079 32.2309 119.854 32.6072 120.004C32.1557 119.854 31.8546 119.703 31.9299 119.628C32.3814 119.703 32.1557 119.778 32.2309 119.778L32.3062 119.778C32.532 119.854 32.6825 119.929 32.6825 119.929C33.4351 119.929 33.3599 119.703 32.4567 119.327C32.9835 119.327 33.1341 119.628 33.5104 119.778C33.962 119.477 33.962 119.252 34.1125 118.875C33.2846 118.574 33.5856 118.649 33.1341 118.348L33.4351 118.424C33.2846 118.348 32.7578 118.123 32.532 118.123C33.2093 118.123 31.6288 117.37 31.3278 117.069L31.7041 117.295C31.7041 117.144 31.7041 117.069 31.5535 116.843C32.3814 116.994 31.5536 117.144 32.6072 117.521L32.4567 117.37C32.833 117.596 33.4351 117.897 33.7362 118.123C33.2093 117.671 34.1125 117.972 33.7362 117.521C34.1878 117.746 34.4135 118.123 34.4135 118.198C34.4888 118.123 34.1878 117.897 34.6393 118.123L34.1125 117.822C34.1125 117.671 34.6393 118.123 35.0156 118.273C34.8651 118.047 33.0588 117.37 32.9083 116.918Z" fill="#080809"/>
<path id="Vector_57" d="M35.3923 114.51C35.3164 114.51 35.3164 114.51 35.3164 114.586C35.3923 114.586 35.3923 114.586 35.3923 114.51Z" fill="#080809"/>
<path id="Vector_58" d="M36.2201 116.467C35.9943 116.241 36.0695 116.241 35.8438 115.94C35.919 116.166 35.8438 116.241 36.2201 116.467Z" fill="#080809"/>
<path id="Vector_59" d="M41.9401 112.854C41.8649 111.951 41.6391 113.306 41.5638 112.929C41.5638 112.854 41.5638 112.779 41.6391 112.704L41.4885 112.779L41.4885 112.553C41.4133 113.08 41.2628 113.306 41.1875 113.682C41.2628 114.284 41.338 113.005 41.338 113.682C41.2628 113.908 41.2628 114.284 41.1875 114.51C41.2628 114.284 41.338 113.908 41.4133 113.607C41.4886 113.532 41.4133 113.833 41.4133 114.058C41.5638 113.757 41.6391 113.005 41.7143 113.155C41.7896 113.607 41.5638 113.908 41.7896 113.682C41.7896 112.854 41.9401 113.833 42.0154 113.306C42.0907 113.456 42.1659 113.983 42.0907 114.284C42.1659 113.607 42.3164 113.08 42.3917 112.929L42.1659 113.456L42.1659 112.704C42.0907 113.08 42.0154 113.005 41.9401 112.854Z" fill="#080809"/>
<path id="Vector_60" d="M41.2628 114.51C41.2628 114.585 41.2628 114.585 41.1875 114.661C41.1875 114.661 41.1875 114.585 41.2628 114.51Z" fill="#080809"/>
<path id="Vector_61" d="M41.1124 115.037C41.1124 115.037 41.1876 114.811 41.1124 114.811L41.0371 115.187L41.1124 115.037Z" fill="#080809"/>
<path id="Vector_62" d="M41.0372 114.51L40.9619 114.058L40.9619 114.435L41.0372 114.51Z" fill="#080809"/>
<path id="Vector_63" d="M38.4023 113.908C38.4776 114.209 38.4776 113.682 38.4776 113.306C38.4023 113.155 38.5529 113.757 38.4023 113.908Z" fill="#080809"/>
<path id="Vector_64" d="M37.1233 114.811C37.2738 115.112 37.1985 114.585 37.2738 114.585C37.1233 114.359 37.048 114.51 37.1233 114.811Z" fill="#080809"/>
<path id="Vector_65" d="M37.4999 116.542C37.4246 116.392 37.4246 116.316 37.3494 116.241L36.973 115.413C36.7473 115.187 37.2741 116.166 37.4999 116.542Z" fill="#080809"/>
<path id="Vector_66" d="M37.1988 116.918L37.0483 116.542C37.0483 116.542 37.0483 116.542 36.9731 116.542C36.7473 116.241 36.672 116.091 36.5215 115.79C36.5967 116.015 36.7473 116.392 37.1988 116.918Z" fill="#080809"/>
<path id="Vector_67" d="M36.5215 115.639C36.5967 115.789 36.672 115.865 36.5215 115.639V115.639Z" fill="#080809"/>
<path id="Vector_68" d="M36.5213 115.714C36.446 115.564 36.446 115.639 36.5213 115.714V115.714Z" fill="#080809"/>
<path id="Vector_69" d="M36.8223 116.542L36.7471 116.693L36.8976 116.768C36.5965 116.392 37.1986 117.069 36.8223 116.542Z" fill="#080809"/>
<path id="Vector_70" d="M35.9194 116.768L35.4678 116.392C35.3173 116.392 36.1452 117.295 35.3926 116.768C35.6936 116.994 35.8442 117.22 35.9947 117.295C35.6936 116.843 35.7689 116.693 35.9194 116.768Z" fill="#080809"/>
<path id="Vector_71" d="M35.0156 116.542C34.8651 116.392 34.7898 116.392 34.6393 116.316C34.564 116.241 34.7146 116.467 35.0156 116.542C35.3167 116.843 34.4135 116.091 35.0156 116.542Z" fill="#080809"/>
<path id="Vector_72" d="M34.7146 116.994C34.7146 116.994 34.7146 116.918 34.5641 116.843C34.4888 116.918 35.0909 117.295 35.3167 117.521C35.6178 117.671 34.9404 117.144 34.7146 116.994Z" fill="#080809"/>
<path id="Vector_73" d="M34.1128 117.671L34.188 117.671L33.5859 117.295L34.1128 117.671Z" fill="#080809"/>
<path id="Vector_74" d="M34.1875 118.424L34.5638 118.725L34.5638 118.574L34.1875 118.424Z" fill="#080809"/>
<path id="Vector_75" d="M33.9619 118.499L33.9619 118.649L34.1877 118.725C34.3382 118.65 33.9619 118.574 33.9619 118.499Z" fill="#080809"/>
<path id="Vector_76" d="M33.962 118.875C33.962 118.875 34.0372 118.875 34.1125 118.875L33.8867 118.65L33.962 118.875Z" fill="#080809"/>
</g>
</g>
</g>
</g>
</g>
</g>
</g>
</g>
<path id="Vector_77" d="M31.8555 83.5769C31.8555 83.5769 39.8333 90.6517 53.8323 90.3506C67.9064 90.0495 75.8091 82.5233 75.8091 82.5233" stroke="#1B1C1E" stroke-width="1.2604" stroke-miterlimit="10" stroke-linecap="round" stroke-linejoin="round"/>
<path id="Vector_78" d="M30.9521 125.197C30.9521 125.197 32.6832 121.66 34.1132 114.811C35.5432 108.037 38.1774 97.7263 38.1774 97.7263C38.1774 97.7263 53.8321 102.393 71.5189 98.1027" stroke="#1B1C1E" stroke-width="1.2604" stroke-miterlimit="10" stroke-linecap="round" stroke-linejoin="round"/>
<path id="Vector_79" d="M76.4858 112.403C76.4858 112.403 73.099 103.522 71.5938 98.178" stroke="#1B1C1E" stroke-width="1.2604" stroke-miterlimit="10" stroke-linecap="round" stroke-linejoin="round"/>
<path id="Vector_80" d="M41.3378 112.553C41.3378 112.553 35.8437 112.177 34.8652 111.65" stroke="#1B1C1E" stroke-width="1.1311" stroke-miterlimit="10" stroke-linecap="round" stroke-linejoin="round"/>
<path id="Vector_81" d="M13.5655 125.197C13.5655 125.197 12.2108 119.628 16.3503 117.596" stroke="#1B1C1E" stroke-width="1.2604" stroke-miterlimit="10" stroke-linecap="round" stroke-linejoin="round"/>
<path id="Vector_82" d="M21.9207 124.896C21.9207 124.896 21.1681 120.004 24.2539 118.273" stroke="#1B1C1E" stroke-width="1.2604" stroke-miterlimit="10" stroke-linecap="round" stroke-linejoin="round"/>
<path id="Vector_83" d="M109.452 125.197C109.452 125.197 109.452 116.166 102.904 112.779C102.904 112.779 97.56 100.285 93.8721 90.4259" stroke="#1B1C1E" stroke-width="1.2604" stroke-miterlimit="10" stroke-linecap="round" stroke-linejoin="round"/>
<path id="Vector_84" d="M101.925 125.197C101.925 125.197 101.775 120.23 98.3125 117.897" stroke="#1B1C1E" stroke-width="1.2604" stroke-miterlimit="10" stroke-linecap="round" stroke-linejoin="round"/>
<path id="Vector_85" d="M92.3666 125.197C92.3666 125.197 91.9903 120.983 89.7324 117.897" stroke="#1B1C1E" stroke-width="1.2604" stroke-miterlimit="10" stroke-linecap="round" stroke-linejoin="round"/>
<path id="Vector_86" d="M21.0924 8.01289C21.0924 8.01289 16.5767 7.10974 12.8888 13.6576C9.20089 20.2055 2.50249 32.6239 3.02933 35.7097C3.55617 38.7202 6.64195 48.6549 15.3725 55.0523C24.103 61.4496 23.1998 9.74394 21.0924 8.01289Z" fill="#222222"/>
<path id="Vector_87" d="M76.4102 6.28182C76.4102 6.28182 81.8291 4.09919 87.3233 12.6792C93.7959 22.7644 97.1075 28.6349 98.0859 32.4733C99.2149 36.7633 93.3443 47.3754 87.248 53.848C81.1517 60.3206 76.4102 6.28182 76.4102 6.28182Z" fill="#222222"/>
<path id="Vector_88" d="M21.0921 8.0129C21.0921 8.0129 16.3505 11.7008 16.8021 24.4955C17.1032 33.8281 16.1247 40.5265 15.5226 46.1712C15.1463 49.1818 14.3937 57.5359 18.0816 65.3633C19.8126 68.9759 22.4468 72.5133 26.511 75.2228C30.1236 77.7064 34.9405 79.588 41.112 80.4912C50.5199 81.8459 58.1215 81.7706 64.3683 80.5664C70.9914 79.3622 75.8835 76.9538 79.5714 73.868C83.1841 70.7822 85.5172 67.0191 86.8719 63.1054C88.0009 59.8691 88.4525 56.5575 88.4525 53.3965C88.4525 44.8918 86.8719 39.0213 85.5925 34.0539C82.2056 20.8076 83.1088 12.4534 76.4856 6.28185C76.4104 6.28185 57.971 -2.1476 21.0921 8.0129Z" fill="white"/>
<path id="Vector_89" d="M48.1869 61.3744C43.6711 64.2344 44.7248 64.6107 40.3595 68.2986C39.8327 68.7501 39.3811 69.0512 38.8542 69.3522C34.9406 71.3843 31.0269 69.1265 28.2422 66.2665C25.1564 63.1054 23.5006 55.7296 30.2743 49.1065C37.0479 42.4834 48.1869 43.8381 48.1869 43.8381C47.0579 44.5155 46.5311 45.7197 47.1332 47.7518C48.1869 51.5149 51.7995 52.3428 51.7995 52.3428C51.4984 54.977 52.1758 57.3854 52.1758 57.3854C52.1758 57.3854 52.5521 58.6649 48.1869 61.3744Z" fill="#222222" stroke="white" stroke-width="1.2604" stroke-miterlimit="10" stroke-linecap="round" stroke-linejoin="round"/>
<path id="Vector_90" d="M76.7118 67.3202C73.2497 70.9328 69.4113 70.2554 66.7771 68.3738C65.9492 67.7717 65.1966 67.0191 64.6698 66.2665C62.3366 63.0302 60.3798 61.826 57.1435 60.697C53.5308 59.4928 52.1761 57.3854 52.1761 57.3854C52.1761 57.3854 51.4987 54.9018 51.7998 52.3428C51.7998 52.3428 56.0145 51.5902 56.7671 47.6765C57.1435 45.6444 56.6166 44.5155 55.6382 43.8381C61.6592 43.0102 69.3361 44.0639 74.6797 49.0312C80.1739 54.2244 81.3029 62.6539 76.7118 67.3202Z" fill="#222222" stroke="white" stroke-width="1.2604" stroke-miterlimit="10" stroke-linecap="round" stroke-linejoin="round"/>
<path id="Vector_91" d="M41.8652 67.0191C41.8652 67.0191 41.8652 60.9981 42.5426 60.1702C43.22 59.4175 45.1768 63.557 45.1768 63.557" fill="#D6D4C8"/>
<path id="Vector_92" d="M60.5303 62.2775C60.5303 62.2775 62.1108 59.1917 62.8634 59.0412C63.616 58.8907 63.8419 61.6002 63.9171 65.3633" fill="#D6D4C8"/>
<path id="Vector_93" d="M47.5854 3.57239C47.5854 3.57239 49.3918 3.72292 49.6928 6.05607C49.9939 8.38922 50.2949 15.1629 50.2196 15.6897C50.1444 16.2918 48.4133 17.7971 44.4997 17.7218C40.0591 17.6466 37.2744 19.9045 37.2744 19.9045" stroke="#1B1C1E" stroke-width="1.2604" stroke-miterlimit="10" stroke-linecap="round" stroke-linejoin="round"/>
<path id="Vector_94" d="M50.1436 15.6897C50.1436 15.6897 51.423 17.195 55.412 16.8939C59.4009 16.5929 62.1856 17.0444 64.4435 18.926" stroke="#1B1C1E" stroke-width="1.2604" stroke-miterlimit="10" stroke-linecap="round" stroke-linejoin="round"/>
<path id="Vector_95" d="M37.7252 25.3234C37.7252 25.3234 31.7795 22.0118 27.2637 27.5813" stroke="#1B1C1E" stroke-width="1.2604" stroke-miterlimit="10" stroke-linecap="round" stroke-linejoin="round"/>
<path id="Vector_96" d="M65.1211 25.4739C65.1211 25.4739 71.4432 21.7108 74.9053 27.5813" stroke="#1B1C1E" stroke-width="1.2604" stroke-miterlimit="10" stroke-linecap="round" stroke-linejoin="round"/>
<path id="Vector_97" d="M59.7026 74.3196C53.23 76.1259 46.5316 75.298 42.4674 73.2659C38.4784 71.2338 38.7795 69.578 38.8547 69.3522C39.3816 69.1265 39.8332 68.7501 40.36 68.2986C44.7253 64.6107 43.6716 64.1591 48.1874 61.3744C52.5526 58.6649 52.1763 57.4607 52.1763 57.4607C52.1763 57.4607 53.531 59.5681 57.1437 60.7723C60.3047 61.826 62.2615 63.1054 64.67 66.3417C65.1968 67.0944 65.9494 67.847 66.7773 68.4491C67.3042 68.8254 65.8742 72.5886 59.7026 74.3196Z" fill="#222222" stroke="white" stroke-width="1.2604" stroke-miterlimit="10" stroke-linecap="round" stroke-linejoin="round"/>
<g id="Group_14">
<path id="Vector_98" d="M56.7674 47.7518C56.0148 51.6655 51.8001 52.4181 51.8001 52.4181C51.8001 52.4181 48.1874 51.5902 47.1337 47.827C46.5316 45.7197 47.0585 44.5155 48.1874 43.9134C49.0906 43.3865 50.4453 43.1607 51.8001 43.1607C53.3053 43.1607 54.66 43.3113 55.6385 43.9886C56.6169 44.5907 57.1437 45.7197 56.7674 47.7518Z" fill="#1B1C1E" stroke="white" stroke-width="1.2604" stroke-miterlimit="10" stroke-linecap="round" stroke-linejoin="round"/>
<g id="Vector_99">
<path d="M49.8427 51.5149C49.8427 51.5149 49.8427 48.3539 48.7891 48.2034L49.8427 51.5149Z" fill="#1B1C1E"/>
<path d="M49.8427 51.5149C49.8427 51.5149 49.8427 48.3539 48.7891 48.2034" stroke="white" stroke-width="1.2604" stroke-miterlimit="10" stroke-linecap="round" stroke-linejoin="round"/>
</g>
<g id="Vector_100">
<path d="M53.6064 51.7407C53.6064 51.7407 53.6064 47.9023 54.8107 48.2033L53.6064 51.7407Z" fill="#1B1C1E"/>
<path d="M53.6064 51.7407C53.6064 51.7407 53.6064 47.9023 54.8107 48.2033" stroke="white" stroke-width="1.2604" stroke-miterlimit="10" stroke-linecap="round" stroke-linejoin="round"/>
</g>
</g>
<path id="Vector_101" d="M18.0068 65.4386C19.7379 69.0512 22.3721 72.5885 26.4363 75.298C30.0489 77.7817 34.8658 79.6633 41.0373 80.5664" stroke="#1B1C1E" stroke-width="1.2604" stroke-miterlimit="10" stroke-linecap="round" stroke-linejoin="round"/>
<g id="Group_15">
<g id="Clip path group_3">
<mask id="mask2_398_760" style="mask-type:luminance" maskUnits="userSpaceOnUse" x="66" y="63" width="28" height="18">
<g id="SVGID_00000066504538685821762860000002486248479953688509_">
<path id="Vector_102" d="M93.9472 75.0722C86.7972 79.889 66.8525 80.0396 66.8525 80.0396C69.4115 78.9106 77.6904 75.3732 79.4967 73.868C83.1093 70.7822 85.4425 67.0191 86.7972 63.1054C89.4314 66.8685 91.7646 70.8575 93.9472 75.0722Z" fill="white"/>
</g>
</mask>
<g mask="url(#mask2_398_760)">
<g id="Group_16" opacity="0.52">
<g id="Group_17">
<g id="Group_18">
<g id="Group_19">
<g id="Group_20">
<path id="Vector_103" d="M79.1963 74.169C79.1963 74.2443 79.1963 74.3195 79.2716 74.3195C79.2716 74.3195 79.1963 74.2443 79.1963 74.169Z" fill="#080809"/>
<path id="Vector_104" d="M83.0343 71.008L82.8838 70.8575C82.9591 70.9327 82.9591 70.9327 83.0343 71.008Z" fill="#080809"/>
<path id="Vector_105" d="M80.4756 75.9753L80.5515 76.0512C80.5515 75.9753 80.5515 75.9753 80.4756 75.9753Z" fill="#080809"/>
<path id="Vector_106" d="M75.0569 76.6527C74.981 76.6527 74.981 76.7286 75.0569 76.6527V76.6527Z" fill="#080809"/>
<path id="Vector_107" d="M73.7021 79.8138L73.7774 80.0395C73.7021 79.889 73.7021 79.889 73.7021 79.8138Z" fill="#080809"/>
<path id="Vector_108" d="M74.9062 75.7496C74.9063 75.8248 74.9063 75.9001 74.9063 75.9001C74.9815 75.9001 74.9815 75.8248 74.9062 75.7496Z" fill="#080809"/>
<path id="Vector_109" d="M79.1211 74.0938C79.1211 74.0938 79.1211 74.1697 79.197 74.1697L79.1211 74.0938Z" fill="#080809"/>
<path id="Vector_110" d="M84.0127 69.3522C84.0127 69.2769 84.0127 69.2769 84.0127 69.2017C83.8622 69.2769 83.9374 69.3522 84.0127 69.3522Z" fill="#080809"/>
<path id="Vector_111" d="M76.3362 75.8248C76.6373 76.3517 76.1857 75.9001 76.4867 76.4269C76.4867 76.2764 76.562 76.1259 76.7125 76.4269C76.7878 76.728 76.4868 76.5022 76.7125 76.9538L76.7878 76.728C77.0136 76.8785 77.0889 77.3301 77.0889 77.2548C76.8631 76.5774 77.6157 77.2548 77.691 77.1043L77.691 77.1795L78.0673 77.3301C78.0673 77.3301 78.0673 77.2548 77.992 77.1795C78.2178 77.4053 78.5189 77.5559 78.5941 77.4053C78.4436 77.029 79.0457 76.9538 78.8952 76.6527C78.8952 76.8032 78.8199 76.8032 78.6694 76.8032L78.4436 76.4269C78.5941 76.3516 78.6694 76.8032 78.6694 76.5022C78.293 75.9753 78.4436 76.6527 78.293 76.6527C78.2178 76.5022 78.2178 76.3516 78.293 76.2764C78.0673 76.3516 77.7662 76.2764 77.992 76.9538C77.8415 76.8785 77.7662 76.6527 77.7662 76.5022C77.7662 76.8785 77.4652 76.2764 77.5404 76.5774C77.3146 76.0506 77.6909 76.1259 77.6157 75.7495C78.0673 76.0506 78.0673 75.5238 78.2178 75.298C78.4436 75.6743 78.5188 76.0506 78.7446 76.2764C79.1209 76.4269 78.8199 75.9753 78.8199 75.6743C79.0457 75.7495 79.2715 76.2764 79.4973 76.1259L79.4973 76.4269C79.9488 76.8785 79.4973 76.1259 79.6478 76.2011C79.4973 76.1259 79.422 75.9753 79.3467 76.0506C79.1962 75.9001 79.2715 75.7495 79.2715 75.6743C79.121 75.3732 78.9704 75.0722 79.1962 75.1474C79.3467 75.5238 79.4973 75.298 79.5725 75.4485L79.5725 75.5238C79.5725 75.3732 79.723 75.298 79.7983 75.2227L79.8736 75.298C79.8736 75.1474 79.6478 74.6959 79.7983 74.6959C79.8736 74.8464 80.0241 75.3732 80.0994 75.2227C80.2499 75.4485 80.0994 75.599 79.9488 75.599C80.0994 75.599 80.4757 75.9001 80.3252 76.0506C80.5509 76.2764 80.4004 75.8248 80.5509 75.9001C80.4757 75.8248 80.4004 75.6743 80.3252 75.599C80.6262 75.9753 80.6262 75.4485 80.4004 75.1474L80.4004 75.4485C80.1746 75.1474 80.1746 74.8464 80.0241 74.6959C80.4757 75.1474 80.1746 74.169 80.5509 74.5453L80.3252 74.3196C80.7015 74.2443 80.4757 73.5669 80.6262 73.1906C80.6262 73.4164 81.0778 73.9432 80.7767 73.868C81.0778 73.7927 81.3036 74.3196 81.5294 74.4701C81.9057 74.4701 81.2283 73.9432 81.1531 73.7174L81.0778 73.9432C80.7767 73.2659 81.6799 73.6422 81.6046 73.0401C81.7552 73.1906 81.6046 73.1906 81.6799 73.2659C82.0562 73.4164 81.7551 73.1153 81.6799 72.9648C81.8304 72.8896 82.1315 72.8896 82.3573 73.3411C82.5831 73.2659 82.1315 73.1153 82.1315 72.9648L82.2067 73.0401L81.981 72.5132C82.2067 72.5132 82.5078 72.5885 82.8841 72.8143C83.0346 72.5132 82.1315 71.9864 82.2067 71.6853C82.5078 71.7606 82.4325 71.9864 82.583 72.0617L82.7336 71.8359C83.1099 72.2122 82.7336 72.2122 83.2604 72.5885C82.8841 71.9864 83.3357 72.2875 83.1851 71.8359L83.1099 71.8359C82.8841 71.4596 83.2604 71.4596 83.2604 71.309C83.4109 71.5348 83.3357 71.6853 83.3357 71.8359C83.6367 71.8359 83.712 71.3843 83.3357 70.9327C83.4862 70.9327 83.7873 70.8575 83.8625 71.0832C84.1636 70.8575 83.2604 70.5564 83.5615 70.4059L83.9378 70.6317C84.6151 70.6317 83.7872 69.8038 84.3894 69.8038L83.9378 69.578C84.1636 69.6532 84.3141 69.578 84.4646 69.6532L84.5399 69.879C84.9915 69.9543 84.2388 69.578 84.6152 69.578C84.4646 69.5027 84.0883 69.5027 83.9378 69.4275C83.9378 70.1048 82.9594 70.2554 83.0346 71.0832C83.1099 71.0832 83.1851 71.0832 83.2604 71.1585C83.1099 71.1585 83.1852 71.309 82.9594 71.1585L82.9594 71.0832C82.9594 71.309 82.3573 71.008 82.282 71.0832C82.5078 71.3843 81.9809 71.2338 82.4325 71.5348L82.0562 71.3843C82.2067 71.5348 82.4325 71.7606 82.5078 71.8359C82.3573 71.9111 82.2067 71.7606 82.1315 71.5348C81.6799 71.6853 81.3788 72.1369 81.2283 72.5132L81.1531 72.2122C81.0025 72.2122 81.2283 72.8143 80.7767 72.2874C80.852 72.6638 80.2499 72.5132 80.7015 73.1153C80.0994 72.6638 80.0994 73.1906 79.9488 73.4917C80.4004 73.9432 79.8736 73.7927 80.0241 74.0938C79.7231 73.7174 79.8736 73.5669 79.7231 73.2659C79.9489 74.0938 78.7446 73.3411 79.3467 74.4701C79.2715 74.4701 79.2715 74.3948 79.2715 74.3948C79.1962 74.3948 79.0457 74.3196 78.9704 74.3196C79.0457 74.5453 79.2715 74.5453 79.1962 74.6959C79.0457 74.6959 78.8952 74.3948 78.8199 74.3196C78.8199 74.6959 78.5941 74.9969 78.8199 75.4485C78.6694 75.3732 78.4436 75.1474 78.4436 75.0722C78.3683 75.599 78.1425 75.1474 77.9167 75.599C77.992 75.5238 77.6909 75.0722 77.9167 75.2227C77.3899 74.6959 77.5404 75.599 77.0889 75.4485L77.2394 75.9001C77.1641 76.0506 76.9383 75.6743 76.9383 75.4485C76.562 75.298 76.562 75.6743 76.3362 75.7495C76.261 75.6743 76.261 75.599 76.3362 75.599L76.0352 75.7495C76.0352 75.9001 76.0352 76.1259 76.1857 76.3517C76.1104 75.9753 76.1104 75.7496 76.3362 75.8248Z" fill="#080809"/>
<path id="Vector_112" d="M79.798 76.3517C79.7227 76.2764 79.6475 76.2764 79.6475 76.2764C79.7227 76.2764 79.798 76.3517 79.798 76.3517Z" fill="#080809"/>
<path id="Vector_113" d="M73.7025 78.2332C74.0036 78.9106 73.853 78.0827 74.0788 78.158C74.0036 78.3085 74.1541 78.6848 74.3046 78.8353C74.1541 77.9322 74.6057 78.9106 74.8315 78.6095C74.982 78.9106 74.8314 78.9859 74.9067 79.2869C74.982 78.9859 75.2078 78.7601 75.0572 78.3085C75.3583 78.158 75.5841 78.2332 75.7346 78.0827C75.5841 78.3838 75.8851 78.5343 75.9604 79.0611C75.9604 78.459 76.1109 77.5559 76.0357 76.8032C76.3367 77.2548 76.3367 77.3301 76.5625 77.7816C77.0893 77.9322 76.412 77.2548 76.7883 77.2548L76.6378 77.2548C76.713 77.029 76.4873 76.5774 76.3367 76.2011C76.2615 76.2764 76.1109 76.3516 76.0357 76.4269C75.8851 76.0506 76.1109 76.0506 76.1109 75.9001C76.0357 75.4485 75.8099 75.6743 75.6593 75.3732C75.7346 75.6743 75.5841 75.6743 75.5088 75.8248L75.4336 75.6743C75.2078 75.5238 75.283 76.0506 75.2078 76.1259C75.1325 76.0506 75.1325 76.0506 75.1325 75.9753C75.2078 76.2011 75.283 76.5022 75.2078 76.5774L75.283 76.5022C75.3583 77.029 75.2078 77.4053 75.5841 77.8569L75.1325 77.8569C74.982 77.3301 74.6809 76.5774 74.9067 76.4269L74.8315 76.2011C74.5304 75.9753 74.6057 76.8032 74.8315 77.1795C75.2078 78.459 74.3046 77.4806 74.2293 78.0827C74.0788 77.7817 74.1541 77.5559 74.1541 77.3301C74.2293 77.2548 74.3046 77.2548 74.3799 77.4806C74.6809 77.1795 73.853 76.5022 74.3046 76.4269C74.5304 76.5022 74.3046 77.029 74.6057 76.9538L74.3799 75.9753C74.2294 76.0506 74.1541 76.2764 74.0788 76.4269C73.853 76.8785 73.4767 77.029 73.2509 77.1043C73.0251 77.1795 72.7994 77.1043 72.7994 77.1043C71.6704 77.6311 70.5415 78.0827 69.4125 78.459C69.1115 78.6848 68.9609 78.6848 68.9609 79.6632C69.1115 79.8137 69.3372 79.6632 69.262 80.0395C69.262 79.6632 69.3373 79.4374 69.5631 79.4374C69.6383 79.7385 69.4125 79.6632 69.4878 79.7385L69.5631 79.7385C69.5631 79.889 69.5631 80.0395 69.4878 80.0395C69.8641 80.4911 70.2404 80.2653 70.2404 79.588C70.5415 79.889 70.2404 80.1148 70.2404 80.4158C70.993 80.4911 71.4446 80.3406 72.122 80.1148C71.9715 79.5127 72.0467 79.7385 72.0467 79.2869L72.1973 79.5127C72.122 79.4374 72.122 78.9859 71.8962 78.9106C72.423 79.2869 72.0467 78.0074 72.1973 77.6311L72.2725 77.9322C72.423 77.7816 72.4983 77.7816 72.6488 77.5559C73.1757 78.0074 72.423 77.7817 72.7241 78.459L72.7994 78.3085C72.8746 78.6095 72.9499 79.1364 72.9499 79.3622C73.1004 78.7601 73.4767 79.3622 73.7025 78.9106C73.7778 79.2869 73.552 79.6632 73.4767 79.7385C73.6272 79.7385 73.7025 79.4374 73.853 79.7385L73.7025 79.2869C73.9283 79.1364 73.853 79.6632 74.0036 79.9643C74.3046 79.7385 73.4015 78.6095 73.7025 78.2332Z" fill="#080809"/>
<path id="Vector_114" d="M78.5187 76.1259C78.4434 76.1259 78.4434 76.2011 78.3682 76.2011C78.4434 76.2011 78.4434 76.2011 78.5187 76.1259Z" fill="#080809"/>
<path id="Vector_115" d="M77.9922 77.4053C77.9922 77.4806 78.0675 77.4806 78.0675 77.5558C78.0675 77.5558 78.0675 77.4806 77.9922 77.4053Z" fill="#080809"/>
<path id="Vector_116" d="M78.2175 78.0075C78.0669 77.8569 78.1422 77.7817 78.0669 77.5559C78.0669 77.7064 77.9164 77.7817 78.2175 78.0075Z" fill="#080809"/>
<path id="Vector_117" d="M88.0023 63.9333C87.8518 63.858 87.7765 63.7075 87.626 63.7075L87.7765 63.9333L88.0023 63.9333Z" fill="#080809"/>
<path id="Vector_118" d="M87.4748 64.2343L87.249 64.3848L87.8511 64.6106C87.8511 64.3848 87.3995 64.4601 87.4748 64.2343Z" fill="#080809"/>
<path id="Vector_119" d="M87.0236 64.6859L86.873 64.6106C86.9483 64.6859 86.9483 64.6859 87.0236 64.6859Z" fill="#080809"/>
<path id="Vector_120" d="M87.2492 64.7611L87.7008 64.9117L87.3998 64.6106L87.2492 64.7611C87.174 64.6859 87.0987 64.6859 87.0234 64.6859L87.3245 64.8364C87.2492 64.8364 87.174 64.7611 87.2492 64.7611Z" fill="#080809"/>
<path id="Vector_121" d="M86.3467 65.288C86.4972 65.288 86.723 65.4385 86.8735 65.5137C87.0993 65.3632 86.4219 65.2127 86.723 65.0622C87.024 65.3632 87.0241 65.0622 87.2498 64.9869C86.7983 64.9869 86.5725 64.9869 86.3467 65.1374L86.6477 65.2127C86.6477 65.3632 86.4972 65.2127 86.3467 65.288Z" fill="#080809"/>
<path id="Vector_122" d="M86.7224 66.4922L86.3461 66.2664C86.5719 66.2664 86.6472 66.0406 87.0235 66.1912C87.0235 66.1159 86.7977 66.0406 86.7224 65.9654C86.9482 65.9654 87.0988 65.9654 86.873 65.8148C86.4966 66.1159 86.4214 65.9654 86.1956 66.2664C86.1203 66.2664 86.1203 66.1912 86.1956 66.1912L85.8945 66.3417C86.4214 66.3417 86.3461 66.5675 86.7224 66.4922Z" fill="#080809"/>
<path id="Vector_123" d="M86.3462 66.718C86.3462 66.5675 86.0452 66.3417 85.7441 66.3417L85.9699 66.7933C85.9699 66.6427 85.9699 66.4922 86.3462 66.718Z" fill="#080809"/>
<path id="Vector_124" d="M86.2708 66.9438C86.045 66.9438 85.5934 66.9438 85.9697 67.1696C85.8945 66.9438 86.4966 67.1696 86.2708 66.9438Z" fill="#080809"/>
<path id="Vector_125" d="M85.5178 67.9974L85.8941 67.7717C86.421 67.9222 85.9694 67.9974 86.1952 68.148C86.421 67.9222 86.1952 67.9222 85.9694 67.6211C86.0446 67.5459 85.8189 67.3201 85.6683 67.2448C85.9694 67.7717 84.6899 67.3201 85.5178 67.9974Z" fill="#080809"/>
<path id="Vector_126" d="M86.2707 67.5459L86.0449 67.3954L86.1954 67.6211L86.2707 67.5459Z" fill="#080809"/>
<path id="Vector_127" d="M84.6908 68.449C84.0135 68.3738 84.9166 68.9006 84.5403 69.0511C84.5403 69.0511 84.465 68.9759 84.3898 68.9006L84.3898 69.1264L84.2393 69.0511C84.6156 69.2017 84.6156 69.4275 84.9166 69.6532C85.3682 69.6532 84.5403 69.3522 84.9919 69.4275C85.1424 69.578 85.3682 69.6533 85.4434 69.8038C85.2929 69.578 85.1424 69.5027 84.9166 69.3522C84.9166 69.2017 85.1424 69.3522 85.2177 69.4275C85.0671 69.2017 84.5403 68.9759 84.7661 68.8254C85.1424 68.8254 85.2177 69.1264 85.2177 68.8254C84.6156 68.6748 85.3682 68.6748 85.0671 68.3738C85.2177 68.2232 85.6692 68.2985 85.8198 68.3738C85.3682 68.2232 85.0672 67.9222 84.9919 67.7717L85.2929 68.2233L84.7661 68.148C84.9166 68.2985 84.8413 68.3738 84.6908 68.449Z" fill="#080809"/>
<path id="Vector_128" d="M85.4434 69.7285L85.5193 69.8044C85.5193 69.8803 85.5193 69.8044 85.4434 69.7285Z" fill="#080809"/>
<path id="Vector_129" d="M86.0449 68.3737L86.1202 68.449L86.2707 68.5243L86.0449 68.3737Z" fill="#080809"/>
<path id="Vector_130" d="M85.7443 70.1048C85.7443 70.1048 85.5937 69.9543 85.5938 70.0296L85.8195 70.1801L85.7443 70.1048Z" fill="#080809"/>
<path id="Vector_131" d="M85.2923 70.1048L84.9912 70.0295L85.217 70.1801L85.2923 70.1048Z" fill="#080809"/>
<path id="Vector_132" d="M82.5829 73.2659C82.8087 73.3411 82.5077 73.0401 82.3572 72.8143C82.1314 72.9648 82.5829 73.1153 82.5829 73.2659Z" fill="#080809"/>
<path id="Vector_133" d="M80.9275 75.3733C81.2286 75.4485 81.0781 75.0722 81.2286 74.9969C80.9276 74.9969 80.8523 75.1475 80.9275 75.3733Z" fill="#080809"/>
<path id="Vector_134" d="M80.7014 77.1043C80.7014 76.9537 80.7014 76.8785 80.5508 76.8785L80.2498 76.2011C80.024 76.2011 80.5508 76.8785 80.7014 77.1043Z" fill="#080809"/>
<path id="Vector_135" d="M79.6478 77.9322L79.7231 77.6311L79.6478 77.7064C79.5726 77.4806 79.4973 77.3301 79.4973 77.1043C79.3468 77.2548 79.3468 77.5558 79.6478 77.9322Z" fill="#080809"/>
<path id="Vector_136" d="M79.4971 76.8785C79.4971 76.9544 79.573 77.0303 79.4971 76.8785V76.8785Z" fill="#080809"/>
<path id="Vector_137" d="M79.4221 76.9537C79.3469 76.8785 79.4221 76.8785 79.4221 76.9537V76.9537Z" fill="#080809"/>
<path id="Vector_138" d="M79.347 77.7816L79.0459 78.0074L79.2717 78.0827C79.0459 77.7064 79.4975 78.158 79.347 77.7816Z" fill="#080809"/>
<path id="Vector_139" d="M77.4655 78.3838L77.2397 78.0074C77.0139 78.0074 77.1645 78.9859 76.7129 78.459C76.9387 78.6096 76.7129 78.9859 77.0139 78.9106C77.0139 78.6095 77.315 78.3838 77.4655 78.3838Z" fill="#080809"/>
<path id="Vector_140" d="M76.4111 78.2332C76.4111 78.0827 76.3358 78.0827 76.2605 77.9321C76.1853 77.9321 76.1853 78.1579 76.2605 78.2332C76.11 77.7816 76.4863 78.6095 76.4111 78.2332Z" fill="#080809"/>
<path id="Vector_141" d="M75.5088 78.6848C75.584 78.6848 75.6593 78.6095 75.5088 78.5343C75.3582 78.6095 75.584 79.0611 75.584 79.3622C75.8098 79.5127 75.7346 78.9106 75.5088 78.6848Z" fill="#080809"/>
<path id="Vector_142" d="M72.9492 76.5022C73.0997 76.8032 73.2503 76.728 73.175 76.5775C73.175 76.6527 73.0245 76.5775 72.9492 76.5022Z" fill="#080809"/>
<path id="Vector_143" d="M74.003 79.2116L74.0783 79.2869L73.9277 78.76L74.003 79.2116Z" fill="#080809"/>
<path id="Vector_144" d="M72.9492 79.9643L72.9492 80.3406L73.0997 80.19L72.9492 79.9643Z" fill="#080809"/>
<path id="Vector_145" d="M72.7238 79.889L72.5732 79.9643L72.6485 80.0395C72.799 80.1901 72.6485 79.9643 72.7238 79.889Z" fill="#080809"/>
<path id="Vector_146" d="M72.1973 80.19C72.1973 80.1148 72.2725 80.19 72.2725 80.2653L72.3478 79.9643L72.1973 80.19Z" fill="#080809"/>
<path id="Vector_147" d="M68.6594 78.8354C68.5841 78.459 68.5089 78.7601 68.4336 78.6848C68.4336 78.7601 68.5841 79.2117 68.6594 78.8354Z" fill="#080809"/>
</g>
</g>
</g>
</g>
</g>
</g>
</g>
</g>
<path id="Vector_148" d="M64.3682 80.6417C70.9913 79.4375 75.8834 77.0291 79.5713 73.9433C83.1839 70.8575 85.5171 67.0943 86.8718 63.1807" stroke="#1B1C1E" stroke-width="1.2604" stroke-miterlimit="10" stroke-linecap="round" stroke-linejoin="round"/>
<path id="Vector_149" d="M103.581 97.8016C103.054 96.2211 102.452 94.5653 101.849 92.9848C101.172 91.2537 100.57 89.598 99.8174 87.8669" stroke="#1B1C1E" stroke-width="1.1311" stroke-miterlimit="10" stroke-linecap="round" stroke-linejoin="round"/>
<path id="Vector_150" d="M49.617 5.67977C49.617 5.67977 49.5417 3.7982 50.8964 3.34662" stroke="#1B1C1E" stroke-width="1.2604" stroke-miterlimit="10" stroke-linecap="round" stroke-linejoin="round"/>
<g id="Group_21">
<path id="Vector_151" d="M36.6716 43.9886C40.08 43.9886 42.8431 41.2255 42.8431 37.8171C42.8431 34.4086 40.08 31.6455 36.6716 31.6455C33.2631 31.6455 30.5 34.4086 30.5 37.8171C30.5 41.2255 33.2631 43.9886 36.6716 43.9886Z" fill="#D6D4C8"/>
<path id="Vector_152" d="M36.6713 42.5586C39.29 42.5586 41.4128 40.4357 41.4128 37.817C41.4128 35.1983 39.29 33.0755 36.6713 33.0755C34.0526 33.0755 31.9297 35.1983 31.9297 37.817C31.9297 40.4357 34.0526 42.5586 36.6713 42.5586Z" fill="#1B1C1E"/>
<path id="Vector_153" d="M35.1664 37.6665C35.9977 37.6665 36.6717 36.9926 36.6717 36.1613C36.6717 35.3299 35.9977 34.656 35.1664 34.656C34.3351 34.656 33.6611 35.3299 33.6611 36.1613C33.6611 36.9926 34.3351 37.6665 35.1664 37.6665Z" fill="#D6D4C8"/>
</g>
<g id="Group_22">
<path id="Vector_154" d="M65.1208 43.0855C68.5292 43.0855 71.2923 40.3224 71.2923 36.9139C71.2923 33.5054 68.5292 30.7423 65.1208 30.7423C61.7123 30.7423 58.9492 33.5054 58.9492 36.9139C58.9492 40.3224 61.7123 43.0855 65.1208 43.0855Z" fill="#D6D4C8"/>
<path id="Vector_155" d="M65.1205 41.6555C67.7392 41.6555 69.862 39.5326 69.862 36.9139C69.862 34.2952 67.7392 32.1724 65.1205 32.1724C62.5018 32.1724 60.3789 34.2952 60.3789 36.9139C60.3789 39.5326 62.5018 41.6555 65.1205 41.6555Z" fill="#1B1C1E"/>
<path id="Vector_156" d="M63.6156 36.8387C64.4469 36.8387 65.1209 36.1647 65.1209 35.3334C65.1209 34.5021 64.4469 33.8282 63.6156 33.8282C62.7843 33.8282 62.1104 34.5021 62.1104 35.3334C62.1104 36.1647 62.7843 36.8387 63.6156 36.8387Z" fill="#D6D4C8"/>
</g>
</g>
</g>
</svg>
