<svg width="107" height="24" viewBox="0 0 107 24" fill="none" xmlns="http://www.w3.org/2000/svg">
<g id="Frame" clip-path="url(#clip0_398_592)">
<path id="text-0" d="M16.1104 8.55781C16.1104 9.66089 15.8439 10.695 15.311 11.6602C14.7741 12.6254 13.9365 13.4035 12.798 13.9944C11.6556 14.5853 10.2164 14.8808 8.48049 14.8808H4.93804V22.7993H0.699219V2.17571H8.48049C10.1155 2.17571 11.5082 2.45149 12.6588 3.00302C13.8093 3.55456 14.6732 4.31293 15.2505 5.27812C15.8237 6.24332 16.1104 7.33654 16.1104 8.55781ZM8.29882 11.542C9.46955 11.542 10.3375 11.28 10.9027 10.7561C11.4678 10.2361 11.7504 9.5033 11.7504 8.55781C11.7504 6.54863 10.5999 5.54404 8.29882 5.54404H4.93804V11.542H8.29882ZM34.7006 14.2603C34.7006 14.8513 34.6603 15.3831 34.5795 15.8559H22.3172C22.4181 17.0377 22.842 17.9635 23.5889 18.6332C24.3357 19.303 25.2541 19.6378 26.3441 19.6378C27.9185 19.6378 29.0388 18.978 29.7049 17.6582H34.2768C33.7923 19.234 32.8638 20.5282 31.4912 21.5406C30.1187 22.557 28.4332 23.0653 26.4349 23.0653C24.8201 23.0653 23.3709 22.7146 22.0871 22.0134C20.8074 21.3161 19.8082 20.3273 19.0897 19.0469C18.3751 17.7665 18.0178 16.2892 18.0178 14.6149C18.0178 12.9209 18.3711 11.4337 19.0775 10.1533C19.784 8.87297 20.7731 7.88808 22.0447 7.19866C23.3164 6.50924 24.7798 6.16452 26.4349 6.16452C28.0295 6.16452 29.4566 6.49939 30.7161 7.16911C31.9797 7.83884 32.9587 8.78827 33.653 10.0174C34.3514 11.2505 34.7006 12.6648 34.7006 14.2603ZM22.3475 13.0785H30.3104C30.2902 12.0148 29.8966 11.1619 29.1296 10.5197C28.3626 9.8815 27.424 9.5624 26.3138 9.5624C25.2642 9.5624 24.3801 9.87165 23.6615 10.4902C22.947 11.1126 22.509 11.9754 22.3475 13.0785ZM46.4785 9.82832H42.7181V17.7468C42.7181 18.2984 42.8553 18.6963 43.1298 18.9405C43.4044 19.1887 43.8646 19.3128 44.5105 19.3128H46.4785V22.7993H43.8141C40.2414 22.7993 38.455 21.1053 38.455 17.7173V9.82832H36.4567V6.43044H38.455V2.38254H42.7181V6.43044H46.4785V9.82832ZM58.977 6.19407C60.2486 6.19407 61.379 6.46393 62.368 7.00365C63.3571 7.54731 64.1302 8.34507 64.6873 9.39694C65.2403 10.4527 65.5169 11.7193 65.5169 13.1966V22.7993H61.2781V13.758C61.2781 12.458 60.945 11.4573 60.2789 10.7561C59.6128 10.0588 58.7045 9.71013 57.5539 9.71013C56.3832 9.71013 55.4608 10.0588 54.7866 10.7561C54.1084 11.4573 53.7693 12.458 53.7693 13.758V22.7993H49.5305V0.934753H53.7693V8.46917C54.3143 7.76005 55.0409 7.2026 55.9493 6.79682C56.8576 6.39499 57.8668 6.19407 58.977 6.19407ZM81.1097 6.43044H85.3788V22.7993H81.1097V20.7311C80.5647 21.4402 79.8542 21.9957 78.9782 22.3975C78.0981 22.8033 77.1434 23.0062 76.1139 23.0062C74.8019 23.0062 73.6413 22.7343 72.632 22.1907C71.6228 21.6509 70.8316 20.8532 70.2583 19.7974C69.681 18.7455 69.3924 17.4908 69.3924 16.0331V6.43044H73.6312V15.4422C73.6312 16.7423 73.9643 17.7409 74.6304 18.4382C75.2965 19.1395 76.2048 19.4901 77.3553 19.4901C78.526 19.4901 79.4444 19.1395 80.1105 18.4382C80.7766 17.7409 81.1097 16.7423 81.1097 15.4422V6.43044ZM93.7959 8.82373C94.3409 8.03582 95.0918 7.39564 96.0485 6.90319C97.0093 6.41075 98.1054 6.16452 99.3366 6.16452C100.77 6.16452 102.066 6.50924 103.224 7.19866C104.387 7.88808 105.305 8.86706 105.979 10.1356C106.658 11.4081 106.997 12.8815 106.997 14.5558C106.997 16.2301 106.658 17.7114 105.979 18.9996C105.305 20.2918 104.387 21.2924 103.224 22.0016C102.066 22.7107 100.77 23.0653 99.3366 23.0653C98.0852 23.0653 96.9891 22.823 96.0485 22.3384C95.1119 21.8578 94.3611 21.2334 93.7959 20.4651V22.7993H89.5571V0.934753H93.7959V8.82373ZM102.667 14.5558C102.667 13.5709 102.459 12.718 102.043 11.997C101.632 11.28 101.087 10.7344 100.408 10.3602C99.7343 9.9859 99.0036 9.79877 98.2164 9.79877C97.4494 9.79877 96.7267 9.98984 96.0485 10.372C95.3744 10.7581 94.8294 11.3155 94.4136 12.0443C94.0018 12.7731 93.7959 13.63 93.7959 14.6149C93.7959 15.5998 94.0018 16.4566 94.4136 17.1855C94.8294 17.9143 95.3744 18.4697 96.0485 18.8519C96.7267 19.238 97.4494 19.431 98.2164 19.431C99.0036 19.431 99.7343 19.234 100.408 18.8401C101.087 18.4461 101.632 17.8847 102.043 17.1559C102.459 16.4271 102.667 15.5604 102.667 14.5558Z" fill="white"/>
</g>
<defs>
<clipPath id="clip0_398_592">
<rect width="106.304" height="22.1305" fill="white" transform="translate(0.696289 0.934753)"/>
</clipPath>
</defs>
</svg>
