<svg width="158" height="40" viewBox="0 0 158 40" fill="none" xmlns="http://www.w3.org/2000/svg">
<g clip-path="url(#clip0_656_346)">
<g clip-path="url(#clip1_656_346)">
<g clip-path="url(#clip2_656_346)">
<g clip-path="url(#clip3_656_346)">
<g clip-path="url(#clip4_656_346)">
<g clip-path="url(#clip5_656_346)">
<path d="M67.1104 16.5578C67.1104 17.6609 66.8439 18.695 66.311 19.6602C65.7741 20.6254 64.9365 21.4035 63.798 21.9944C62.6556 22.5853 61.2164 22.8808 59.4805 22.8808H55.938V30.7993H51.6992V10.1757H59.4805C61.1155 10.1757 62.5082 10.4515 63.6588 11.003C64.8093 11.5546 65.6732 12.3129 66.2505 13.2781C66.8237 14.2433 67.1104 15.3365 67.1104 16.5578ZM59.2988 19.542C60.4695 19.542 61.3375 19.28 61.9027 18.7561C62.4678 18.2361 62.7504 17.5033 62.7504 16.5578C62.7504 14.5486 61.5999 13.544 59.2988 13.544H55.938V19.542H59.2988ZM85.7006 22.2603C85.7006 22.8513 85.6603 23.3831 85.5795 23.8558H73.3172C73.4181 25.0377 73.842 25.9635 74.5889 26.6332C75.3357 27.303 76.2541 27.6378 77.3441 27.6378C78.9185 27.6378 80.0388 26.978 80.7049 25.6582H85.2768C84.7923 27.234 83.8638 28.5282 82.4912 29.5406C81.1187 30.557 79.4332 31.0653 77.4349 31.0653C75.8201 31.0653 74.3709 30.7146 73.0871 30.0134C71.8074 29.3161 70.8082 28.3273 70.0897 27.0469C69.3751 25.7665 69.0178 24.2892 69.0178 22.6149C69.0178 20.9209 69.3711 19.4337 70.0775 18.1533C70.784 16.873 71.7731 15.8881 73.0447 15.1987C74.3164 14.5092 75.7798 14.1645 77.4349 14.1645C79.0295 14.1645 80.4566 14.4994 81.7161 15.1691C82.9797 15.8388 83.9587 16.7883 84.653 18.0174C85.3514 19.2505 85.7006 20.6648 85.7006 22.2603ZM73.3475 21.0785H81.3104C81.2902 20.0148 80.8966 19.1619 80.1296 18.5197C79.3626 17.8815 78.424 17.5624 77.3138 17.5624C76.2642 17.5624 75.3801 17.8717 74.6615 18.4902C73.947 19.1126 73.509 19.9754 73.3475 21.0785ZM97.4785 17.8283H93.7181V25.7468C93.7181 26.2984 93.8553 26.6963 94.1298 26.9405C94.4044 27.1887 94.8646 27.3128 95.5105 27.3128H97.4785V30.7993H94.8141C91.2414 30.7993 89.455 29.1053 89.455 25.7173V17.8283H87.4567V14.4304H89.455V10.3825H93.7181V14.4304H97.4785V17.8283ZM109.977 14.1941C111.249 14.1941 112.379 14.4639 113.368 15.0037C114.357 15.5473 115.13 16.3451 115.687 17.3969C116.24 18.4527 116.517 19.7193 116.517 21.1966V30.7993H112.278V21.758C112.278 20.458 111.945 19.4573 111.279 18.7561C110.613 18.0588 109.704 17.7101 108.554 17.7101C107.383 17.7101 106.461 18.0588 105.787 18.7561C105.108 19.4573 104.769 20.458 104.769 21.758V30.7993H100.53V8.93475H104.769V16.4692C105.314 15.76 106.041 15.2026 106.949 14.7968C107.858 14.395 108.867 14.1941 109.977 14.1941ZM132.11 14.4304H136.379V30.7993H132.11V28.7311C131.565 29.4402 130.854 29.9957 129.978 30.3975C129.098 30.8033 128.143 31.0062 127.114 31.0062C125.802 31.0062 124.641 30.7343 123.632 30.1907C122.623 29.6509 121.832 28.8532 121.258 27.7974C120.681 26.7455 120.392 25.4908 120.392 24.0331V14.4304H124.631V23.4422C124.631 24.7423 124.964 25.7409 125.63 26.4382C126.296 27.1395 127.205 27.4901 128.355 27.4901C129.526 27.4901 130.444 27.1395 131.111 26.4382C131.777 25.7409 132.11 24.7423 132.11 23.4422V14.4304ZM144.796 16.8237C145.341 16.0358 146.092 15.3956 147.049 14.9032C148.009 14.4107 149.105 14.1645 150.337 14.1645C151.77 14.1645 153.066 14.5092 154.224 15.1987C155.387 15.8881 156.305 16.8671 156.979 18.1356C157.658 19.4081 157.997 20.8815 157.997 22.5558C157.997 24.2301 157.658 25.7114 156.979 26.9996C156.305 28.2918 155.387 29.2924 154.224 30.0016C153.066 30.7107 151.77 31.0653 150.337 31.0653C149.085 31.0653 147.989 30.823 147.049 30.3384C146.112 29.8578 145.361 29.2334 144.796 28.4651V30.7993H140.557V8.93475H144.796V16.8237ZM153.667 22.5558C153.667 21.5709 153.459 20.718 153.043 19.997C152.632 19.28 152.087 18.7344 151.408 18.3602C150.734 17.9859 150.004 17.7988 149.216 17.7988C148.449 17.7988 147.727 17.9898 147.049 18.372C146.374 18.7581 145.829 19.3155 145.414 20.0443C145.002 20.7731 144.796 21.63 144.796 22.6149C144.796 23.5998 145.002 24.4566 145.414 25.1855C145.829 25.9143 146.374 26.4698 147.049 26.8519C147.727 27.238 148.449 27.431 149.216 27.431C150.004 27.431 150.734 27.234 151.408 26.8401C152.087 26.4461 152.632 25.8847 153.043 25.1559C153.459 24.4271 153.667 23.5604 153.667 22.5558Z" fill="white"/>
</g>
</g>
</g>
</g>
<g clip-path="url(#clip6_656_346)">
<g clip-path="url(#clip7_656_346)">
<path d="M0 19.9999C0 8.95411 9.17578 0 20.4945 0C31.8134 0 40.9889 8.95437 40.9889 19.9999C40.9889 31.0458 31.8131 39.9999 20.4945 39.9999C9.17551 39.9999 0 31.0455 0 19.9999ZM20.4945 38.0042C30.6838 38.0042 38.9439 29.9434 38.9439 19.9999C38.9439 10.0565 30.6838 1.99572 20.4945 1.99572C10.3052 1.99572 2.04507 10.0565 2.04507 19.9999C2.04507 29.9434 10.3052 38.0042 20.4945 38.0042Z" fill="white"/>
<g clip-path="url(#clip8_656_346)">
<g clip-path="url(#clip9_656_346)">
<path d="M24.3187 15.0246C24.8229 15.0246 25.3157 14.8787 25.7349 14.6054C26.1542 14.332 26.4809 13.9435 26.6738 13.4889C26.8668 13.0344 26.9173 12.5342 26.8189 12.0516C26.7205 11.569 26.4777 11.1258 26.1212 10.7779C25.7647 10.4299 25.3105 10.193 24.816 10.097C24.3215 10.001 23.8089 10.0503 23.3431 10.2386C22.8773 10.4269 22.4792 10.7457 22.1991 11.1548C21.919 11.5639 21.7695 12.0449 21.7695 12.5369C21.7695 13.1967 22.038 13.8295 22.5161 14.296C22.9942 14.7625 23.6426 15.0246 24.3187 15.0246ZM14.1219 17.5123C14.1219 17.0203 13.9723 16.5393 13.6922 16.1302C13.4121 15.7211 13.014 15.4023 12.5482 15.214C12.0824 15.0257 11.5698 14.9764 11.0753 15.0724C10.5808 15.1684 10.1266 15.4053 9.77008 15.7532C9.41357 16.1012 9.17078 16.5444 9.07242 17.027C8.97406 17.5095 9.02454 18.0097 9.21749 18.4643C9.41043 18.9189 9.73717 19.3074 10.1564 19.5808C10.5756 19.8541 11.0685 20 11.5726 20C12.2487 20 12.8971 19.7379 13.3752 19.2714C13.8533 18.8048 14.1219 18.1721 14.1219 17.5123ZM29.4171 15.0246C28.9129 15.0246 28.42 15.1705 28.0008 15.4439C27.5816 15.7172 27.2549 16.1057 27.0619 16.5603C26.869 17.0149 26.8185 17.5151 26.9169 17.9976C27.0152 18.4802 27.258 18.9235 27.6145 19.2714C27.971 19.6193 28.4253 19.8562 28.9198 19.9522C29.4143 20.0482 29.9268 19.9989 30.3926 19.8106C30.8584 19.6224 31.2566 19.3035 31.5367 18.8944C31.8168 18.4853 31.9663 18.0043 31.9663 17.5123C31.9663 16.8525 31.6977 16.2198 31.2196 15.7532C30.7416 15.2867 30.0932 15.0246 29.4171 15.0246ZM16.6711 15.0246C17.1752 15.0246 17.6681 14.8787 18.0873 14.6054C18.5065 14.332 18.8333 13.9435 19.0262 13.4889C19.2192 13.0344 19.2696 12.5342 19.1713 12.0516C19.0729 11.569 18.8301 11.1258 18.4736 10.7779C18.1171 10.4299 17.6629 10.193 17.1684 10.097C16.6739 10.001 16.1613 10.0503 15.6955 10.2386C15.2297 10.4269 14.8316 10.7457 14.5515 11.1548C14.2714 11.5639 14.1219 12.0449 14.1219 12.5369C14.1219 13.1967 14.3904 13.8295 14.8685 14.296C15.3466 14.7625 15.995 15.0246 16.6711 15.0246ZM20.4949 16.2685C19.4618 16.2686 18.4533 16.5756 17.6034 17.1486C16.7535 17.7216 16.1024 18.5335 15.7368 19.4763C15.5314 20.0033 15.1514 20.4481 14.6572 20.7401C13.8049 21.2432 13.123 21.9798 12.6967 22.8584C12.2704 23.7369 12.1184 24.7184 12.2597 25.6807C12.4339 26.8661 13.0403 27.9505 13.9677 28.7349C14.895 29.5192 16.0812 29.9509 17.3084 29.9508C18.0578 29.9505 18.7974 29.7842 19.4714 29.4644C19.7906 29.3149 20.1401 29.2372 20.4942 29.2372C20.8483 29.2372 21.1979 29.3149 21.5171 29.4644C22.1915 29.7844 22.9315 29.9507 23.6814 29.9508C24.9084 29.9506 26.0942 29.5188 27.0213 28.7345C27.9484 27.9501 28.5546 26.8659 28.7288 25.6807C28.8702 24.7185 28.7184 23.7371 28.2923 22.8586C27.8662 21.9801 27.1846 21.2433 26.3325 20.7401C25.8383 20.4482 25.4582 20.0034 25.253 19.4763C24.8873 18.5335 24.2362 17.7216 23.3863 17.1486C22.5364 16.5756 21.5279 16.2686 20.4949 16.2685Z" fill="white"/>
</g>
</g>
</g>
</g>
</g>
</g>
<defs>
<clipPath id="clip0_656_346">
<rect width="158" height="40" fill="white"/>
</clipPath>
<clipPath id="clip1_656_346">
<rect width="158" height="40" fill="white"/>
</clipPath>
<clipPath id="clip2_656_346">
<rect width="106.304" height="22.1305" fill="white" transform="translate(51.6963 8.93475)"/>
</clipPath>
<clipPath id="clip3_656_346">
<rect width="106.304" height="22.1305" fill="white" transform="translate(51.6963 8.93475)"/>
</clipPath>
<clipPath id="clip4_656_346">
<rect width="106.304" height="22.1305" fill="white" transform="translate(51.6963 8.93475)"/>
</clipPath>
<clipPath id="clip5_656_346">
<rect width="106.304" height="22.1305" fill="white" transform="translate(51.6963 8.93475)"/>
</clipPath>
<clipPath id="clip6_656_346">
<rect width="40.9891" height="40" fill="white"/>
</clipPath>
<clipPath id="clip7_656_346">
<rect width="40.9891" height="40" fill="white"/>
</clipPath>
<clipPath id="clip8_656_346">
<rect width="22.9429" height="19.9016" fill="white" transform="translate(9.02344 10.0492)"/>
</clipPath>
<clipPath id="clip9_656_346">
<rect width="22.9429" height="19.9016" fill="white" transform="translate(9.02344 10.0492)"/>
</clipPath>
</defs>
</svg>
