<svg width="60" height="60" viewBox="0 0 60 60" fill="none" xmlns="http://www.w3.org/2000/svg">
<path d="M30 55C43.8071 55 55 43.8071 55 30C55 16.1929 43.8071 5 30 5C16.1929 5 5 16.1929 5 30C5 43.8071 16.1929 55 30 55Z" fill="#6A75ED"/>
<path d="M30 42.5C31.3807 42.5 32.5 41.3807 32.5 40C32.5 38.6193 31.3807 37.5 30 37.5C28.6193 37.5 27.5 38.6193 27.5 40C27.5 41.3807 28.6193 42.5 30 42.5Z" fill="white"/>
<path d="M30 32.5C29.337 32.5 28.7011 32.2366 28.2322 31.7678C27.7634 31.2989 27.5 30.663 27.5 30V20C27.5 19.337 27.7634 18.7011 28.2322 18.2322C28.7011 17.7634 29.337 17.5 30 17.5C30.663 17.5 31.2989 17.7634 31.7678 18.2322C32.2366 18.7011 32.5 19.337 32.5 20V30C32.5 30.663 32.2366 31.2989 31.7678 31.7678C31.2989 32.2366 30.663 32.5 30 32.5Z" fill="white"/>
</svg>
