<svg width="60" height="60" viewBox="0 0 60 60" fill="none" xmlns="http://www.w3.org/2000/svg">
<path d="M26.25 52.5C26.25 52.5 22.5 52.5 22.5 48.75C22.5 45 26.25 33.75 41.25 33.75C56.25 33.75 60 45 60 48.75C60 52.5 56.25 52.5 56.25 52.5H26.25ZM41.25 30C44.2337 30 47.0952 28.8147 49.205 26.705C51.3147 24.5952 52.5 21.7337 52.5 18.75C52.5 15.7663 51.3147 12.9048 49.205 10.795C47.0952 8.68526 44.2337 7.5 41.25 7.5C38.2663 7.5 35.4048 8.68526 33.295 10.795C31.1853 12.9048 30 15.7663 30 18.75C30 21.7337 31.1853 24.5952 33.295 26.705C35.4048 28.8147 38.2663 30 41.25 30ZM19.56 52.5C19.0041 51.3293 18.7268 50.0458 18.75 48.75C18.75 43.6688 21.3 38.4375 26.01 34.8C23.6591 34.0756 21.2098 33.7214 18.75 33.75C3.75 33.75 0 45 0 48.75C0 52.5 3.75 52.5 3.75 52.5H19.56ZM16.875 30C19.3614 30 21.746 29.0123 23.5041 27.2541C25.2623 25.496 26.25 23.1114 26.25 20.625C26.25 18.1386 25.2623 15.754 23.5041 13.9959C21.746 12.2377 19.3614 11.25 16.875 11.25C14.3886 11.25 12.004 12.2377 10.2459 13.9959C8.48772 15.754 7.5 18.1386 7.5 20.625C7.5 23.1114 8.48772 25.496 10.2459 27.2541C12.004 29.0123 14.3886 30 16.875 30Z" fill="#6A75ED"/>
</svg>
