<svg width="60" height="60" viewBox="0 0 60 60" fill="none" xmlns="http://www.w3.org/2000/svg">
<path d="M11.25 52.5C11.25 52.5 7.5 52.5 7.5 48.75C7.5 45 11.25 33.75 30 33.75C48.75 33.75 52.5 45 52.5 48.75C52.5 52.5 48.75 52.5 48.75 52.5H11.25ZM30 30C32.9837 30 35.8452 28.8147 37.955 26.705C40.0647 24.5952 41.25 21.7337 41.25 18.75C41.25 15.7663 40.0647 12.9048 37.955 10.795C35.8452 8.68526 32.9837 7.5 30 7.5C27.0163 7.5 24.1548 8.68526 22.045 10.795C19.9353 12.9048 18.75 15.7663 18.75 18.75C18.75 21.7337 19.9353 24.5952 22.045 26.705C24.1548 28.8147 27.0163 30 30 30Z" fill="#6A75ED"/>
</svg>
