<svg width="229" height="173" viewBox="0 0 229 173" fill="none" xmlns="http://www.w3.org/2000/svg">
<g id="Group">
<g id="Group_2">
<g id="Group_3">
<path id="Vector" d="M40.5043 149.98C34.9012 145.656 10.1787 125.517 7.62575 96.39C4.04158 55.4891 46.9966 29.9545 58.7803 22.9487C85.7922 6.8901 150.727 -17.3312 191.896 18.8501C224.869 47.8301 222.279 101.133 201.893 131.626C168.297 181.874 84.9672 184.289 40.5043 149.98Z" fill="#F9F1EF"/>
</g>
</g>
<g id="Group_4">
<path id="Vector_2" d="M199.197 87.8524H185.243C184.99 87.8524 184.785 88.0584 184.785 88.3124V94.0463C184.785 94.3004 184.99 94.5063 185.243 94.5063H199.197C199.451 94.5063 199.656 94.3004 199.656 94.0463V88.3124C199.656 88.0584 199.451 87.8524 199.197 87.8524Z" stroke="#C9CFFB" stroke-width="2" stroke-miterlimit="10"/>
<path id="Vector_3" d="M199.197 101.137H185.243C184.99 101.137 184.785 101.343 184.785 101.597V107.331C184.785 107.585 184.99 107.791 185.243 107.791H199.197C199.451 107.791 199.656 107.585 199.656 107.331V101.597C199.656 101.343 199.451 101.137 199.197 101.137Z" stroke="#C9CFFB" stroke-width="2" stroke-miterlimit="10"/>
<path id="Vector_4" d="M206.634 94.5063H192.68C192.427 94.5063 192.222 94.7122 192.222 94.9663V100.7C192.222 100.954 192.427 101.16 192.68 101.16H206.634C206.887 101.16 207.092 100.954 207.092 100.7V94.9663C207.092 94.7122 206.887 94.5063 206.634 94.5063Z" fill="#C9CFFB"/>
<path id="Vector_5" d="M191.764 94.5063H177.81C177.557 94.5063 177.352 94.7122 177.352 94.9663V100.7C177.352 100.954 177.557 101.16 177.81 101.16H191.764C192.017 101.16 192.222 100.954 192.222 100.7V94.9663C192.222 94.7122 192.017 94.5063 191.764 94.5063Z" fill="#C9CFFB"/>
<path id="Vector_6" d="M36.0812 120.742H22.1273C21.8741 120.742 21.6689 120.948 21.6689 121.202V126.936C21.6689 127.19 21.8741 127.396 22.1273 127.396H36.0812C36.3344 127.396 36.5396 127.19 36.5396 126.936V121.202C36.5396 120.948 36.3344 120.742 36.0812 120.742Z" stroke="#C9CFFB" stroke-width="2" stroke-miterlimit="10"/>
<path id="Vector_7" d="M43.5178 134.025H29.5638C29.3107 134.025 29.1055 134.231 29.1055 134.485V140.219C29.1055 140.473 29.3107 140.679 29.5638 140.679H43.5178C43.7709 140.679 43.9761 140.473 43.9761 140.219V134.485C43.9761 134.231 43.7709 134.025 43.5178 134.025Z" stroke="#C9CFFB" stroke-width="2" stroke-miterlimit="10"/>
<path id="Vector_8" d="M46.6076 127.396H32.6536C32.4005 127.396 32.1953 127.602 32.1953 127.856V133.59C32.1953 133.844 32.4005 134.05 32.6536 134.05H46.6076C46.8607 134.05 47.0659 133.844 47.0659 133.59V127.856C47.0659 127.602 46.8607 127.396 46.6076 127.396Z" fill="#C9CFFB"/>
<path id="Vector_9" d="M31.7365 127.396H17.7826C17.5294 127.396 17.3242 127.602 17.3242 127.856V133.59C17.3242 133.844 17.5294 134.05 17.7826 134.05H31.7365C31.9896 134.05 32.1948 133.844 32.1948 133.59V127.856C32.1948 127.602 31.9896 127.396 31.7365 127.396Z" fill="#C9CFFB"/>
<path id="Vector_10" d="M122.569 32.0912H108.615C108.361 32.0912 108.156 32.2972 108.156 32.5512V38.2851C108.156 38.5392 108.361 38.7451 108.615 38.7451H122.569C122.822 38.7451 123.027 38.5392 123.027 38.2851V32.5512C123.027 32.2972 122.822 32.0912 122.569 32.0912Z" fill="#C9CFFB"/>
<path id="Vector_11" d="M127.592 45.399H113.638C113.385 45.399 113.18 45.605 113.18 45.859V51.5929C113.18 51.847 113.385 52.0529 113.638 52.0529H127.592C127.845 52.0529 128.05 51.847 128.05 51.5929V45.859C128.05 45.605 127.845 45.399 127.592 45.399Z" fill="#C9CFFB"/>
<path id="Vector_12" d="M133.095 38.7451H119.141C118.888 38.7451 118.683 38.9511 118.683 39.2051V44.939C118.683 45.1931 118.888 45.399 119.141 45.399H133.095C133.348 45.399 133.553 45.1931 133.553 44.939V39.2051C133.553 38.9511 133.348 38.7451 133.095 38.7451Z" stroke="#C9CFFB" stroke-width="2" stroke-miterlimit="10"/>
<path id="Vector_13" d="M118.224 38.7451H104.27C104.017 38.7451 103.812 38.9511 103.812 39.2051V44.939C103.812 45.1931 104.017 45.399 104.27 45.399H118.224C118.477 45.399 118.682 45.1931 118.682 44.939V39.2051C118.682 38.9511 118.477 38.7451 118.224 38.7451Z" stroke="#C9CFFB" stroke-width="2" stroke-miterlimit="10"/>
</g>
<g id="Group_5">
<path id="Vector_14" d="M162.902 32.3879C165.001 32.3879 167.052 31.7633 168.797 30.5932C170.542 29.4231 171.902 27.7599 172.705 25.8141C173.508 23.8682 173.718 21.7271 173.309 19.6614C172.9 17.5957 171.889 15.6982 170.405 14.2089C168.921 12.7196 167.031 11.7054 164.972 11.2945C162.914 10.8836 160.781 11.0945 158.842 11.9005C156.903 12.7065 155.246 14.0714 154.08 15.8226C152.914 17.5738 152.292 19.6327 152.292 21.7389C152.292 23.1374 152.566 24.5223 153.099 25.8144C153.632 27.1066 154.414 28.2806 155.399 29.2695C156.384 30.2585 157.554 31.0429 158.842 31.5779C160.129 32.113 161.509 32.3882 162.902 32.3879Z" fill="#A191FF"/>
<path id="Vector_15" d="M162.903 31.5829C160.967 31.5829 159.075 31.0069 157.466 29.9278C155.857 28.8486 154.603 27.3148 153.862 25.5202C153.121 23.7257 152.928 21.751 153.305 19.8459C153.683 17.9408 154.615 16.1909 155.983 14.8174C157.352 13.4439 159.095 12.5085 160.994 12.1296C162.892 11.7507 164.859 11.9451 166.647 12.6885C168.435 13.4318 169.964 14.6906 171.039 16.3056C172.114 17.9207 172.688 19.8195 172.688 21.7619C172.68 24.3642 171.647 26.8576 169.813 28.6977C167.98 30.5378 165.495 31.575 162.903 31.5829ZM162.903 12.6079C161.103 12.6079 159.344 13.1434 157.848 14.1467C156.352 15.1501 155.186 16.5761 154.497 18.2446C153.809 19.9131 153.628 21.749 153.98 23.5203C154.331 25.2915 155.197 26.9185 156.469 28.1955C157.742 29.4725 159.363 30.3421 161.128 30.6944C162.893 31.0468 164.722 30.8659 166.384 30.1748C168.047 29.4837 169.468 28.3134 170.467 26.8118C171.467 25.3102 172.001 23.5448 172.001 21.7389C171.993 19.3194 171.032 17.0012 169.328 15.2903C167.623 13.5795 165.313 12.6152 162.903 12.6079Z" fill="#A04A33"/>
<path id="Vector_16" d="M167.945 25.5339C167.673 25.472 167.405 25.3952 167.142 25.3039L166.753 25.1659C166.686 25.1495 166.623 25.1181 166.57 25.0739C166.521 25.0223 166.467 24.9761 166.409 24.9359L165.149 23.9929L162.626 22.1L162.465 21.985L162.442 21.801L162.121 19.731L162.053 19.225C162.053 19.133 162.007 19.064 162.007 18.972L162.053 18.696C162.099 18.3317 162.168 17.9707 162.259 17.615C162.442 17.937 162.626 18.259 162.786 18.581L162.901 18.834C162.946 18.926 162.924 19.018 162.946 19.087L163.015 19.593L163.336 21.663L163.153 21.364L165.674 23.25L166.934 24.193C166.98 24.239 167.049 24.262 167.094 24.308C167.146 24.3566 167.192 24.4106 167.232 24.469L167.461 24.814C167.65 25.0336 167.813 25.2753 167.945 25.5339Z" fill="#A04A33"/>
</g>
<g id="Group_6">
<path id="Vector_17" d="M107.926 4.60851H3.64551V85.0901H107.926V4.60851Z" fill="#C9CFFB"/>
<path id="Vector_18" d="M107.926 59.1783C105.04 58.3848 100.102 57.5269 91.0909 56.577C65.6878 53.8998 60.8134 56.0756 52.1509 51.609C41.6093 46.1718 36.359 36.521 34.6609 33.393C28.2763 21.64 29.5734 11.8673 28.3634 4.62H3.64551V85.0901H107.916L107.926 59.1783Z" fill="#B7C0FF"/>
<path id="Vector_19" d="M108.574 3.1526H3.20799C2.85912 3.1526 2.52454 3.29169 2.27785 3.53928C2.03117 3.78687 1.89258 4.12266 1.89258 4.4728V85.2902C1.89258 85.6404 2.03117 85.9762 2.27785 86.2237C2.52454 86.4713 2.85912 86.6104 3.20799 86.6104H108.574C108.923 86.6104 109.258 86.4713 109.504 86.2237C109.751 85.9762 109.89 85.6404 109.89 85.2902V4.4728C109.89 4.12266 109.751 3.78687 109.504 3.53928C109.258 3.29169 108.923 3.1526 108.574 3.1526ZM105.792 82.2197C105.792 82.5436 105.664 82.8543 105.436 83.0833C105.208 83.3123 104.898 83.441 104.575 83.441H7.20925C7.04955 83.441 6.89142 83.4094 6.74391 83.348C6.5964 83.2866 6.46241 83.1966 6.34959 83.0832C6.23678 82.9697 6.14736 82.8351 6.08646 82.6869C6.02555 82.5387 5.99436 82.38 5.99466 82.2197V7.541C5.99466 7.2177 6.12262 6.90765 6.3504 6.67904C6.57818 6.45043 6.88712 6.322 7.20925 6.322H104.573C104.733 6.3217 104.891 6.35301 105.039 6.41413C105.186 6.47526 105.32 6.565 105.433 6.67822C105.546 6.79145 105.636 6.92593 105.697 7.07398C105.758 7.22203 105.79 7.38073 105.79 7.541L105.792 82.2197Z" fill="#8795F6"/>
<path id="Vector_20" d="M73.305 6.2323H72.1592V83.441H73.305V6.2323Z" fill="#8795F6"/>
<path id="Vector_21" d="M39.6224 6.2323H38.4766V83.441H39.6224V6.2323Z" fill="#8795F6"/>
<path id="Vector_22" d="M105.79 61.2092H5.99512V62.3592H105.79V61.2092Z" fill="#8795F6"/>
<path id="Vector_23" d="M105.79 27.4038H5.99512V28.5538H105.79V27.4038Z" fill="#8795F6"/>
</g>
<g id="Group_7">
<path id="Vector_24" d="M10.6322 103.596H8.79883V142.284H10.6322V103.596Z" fill="#100B2F"/>
<path id="Vector_25" d="M18.4655 165.116C18.2546 162.506 17.9842 159.904 17.6748 157.312C17.3655 154.72 17.0148 152.133 16.6367 149.555C16.2586 146.976 15.8369 144.403 15.3923 141.836C15.2997 141.304 15.0274 140.821 14.6212 140.468C14.2149 140.115 13.6998 139.913 13.1625 139.897H13.0548C11.9411 139.865 10.8273 139.871 9.71587 139.855C8.60441 139.839 7.49066 139.871 6.37691 139.876H6.33337C5.78044 139.879 5.24611 140.077 4.82326 140.434C4.40041 140.792 4.11576 141.287 4.01879 141.833C3.56046 144.4 3.13803 146.972 2.7515 149.548C2.37108 152.128 2.01129 154.711 1.70879 157.305C1.40629 159.9 1.14046 162.501 0.929622 165.112C0.718788 167.722 0.565247 170.346 0.540039 172.996C1.48879 170.524 2.30004 168.028 3.06087 165.521C3.82171 163.014 4.54129 160.5 5.20129 157.975C5.86129 155.449 6.48462 152.915 7.07816 150.385C7.509 148.499 7.92073 146.609 8.31337 144.715C8.77171 144.715 9.24379 144.715 9.709 144.715C10.1742 144.715 10.6555 144.715 11.1275 144.704C11.5309 146.597 11.9434 148.485 12.3834 150.371C12.9769 152.901 13.5911 155.445 14.2625 157.961C14.934 160.477 15.6375 163.005 16.3915 165.51C17.1455 168.014 17.9544 170.517 18.8825 172.991C18.8459 170.349 18.6763 167.729 18.4655 165.116Z" fill="#F3E6E3"/>
<path id="Vector_26" d="M0.540039 103.596L6.37691 72.8842H13.0548L18.8894 103.596H0.540039Z" fill="#FE6840"/>
<path id="Vector_27" d="M9.25066 82.13C9.4065 78.6041 10.1375 75.3358 9.77316 72.8817H6.37691L0.540039 103.596H18.8894L18.8734 103.504C17.3993 103.027 16.0291 102.273 14.8355 101.282C8.62504 96.0082 9.16587 84.0367 9.25066 82.13Z" fill="#EA4F26"/>
</g>
<g id="Group_8">
<path id="Vector_28" d="M190.989 109.353C190.989 109.099 191.09 108.856 191.268 108.676C191.447 108.497 191.69 108.396 191.943 108.396H220.375V172.994H191.943C191.817 172.994 191.693 172.969 191.577 172.92C191.461 172.872 191.356 172.801 191.268 172.712C191.179 172.622 191.109 172.516 191.061 172.4C191.013 172.283 190.989 172.159 190.989 172.033V109.353Z" fill="#A04A33"/>
<path id="Vector_29" d="M220.375 108.394V172.991H227.497C227.751 172.991 227.994 172.89 228.173 172.711C228.352 172.531 228.453 172.287 228.453 172.032V109.353C228.453 109.098 228.352 108.854 228.173 108.675C227.994 108.495 227.751 108.394 227.497 108.394H220.375Z" fill="#392C84"/>
<path id="Vector_30" d="M215.558 111.908H193.233C192.705 111.908 192.277 112.338 192.277 112.867V119.919C192.277 120.449 192.705 120.878 193.233 120.878H215.558C216.086 120.878 216.514 120.449 216.514 119.919V112.867C216.514 112.338 216.086 111.908 215.558 111.908Z" fill="#EA4F26"/>
<path id="Vector_31" d="M218.136 111.908H215.562C215.688 111.908 215.812 111.933 215.928 111.981C216.044 112.029 216.149 112.1 216.237 112.189C216.326 112.278 216.396 112.384 216.444 112.5C216.492 112.617 216.516 112.741 216.516 112.867V119.919C216.516 120.045 216.492 120.17 216.444 120.286C216.396 120.402 216.326 120.508 216.237 120.597C216.149 120.686 216.044 120.757 215.928 120.805C215.812 120.853 215.688 120.878 215.562 120.878H218.138C218.264 120.878 218.388 120.854 218.504 120.806C218.62 120.758 218.726 120.687 218.815 120.598C218.904 120.509 218.974 120.403 219.022 120.286C219.07 120.17 219.094 120.045 219.094 119.919V112.867C219.094 112.741 219.07 112.616 219.022 112.499C218.974 112.383 218.903 112.277 218.814 112.188C218.725 112.098 218.619 112.028 218.503 111.98C218.386 111.932 218.262 111.907 218.136 111.908Z" fill="#CC4B29"/>
<path id="Vector_32" d="M204.395 117.93C205.241 117.93 205.926 117.242 205.926 116.393C205.926 115.545 205.241 114.857 204.395 114.857C203.55 114.857 202.864 115.545 202.864 116.393C202.864 117.242 203.55 117.93 204.395 117.93Z" fill="#392C84"/>
<path id="Vector_33" d="M215.558 124.059H193.233C192.705 124.059 192.277 124.488 192.277 125.018V132.07C192.277 132.6 192.705 133.029 193.233 133.029H215.558C216.086 133.029 216.514 132.6 216.514 132.07V125.018C216.514 124.488 216.086 124.059 215.558 124.059Z" fill="#EA4F26"/>
<path id="Vector_34" d="M218.136 124.059H215.562C215.815 124.059 216.058 124.16 216.237 124.339C216.415 124.519 216.516 124.762 216.516 125.016V132.07C216.516 132.324 216.415 132.567 216.237 132.747C216.058 132.927 215.816 133.028 215.562 133.029H218.138C218.392 133.029 218.635 132.928 218.814 132.748C218.993 132.568 219.094 132.324 219.094 132.07V125.016C219.094 124.89 219.069 124.765 219.021 124.649C218.973 124.532 218.902 124.427 218.813 124.338C218.724 124.249 218.618 124.178 218.502 124.13C218.386 124.083 218.262 124.058 218.136 124.059Z" fill="#CC4B29"/>
<path id="Vector_35" d="M204.395 130.08C205.241 130.08 205.926 129.393 205.926 128.544C205.926 127.695 205.241 127.008 204.395 127.008C203.55 127.008 202.864 127.695 202.864 128.544C202.864 129.393 203.55 130.08 204.395 130.08Z" fill="#392C84"/>
<path id="Vector_36" d="M215.558 136.208H193.233C192.705 136.208 192.277 136.637 192.277 137.167V144.218C192.277 144.748 192.705 145.178 193.233 145.178H215.558C216.086 145.178 216.514 144.748 216.514 144.218V137.167C216.514 136.637 216.086 136.208 215.558 136.208Z" fill="#EA4F26"/>
<path id="Vector_37" d="M218.136 136.208H215.562C215.816 136.208 216.058 136.31 216.237 136.489C216.415 136.669 216.516 136.913 216.516 137.167V144.23C216.516 144.484 216.415 144.728 216.237 144.907C216.058 145.087 215.816 145.188 215.562 145.189H218.138C218.392 145.189 218.635 145.088 218.814 144.908C218.993 144.728 219.094 144.484 219.094 144.23V137.167C219.094 137.041 219.069 136.916 219.021 136.799C218.973 136.683 218.902 136.577 218.813 136.488C218.724 136.399 218.619 136.328 218.502 136.28C218.386 136.232 218.262 136.207 218.136 136.208Z" fill="#CC4B29"/>
<path id="Vector_38" d="M204.395 142.231C205.241 142.231 205.926 141.543 205.926 140.695C205.926 139.846 205.241 139.159 204.395 139.159C203.55 139.159 202.864 139.846 202.864 140.695C202.864 141.543 203.55 142.231 204.395 142.231Z" fill="#392C84"/>
<path id="Vector_39" d="M215.558 148.358H193.233C192.705 148.358 192.277 148.788 192.277 149.318V156.369C192.277 156.899 192.705 157.328 193.233 157.328H215.558C216.086 157.328 216.514 156.899 216.514 156.369V149.318C216.514 148.788 216.086 148.358 215.558 148.358Z" fill="#EA4F26"/>
<path id="Vector_40" d="M218.136 148.37H215.562C215.816 148.371 216.058 148.472 216.237 148.652C216.415 148.832 216.516 149.075 216.516 149.329V156.383C216.515 156.637 216.415 156.88 216.236 157.059C216.057 157.238 215.815 157.339 215.562 157.34H218.138C218.392 157.34 218.635 157.239 218.814 157.059C218.993 156.879 219.094 156.635 219.094 156.381V149.318C219.091 149.065 218.989 148.823 218.809 148.646C218.63 148.469 218.388 148.369 218.136 148.37Z" fill="#CC4B29"/>
<path id="Vector_41" d="M204.395 154.38C205.241 154.38 205.926 153.692 205.926 152.843C205.926 151.995 205.241 151.307 204.395 151.307C203.55 151.307 202.864 151.995 202.864 152.843C202.864 153.692 203.55 154.38 204.395 154.38Z" fill="#392C84"/>
<path id="Vector_42" d="M215.558 160.509H193.233C192.705 160.509 192.277 160.939 192.277 161.468V168.52C192.277 169.05 192.705 169.479 193.233 169.479H215.558C216.086 169.479 216.514 169.05 216.514 168.52V161.468C216.514 160.939 216.086 160.509 215.558 160.509Z" fill="#EA4F26"/>
<path id="Vector_43" d="M218.136 160.509H215.562C215.816 160.51 216.058 160.611 216.237 160.791C216.415 160.971 216.516 161.215 216.516 161.468V168.523C216.516 168.776 216.415 169.02 216.237 169.199C216.058 169.379 215.815 169.479 215.562 169.479H218.138C218.264 169.48 218.388 169.455 218.504 169.407C218.62 169.359 218.725 169.289 218.814 169.2C218.903 169.111 218.973 169.006 219.021 168.889C219.069 168.773 219.094 168.648 219.094 168.523V161.48C219.095 161.353 219.072 161.227 219.024 161.109C218.977 160.991 218.906 160.884 218.817 160.794C218.728 160.703 218.622 160.632 218.505 160.583C218.388 160.534 218.263 160.509 218.136 160.509Z" fill="#CC4B29"/>
<path id="Vector_44" d="M204.395 166.531C205.241 166.531 205.926 165.843 205.926 164.994C205.926 164.146 205.241 163.458 204.395 163.458C203.55 163.458 202.864 164.146 202.864 164.994C202.864 165.843 203.55 166.531 204.395 166.531Z" fill="#392C84"/>
</g>
<g id="Patient/Bottom">
<path id="Vector_45" d="M65.8635 172.881C62.6552 173.341 59.5317 172.265 58.3858 171.322C57.24 170.379 55.3746 170.751 55.3746 170.751L55.4319 172.991L52.0723 172.895C52.0723 172.895 51.905 170.671 51.7537 168.67C51.6804 167.667 52.0058 167.11 52.1341 166.14C52.2625 165.169 52.9546 163.61 52.9546 163.61C54.7627 163.67 59.4285 163.943 60.2879 162.901C60.6167 163.573 61.0577 164.183 61.5919 164.705C61.766 164.884 61.9494 165.059 62.1373 165.227C62.3252 165.395 62.4604 165.496 62.6254 165.627C62.8362 165.795 63.0516 165.96 63.2808 166.121C65.5725 167.747 68.4256 168.992 70.0046 170.146C72.475 171.982 69.0719 172.416 65.8635 172.881ZM33.881 171.195C30.9156 169.88 28.8394 167.301 28.3673 165.891C27.8952 164.481 26.1856 163.525 26.1856 163.525L25.2483 165.029L22.4502 163.159C22.4502 163.159 23.2202 161.889 24.1506 160.111C24.6089 159.224 25.1864 158.922 25.8029 158.177C26.4194 157.432 27.8333 156.475 27.8333 156.475C29.3344 157.489 33.1454 160.208 34.4173 159.778C34.3401 160.522 34.3913 161.273 34.5685 162C34.6189 162.244 34.6854 162.49 34.7542 162.733C34.8183 162.934 34.8848 163.131 34.9558 163.331C35.0475 163.587 35.1414 163.842 35.2492 164.1C36.3239 166.694 38.0954 169.272 38.8219 171.092C39.9608 173.953 36.8464 172.52 33.881 171.195Z" fill="#474551"/>
<path id="Vector_46" d="M58.2231 96.4475C58.2231 96.4475 61.7912 128.309 61.9127 131.12C62.0341 133.931 60.4025 163.118 60.4025 163.118C60.4025 163.118 56.0483 164.877 52.9248 163.679C52.9248 163.679 50.4635 141.3 50.8371 135.619L50.0166 124.841C50.0166 124.841 49.3452 133.823 48.6737 134.871C48.0023 135.92 34.9512 160.544 34.9512 160.544C34.9512 160.544 27.4941 157.165 27.4941 156.19C27.4941 156.19 31.8185 138.225 37.3483 133.211C37.3712 126.262 37.3957 119.313 37.4216 112.364C36.1837 109.224 35.7229 105.831 36.0787 102.474C36.3139 100.34 36.8807 98.2558 37.7585 96.298C37.7585 96.298 53.7475 98.69 58.2231 96.4475Z" fill="#4225EF"/>
<path id="Vector_47" d="M50.278 121.35C50.8761 114.45 52.1113 107.833 52.5147 107.876C52.824 107.908 52.5147 111.34 52.4024 119.215C52.3199 125.639 52.4482 129.952 52.6315 136.056C52.9822 147.972 53.4588 150.015 53.9676 151.664C55.301 155.887 57.4938 159.787 60.4072 163.115C58.9405 163.778 56.5617 164.541 53.9057 163.953C53.5755 163.879 53.2495 163.786 52.9294 163.677C52.9294 163.677 50.4682 141.298 50.8417 135.617L50.0488 125.184C50.074 124.128 50.1382 122.976 50.278 121.35Z" fill="#331AC4"/>
<path id="Vector_48" d="M33.0426 149.138C33.9593 144.202 36.7414 143.229 39.0308 137.457C40.4058 133.979 40.5662 129.988 40.8847 122.007C41.3728 109.767 40.0872 108.828 41.6937 105.855C45.9264 98.0161 58.3976 97.7562 58.2235 96.4475C53.3904 98.1127 39.9772 96.597 37.9972 96.344H37.9858L37.8254 96.3233H37.7497C36.8719 98.2811 36.3051 100.365 36.0699 102.499C35.7141 105.856 36.1749 109.25 37.4129 112.389C37.3869 119.336 37.3624 126.285 37.3395 133.236C31.8189 138.25 27.4854 156.215 27.4854 156.215C27.6572 156.445 27.8428 156.659 28.0422 156.875C29.541 158.041 33.6339 159.955 34.6881 160.44H34.7087H34.7293L34.7843 160.466L34.8164 160.482H34.8393L34.8691 160.496H34.8806L34.9401 160.521C33.627 157.8 32.1901 153.69 33.0426 149.138Z" fill="#331AC4"/>
<path id="Vector_49" d="M37.041 98.1081C37.041 98.1081 48.8316 101.098 58.4062 98.1081" stroke="white" stroke-width="3" stroke-miterlimit="10"/>
</g>
<g id="Patient/Head/Female">
<path id="Vector_50" d="M51.303 48.6466C48.4636 49.2032 46.7197 52.8349 47.1207 57.0508H47.1001C46.3232 57.2026 45.8649 58.2008 46.0757 59.2979C46.2865 60.395 47.0886 61.1379 47.8655 60.993C47.969 60.9726 48.0688 60.9361 48.1611 60.8849C49.7401 64.0773 52.804 65.8552 55.3249 65.3607C58.453 64.7489 59.5622 60.8734 58.6386 56.1285C57.7151 51.3836 54.4334 48.0348 51.303 48.6466Z" fill="#FFCABC"/>
<path id="Vector_51" d="M54.3278 67.8516C54.1834 67.3433 54.7747 66.1013 55.1528 65.386C52.6641 65.7701 49.7032 64.006 48.1609 60.8872C48.0686 60.9384 47.9689 60.9749 47.8653 60.9953C47.8653 60.9953 47.6224 67.4836 46.2222 67.5641C44.5836 68.9763 39.2303 73.7511 40.3211 75.966C41.2378 77.8244 46.1786 76.8653 53.5464 75.437C54.2633 75.3262 54.9319 75.0063 55.4691 74.517C57.0159 73.0358 56.592 70.377 56.3857 69.7767C56.0947 68.9924 54.5341 68.5876 54.3278 67.8516Z" fill="#FFCABC"/>
<path id="Vector_52" d="M47.6567 63.5805C47.8194 62.2005 47.8653 60.9953 47.8653 60.9953C47.9688 60.9749 48.0685 60.9384 48.1609 60.8872C49.7032 64.0083 52.664 65.7701 55.1528 65.386C54.87 65.9068 54.6301 66.4498 54.4355 67.0098L54.2453 67.0558C52.0017 67.4928 49.3296 66.1335 47.6567 63.5805ZM47.0723 58.0191C46.9969 58.3982 46.9915 58.788 47.0563 59.1691C47.0921 59.3473 47.1498 59.5204 47.2282 59.6843C47.2603 59.774 47.3153 59.8568 47.3565 59.9511C47.4112 60.0458 47.4609 60.1433 47.5055 60.2432C47.397 60.2095 47.2925 60.164 47.1938 60.1075C47.0983 60.0444 47.01 59.9712 46.9303 59.889C46.7671 59.7135 46.6553 59.4962 46.6071 59.2611C46.5565 59.0256 46.5748 58.7803 46.6598 58.555C46.7372 58.3369 46.8816 58.1493 47.0723 58.0191Z" fill="#D17C65"/>
<path id="Vector_53" d="M46.2225 67.5641C47.0773 67.5158 47.499 65.0847 47.7006 63.1941L48.9542 63.7576L50.029 66.0139C50.029 66.0139 47.9665 66.4624 48.9542 68.5876C49.8319 70.4966 52.1625 74.8229 55.5313 74.4549C55.0431 74.7263 54.3694 75.0759 53.5467 75.4347C48.1521 77.7899 40.789 78.5351 39.7165 76.4053C38.644 74.2755 44.0019 69.457 46.2225 67.5641Z" fill="#D17C65"/>
<path id="Vector_54" d="M47.3548 44.41L47.3135 44.433C47.2674 44.2744 47.2068 44.1204 47.1325 43.973C46.5344 42.7885 45.1754 42.2756 44.096 42.823C43.7252 43.0225 43.4197 43.3253 43.2164 43.695C43.0131 44.0647 42.9206 44.4856 42.9502 44.9068C42.2627 44.3663 41.385 44.203 40.6585 44.571C39.586 45.1161 39.256 46.6295 39.9229 47.9474C40.1594 48.4248 40.5156 48.8322 40.9564 49.1296C40.0558 49.9714 39.7235 51.1996 40.2254 52.1909C40.6837 53.1109 41.7287 53.5709 42.8333 53.4467C42.5943 53.7515 42.4438 54.1166 42.3985 54.5017C42.3532 54.8869 42.4149 55.2772 42.5766 55.6294C43.1129 56.6897 44.5658 57.0301 45.8194 56.3907C47.0729 55.7513 47.6527 54.3736 47.1233 53.3133C46.7612 52.5957 48.1225 48.6236 49.2019 48.0739C50.2812 47.5242 50.7396 46.2569 50.2285 45.2449C49.7175 44.2329 48.4227 43.858 47.3548 44.41Z" fill="#000001"/>
<path id="Vector_55" d="M46.4544 53.7756C46.3773 54.2129 46.3642 54.6592 46.4154 55.1004C46.4973 55.7944 46.7322 56.4615 47.1029 57.0531C47.4447 57.0316 47.7861 57.1006 48.0929 57.2532C48.9821 57.7132 49.4542 58.9184 49.2869 60.2892C50.3703 58.2696 50.8971 55.9964 50.8131 53.7043C50.8131 53.7043 53.169 55.9008 55.5867 52.5888C56.1563 53.3876 56.9658 53.9825 57.8967 54.2862C58.8872 54.5746 59.9443 54.531 60.9079 54.162C62.1592 53.702 62.3104 53.0695 63.5479 52.6716C64.2552 52.4532 65.0022 52.3966 65.7342 52.506C65.0238 51.0823 64.3592 50.689 63.8367 50.643C63.1492 50.5855 62.6679 51.126 62.1042 50.8914C61.6321 50.6959 61.4167 50.0956 61.3204 49.5666C61.4142 49.0963 61.3631 48.6086 61.174 48.1681C60.9849 47.7277 60.6667 47.3555 60.2617 47.101C59.747 46.8235 59.1488 46.7455 58.5806 46.8816C58.0123 47.0177 57.5137 47.3585 57.1794 47.8393C57.1794 47.8393 53.9413 45.2518 51.6542 46.5674C51.6633 46.5674 42.6663 46.6755 46.4544 53.7756Z" fill="#000001"/>
<path id="Vector_56" d="M46.5131 55.6547C46.1993 55.2857 45.9491 54.8667 45.7729 54.415C45.589 53.9618 45.462 53.4874 45.3948 53.0028C45.2547 51.995 45.3836 50.968 45.7683 50.0266C46.1613 49.0796 46.8137 48.2638 47.6498 47.6737C48.4438 47.1039 49.3783 46.7634 50.3516 46.6893C49.7012 47.2979 49.0824 47.9397 48.4977 48.6121C47.9815 49.2226 47.5604 49.9081 47.2487 50.6453C46.9464 51.3938 46.7459 52.1798 46.6529 52.9821C46.5506 53.8691 46.5039 54.7618 46.5131 55.6547Z" fill="#FF7550"/>
<path id="Vector_57" d="M49.5337 59.36C49.5702 59.5002 49.5702 59.6475 49.5337 59.7878C49.5074 59.917 49.4667 60.0427 49.4122 60.1627C49.31 60.4062 49.1532 60.6226 48.9539 60.7952C48.8502 60.8841 48.7164 60.9294 48.5803 60.9217C48.4502 60.9214 48.3223 60.8873 48.2091 60.8228C48.0018 60.6723 47.8541 60.4532 47.792 60.2041C47.8651 60.4431 48.0201 60.6485 48.2297 60.7837C48.3386 60.8371 48.4593 60.8616 48.5803 60.855C48.6384 60.8546 48.6957 60.8423 48.7489 60.819C48.8021 60.7957 48.85 60.7618 48.8897 60.7193C49.057 60.5449 49.1817 60.3339 49.2541 60.1029C49.3408 59.8931 49.3585 59.661 49.3045 59.4405L49.5337 59.36Z" fill="#000001"/>
<path id="Vector_58" d="M57.1306 61.4576C56.2881 61.2315 55.4619 60.948 54.6579 60.6089C54.6579 60.6089 54.5066 61.8371 55.4829 62.1844C56.4591 62.5317 57.1306 61.4576 57.1306 61.4576Z" fill="#BE593E"/>
<path id="Vector_59" d="M56.5689 55.818C56.6721 56.278 56.7614 56.738 56.8875 57.1819C56.9444 57.3902 57.026 57.591 57.1304 57.7799C57.1739 57.8581 57.2541 57.9662 57.316 58.0628C57.3779 58.1594 57.4466 58.2675 57.5085 58.3779C57.652 58.6163 57.7251 58.8907 57.7194 59.1691C57.7046 59.3375 57.6288 59.4947 57.5062 59.6107C57.3965 59.7102 57.2631 59.7799 57.1189 59.8131C56.6341 59.9068 56.1333 59.8719 55.666 59.7119C56.1199 59.6908 56.5694 59.6136 57.0043 59.4819C57.0862 59.4483 57.1603 59.3982 57.2221 59.3347C57.2672 59.2836 57.2903 59.2166 57.2862 59.1484C57.2679 58.9556 57.2052 58.7698 57.1029 58.6056C57.0525 58.509 56.9952 58.4124 56.9356 58.3158C56.876 58.2192 56.8141 58.1318 56.75 57.9984C56.6413 57.7674 56.5701 57.5205 56.5391 57.267C56.4711 56.7855 56.4812 56.2962 56.5689 55.818Z" fill="#D17C65"/>
<path id="Vector_60" d="M55.1462 54.875C54.6895 54.9482 54.2384 55.0535 53.7964 55.1901C53.583 55.2567 53.3753 55.3405 53.1753 55.4408C52.9668 55.5374 52.7812 55.6708 52.5635 55.7904C52.6693 55.5641 52.8263 55.3657 53.0218 55.2108C53.2183 55.0525 53.442 54.9317 53.6818 54.8543C53.9198 54.7786 54.1678 54.7398 54.4174 54.7393C54.667 54.7343 54.915 54.7804 55.1462 54.875ZM57.4814 54.4288C57.6826 54.3445 57.8963 54.294 58.1139 54.2793C58.1529 54.392 58.1918 54.5093 58.2285 54.6243C58.0047 54.6282 57.7817 54.6505 57.5616 54.691C57.3324 54.7255 57.1216 54.7968 56.8741 54.8543C57.0399 54.666 57.2481 54.5201 57.4814 54.4288ZM58.0176 57.5568C57.9723 57.5661 57.9256 57.5663 57.8802 57.5573C57.8348 57.5484 57.7916 57.5304 57.7532 57.5045C57.7148 57.4786 57.682 57.4453 57.6565 57.4064C57.6311 57.3676 57.6136 57.3242 57.6051 57.2785L57.4081 56.2688C57.3971 56.2227 57.3955 56.1748 57.4034 56.1281C57.4113 56.0813 57.4285 56.0366 57.454 55.9967C57.4796 55.9568 57.5129 55.9225 57.5519 55.8959C57.591 55.8692 57.635 55.8508 57.6814 55.8416C57.7278 55.8325 57.7755 55.8328 57.8217 55.8426C57.8679 55.8525 57.9117 55.8716 57.9504 55.8988C57.989 55.926 58.0218 55.9608 58.0468 56.0011C58.0717 56.0413 58.0883 56.0862 58.0956 56.1331L58.2926 57.1451C58.3102 57.2362 58.2911 57.3307 58.2396 57.4078C58.1881 57.4849 58.1083 57.5385 58.0176 57.5568ZM54.4839 57.7753C54.4386 57.784 54.392 57.7836 54.3469 57.7741C54.3017 57.7647 54.2589 57.7465 54.2208 57.7204C54.1827 57.6943 54.1501 57.661 54.1248 57.6223C54.0996 57.5835 54.0822 57.5402 54.0737 57.4947L53.8766 56.485C53.8656 56.4389 53.864 56.391 53.8719 56.3443C53.8798 56.2975 53.897 56.2528 53.9226 56.2129C53.9481 56.173 53.9814 56.1387 54.0205 56.1121C54.0595 56.0854 54.1036 56.067 54.1499 56.0578C54.1963 56.0487 54.244 56.049 54.2902 56.0588C54.3365 56.0687 54.3802 56.0878 54.4189 56.115C54.4576 56.1422 54.4904 56.177 54.5153 56.2173C54.5403 56.2575 54.5569 56.3024 54.5641 56.3493L54.7589 57.3613C54.7771 57.4528 54.7584 57.5478 54.7068 57.6254C54.6552 57.7031 54.575 57.757 54.4839 57.7753Z" fill="#000001"/>
<path id="Vector_61" d="M54.7679 60.2409C54.8192 60.3464 54.8368 60.4653 54.8183 60.5813C54.803 60.6952 54.7615 60.8039 54.6968 60.8987C54.6313 60.9987 54.5393 61.0784 54.431 61.1287C54.3242 61.1837 54.2005 61.1961 54.085 61.1632C54.156 61.0597 54.2179 60.9907 54.2683 60.9148L54.4127 60.7055C54.5202 60.5426 54.6389 60.3873 54.7679 60.2409Z" fill="#D17C65"/>
</g>
<g id="Patient/Torso">
<path id="Vector_62" d="M87.1767 94.7254C86.6221 94.7254 86.8994 94.1366 86.8994 94.1366C93.2931 93.9963 92.1198 93.2005 92.0144 92.8187C91.909 92.4369 87.2019 92.5749 85.985 92.5749C84.7681 92.5749 84.3809 92.2483 84.3809 92.2483C86.9383 90.0127 85.8315 89.6263 85.2104 89.6263C84.7888 89.6263 82.779 91.3145 81.5277 92.4047C81.2039 92.6872 80.823 92.8961 80.4113 93.0171C79.9996 93.1382 79.5666 93.1686 79.1421 93.1062L67.8373 91.4686C67.556 91.427 67.291 91.3103 67.07 91.1307C66.8491 90.951 66.6803 90.715 66.5815 90.4474L65.3646 87.1423C65.2981 86.9629 64.7252 85.3851 62.5642 79.2211C60.2542 72.627 59.1817 69.2759 57.589 68.9079C56.6723 68.694 57.1742 73.0755 54.1629 74.6993C51.94 75.8976 45.8717 74.4509 45.8717 74.4509L46.2086 67.5808C39.8606 68.6733 37.2573 72.5603 37.2573 72.5603C37.2573 72.5603 27.8615 86.9767 27.2015 88.9616C25.139 95.1854 24.8067 108.845 24.754 112.422C24.7477 112.849 24.6916 113.275 24.5867 113.689L23.67 117.73C22.4233 121.366 22.2446 121.458 22.5677 122.314C22.8908 123.17 23.8969 120.039 24.1536 119.324C24.4102 118.609 24.644 118.731 24.644 118.731C23.8236 125.84 24.4011 124.973 24.8136 125.003C25.2261 125.033 25.6981 120.053 25.7806 119.851C25.8631 119.648 26.2917 119.989 26.2917 119.989C26.0808 124.182 25.8929 124.936 26.5483 125.509C27.2038 126.081 27.52 120.812 27.5567 120.258C27.5933 119.703 28.1617 120.028 28.1617 120.028C27.8729 126.44 28.7438 125.318 29.1288 125.237C29.5138 125.157 29.6925 120.442 29.7727 119.216C29.8529 117.99 30.2058 117.627 30.2058 117.627C32.2683 120.336 32.7267 119.255 32.7565 118.632C32.7886 118.172 30.8681 115.628 29.8988 114.379C29.7288 114.16 29.6099 113.905 29.5508 113.633C29.4917 113.362 29.4939 113.081 29.5573 112.81L34.1658 93.1131C34.3153 92.4785 34.5619 91.871 34.8969 91.3122L37.9609 86.1993L40.8713 81.3486L56.9725 85.7784C57.6669 89.2606 58.9938 94.5506 60.8981 96.5332C64.0354 99.8038 76.6671 98.7228 80.0427 98.2444C80.5945 98.1685 81.1545 98.1755 81.7042 98.2651L84.9377 98.7849C88.6365 99.79 88.7396 99.9648 89.5692 99.583C90.3988 99.2012 87.2202 98.4031 86.4938 98.203C85.7673 98.0029 85.8704 97.743 85.8704 97.743C92.9929 98.088 92.0923 97.5682 92.0923 97.1519C92.0923 96.7356 87.1148 96.5976 86.9086 96.5286C86.7023 96.4596 87.0117 96.0065 87.0117 96.0065C91.194 95.9375 91.9548 96.0778 92.4727 95.3832C92.9906 94.6886 87.729 94.7254 87.1767 94.7254Z" fill="#FFCABC"/>
<path id="Vector_63" d="M92.0834 97.1536C92.0834 96.7373 87.1059 96.5993 86.8997 96.5303C86.6934 96.4613 87.0028 96.0082 87.0028 96.0082C90.1951 95.9553 91.3936 96.0243 92.0124 95.7506C90.493 95.2791 87.6399 95.8357 82.6922 96.3578C73.7042 97.3031 71.078 96.7304 70.0422 96.4682C67.1936 95.7483 63.5361 95.424 62.7822 92.6042C59.7549 81.2813 57.6786 80.4418 57.752 76.4306L56.377 82.5141C56.377 82.5141 57.9582 93.469 60.8984 96.5326C64.0334 99.8009 76.6422 98.7245 80.0315 98.2461C80.587 98.1682 81.1509 98.1744 81.7045 98.2645L84.938 98.7843C88.6367 99.7917 88.7399 99.9642 89.5695 99.5824C90.399 99.2006 87.2205 98.4025 86.494 98.2024C85.7676 98.0023 85.8707 97.7424 85.8707 97.7424C92.984 98.0897 92.0834 97.5699 92.0834 97.1536Z" fill="#D17C65"/>
<path id="Vector_64" d="M84.3761 92.25C84.3761 92.25 84.2202 96.0979 80.6934 95.838" stroke="#100B2F" stroke-width="2" stroke-miterlimit="10"/>
<path id="Vector_65" d="M78.8232 93.0596V98.161" stroke="#100B2F" stroke-width="6" stroke-linecap="round" stroke-linejoin="round"/>
<path id="Vector_66" d="M55.2446 68.2495C55.2446 68.2495 58.2238 68.4335 59.0671 69.71C59.8165 70.8324 62.6788 78.5765 64.6267 83.9861C65.949 87.6661 66.5517 89.145 66.8015 89.72C66.843 89.8175 66.8497 89.9263 66.8205 90.0281C66.7913 90.13 66.7279 90.2186 66.6411 90.2789C65.4448 91.1023 61.1801 94.0049 59.6378 94.5914C59.5336 94.63 59.4191 94.6293 59.3154 94.5896C59.2118 94.5498 59.126 94.4736 59.074 94.3752C58.0359 92.4064 52.6298 81.8954 53.9246 78.7973C55.3546 75.3749 55.2446 68.2495 55.2446 68.2495Z" fill="#EF613B"/>
<path id="Vector_67" d="M62.8415 92.7974C62.0546 92.4258 61.3579 91.8866 60.7996 91.2173C60.6318 91.0123 60.4786 90.7955 60.3413 90.5687C59.9973 89.9764 59.7811 89.3183 59.7065 88.6368C59.6318 87.9554 59.7006 87.2658 59.9082 86.6127C60.1971 85.6726 60.3416 84.6939 60.3367 83.7101C60.3184 81.0421 59.1726 79.6874 58.2742 75.7061C57.9728 74.3779 57.7607 73.0309 57.6394 71.6742C57.4103 74.4204 56.9703 79.9105 56.968 79.9151L56.3813 82.5141C56.3813 82.5141 56.3974 83.0592 56.473 83.9447C55.8237 89.7714 55.8374 92.766 56.5142 92.9285C56.8236 93.0021 57.2017 92.7675 57.793 91.6451C58.1201 92.5991 58.5496 93.5145 59.074 94.3752C59.1265 94.4707 59.211 94.5445 59.3126 94.5832C59.4142 94.622 59.5262 94.6233 59.6286 94.5868C60.4948 94.2763 61.7346 93.4943 62.8415 92.7974Z" fill="#C84928"/>
<path id="Vector_68" d="M58.6364 97.5216C56.6747 86.1665 58.9091 89.5682 58.9091 82.0288C58.9091 79.6207 55.8497 74.0202 56.017 73.0427L56.7228 68.9234C56.736 68.8397 56.7222 68.754 56.6835 68.6787C56.6447 68.6034 56.5831 68.5425 56.5074 68.5048C56.5074 68.5048 55.0591 68.0724 55.0155 68.33L54.5962 70.745C54.4229 71.7352 53.8993 72.6294 53.1217 73.2632C52.3441 73.897 51.3647 74.2279 50.3635 74.195H50.2512C49.1776 74.16 48.1591 73.7095 47.409 72.9378C46.6589 72.1661 46.2353 71.1331 46.227 70.055L46.2041 67.571C44.6916 67.571 41.9599 68.054 39.2672 70.0113C36.1483 72.2814 29.2366 84.1862 26.9793 87.9858C26.9366 88.0584 26.9094 88.1392 26.8996 88.2229C26.8898 88.3067 26.8976 88.3916 26.9224 88.4722C26.9472 88.5527 26.9885 88.6272 27.0437 88.6908C27.0989 88.7544 27.1667 88.8057 27.2428 88.8414L34.4158 92.25L39.737 83.2041L36.6753 97.9655C36.6628 98.0267 36.6639 98.0899 36.6787 98.1505C36.6934 98.2112 36.7215 98.2678 36.7608 98.3163C36.8 98.3647 36.8495 98.4038 36.9057 98.4306C36.9619 98.4575 37.0233 98.4714 37.0856 98.4715L58.9183 98.4117C58.6272 97.7355 58.6478 97.5883 58.6364 97.5216Z" fill="#EF613B"/>
<path id="Vector_69" d="M42.4369 78.6984L41.3254 77.1229C39.8152 79.048 37.0217 81.5941 34.5742 85.1913C32.6652 87.9927 31.43 90.847 30.8823 92.0522C29.379 95.355 29.6838 97.0409 28.6823 105.19C28.0796 110.084 27.7794 112.529 27.4631 113.81C27.4631 113.81 25.1967 122.976 26.3036 125.246C26.355 125.351 26.4342 125.44 26.5327 125.503C27.1881 126.069 27.5044 120.807 27.5411 120.253C27.5777 119.698 28.1461 120.023 28.1461 120.023C27.8573 126.435 28.7281 125.313 29.1154 125.232C29.5027 125.152 29.6746 120.457 29.7571 119.22C29.8396 117.994 30.1902 117.631 30.1902 117.631C32.2527 120.34 32.7111 119.259 32.7409 118.636C32.7729 118.176 30.8525 115.632 29.8831 114.383C29.7133 114.164 29.5945 113.91 29.5355 113.639C29.4764 113.368 29.4785 113.087 29.5417 112.817L34.1502 93.1171C34.2996 92.4825 34.5463 91.8749 34.8813 91.3162L42.4369 78.6984Z" fill="#D17C65"/>
<path id="Vector_70" d="M41.3254 77.1229C39.8152 79.048 37.0217 81.5941 34.5742 85.1913C33.3772 86.9844 32.3272 88.872 31.4346 90.8355L34.4137 92.2477C34.5396 91.9216 34.6929 91.6069 34.8721 91.307L39.8037 83.0822L42.4277 78.7122L41.3254 77.1229Z" fill="#C84928"/>
<path id="Vector_71" d="M58.6364 97.5216C57.2889 97.0455 53.7873 97.0271 48.4821 95.3504C43.5023 93.7749 42.5008 92.4984 42.0471 91.583C41.4512 90.3801 41.4054 89.0001 41.5314 87.8179C41.5617 87.5339 41.6493 87.2591 41.789 87.0102C41.9286 86.7613 42.1173 86.5436 42.3435 86.3703C42.5698 86.197 42.8289 86.0719 43.1049 86.0024C43.381 85.933 43.6682 85.9207 43.9492 85.9664C47.185 86.4954 53.5742 87.0842 56.9681 84.3242C56.9681 84.3242 50.6889 84.1356 46.7564 82.7924C46.0119 82.5304 45.3593 82.0571 44.8776 81.43C44.3959 80.8029 44.106 80.0489 44.0431 79.2596C43.8666 77.3989 42.5077 76.0626 42.2098 75.9545C41.3098 76.881 40.7223 78.0676 40.53 79.347L39.8425 82.705C39.8425 82.705 37.1521 95.3159 36.7006 97.9425C36.6855 98.0046 36.6845 98.0692 36.6976 98.1318C36.7107 98.1943 36.7375 98.2531 36.7762 98.3038C36.8149 98.3546 36.8644 98.396 36.9211 98.425C36.9778 98.454 37.0403 98.4699 37.1039 98.4715L58.9206 98.4117C58.7886 98.1283 58.6931 97.8292 58.6364 97.5216Z" fill="#C84928"/>
</g>
<g id="Group_9">
<path id="Vector_72" d="M138.074 146.208C138.262 145.24 137.35 144.317 137.194 144.166C136.202 143.197 135.203 143.671 132.574 142.951C131.199 142.572 130.381 142.349 129.494 141.682C128.005 140.557 128.149 139.559 126.854 138.977C126.231 138.694 125.392 138.77 123.719 138.922C121.721 139.101 120.701 139.207 119.649 139.915C119.01 140.355 118.465 140.918 118.045 141.571C117.358 142.576 117.291 143.278 116.835 144.561C116.411 145.669 115.895 146.74 115.295 147.763C113.677 150.555 110.583 151.85 109.795 152.179C104.719 154.299 98.6828 152.639 95.2751 151.682C93.6251 151.222 92.0919 150.663 89.9401 150.964C89.0234 151.091 86.2528 151.477 84.6692 153.78C83.7915 155.047 83.198 157 83.5692 158.803C83.7503 159.674 84.0849 160.139 84.0092 161.176C83.924 162.079 83.6221 162.947 83.1292 163.706C82.5609 164.553 82.1965 164.539 81.9834 165.142C81.6946 165.924 82.0315 166.696 82.4784 167.672C84.6211 172.384 84.9992 172.658 85.4576 172.805C86.4819 173.139 87.8249 173.01 88.1526 172.364C88.3817 171.924 88.0792 171.363 87.8226 170.873C87.0365 169.371 86.0351 169.369 85.5126 168.113C85.4576 167.977 84.9534 166.733 85.5126 166.071C86.1107 165.367 87.6782 165.611 88.5926 166.347C89.1311 166.772 89.1907 167.161 89.6926 168.168C90.3984 169.578 91.2257 171.237 92.7176 172.032C93.5563 172.479 94.9542 172.837 95.5776 172.198C95.7507 172.007 95.8646 171.77 95.9053 171.515C95.946 171.26 95.9118 170.998 95.8067 170.763C95.5386 170.243 94.9703 170.335 94.3217 169.935C93.224 169.256 92.5434 167.57 93.0017 166.623C93.3684 165.866 94.1682 166.181 95.1467 165.188C96.0749 164.247 95.8342 163.486 96.4667 163.09C97.459 162.471 98.7584 163.888 100.867 164.7C105.06 166.296 107.863 163.718 109.777 165.638C110.345 166.206 110.652 167.067 111.262 168.785C111.949 170.724 111.871 171.575 112.692 172.152C113.095 172.435 113.858 172.469 115.387 172.538C116.414 172.606 117.446 172.569 118.467 172.428C119.461 172.269 120.758 172.062 120.832 171.545C120.896 171.138 120.169 170.894 119.512 170.275C118.082 168.927 117.591 166.379 118.247 164.7C118.934 162.95 120.369 163.398 121.712 161.443C122.66 160.063 122.239 159.408 122.977 155.758C123.726 152.055 124.123 150.187 125.562 149.299C126.726 148.579 127.354 149.237 130.237 149.134C133.175 149.025 137.701 148.14 138.074 146.208Z" fill="#A04A33"/>
<path id="Vector_73" d="M125.019 140.55C124.991 139.469 126.47 139.432 127.886 139.825C128.28 140.354 128.573 140.999 129.49 141.691C129.848 141.961 130.24 142.186 130.654 142.358C130.606 143.121 130.125 143.903 129.586 144.527C128.67 145.587 127.249 147.222 125.986 146.137C124.723 145.051 125.056 141.942 125.019 140.55ZM111.063 160.284C111.108 160.739 111.102 161.197 111.044 161.65C110.993 162.105 110.9 162.555 110.767 162.993C110.637 163.438 110.451 163.864 110.212 164.261C109.983 164.668 109.657 165.011 109.264 165.261C109.517 164.898 109.728 164.508 109.894 164.097C110.066 163.697 110.196 163.279 110.329 162.86C110.462 162.441 110.577 162.014 110.694 161.584C110.811 161.153 110.934 160.721 111.063 160.284ZM95.7796 160.063C95.3923 160.224 95.005 160.385 94.6337 160.567C94.4492 160.654 94.2694 160.751 94.0952 160.857C93.9334 160.939 93.7954 161.062 93.6941 161.213C93.6185 161.363 93.5475 161.577 93.465 161.768C93.3825 161.958 93.3114 162.161 93.2358 162.359C93.0666 162.754 92.8713 163.139 92.6514 163.509C92.546 163.697 92.4108 163.867 92.2916 164.047C92.1725 164.226 92.0258 164.387 91.886 164.55C91.5944 164.869 91.2711 165.158 90.9212 165.411C90.224 165.91 89.4191 166.236 88.5723 166.363C89.3448 166.07 90.064 165.652 90.7012 165.125C91.3209 164.598 91.8483 163.971 92.2619 163.269C92.4759 162.92 92.6688 162.559 92.8394 162.186C92.9287 162 93.0158 161.811 93.0983 161.62C93.183 161.414 93.2818 161.213 93.3939 161.02C93.4621 160.914 93.5529 160.824 93.6598 160.758C93.7524 160.695 93.8497 160.64 93.9508 160.592C94.1461 160.503 94.3466 160.426 94.5512 160.362C94.9524 160.231 95.3631 160.131 95.7796 160.063Z" fill="#392C84"/>
<path id="Vector_74" d="M96.4397 163.09C95.7952 163.172 95.1459 163.209 94.4963 163.2H93.5384H92.5645C92.8515 163.022 93.1695 162.9 93.5017 162.839C93.8284 162.773 94.1608 162.74 94.494 162.74C94.8242 162.74 95.1539 162.768 95.4795 162.823C95.8094 162.872 96.1319 162.961 96.4397 163.09ZM115.188 162.382C115.281 163.294 115.285 164.213 115.199 165.125C115.18 165.359 115.139 165.59 115.078 165.815C115.011 166.045 114.949 166.241 114.906 166.46C114.81 166.881 114.778 167.314 114.81 167.745C114.838 168.171 114.948 168.587 115.133 168.971C115.337 169.36 115.579 169.727 115.855 170.068C116.15 170.421 116.416 170.798 116.65 171.195C116.758 171.405 116.838 171.627 116.89 171.858C116.936 172.085 116.955 172.316 116.948 172.548C116.877 172.105 116.709 171.685 116.457 171.315C116.185 170.96 115.892 170.621 115.58 170.3C115.258 169.958 114.978 169.578 114.745 169.169C114.525 168.739 114.392 168.27 114.354 167.789C114.323 167.311 114.367 166.832 114.484 166.367C114.539 166.137 114.626 165.907 114.695 165.705C114.759 165.498 114.81 165.286 114.849 165.073C115.009 164.194 115.092 163.288 115.188 162.382Z" fill="#392C84"/>
<path id="Vector_75" d="M118.219 164.7C117.642 164.93 117.073 165.086 116.523 165.261C116.246 165.351 115.969 165.431 115.696 165.528C115.423 165.625 115.155 165.733 114.864 165.859C115.036 165.593 115.267 165.369 115.538 165.206C115.804 165.041 116.089 164.912 116.388 164.822C116.687 164.731 116.994 164.674 117.305 164.652C117.61 164.623 117.918 164.639 118.219 164.7ZM130.209 149.134C129.862 148.974 129.525 148.795 129.199 148.595C128.873 148.402 128.557 148.202 128.243 148.004L127.785 147.712C127.644 147.621 127.494 147.544 127.338 147.482C126.962 147.415 126.592 147.319 126.231 147.195C126.61 147.141 126.994 147.118 127.377 147.126L127.551 147.156L127.7 147.204C127.801 147.238 127.888 147.28 127.982 147.321C128.156 147.407 128.326 147.502 128.49 147.606C128.813 147.813 129.119 148.044 129.407 148.296C129.702 148.548 129.97 148.828 130.209 149.134Z" fill="#392C84"/>
<path id="Vector_76" d="M126.937 144.538H126.916C126.871 144.536 126.827 144.525 126.787 144.505C126.746 144.485 126.71 144.458 126.68 144.424C126.65 144.39 126.627 144.351 126.613 144.308C126.598 144.265 126.592 144.22 126.596 144.175L126.733 141.856C126.736 141.811 126.747 141.767 126.767 141.726C126.787 141.685 126.814 141.649 126.848 141.619C126.882 141.588 126.922 141.565 126.964 141.55C127.007 141.536 127.052 141.529 127.097 141.532C127.143 141.535 127.187 141.546 127.227 141.566C127.268 141.586 127.304 141.614 127.334 141.648C127.364 141.682 127.387 141.721 127.402 141.764C127.417 141.807 127.423 141.853 127.421 141.898L127.283 144.216C127.277 144.304 127.237 144.386 127.173 144.446C127.109 144.505 127.025 144.538 126.937 144.538ZM136.072 144.856L136.383 143.706H136.486C136.75 143.81 136.991 143.967 137.194 144.166C137.35 144.317 138.262 145.24 138.074 146.208C138.057 146.287 138.033 146.364 138.001 146.438H137.286C137.094 146.438 136.904 146.393 136.732 146.308C136.56 146.222 136.409 146.099 136.292 145.946C136.175 145.793 136.094 145.615 136.056 145.426C136.017 145.237 136.023 145.042 136.072 144.856Z" fill="#100B2F"/>
<path id="Vector_77" d="M80.9297 155.889C82.5797 154.2 86.542 152.05 86.542 152.05C85.801 152.48 85.1621 153.067 84.6697 153.77C84.0023 154.761 83.594 155.905 83.4826 157.096C82.4777 157.844 81.4225 158.522 80.3247 159.125C72.5147 163.495 67.1797 161.222 67.1797 161.222C73.8897 161.057 79.2797 157.57 80.9297 155.889ZM98.7153 157.745C97.5695 156.475 101.007 154.695 102.675 154.695C104.344 154.695 104.765 156.342 104.765 157.745C104.765 159.148 104.765 161.319 103.088 161.319C101.41 161.319 99.6572 158.78 98.7153 157.745ZM117.949 166.74C118.039 168.046 118.566 169.408 119.485 170.275C120.142 170.894 120.86 171.138 120.805 171.545C120.727 172.039 119.553 172.249 118.582 172.405C117.436 171.593 116.37 170.13 115.71 169.415C114.885 168.5 116.405 167.333 117.949 166.74Z" fill="#392C84"/>
<path id="Vector_78" d="M86.0996 152.335C87.58 151.286 89.2759 151.05 89.9496 150.955C90.3255 150.902 90.7044 150.874 91.084 150.87C91.084 150.944 91.084 151.017 91.084 151.1C91.084 152.501 91.084 154.674 89.4065 154.674C88.2492 154.663 87.0438 153.43 86.0996 152.335Z" fill="#392C84"/>
<path id="Vector_79" d="M115.765 146.68C115.743 146.683 115.721 146.683 115.699 146.68C115.469 146.611 109.969 144.84 107.494 134.72C106.106 129.048 99.2788 122.357 93.2563 116.453C88.5195 111.807 84.4266 107.796 83.4022 104.842C81.0807 98.0989 85.483 91.4634 85.5288 91.3967C85.5445 91.3692 85.5657 91.3453 85.5911 91.3264C85.6164 91.3075 85.6453 91.2941 85.6761 91.2869C85.7068 91.2798 85.7387 91.2791 85.7698 91.2849C85.8008 91.2908 85.8303 91.3029 85.8564 91.3207C85.8825 91.3385 85.9047 91.3615 85.9215 91.3883C85.9384 91.4151 85.9495 91.4451 85.9542 91.4764C85.959 91.5078 85.9572 91.5397 85.9491 91.5703C85.941 91.6009 85.9266 91.6295 85.907 91.6543C85.8634 91.7187 81.5895 98.1702 83.8445 104.693C84.8253 107.543 89.0763 111.71 93.5772 116.124C99.6432 122.069 106.518 128.811 107.939 134.609C110.35 144.446 115.777 146.215 115.832 146.231C115.892 146.24 115.947 146.273 115.984 146.322C116.021 146.371 116.036 146.433 116.027 146.494C116.019 146.555 115.986 146.61 115.937 146.647C115.888 146.684 115.826 146.7 115.765 146.691V146.68Z" fill="#100B2F"/>
<path id="Vector_80" d="M123.316 154.221C123.293 154.221 123.27 154.217 123.248 154.21C115.506 151.765 115.536 146.496 115.536 146.445C115.536 146.384 115.56 146.325 115.603 146.282C115.646 146.239 115.705 146.215 115.765 146.215C115.826 146.215 115.884 146.239 115.927 146.282C115.97 146.325 115.994 146.384 115.994 146.445C115.994 146.509 115.994 151.431 123.385 153.761C123.446 153.77 123.501 153.803 123.537 153.853C123.574 153.903 123.589 153.965 123.58 154.026C123.571 154.087 123.538 154.142 123.488 154.178C123.439 154.215 123.377 154.23 123.316 154.221Z" fill="#100B2F"/>
<path id="Vector_81" d="M123.307 143.696C123.307 143.696 123.664 148.858 119.64 151.148C118.774 151.643 117.688 151.273 117.853 149.575L118.513 143.696" fill="#392C84"/>
<path id="Vector_82" d="M124.344 156.841C124.709 156.753 124.832 155.96 124.619 155.071C124.406 154.182 123.936 153.533 123.571 153.621C123.205 153.709 123.082 154.502 123.295 155.391C123.509 156.28 123.978 156.929 124.344 156.841Z" fill="#FE6840"/>
</g>
<g id="Doctor/Bottom">
<path id="Vector_83" d="M136.481 170.084C138.975 168.166 145.327 166.174 146.918 162.607C147.777 163.69 152.583 163.384 154.407 163.297C154.407 163.297 155.005 166.275 154.865 168.357C154.725 170.438 154.604 171.062 154.604 171.062L151.219 171.188L151.304 170.294C151.304 170.294 149.335 170.206 148.183 171.2C147.03 172.193 143.883 173.348 140.65 172.888C137.416 172.428 133.979 172.002 136.481 170.084Z" fill="#22137C"/>
<path id="Vector_84" d="M140.65 172.888C143.883 173.348 147.028 172.198 148.18 171.2C149.333 170.202 151.302 170.296 151.302 170.296L151.217 171.191L154.602 171.062C154.602 171.062 154.707 170.468 154.856 168.378C154.904 167.269 154.848 166.157 154.689 165.059C154.556 164.051 154.407 163.306 154.407 163.306C152.573 163.384 147.933 163.663 146.92 162.616C146.432 163.207 145.506 163.766 144.954 164.344C144.78 164.532 144.594 164.716 144.404 164.893C144.213 165.07 144.078 165.176 143.913 165.314C143.7 165.491 143.482 165.666 143.253 165.836C140.962 167.552 138.072 168.875 136.484 170.094C133.979 172.003 137.416 172.43 140.65 172.888Z" fill="#4225EF"/>
<path id="Vector_85" d="M154.407 163.306C154.407 163.306 155.005 166.285 154.865 168.366C154.829 168.856 154.797 169.261 154.767 169.597C153.575 169.629 152.182 169.535 152.73 168.856C153.646 167.731 153.662 163.32 153.662 163.32C153.942 163.32 154.199 163.32 154.407 163.306ZM135.971 170.544C136.127 170.376 136.298 170.222 136.482 170.084C137.531 169.277 139.149 168.426 140.788 167.444C142.094 167.816 143.256 168.578 144.12 169.629C144.874 170.579 144.936 172.134 145.14 172.389C144.303 173.27 135.803 172.228 135.641 171.352C135.641 171.352 135.641 171.331 135.641 171.322C135.657 171.032 135.774 170.757 135.971 170.544Z" fill="#F3E6E3"/>
<path id="Vector_86" d="M140.647 172.888C138.053 172.52 135.333 172.17 135.651 171.048C143.61 173.863 147.153 170.846 147.839 169.898C148.524 168.95 149.977 168.999 149.977 168.999C152.619 169.229 154.113 168.481 154.876 167.879C154.876 168.042 154.865 168.205 154.856 168.362C154.704 170.452 154.601 171.046 154.601 171.046L151.216 171.172L151.301 170.278C151.301 170.278 149.333 170.19 148.18 171.184C147.027 172.177 143.881 173.348 140.647 172.888ZM144.403 164.884C144.548 165.008 144.701 165.126 144.862 165.238C145.069 165.393 145.288 165.531 145.517 165.65C145.764 165.79 146.031 165.893 146.308 165.956C146.235 165.664 146.104 165.39 145.923 165.151C145.755 164.922 145.554 164.721 145.325 164.555C145.209 164.47 145.087 164.393 144.96 164.325C144.779 164.523 144.594 164.7 144.403 164.884ZM143.253 165.827C143.358 165.91 143.464 165.99 143.571 166.069C143.781 166.22 144 166.357 144.227 166.48C144.474 166.62 144.741 166.723 145.018 166.786C144.946 166.494 144.815 166.22 144.633 165.981C144.465 165.753 144.263 165.552 144.034 165.385C143.996 165.356 143.955 165.329 143.913 165.305C143.7 165.482 143.482 165.657 143.253 165.827Z" fill="#22137C"/>
<path id="Vector_87" d="M150.726 170.059C153.219 168.141 159.251 166.63 160.841 163.069C161.701 164.153 166.548 163.147 168.372 163.069C168.372 163.069 169.249 166.262 169.101 168.359C168.952 170.457 168.846 171.043 168.846 171.043L165.461 171.172L165.546 170.277C165.546 170.277 163.578 170.19 162.425 171.184C161.272 172.177 158.126 173.33 154.892 172.872C151.659 172.414 148.23 171.977 150.726 170.059Z" fill="#22137C"/>
<path id="Vector_88" d="M154.895 172.865C158.129 173.325 161.273 172.175 162.426 171.177C163.578 170.179 165.547 170.271 165.547 170.271L165.462 171.165L168.847 171.036C168.847 171.036 168.952 170.445 169.101 168.352C169.177 167.306 168.948 166.052 168.817 165.061C168.72 164.387 168.571 163.722 168.372 163.072C166.539 163.147 162.082 163.394 160.844 163.072C160.224 163.38 159.666 163.801 159.199 164.314C159.025 164.502 158.839 164.684 158.649 164.863C158.486 165.006 158.326 165.144 158.158 165.284C157.945 165.459 157.728 165.636 157.498 165.806C155.207 167.522 152.317 168.842 150.729 170.061C148.233 171.977 151.662 172.405 154.895 172.865Z" fill="#4225EF"/>
<path id="Vector_89" d="M168.373 163.069C168.373 163.069 169.25 166.262 169.101 168.359C169.065 168.849 169.033 169.254 169.003 169.592C167.811 169.622 166.418 169.528 166.966 168.849C167.873 167.718 167.896 163.32 167.896 163.32C168.187 163.299 168.164 163.09 168.373 163.069ZM150.216 170.519C150.372 170.351 150.543 170.197 150.727 170.059C151.776 169.252 153.394 168.401 155.033 167.421C156.34 167.79 157.502 168.552 158.365 169.604C159.119 170.556 159.181 172.111 159.385 172.364C158.548 173.244 150.048 172.205 149.886 171.326C149.886 171.326 149.886 171.306 149.886 171.296C149.903 171.007 150.019 170.732 150.216 170.519Z" fill="#F3E6E3"/>
<path id="Vector_90" d="M154.892 172.865C152.298 172.495 149.578 172.147 149.897 171.025C157.856 173.838 161.398 170.82 162.084 169.875C162.769 168.93 164.222 168.976 164.222 168.976C166.864 169.206 168.347 168.458 169.121 167.856C169.121 168.021 169.121 168.182 169.101 168.339C168.95 170.432 168.846 171.023 168.846 171.023L165.462 171.151L165.546 170.257C165.546 170.257 163.578 170.169 162.425 171.163C161.272 172.157 158.126 173.323 154.892 172.865ZM158.648 164.861C158.793 164.983 158.946 165.091 159.107 165.213C159.314 165.368 159.533 165.506 159.762 165.627C160.01 165.765 160.276 165.868 160.553 165.93C160.48 165.639 160.349 165.365 160.168 165.125C160.001 164.897 159.799 164.696 159.57 164.53C159.455 164.443 159.333 164.367 159.205 164.3C159.024 164.5 158.839 164.682 158.648 164.861ZM157.498 165.804C157.603 165.884 157.709 165.965 157.817 166.034C158.026 166.186 158.245 166.324 158.472 166.448C158.72 166.586 158.986 166.689 159.263 166.752C159.19 166.46 159.059 166.186 158.878 165.947C158.71 165.719 158.508 165.518 158.28 165.351C158.241 165.322 158.2 165.296 158.158 165.273C157.945 165.457 157.727 165.634 157.498 165.804Z" fill="#22137C"/>
<path id="Vector_91" d="M169.908 112.117C171.145 108.978 171.606 105.585 171.25 102.227C171.017 100.093 170.451 98.0096 169.573 96.0519C169.573 96.0519 153.573 98.4347 149.099 96.1876C149.099 96.1876 145.52 128.049 145.41 130.858C145.3 133.666 146.92 162.86 146.92 162.86C146.92 162.86 151.263 164.619 154.395 163.421C154.395 163.421 156.857 141.042 156.483 135.361L156.687 131.495C156.811 134.301 160.867 163.253 160.867 163.253C160.867 163.253 165.343 164.633 168.365 163.182C168.365 163.182 168.947 140.674 168.099 135.037L168.017 124.227L169.908 112.117Z" fill="#EF613B"/>
<path id="Vector_92" d="M157.042 121.099C156.446 114.199 155.209 107.582 154.806 107.625C154.496 107.658 154.806 111.092 154.918 118.965C155 125.388 154.874 129.701 154.689 135.807C154.338 147.721 153.864 149.766 153.353 151.413C152.02 155.634 149.829 159.532 146.92 162.86C148.387 163.525 150.763 164.286 153.419 163.697C153.75 163.625 154.076 163.533 154.395 163.421C154.395 163.421 156.857 141.042 156.483 135.361L157.278 124.931C157.246 123.877 157.184 122.725 157.042 121.099Z" fill="#C84928"/>
<path id="Vector_93" d="M171.251 102.237C171.017 100.103 170.451 98.0188 169.573 96.0611C169.573 96.0611 153.573 98.4439 149.099 96.1968C148.925 97.5078 161.394 97.7677 165.627 105.604C166.679 107.552 166.424 129.524 166.677 135.621C167.174 147.53 166.844 149.603 166.447 151.284C165.417 155.586 163.51 159.627 160.847 163.152V163.173C161.154 163.285 161.5 163.403 161.878 163.502C163.081 163.757 165.153 164.054 167.025 163.63C167.142 163.601 167.254 163.573 167.376 163.536C167.678 163.446 167.976 163.339 168.267 163.216L168.384 163.157C168.384 163.131 168.356 162.467 168.398 161.282C168.514 155.744 168.785 139.674 168.088 135.032L168.006 124.222L168.246 122.681V122.661L169.892 112.129C171.135 108.99 171.601 105.596 171.251 102.237Z" fill="#C84928"/>
<path id="Vector_94" d="M158.523 99.4881C162.08 99.4881 166.773 99.1983 170.304 97.9287L170.151 97.4963C164.282 99.6054 155.106 98.9683 153.591 98.8441L153.649 97.0892L153.19 97.0731L153.119 99.2627L153.332 99.2834C153.38 99.288 155.555 99.4881 158.523 99.4881Z" fill="#22137C"/>
<path id="Vector_95" d="M153.334 99.2834L153.375 98.8234C151.875 98.677 150.388 98.4179 148.927 98.0483L148.806 98.4922C150.293 98.8697 151.807 99.1341 153.334 99.2834ZM154.604 107.75L154.989 107.499C153.384 105.029 154.003 99.1753 154.01 99.1155L153.552 99.0649C153.536 99.3133 152.921 105.141 154.604 107.75ZM168.608 107.849L168.723 107.402C165.874 106.678 162.372 101.954 162.336 101.908L161.969 102.179C162.116 102.37 165.604 107.083 168.608 107.849ZM154.491 98.6716C153.607 98.6716 153.604 97.2916 154.491 97.2916C155.378 97.2916 155.378 98.6716 154.491 98.6716Z" fill="#22137C"/>
<path id="Vector_96" d="M163.961 163.32L164.42 163.299C164.42 163.104 163.533 143.648 163.045 134.034C162.394 121.322 165.212 105.463 165.242 105.305L164.784 105.224C164.754 105.383 161.926 121.292 162.579 134.057C163.083 143.664 163.952 163.118 163.961 163.32Z" fill="#22137C"/>
</g>
<g id="Doctor/Head/Male">
<g id="Doctor/Head/Male/5">
<path id="Vector_97" d="M162.128 52.69C162.128 52.69 161.555 59.659 158.808 62.6789C156.06 65.6988 158.757 52.4577 158.757 52.4577L162.128 52.69Z" fill="#222222"/>
<path id="Vector_98" d="M153.307 66.053C153.449 65.5447 152.849 64.3027 152.482 63.5874C154.969 63.9715 157.93 62.2074 159.472 59.0886C159.565 59.1395 159.666 59.1759 159.77 59.1967C159.77 59.1967 160.01 65.685 161.411 65.7655C163.049 67.1754 168.403 71.9525 167.314 74.1674C166.397 76.0258 161.457 75.0667 154.087 73.6384C153.37 73.5267 152.701 73.2069 152.164 72.7184C150.617 71.2395 151.041 68.5784 151.247 67.9781C151.54 67.1938 153.099 66.789 153.307 66.053Z" fill="#FFCABC"/>
<path id="Vector_99" d="M158.681 66.7913C159.657 64.6661 157.606 64.2153 157.606 64.2153L157.62 64.1877C156.264 65.1077 154.749 65.5056 153.387 65.2388L153.2 65.1951C153.004 64.6354 152.764 64.0923 152.482 63.5713C154.969 63.9531 157.787 62.0257 159.33 58.9069C159.367 58.9917 159.429 59.0632 159.508 59.1121C159.586 59.1609 159.677 59.1848 159.77 59.1806C159.77 59.1806 159.813 60.3858 159.978 61.7658C160.194 63.5874 160.615 65.7172 161.413 65.7632C163.634 67.6561 168.996 72.47 167.921 74.6067C166.846 76.7434 159.486 75.9867 154.089 73.6361C153.266 73.2773 152.595 72.9254 152.106 72.654C155.475 73.0266 157.813 68.698 158.681 66.7913Z" fill="#D17C65"/>
<path id="Vector_100" d="M156.33 46.848C159.172 47.4046 160.914 51.0363 160.512 55.2499H160.535C161.312 55.4017 161.771 56.3999 161.557 57.4947C161.344 58.5895 160.545 59.3347 159.77 59.1921C159.682 59.1876 159.596 59.1648 159.517 59.1252C159.438 59.0856 159.368 59.0301 159.312 58.9621C157.735 62.1545 154.838 64.0474 152.315 63.5621C149.187 62.948 148.08 59.0725 149.001 54.3276C149.923 49.5827 153.202 46.2362 156.33 46.848Z" fill="#FFCABC"/>
<path id="Vector_101" d="M160.563 56.2205C160.753 56.3523 160.897 56.5405 160.976 56.7587C161.058 56.9853 161.077 57.2306 161.028 57.4671C160.981 57.7022 160.868 57.9191 160.703 58.0927C160.624 58.1795 160.536 58.2567 160.439 58.3227C160.341 58.3791 160.238 58.4246 160.13 58.4584C160.173 58.348 160.231 58.2583 160.277 58.1663C160.322 58.0743 160.373 57.9892 160.405 57.8972C160.483 57.7339 160.542 57.5617 160.579 57.3843C160.646 56.9987 160.64 56.6041 160.563 56.2205Z" fill="#D17C65"/>
<path id="Vector_102" d="M149.59 55.68C149.681 55.6976 149.776 55.6782 149.853 55.6261C149.931 55.574 149.984 55.4933 150.002 55.4017L150.2 54.3897C150.211 54.3436 150.212 54.2957 150.204 54.249C150.196 54.2022 150.179 54.1576 150.154 54.1177C150.128 54.0778 150.095 54.0434 150.056 54.0168C150.017 53.9901 149.973 53.9717 149.926 53.9625C149.88 53.9534 149.832 53.9537 149.786 53.9635C149.74 53.9734 149.696 53.9925 149.657 54.0197C149.619 54.0469 149.586 54.0817 149.561 54.122C149.536 54.1622 149.519 54.2071 149.512 54.254L149.315 55.266C149.297 55.3574 149.316 55.4521 149.368 55.5296C149.419 55.6071 149.499 55.6611 149.59 55.68Z" fill="#222222"/>
<path id="Vector_103" d="M150.388 60.5514C150.402 60.1779 150.533 59.8184 150.761 59.5233C150.877 59.3738 151.014 59.2414 151.167 59.13C151.329 59.0181 151.509 58.9341 151.699 58.8816C152.08 58.7889 152.482 58.8203 152.844 58.9713C153.185 59.1009 153.491 59.307 153.74 59.5739C153.418 59.4582 153.087 59.3682 152.75 59.3048C152.447 59.2425 152.134 59.248 151.834 59.3209C151.541 59.416 151.271 59.5728 151.043 59.7809C150.795 60.0105 150.575 60.2692 150.388 60.5514Z" fill="#BE593E"/>
<path id="Vector_104" d="M151.039 53.9412C151.125 54.4164 151.135 54.9026 151.068 55.381C151.037 55.6345 150.966 55.8813 150.857 56.1124C150.793 56.2435 150.731 56.324 150.672 56.4275C150.612 56.531 150.555 56.6207 150.505 56.7173C150.402 56.8823 150.339 57.0689 150.321 57.2624C150.317 57.3306 150.34 57.3976 150.385 57.4487C150.447 57.5122 150.521 57.5623 150.603 57.5959C151.038 57.7275 151.488 57.8048 151.941 57.8259C151.474 57.9856 150.974 58.0212 150.488 57.9294C150.346 57.8947 150.213 57.8252 150.103 57.727C149.979 57.6122 149.902 57.4545 149.888 57.2854C149.882 57.0066 149.956 56.7318 150.101 56.4942C150.161 56.3838 150.225 56.278 150.291 56.1768C150.358 56.0756 150.434 55.9721 150.477 55.8962C150.582 55.707 150.664 55.5053 150.72 55.2959C150.846 54.8681 150.938 54.4081 151.039 53.9412Z" fill="#D17C65"/>
<path id="Vector_105" d="M155.194 53.3202C154.733 53.3084 154.273 53.2646 153.819 53.1891C153.599 53.1489 153.382 53.0927 153.17 53.0212C152.941 52.9545 152.751 52.851 152.519 52.7567C152.655 52.9671 152.838 53.1427 153.053 53.2696C153.269 53.3993 153.507 53.4888 153.754 53.5341C154 53.5781 154.251 53.5843 154.499 53.5525C154.744 53.5222 154.98 53.4432 155.194 53.3202ZM149.423 52.6118C149.386 52.7222 149.35 52.8418 149.315 52.9476H149.348C149.593 52.9927 149.845 52.9989 150.092 52.966C150.338 52.9371 150.576 52.8589 150.791 52.736C150.333 52.7243 149.876 52.6828 149.423 52.6118ZM153.124 55.8962C153.215 55.9138 153.31 55.8943 153.387 55.8421C153.463 55.79 153.517 55.7093 153.534 55.6179L153.731 54.6059C153.743 54.5595 153.745 54.5113 153.737 54.4641C153.73 54.4169 153.713 54.3718 153.687 54.3314C153.661 54.2911 153.628 54.2565 153.588 54.2296C153.549 54.2027 153.505 54.1842 153.458 54.1751C153.411 54.166 153.363 54.1666 153.316 54.1768C153.27 54.187 153.226 54.2066 153.187 54.2345C153.148 54.2623 153.116 54.2978 153.091 54.3387C153.067 54.3796 153.05 54.4251 153.044 54.4725L152.849 55.4822C152.831 55.5737 152.85 55.6687 152.901 55.7463C152.953 55.824 153.033 55.8779 153.124 55.8962Z" fill="#222222"/>
<path id="Vector_106" d="M161.924 51.0386C160.858 48.9387 159.692 49.0974 159.692 49.0974C159.289 48.1889 158.775 47.2321 157.595 46.5973C156.415 45.9625 156.22 46.618 155.193 46.434C154.167 46.25 153.738 45.6313 152.702 46.0246C152.182 46.2224 151.692 47.0688 150.133 48.481C148.3 50.1439 149.611 52.1472 149.611 52.1472C150.106 51.1002 150.722 50.1145 151.444 49.2101C151.41 49.6701 151.776 50.0082 152.182 50.2336C152.688 50.5031 153.274 50.5791 153.832 50.4475C156.543 49.8495 158.095 50.4222 158.095 50.4222C157.011 52.7889 158.033 51.9287 158.92 54.0079C159.806 56.0871 157.93 59.9488 157.146 60.5491C156.362 61.1494 154.804 59.2335 154.453 58.8356C154.103 58.4377 153.585 57.9156 151.54 57.865C149.496 57.8144 148.738 58.6838 148.738 58.6838C148.509 61.3058 149.748 62.7939 150.619 63.5C151.063 63.8547 151.599 64.0735 152.164 64.1302C155.143 64.443 157.054 63.0055 158.074 61.5519C159.181 59.9787 160.524 55.2361 160.524 55.2361C162.561 56.715 162.396 51.9701 161.924 51.0386ZM153.271 61.5519C152.198 61.5059 152.265 60.7561 151.827 60.7078C151.389 60.6595 151.259 61.5473 150.656 61.4806C150.165 61.4277 149.884 61.2253 149.808 60.6733C149.772 60.3972 149.798 60.1165 149.886 59.8522C150.058 59.3071 150.207 58.578 151.318 58.3802C152.482 58.1755 153.282 58.6102 153.562 58.8793C154.277 59.5716 154.343 61.5979 153.271 61.5519Z" fill="#222222"/>
</g>
</g>
<g id="Doctor/Torso">
<path id="Vector_107" d="M128.837 91.79L126.472 91.8843C126.472 91.8843 125.956 91.4749 125.257 90.9413C123.94 89.9293 121.964 88.4734 121.558 88.4987C120.937 88.5378 119.856 88.9909 122.544 91.0655L122.521 91.1C122.432 91.169 122.017 91.4427 120.956 91.5071C119.732 91.5807 115.621 91.8636 114.952 92.1143C114.59 92.25 113.776 93.3448 119.874 93.1309C119.922 93.1282 119.97 93.1361 120.014 93.1539C120.059 93.1718 120.099 93.1992 120.132 93.2343C120.164 93.2694 120.189 93.3113 120.204 93.357C120.219 93.4027 120.224 93.4511 120.218 93.4989C120.2 93.6139 120.117 93.7128 119.895 93.7289C119.342 93.7611 114.576 93.8439 114.658 94.7064C114.718 95.3366 115.965 95.1825 120.147 94.9962C120.147 94.9962 120.809 95.1687 120.28 95.5114C120.099 95.6287 115.373 96.0726 115.142 96.4498C114.91 96.827 114.301 97.4388 121.389 96.6614C121.389 96.6614 121.515 96.7327 120.898 97.0938C120.243 97.4779 118.304 97.9954 117.809 98.7199C117.314 99.4444 118.751 98.8717 122.393 97.6435L127.498 96.9926C130.872 97.4687 143.503 98.552 146.643 95.2791C149.574 92.2017 151.167 81.2468 151.167 81.2468L143.976 81.0053L140.967 89.1818C140.867 89.4494 140.698 89.6852 140.477 89.8645C140.255 90.0438 139.99 90.1599 139.708 90.2007L128.406 91.8383" fill="#FFCABC"/>
<path id="Vector_108" d="M128.711 91.7946V96.896" stroke="#100B2F" stroke-width="6" stroke-linecap="round" stroke-linejoin="round"/>
<path id="Vector_109" d="M142.735 81.5297L145.485 72.8932C146.017 71.1683 147.055 69.645 148.465 68.5232C148.824 68.2365 149.213 67.9883 149.624 67.7826C149.66 67.7649 149.7 67.7569 149.74 67.7594C149.78 67.762 149.818 67.7749 149.851 67.797C149.885 67.8191 149.912 67.8495 149.93 67.8853C149.948 67.9211 149.956 67.961 149.954 68.0011L149.516 81.5251L142.735 81.5297Z" fill="#EF613B"/>
<path id="Vector_110" d="M142.735 81.5297L145.485 72.8932C146.017 71.1683 147.055 69.645 148.465 68.5232C148.824 68.2365 149.213 67.9883 149.624 67.7826C149.66 67.7649 149.7 67.7569 149.74 67.7594C149.78 67.762 149.818 67.7749 149.851 67.797C149.885 67.8191 149.912 67.8495 149.93 67.8853C149.948 67.9211 149.956 67.961 149.954 68.0011L149.516 81.5251L142.735 81.5297Z" fill="#4225EF"/>
<path id="Vector_111" d="M149.844 70.8715L149.5 81.5297H145.896C145.811 78.9399 146.003 76.081 147.5 72.9001C148.527 70.7335 149.12 70.6254 149.37 70.6369C149.551 70.6551 149.72 70.7384 149.844 70.8715Z" fill="#331AC4"/>
<path id="Vector_112" d="M182.952 112.426C182.846 112.011 182.79 111.586 182.785 111.158C182.732 107.577 182.391 93.9083 180.337 87.6983C179.682 85.7157 173.675 75.6164 173.675 75.6164L165.098 77.438L172.66 90.0374C172.994 90.597 173.24 91.2053 173.389 91.8406L177.997 111.538C178.061 111.808 178.064 112.09 178.004 112.361C177.945 112.633 177.826 112.887 177.656 113.106C176.687 114.355 174.768 116.892 174.798 117.359C174.84 117.982 175.3 119.063 177.351 116.352C177.351 116.352 177.7 116.715 177.782 117.943C177.865 119.172 178.041 123.887 178.426 123.965C178.811 124.043 179.684 125.168 179.395 118.753C179.395 118.753 179.964 118.438 180 118.983C180.037 119.528 180.353 124.8 181.009 124.234C181.664 123.668 181.467 122.916 181.265 118.714C181.265 118.714 181.692 118.371 181.774 118.576C181.857 118.781 182.333 123.76 182.734 123.739C183.135 123.719 183.727 124.577 182.906 117.47C182.906 117.47 183.135 117.35 183.397 118.063C183.658 118.776 184.657 121.906 184.98 121.053C185.303 120.2 185.127 120.105 183.878 116.467L182.961 112.428L182.952 112.426Z" fill="#FFCABC"/>
<path id="Vector_113" d="M165.096 77.4334L167.122 77.0033C168.632 78.9284 170.513 80.3291 172.961 83.9263C174.867 86.7277 176.103 89.5797 176.653 90.7849C178.156 94.09 177.851 95.7736 178.853 103.922C179.453 108.817 179.755 111.264 180.072 112.543C180.072 112.543 182.336 121.711 181.231 123.981C181.18 124.086 181.101 124.175 181.002 124.238C180.347 124.804 180.03 119.539 179.994 118.987C179.957 118.435 179.389 118.757 179.389 118.757C179.678 125.172 178.807 124.047 178.419 123.969C178.032 123.891 177.858 119.194 177.775 117.955C177.693 116.727 177.345 116.363 177.345 116.363C175.282 119.075 174.824 117.994 174.792 117.371C174.762 116.911 176.68 114.367 177.649 113.118C177.82 112.899 177.939 112.644 177.998 112.373C178.057 112.101 178.055 111.82 177.991 111.549L173.382 91.836C173.234 91.2007 172.988 90.5924 172.654 90.0328L165.096 77.4334Z" fill="#D17C65"/>
<path id="Vector_114" d="M143.198 80.0692H149.276V80.9892H142.907L143.198 80.0692Z" fill="white"/>
<path id="Vector_115" d="M145.876 80.06H149.276V80.98H145.873C145.869 80.6879 145.869 80.3797 145.876 80.06Z" fill="#F3E6E3"/>
<path id="Vector_116" d="M143.87 77.9532H149.164V78.8732H143.579L143.87 77.9532Z" fill="white"/>
<path id="Vector_117" d="M146.024 77.9532H149.164V78.8732H145.933C145.956 78.5696 145.985 78.2637 146.024 77.9532Z" fill="#F3E6E3"/>
<path id="Vector_118" d="M149.874 97.2042H167.637C167.915 97.2044 168.19 97.1443 168.442 97.0279C168.695 96.9115 168.92 96.7417 169.101 96.53C169.283 96.3184 169.416 96.0699 169.493 95.8015C169.57 95.5332 169.588 95.2514 169.546 94.9755L165.354 67.2122L161.034 66.26C159.492 69.5444 154.744 69.6939 153.227 66.398L149.95 67.64C149.384 67.7781 148.884 68.1102 148.537 68.5789C148.19 69.0477 148.017 69.6235 148.047 70.2068L148.08 71.2418L148.898 96.2566C148.9 96.3233 148.918 96.6591 149.874 97.2042Z" fill="#4225EF"/>
<path id="Vector_119" d="M176.948 81.1157C177.049 81.0456 177.135 80.9561 177.201 80.8524C177.267 80.7487 177.312 80.6329 177.333 80.5116C177.355 80.3904 177.352 80.266 177.325 80.1459C177.298 80.0257 177.248 79.9121 177.177 79.8116L170.712 70.8048C170.712 70.8048 168.421 67.8424 165.363 67.2122L163.617 76.3524L169.805 85.7709C169.828 85.8057 169.857 85.8356 169.892 85.8588C169.926 85.882 169.965 85.898 170.006 85.9059C170.046 85.9139 170.088 85.9135 170.129 85.9049C170.17 85.8964 170.208 85.8797 170.242 85.856L176.948 81.1157Z" fill="#4225EF"/>
<path id="Vector_120" d="M169.784 85.7709L163.649 76.4168L163.663 76.3271C163.689 76.1563 163.759 75.9951 163.865 75.8595C163.972 75.7238 164.112 75.6183 164.271 75.5534C164.431 75.4884 164.604 75.4662 164.775 75.489C164.946 75.5117 165.107 75.5786 165.244 75.6831C166.415 76.5755 167.912 78.1142 169.282 79.5241C170.712 80.9984 172.248 82.5785 172.96 83.9263L170.21 85.856C170.142 85.9003 170.06 85.9162 169.98 85.9003C169.901 85.8844 169.83 85.838 169.784 85.7709Z" fill="#331AC4"/>
<path id="Vector_121" d="M176.552 78.9464L168.863 84.3942L169.392 85.1458L177.081 79.698L176.552 78.9464Z" fill="white"/>
<path id="Vector_122" d="M171.827 82.2887C172.028 82.5348 172.216 82.7786 172.388 83.0178L169.391 85.1407L169.127 84.7658L168.875 84.3817L171.827 82.2887Z" fill="#F3E6E3"/>
<path id="Vector_123" d="M175.294 77.1523L167.501 82.2744L168.003 83.0441L175.796 77.9219L175.294 77.1523Z" fill="white"/>
<path id="Vector_124" d="M170.861 81.1824L168.006 83.05L167.765 82.6797L167.504 82.2795L170.224 80.4924C170.44 80.727 170.646 80.9547 170.861 81.1824Z" fill="#F3E6E3"/>
<path id="Vector_125" d="M148.898 96.2566C150.244 95.7782 153.748 95.7621 159.053 94.0831C164.03 92.5099 165.034 91.2311 165.488 90.3157C166.553 88.1652 165.857 85.4351 165.57 84.3127C165.055 82.2979 164.91 81.5297 163.879 78.9721C163.533 78.1165 163.421 76.0396 163.879 75.8671C164.413 75.6716 165.923 77.9831 167.468 81.1962L169.546 94.9755C169.588 95.2514 169.57 95.5332 169.494 95.8015C169.417 96.0699 169.283 96.3184 169.102 96.53C168.921 96.7417 168.696 96.9115 168.443 97.0279C168.19 97.1443 167.916 97.2044 167.637 97.2042H149.875C149.621 97.2043 149.378 97.1055 149.195 96.9287C149.013 96.7519 148.907 96.5108 148.898 96.2566Z" fill="#331AC4"/>
<path id="Vector_126" d="M122.471 91.0816C122.471 91.0816 123.461 94.803 126.843 93.7772" stroke="#100B2F" stroke-width="2" stroke-miterlimit="10"/>
<path id="Vector_127" d="M128.837 91.8015L126.472 91.8958C126.472 91.8958 125.956 91.4864 125.257 90.9528C123.94 89.9408 121.964 88.4872 121.558 88.5102C120.937 88.5493 119.856 89.0024 122.544 91.077L122.521 91.1C122.432 91.169 122.017 91.4427 120.956 91.5071C119.732 91.5807 115.621 91.8636 114.952 92.1143C114.59 92.25 113.776 93.3448 119.874 93.1309C119.922 93.1282 119.97 93.1361 120.014 93.1539C120.059 93.1718 120.099 93.1992 120.132 93.2343C120.164 93.2694 120.189 93.3113 120.204 93.357C120.219 93.4027 120.224 93.4512 120.218 93.4989C120.2 93.6139 120.117 93.7128 119.895 93.7289C119.342 93.7611 114.576 93.8439 114.658 94.7064C114.718 95.3366 115.965 95.1825 120.147 94.9985C120.147 94.9985 120.809 95.1687 120.28 95.5114C120.099 95.6287 115.373 96.0726 115.142 96.4498C114.91 96.827 114.301 97.4388 121.389 96.6614C121.389 96.6614 121.515 96.7327 120.898 97.0938C120.243 97.4802 118.304 97.9954 117.809 98.7199C117.314 99.4444 118.751 98.8717 122.393 97.6435L127.498 96.9926C130.872 97.4687 143.503 98.552 146.643 95.2814C149.574 92.2109 151.167 81.256 151.167 81.256L143.976 81.0122L140.967 89.1887C140.867 89.4563 140.698 89.6921 140.477 89.8714C140.255 90.0507 139.99 90.1668 139.708 90.2076L128.406 91.8452" fill="#FFCABC"/>
<path id="Vector_128" d="M122.471 91.1C122.471 91.1 123.461 94.8191 126.843 93.7933" stroke="#100B2F" stroke-width="2" stroke-miterlimit="10"/>
<path id="Vector_129" d="M182.104 112.157C182.556 112.044 182.959 111.784 183.249 111.418C183.539 111.052 183.7 110.6 183.708 110.133C183.768 105.811 183.823 92.7905 182.363 88.5792C180.603 83.5008 172.704 70.2482 169.071 67.6492C165.439 65.0502 160.702 65.0571 160.702 65.0571L162.792 128.537H177.956L176.952 111.425C178.507 112.338 180.358 112.601 182.104 112.157Z" fill="#F3E6E3"/>
<path id="Vector_130" d="M160.685 65.0617L162.775 128.542H177.957L177.221 115.998L177.061 113.254L176.953 111.43C177.351 111.665 177.773 111.858 178.211 112.005L182.664 111.467L182.762 111.862C183.048 111.672 183.282 111.415 183.445 111.113C183.609 110.811 183.696 110.474 183.7 110.13C183.764 105.809 183.814 92.7905 182.355 88.5769C180.595 83.4985 172.697 70.2482 169.063 67.6469C165.428 65.0456 160.685 65.0617 160.685 65.0617Z" fill="#F3E6E3"/>
<path id="Vector_131" d="M174.297 128.544C173.609 127.721 173.034 127.479 172.844 126.336C172.241 122.693 173.99 117.504 174.666 113.971C175.342 110.438 173.19 104.67 173.19 104.67L176.437 108.626L177.04 111.423H176.953L177.957 128.535L174.297 128.544Z" fill="#ABAFCA"/>
<path id="Vector_132" d="M176.953 111.432C176.953 111.432 173.463 92.4225 173.256 91.7256C173.05 91.0287 167.378 82.1806 167.378 82.1806L163.482 76.242C163.482 76.242 162.765 82.2519 164.972 85.8031C167.179 89.3543 169.933 90.8976 171.524 98.9568C173.114 107.016 176.953 111.432 176.953 111.432Z" fill="#ABAFCA"/>
<path id="Vector_133" d="M153.097 65.064V128.544H143.453L146.203 97.0961C146.203 97.0961 145.057 98.5497 143.453 98.3933C142.115 98.2645 132.66 97.839 129.563 97.7033C129.3 97.6909 129.051 97.5769 128.868 97.3849C128.686 97.193 128.585 96.938 128.585 96.6729V91.3024C128.585 91.0483 128.678 90.803 128.847 90.614C129.017 90.425 129.25 90.3056 129.502 90.2789C132.022 90.0167 138.877 89.2531 139.952 88.6344C141.272 87.88 140.914 66.582 153.097 65.064Z" fill="#F3E6E3"/>
<path id="Vector_134" d="M147.422 78.3051C148.455 79.8765 149.016 81.7128 149.038 83.5951C149.026 86.638 147.963 97.0202 147.917 100.523C147.871 104.026 147.097 111.747 147.732 117.987C148.169 122.297 149.171 126.237 150.346 128.535H143.453L146.203 97.0869C146.203 97.0869 147.8 82.7119 147.422 78.3051Z" fill="#ABAFCA"/>
<path id="Vector_135" d="M128.585 91.6842V96.7856" stroke="#100B2F" stroke-width="6" stroke-linecap="round" stroke-linejoin="round"/>
<path id="Vector_136" d="M166.764 128.542H189.882V117.78C189.882 117.333 189.705 116.904 189.39 116.588C189.075 116.272 188.648 116.094 188.202 116.094H168.443C167.998 116.094 167.571 116.272 167.256 116.588C166.941 116.904 166.764 117.333 166.764 117.78V128.542Z" fill="#22137C"/>
<path id="Vector_137" d="M189.882 128.542V126.044L187.368 128.542H189.882Z" fill="#CC4B29"/>
<path id="Vector_138" d="M166.764 128.542V126.044L169.278 128.542H166.764Z" fill="#CC4B29"/>
<path id="Vector_139" d="M189.882 117.78V118.394H166.764V117.78C166.764 117.333 166.941 116.904 167.256 116.588C167.571 116.272 167.998 116.094 168.443 116.094H188.202C188.648 116.094 189.075 116.272 189.39 116.588C189.705 116.904 189.882 117.333 189.882 117.78Z" fill="#CC4B29"/>
<path id="Vector_140" d="M174.65 116.982C174.691 117.605 175.149 118.686 177.2 115.977L177.221 115.997C177.29 116.087 177.565 116.501 177.636 117.566C177.716 118.792 178.023 122.918 178.28 123.587C178.417 123.951 179.513 124.76 179.258 118.64C179.256 118.592 179.264 118.544 179.281 118.499C179.299 118.454 179.326 118.414 179.361 118.381C179.396 118.348 179.438 118.323 179.483 118.308C179.529 118.293 179.577 118.287 179.625 118.293C179.74 118.311 179.838 118.394 179.854 118.615C179.889 119.169 180.001 123.955 180.863 123.866C181.488 123.801 181.321 122.55 181.117 118.346C181.117 118.346 181.282 117.679 181.626 118.208C181.747 118.392 182.217 123.13 182.595 123.36C182.973 123.59 183.585 124.197 182.767 117.088C182.767 117.088 182.836 116.961 183.2 117.58C183.587 118.235 184.117 120.177 184.841 120.669C185.565 121.161 184.985 119.721 183.739 116.085L182.822 112.044L182.774 111.853C182.574 111.986 182.353 112.085 182.121 112.145C181.555 112.291 180.972 112.363 180.388 112.359C179.652 112.355 178.92 112.232 178.223 111.995L177.993 112.021C177.993 112.021 177.585 112.541 177.061 113.244C176.061 114.583 174.622 116.575 174.65 116.982Z" fill="#FFCABC"/>
<path id="Vector_141" d="M177.076 116.14H174.961L173.712 117.564L175.619 118.116L176.961 117.688L177.076 116.14Z" fill="#CC4B29"/>
<path id="Vector_142" d="M152.313 65.4182C152.313 65.4182 150.938 67.4882 151.114 74.4595" stroke="#100B2F" stroke-width="5" stroke-linecap="round" stroke-linejoin="round"/>
<path id="Vector_143" d="M150.988 84.3219C150.919 84.2299 150.848 84.131 150.777 84.0298C150.56 84.2828 150.353 84.5082 150.159 84.7037C149.143 85.7272 148.348 86.1136 147.725 85.8813C147.581 85.8307 147.464 85.7249 147.398 85.5873C147.332 85.4497 147.324 85.2916 147.374 85.1476C147.425 85.0036 147.53 84.8857 147.667 84.8197C147.804 84.7537 147.962 84.7451 148.105 84.7957C148.447 84.7957 149.233 84.0758 150.101 83.0155C148.536 80.5039 146.831 76.6951 147.773 74.9655C147.966 74.609 148.461 74.0248 149.551 74.1007L152.897 74.3307C153.676 74.3836 154.24 74.7769 154.485 75.4347C155.173 77.2471 153.294 80.7385 151.527 83.0914C152.347 84.292 153.119 85.1384 153.488 85.1775C153.637 85.147 153.792 85.177 153.918 85.2609C154.045 85.3448 154.133 85.4757 154.163 85.6249C154.194 85.774 154.164 85.9291 154.08 86.0562C153.997 86.1832 153.866 86.2717 153.718 86.3022C153.643 86.3216 153.566 86.3316 153.488 86.3321C153.083 86.3275 152.313 86.0768 150.988 84.3219ZM148.658 76.0166C148.55 77.5645 149.652 80.0485 150.855 82.038C152.148 80.2578 153.397 77.99 153.482 76.4306C153.525 75.5934 153.179 75.4968 152.822 75.4738L149.473 75.2438H149.338C148.939 75.23 148.701 75.391 148.658 76.0166Z" fill="#ABAFCA"/>
<path id="Vector_144" d="M148.685 85.0514C148.717 84.5952 148.426 84.2032 148.036 84.1758C147.646 84.1485 147.304 84.4961 147.272 84.9523C147.241 85.4084 147.531 85.8004 147.921 85.8278C148.311 85.8552 148.653 85.5076 148.685 85.0514Z" fill="#100B2F"/>
<path id="Vector_145" d="M154.734 85.8326C154.765 85.3764 154.474 84.9845 154.084 84.9574C153.694 84.9302 153.352 85.278 153.321 85.7342C153.289 86.1904 153.58 86.5822 153.97 86.6094C154.36 86.6366 154.702 86.2888 154.734 85.8326Z" fill="#100B2F"/>
<path id="Vector_146" d="M161.544 65.11C161.544 65.11 164.399 70.3379 161.661 81.8241" stroke="#100B2F" stroke-width="5" stroke-linecap="round" stroke-linejoin="round"/>
<path id="Vector_147" d="M161.535 84.0298C162.669 84.0298 163.588 83.1071 163.588 81.969C163.588 80.8309 162.669 79.9082 161.535 79.9082C160.401 79.9082 159.481 80.8309 159.481 81.969C159.481 83.1071 160.401 84.0298 161.535 84.0298Z" fill="#100B2F"/>
<path id="Vector_148" d="M161.535 83.28C162.256 83.28 162.841 82.693 162.841 81.969C162.841 81.245 162.256 80.658 161.535 80.658C160.813 80.658 160.229 81.245 160.229 81.969C160.229 82.693 160.813 83.28 161.535 83.28Z" fill="#ABAFCA"/>
<path id="Vector_149" d="M161.535 82.5762C161.869 82.5762 162.14 82.3043 162.14 81.969C162.14 81.6337 161.869 81.3618 161.535 81.3618C161.201 81.3618 160.93 81.6337 160.93 81.969C160.93 82.3043 161.201 82.5762 161.535 82.5762Z" fill="#100B2F"/>
</g>
</g>
</svg>
